<?xml version="1.0" encoding="UTF-8" standalone="no"?>
<!DOCTYPE svg PUBLIC "-//W3C//DTD SVG 20010904//EN" "http://www.w3.org/TR/2001/REC-SVG-20010904/DTD/svg10.dtd">
<svg version="1.0" xmlns="http://www.w3.org/2000/svg" width="10827.000000pt" height="8070.000000pt" viewBox="0 0 10827.000000 8070.000000" preserveAspectRatio="xMidYMid meet">
<metadata>
Created by potrace 1.16, written by Peter Selinger 2001-2019
</metadata>
<g transform="translate(0.000000,8070.000000) scale(0.100000,-0.100000)" fill="#000000" stroke="none">
<path d="M56125 79779 c-229 -24 -499 -133 -649 -261 -68 -58 -80 -88 -18 -43 110 79 292 144 466 165 135 17 400 7 527 -19 335 -72 548 -185 627 -335 53 -101 25 -280 -61 -390 l-30 -39 51 28 c29 16 54 26 57 23 3 -2 -17 -202 -45 -444 -178 -1584 -277 -3048 -324 -4819 -18 -632 -23 -983 -37 -2145 -5 -459 -12 -859 -15 -888 l-7 -52 -156 -104 c-181 -121 -299 -214 -452 -356 -271 -252 -531 -630 -613 -888 -27 -87 -34 -179 -15 -213 12 -22 -17 -69 -173 -279 -165 -222 -261 -466 -319 -811 -31 -191 -32 -544 -1 -736 41 -253 98 -428 190 -586 41 -69 69 -133 87 -197 15 -52 38 -116 51 -142 13 -26 38 -91 55 -145 50 -158 101 -246 175 -305 58 -45 62 -51 57 -82 -3 -22 2 -46 16 -74 17 -32 21 -62 23 -139 1 -63 3 -78 5 -43 l4 55 39 -82 c26 -56 56 -99 96 -140 46 -47 57 -65 58 -92 1 -40 17 -49 41 -25 14 14 16 28 12 67 -5 40 -18 64 -76 140 -66 88 -121 180 -121 202 0 6 33 17 74 24 58 10 124 11 291 5 119 -5 267 -6 328 -2 l112 7 104 -57 c124 -68 222 -155 273 -243 37 -62 38 -65 35 -153 -2 -50 -6 -97 -11 -104 -11 -18 -26 -5 -26 25 0 15 -12 36 -31 54 -27 25 -33 27 -45 14 -8 -7 -36 -16 -62 -19 -26 -4 -141 -37 -257 -75 -223 -74 -398 -112 -418 -92 -6 6 -30 11 -54 11 -50 0 -49 -2 -58 103 -5 57 -11 80 -22 84 -24 9 -46 -9 -71 -58 -19 -37 -22 -53 -16 -99 9 -70 19 -99 50 -131 l25 -26 -83 -49 c-46 -27 -105 -61 -133 -76 -30 -17 -40 -26 -25 -23 14 3 69 13 123 24 l98 18 -48 -49 c-26 -27 -63 -58 -81 -70 -18 -11 -31 -22 -29 -25 3 -2 37 5 76 17 39 12 76 20 82 18 6 -2 -26 -38 -71 -81 -45 -42 -79 -77 -76 -77 24 0 107 52 154 96 39 38 58 50 64 41 10 -15 9 -6 13 -182 10 -467 178 -924 495 -1350 l30 -40 -14 -135 c-27 -240 -69 -862 -101 -1480 -3 -58 -14 -262 -25 -455 -17 -314 -31 -585 -60 -1180 -5 -104 -12 -286 -16 -402 -4 -117 -11 -210 -15 -207 -5 3 -9 -28 -9 -68 0 -40 -4 -80 -10 -88 -16 -25 -659 -142 -883 -160 -215 -18 -459 9 -617 69 -89 33 -163 82 -180 118 -19 40 -30 42 -30 4 0 -67 140 -160 310 -206 140 -37 261 -48 453 -42 242 7 452 46 768 142 81 25 155 45 164 45 16 0 17 -8 10 -76 -5 -56 -4 -75 4 -69 8 4 10 -1 7 -17 -3 -12 -7 -77 -11 -143 -8 -171 -48 -607 -105 -1145 -84 -795 -92 -902 -94 -1247 0 -172 -3 -309 -6 -305 -3 4 -39 50 -78 103 -189 251 -411 440 -661 565 -292 144 -570 179 -796 98 -38 -14 -106 -32 -150 -39 -118 -21 -415 -84 -453 -96 -27 -9 -38 -7 -67 11 -19 12 -39 29 -44 38 -8 15 -11 13 -21 -13 -15 -37 -16 -63 -7 -92 7 -19 2 -23 -45 -36 -29 -8 -104 -29 -167 -47 -203 -57 -370 -128 -494 -212 -85 -57 -199 -173 -226 -230 -48 -100 -19 -222 71 -303 28 -25 56 -45 64 -45 27 0 13 -15 -47 -50 -82 -47 -203 -175 -240 -254 -16 -35 -34 -91 -41 -126 -20 -116 25 -280 97 -350 l33 -32 -34 -50 c-50 -74 -68 -145 -68 -263 0 -118 20 -201 89 -357 81 -185 304 -568 444 -764 l57 -80 -58 -63 c-84 -92 -113 -157 -113 -251 1 -72 13 -113 47 -163 11 -16 10 -21 -12 -35 -234 -155 -250 -437 -35 -648 l74 -73 -54 -25 c-236 -108 -308 -431 -144 -648 45 -61 47 -68 16 -68 -79 0 -188 -75 -226 -155 -31 -67 -45 -183 -31 -264 36 -206 192 -358 668 -646 100 -60 113 -71 108 -91 -3 -12 -19 -105 -35 -206 -118 -730 -201 -1599 -396 -4168 -20 -256 -53 -685 -75 -955 -22 -269 -65 -807 -95 -1195 -109 -1379 -322 -3775 -480 -5390 -104 -1066 -309 -3290 -375 -4060 -73 -864 -193 -2604 -235 -3420 -26 -508 -28 -525 -75 -975 -71 -671 -182 -1911 -219 -2458 -10 -147 -20 -270 -23 -272 -2 -2 -53 1 -113 7 -346 33 -1092 -41 -1745 -172 l-245 -50 -185 10 c-372 19 -1578 9 -1910 -15 -62 -5 -72 -3 -59 7 24 20 -254 12 -476 -13 -748 -83 -1751 -479 -2265 -893 -170 -137 -316 -313 -371 -446 -32 -78 -33 -215 -2 -282 20 -43 21 -54 11 -115 -15 -96 -4 -354 21 -498 60 -343 209 -728 380 -985 111 -167 224 -286 439 -463 107 -87 191 -154 188 -148 -4 5 -37 51 -75 101 -38 51 -93 135 -122 188 -29 54 -76 138 -105 187 -79 136 -265 512 -332 670 -124 292 -210 588 -257 879 -31 190 -35 200 -80 193 -30 -5 -33 -3 -39 25 -34 173 96 365 374 550 150 99 481 260 795 384 148 58 505 185 794 281 289 97 568 191 620 210 l96 35 170 -11 c344 -23 579 -33 950 -39 636 -12 923 5 1210 68 81 18 229 38 395 55 146 14 380 39 520 55 140 16 377 41 525 55 371 35 693 72 799 90 48 9 90 15 92 13 1 -2 -1 -60 -6 -128 -5 -69 -12 -247 -16 -397 l-7 -272 -25 -6 c-14 -3 -79 -6 -145 -6 -229 1 -493 -33 -659 -85 -46 -15 -127 -48 -180 -75 -61 -31 -111 -49 -132 -49 -73 0 -141 -36 -213 -114 -38 -40 -99 -100 -138 -133 -97 -83 -128 -130 -133 -203 -6 -79 20 -123 117 -201 286 -228 747 -363 1381 -404 52 -3 167 -13 255 -21 88 -7 230 -18 315 -24 85 -5 214 -17 285 -26 100 -12 187 -15 380 -11 255 5 330 13 562 61 65 14 179 32 253 41 74 9 150 19 168 22 26 4 32 2 33 -13 0 -17 1 -17 9 2 7 17 28 24 141 43 169 29 625 142 874 217 105 31 240 69 300 84 236 61 548 213 712 347 89 73 133 168 113 243 -45 166 -319 279 -815 336 -239 28 -1181 22 -1110 -7 11 -4 34 -8 50 -9 27 -1 28 -2 10 -12 -11 -6 -44 -34 -74 -62 l-53 -51 5 46 c108 849 237 2204 322 3389 94 1321 174 2696 270 4675 57 1163 103 1973 130 2285 30 336 12 258 -45 -195 -125 -1008 -177 -1691 -385 -5060 -53 -858 -116 -1760 -170 -2435 -19 -239 -53 -678 -75 -975 -22 -297 -49 -650 -60 -785 -11 -135 -31 -420 -45 -635 -14 -214 -27 -399 -30 -410 -5 -17 -35 -348 -35 -382 0 -6 -31 -17 -72 -24 -55 -9 -81 -19 -103 -39 -16 -16 -59 -43 -95 -61 l-65 -34 -257 -3 c-209 -3 -292 0 -440 17 -101 11 -255 25 -343 31 -193 13 -287 25 -380 50 -92 24 -133 29 -302 38 -78 5 -144 10 -147 13 -2 2 1 26 8 53 9 33 23 57 44 75 l31 26 -6 83 c-3 48 -1 127 7 183 l12 99 62 0 c66 0 86 11 86 45 0 33 -20 45 -77 45 -45 0 -53 3 -53 18 0 10 13 119 30 243 23 176 60 510 60 551 0 4 28 10 63 15 l62 7 -59 8 c-32 4 -60 9 -61 10 -8 11 90 876 245 2163 125 1039 183 1580 235 2185 31 365 30 419 -1 150 -55 -467 -158 -1278 -224 -1760 -67 -489 -86 -617 -89 -578 -1 18 67 870 94 1173 50 568 120 1605 141 2100 3 66 25 334 50 595 24 261 89 959 144 1550 110 1178 144 1533 255 2660 63 642 263 2721 325 3390 61 651 227 2583 290 3370 49 618 143 1964 195 2800 19 311 44 700 55 865 11 165 29 455 40 645 27 447 66 1026 86 1260 18 222 52 542 58 548 3 2 35 -14 73 -36 270 -156 561 -293 795 -372 l128 -43 167 -134 c93 -73 266 -222 386 -331 208 -188 218 -198 212 -227 -77 -388 -223 -1651 -343 -2960 l-17 -190 -65 -11 c-108 -20 -326 -27 -440 -14 -214 23 -393 76 -525 155 -66 40 -65 40 -65 20 0 -9 18 -35 41 -60 123 -133 351 -215 602 -215 137 0 236 18 357 65 75 29 85 30 88 15 2 -9 -8 -158 -22 -331 -89 -1096 -209 -2867 -286 -4224 -30 -528 -96 -1586 -130 -2085 -16 -239 -43 -642 -60 -895 -141 -2139 -270 -3640 -461 -5349 -27 -247 -49 -456 -47 -465 8 -39 310 2380 407 3259 63 567 194 1930 260 2700 53 611 180 2350 260 3565 22 325 75 1118 117 1762 43 645 81 1167 85 1160 3 -6 9 -66 13 -132 18 -322 80 -876 142 -1265 166 -1051 464 -2130 771 -2785 175 -374 253 -510 465 -811 43 -62 124 -197 181 -300 269 -492 696 -1171 946 -1504 392 -522 456 -597 700 -830 91 -86 200 -202 247 -262 108 -137 203 -224 372 -339 171 -118 289 -231 444 -423 67 -83 162 -189 212 -236 49 -47 190 -186 313 -310 185 -186 237 -245 299 -338 100 -149 202 -368 140 -301 -201 220 -299 324 -491 519 -126 130 -316 326 -422 437 -191 199 -250 253 -684 625 -431 368 -945 823 -1083 958 -204 199 -484 518 -940 1069 -631 763 -979 1370 -1328 2321 -62 170 -256 775 -313 980 -24 85 -44 151 -44 145 -2 -47 112 -643 185 -970 185 -825 488 -1544 926 -2192 120 -177 277 -388 559 -748 129 -165 289 -370 354 -455 161 -208 337 -419 477 -570 217 -235 663 -665 943 -909 154 -134 289 -252 299 -262 20 -18 19 -20 -13 -141 -68 -250 -261 -817 -371 -1093 -102 -254 -286 -651 -413 -890 -365 -689 -854 -1427 -1505 -2275 -330 -428 -457 -578 -725 -849 l-192 -195 145 124 c186 159 689 662 851 850 232 270 567 693 740 935 486 681 816 1263 1094 1929 184 442 342 1014 401 1449 l17 127 26 -22 c81 -70 149 -142 292 -305 l160 -182 -20 -118 c-38 -222 -92 -628 -167 -1243 -89 -735 -175 -1403 -249 -1929 -30 -212 -68 -492 -85 -621 -41 -316 -94 -689 -135 -950 -19 -118 -52 -352 -75 -520 -116 -865 -222 -1502 -336 -2019 -36 -161 -64 -295 -62 -296 4 -4 265 963 325 1202 52 210 207 887 267 1176 79 372 234 1344 291 1812 105 880 202 1965 276 3090 11 182 24 333 28 337 10 12 612 -626 739 -783 l23 -28 -40 -193 c-128 -621 -324 -2016 -436 -3108 -173 -1691 -245 -3035 -215 -4035 6 -225 15 -455 19 -510 l6 -100 8 85 c4 47 19 175 32 285 58 485 95 809 104 920 6 66 24 271 41 455 17 184 50 594 75 910 24 316 60 780 80 1030 19 250 46 581 60 735 13 154 43 496 65 760 132 1584 210 2477 230 2625 5 41 10 82 10 90 0 8 36 -21 80 -65 l80 -80 0 -245 c0 -249 25 -1330 35 -1540 3 -63 12 -329 20 -590 8 -261 22 -612 30 -780 8 -168 19 -460 25 -650 6 -190 15 -475 20 -635 6 -159 11 -398 11 -530 2 -238 2 -239 10 -100 4 77 15 291 24 475 8 184 21 441 27 570 16 317 16 1781 0 2205 -19 509 -72 1524 -87 1653 -2 23 -1 42 4 42 5 0 46 -35 92 -78 46 -42 156 -140 244 -216 207 -180 362 -337 451 -456 39 -52 143 -203 232 -335 306 -457 478 -638 911 -959 90 -66 245 -181 345 -255 286 -212 607 -474 765 -625 50 -48 103 -116 165 -211 158 -241 347 -455 669 -760 101 -96 168 -168 187 -201 16 -28 77 -98 135 -155 59 -57 150 -158 203 -224 155 -193 263 -286 414 -354 l65 -29 6 -303 c7 -329 28 -703 76 -1339 40 -522 45 -575 80 -885 17 -143 44 -406 61 -585 16 -179 36 -372 44 -430 34 -242 66 -587 66 -717 0 -249 -49 -1561 -90 -2398 -10 -220 -24 -506 -30 -635 -18 -399 -49 -1018 -70 -1395 -11 -198 -29 -592 -40 -875 -11 -283 -27 -666 -35 -850 -15 -332 -39 -1864 -33 -2075 l3 -110 13 180 c24 329 52 610 132 1340 97 886 215 2302 279 3365 91 1501 127 2619 137 4235 9 1342 -21 2977 -62 3461 l-6 72 78 5 c44 2 90 8 102 12 l24 8 -7 -159 c-13 -303 15 -1339 75 -2799 76 -1853 96 -2536 106 -3741 8 -975 17 -1122 28 -469 21 1206 -13 2768 -114 5210 -46 1111 -72 1946 -62 1970 2 6 31 28 65 50 78 51 112 105 169 274 40 120 42 133 48 281 l6 155 62 182 c69 204 86 279 102 438 15 146 18 157 100 395 125 359 179 567 265 1023 70 367 100 480 224 852 158 474 209 694 301 1295 28 184 93 587 145 895 121 720 153 978 170 1370 11 243 23 243 25 0 2 -263 13 -327 23 -135 4 75 23 295 42 490 78 815 72 1092 -40 1768 -68 412 -100 622 -160 1072 -69 514 -88 626 -175 1015 -76 340 -128 611 -190 985 -60 360 -72 406 -180 680 -31 80 -78 217 -104 305 -65 217 -105 317 -273 685 -247 538 -308 637 -708 1135 -218 271 -348 451 -441 607 -191 322 -250 509 -299 954 -13 126 -27 250 -30 277 -6 46 -5 47 21 47 43 0 227 29 384 60 331 66 1018 212 1195 254 248 58 377 73 847 96 168 8 171 8 243 44 42 21 98 60 132 92 33 32 78 63 106 74 66 25 112 62 152 123 60 91 99 232 111 402 7 97 -13 489 -26 514 -4 8 -11 -24 -15 -70 -17 -209 -71 -445 -133 -589 l-19 -45 -8 63 -7 62 -21 -27 c-12 -14 -41 -45 -66 -67 -24 -23 -77 -82 -117 -132 -102 -129 -112 -134 -247 -145 -155 -12 -387 -29 -546 -40 -166 -11 -218 -20 -456 -75 -199 -47 -1094 -238 -1275 -273 -302 -57 -615 -76 -1145 -68 -813 13 -1130 64 -1967 317 -458 137 -1160 381 -1379 478 -63 28 -221 89 -350 136 -303 109 -502 185 -512 195 -4 4 8 45 28 91 171 400 241 822 215 1295 -11 195 -29 361 -55 499 -9 44 -13 81 -11 84 3 2 49 -3 103 -12 307 -49 540 -67 988 -73 668 -9 999 19 1910 166 170 28 311 49 313 47 6 -6 -48 -130 -74 -169 -45 -68 -1 -26 185 175 38 41 875 138 1196 138 l133 0 40 -52 c22 -29 54 -75 72 -103 17 -27 29 -41 25 -30 -35 106 -43 134 -49 159 l-7 29 133 -6 c315 -16 628 -74 978 -183 340 -106 398 -126 430 -145 24 -14 11 2 -40 50 -147 139 -309 230 -561 315 -245 82 -530 130 -846 143 l-164 6 -16 41 c-26 65 -227 457 -383 746 -78 146 -194 369 -256 495 l-114 230 0 300 c0 465 -16 668 -140 1775 -176 1573 -220 2276 -207 3320 16 1214 86 1843 253 2248 114 277 346 639 504 785 72 67 106 86 180 104 l55 13 -70 -3 c-122 -4 -238 -72 -409 -236 -474 -458 -661 -982 -770 -2166 -40 -432 -56 -834 -57 -1411 0 -902 29 -1364 176 -2844 104 -1044 121 -1312 112 -1760 -6 -271 -19 -457 -48 -695 -17 -141 -94 -565 -133 -730 -19 -83 -42 -189 -52 -237 -9 -49 -22 -94 -28 -102 -16 -20 -851 -155 -1211 -195 -372 -42 -549 -53 -980 -58 -438 -5 -667 2 -980 33 -246 24 -221 11 -264 135 -49 139 -104 239 -169 310 -68 74 -96 91 -213 130 -178 58 -351 61 -466 7 l-43 -20 -22 28 c-11 16 -58 66 -103 110 -116 114 -203 158 -329 163 -104 4 -182 -11 -246 -45 -56 -32 -57 -30 -99 119 -81 286 -116 621 -115 1112 0 551 40 1003 145 1628 59 356 182 891 299 1302 111 391 310 963 459 1322 226 545 391 843 604 1095 75 90 79 105 7 28 -66 -70 -152 -179 -217 -275 -355 -529 -981 -2194 -1227 -3265 -200 -870 -259 -1584 -180 -2190 33 -257 117 -574 210 -790 44 -104 53 -133 45 -149 -22 -40 -7 -121 22 -121 9 0 11 13 9 39 -7 70 55 111 189 125 125 13 233 -30 346 -137 97 -93 139 -151 146 -206 3 -24 13 -51 22 -60 16 -15 17 -14 10 7 -4 14 -2 22 6 22 7 0 10 -10 6 -28 -3 -15 -2 -34 4 -42 7 -13 9 -12 9 3 0 38 20 12 60 -79 23 -52 40 -98 37 -100 -3 -3 -36 3 -73 13 l-68 18 -60 120 c-147 291 -259 405 -397 405 -60 0 -103 -18 -174 -72 -52 -39 -75 -76 -74 -115 0 -25 1 -26 9 -7 21 53 131 114 206 114 78 0 134 -46 218 -177 48 -74 118 -214 112 -220 -2 -3 -35 11 -72 30 -108 54 -282 128 -496 210 -109 42 -210 83 -225 91 l-28 15 35 1 35 0 -44 20 c-24 11 -85 44 -135 72 -601 341 -799 500 -1439 1152 -185 190 -399 400 -475 467 -126 113 -140 128 -171 196 l-34 74 12 82 c23 154 19 150 56 54 87 -233 261 -455 418 -532 143 -71 279 -56 430 45 87 58 238 213 319 326 198 277 403 693 618 1254 45 118 119 312 165 430 46 118 113 294 150 390 66 172 203 509 312 765 231 541 723 1516 895 1774 72 106 27 62 -111 -109 -493 -613 -882 -1389 -1448 -2885 -237 -628 -382 -966 -533 -1247 -196 -365 -383 -585 -550 -649 -75 -28 -156 -23 -235 16 -130 63 -347 324 -425 511 l-31 75 10 192 c6 106 11 393 11 638 l0 446 26 13 c58 31 71 128 30 215 -31 66 -101 151 -167 202 -58 45 -199 128 -289 170 -136 63 -523 170 -775 213 -228 39 -570 19 -1105 -66 -425 -67 -624 -107 -775 -155 -101 -32 -185 -80 -185 -105 0 -16 2 -16 18 -1 28 25 83 35 403 72 502 59 816 108 1226 191 121 24 124 24 225 8 200 -31 637 -141 894 -225 120 -39 166 -59 220 -98 38 -26 76 -57 84 -67 8 -10 -7 -2 -35 19 -183 137 -188 108 -12 -70 81 -82 147 -157 147 -166 0 -19 -11 -22 -26 -7 -7 7 -20 5 -42 -5 -27 -14 -35 -14 -59 -2 -15 8 -72 22 -126 32 -96 17 -174 36 -211 50 -16 7 -17 5 -8 -12 21 -38 174 -103 244 -103 39 0 35 -16 -9 -38 -99 -50 -220 -59 -943 -72 -628 -11 -607 -10 -990 -51 -151 -16 -355 -35 -453 -43 -221 -17 -240 -26 -107 -46 41 -6 195 -14 342 -17 l266 -6 -20 -28 c-19 -25 -20 -38 -15 -131 5 -101 31 -227 62 -301 12 -29 12 -37 2 -37 -51 0 -192 -25 -260 -47 -97 -30 -158 -60 -250 -120 -37 -25 -70 -44 -71 -42 -14 15 -159 246 -253 403 -131 219 -248 447 -283 556 -21 64 -25 94 -25 201 0 124 1 127 35 195 26 51 43 73 67 84 18 8 33 18 33 22 0 11 -57 19 -93 13 -34 -7 -35 -6 -63 52 -27 54 -29 67 -29 173 0 107 2 119 29 175 42 85 151 192 244 239 95 48 264 88 335 80 31 -3 140 5 267 20 920 109 1271 107 1753 -10 120 -29 149 -40 159 -57 31 -61 152 -171 278 -255 47 -31 86 -57 88 -58 1 -1 -9 -36 -23 -78 l-25 -76 20 -39 c26 -52 83 -99 162 -134 l63 -28 -145 4 c-124 2 -152 6 -195 25 -47 21 -49 22 -30 3 37 -37 140 -92 220 -117 110 -35 260 -44 350 -19 151 41 221 147 166 253 -11 20 -30 61 -43 91 -29 68 -79 103 -238 167 -79 31 -122 54 -137 74 -13 15 -70 55 -128 89 -65 38 -110 71 -117 86 -6 13 -15 22 -19 19 -13 -8 -11 7 11 79 33 106 33 106 168 -25 64 -62 134 -127 155 -143 31 -23 37 -33 33 -52 -3 -13 -9 -34 -12 -48 -6 -22 -3 -25 23 -25 42 0 72 26 99 87 50 111 33 173 -103 391 l-66 104 31 212 c31 211 32 214 82 315 256 509 1107 1464 2000 2247 671 588 1496 1198 2330 1724 107 67 247 156 310 196 63 40 185 105 272 143 194 87 332 156 468 234 106 61 430 266 430 272 0 2 -51 -20 -112 -50 -153 -72 -260 -116 -253 -105 9 14 114 81 375 237 373 223 462 269 565 293 85 20 91 20 100 4 36 -62 84 -79 126 -45 22 18 24 18 63 0 23 -10 70 -21 106 -25 93 -10 99 -17 33 -38 -150 -48 -436 -186 -598 -291 -268 -172 -544 -426 -719 -660 -91 -122 -88 -124 12 -8 178 204 563 463 934 626 340 151 818 277 1260 334 33 4 60 0 90 -12 24 -9 84 -20 133 -24 88 -7 89 -7 40 -15 -305 -45 -517 -119 -720 -253 -118 -78 -142 -107 -50 -60 146 73 341 117 602 137 408 32 820 -65 999 -235 l55 -52 20 25 c41 53 12 142 -75 226 -119 117 -403 213 -636 217 l-55 1 41 14 c61 22 118 75 143 135 l23 52 96 -6 c54 -4 129 -13 167 -22 89 -19 230 -88 318 -153 37 -28 67 -48 67 -44 0 17 -368 357 -424 393 -55 35 -57 38 -37 48 17 9 28 7 58 -12 58 -35 88 -46 158 -57 153 -24 313 37 450 174 209 207 216 432 22 629 -124 126 -258 163 -374 104 -57 -30 -90 -69 -99 -119 -5 -32 -5 -32 14 9 29 60 62 78 142 77 54 0 76 -6 127 -33 77 -41 174 -137 208 -204 64 -130 -2 -265 -171 -348 -86 -43 -164 -48 -224 -17 -43 22 -46 27 -75 113 -17 50 -39 106 -49 125 -77 146 -183 217 -349 232 l-27 3 -5 95 c-9 208 -64 351 -179 466 -49 49 -92 81 -138 103 l-68 32 17 37 c36 81 93 262 113 357 27 128 38 407 21 555 -26 221 -78 402 -172 600 -162 337 -406 596 -708 751 -71 36 -99 59 -72 59 4 0 38 23 74 50 87 68 177 183 237 305 138 278 114 531 -58 633 -41 24 -57 27 -132 27 -75 0 -93 -4 -152 -32 -84 -40 -164 -113 -194 -178 -36 -76 -29 -145 14 -145 12 0 12 3 2 15 -15 19 -5 68 26 122 45 78 156 133 267 133 85 0 136 -18 184 -67 137 -137 75 -441 -144 -699 -51 -60 -168 -154 -192 -154 -6 0 -48 11 -93 24 -46 13 -115 29 -154 36 l-72 13 -6 126 c-21 397 -77 748 -171 1076 -48 169 -55 206 -91 460 -25 186 -77 455 -120 630 -78 316 -267 864 -379 1100 -63 134 -159 309 -150 275 4 -14 -20 14 -53 61 -33 48 -89 124 -124 170 -35 46 -79 109 -98 139 -159 255 -476 615 -700 794 -694 556 -1652 754 -2710 560 -509 -92 -1079 -298 -1517 -547 l-63 -36 0 29 c0 39 33 435 75 890 80 874 141 1861 185 2980 6 146 19 486 30 755 11 270 27 659 35 865 21 530 52 1302 70 1730 8 201 18 529 21 730 l6 365 29 45 c122 194 95 387 -75 555 -207 203 -565 303 -941 264z m3079 -9064 c362 -47 725 -205 1061 -460 61 -46 135 -106 165 -135 53 -49 52 -48 -37 17 -305 226 -722 426 -1048 501 -185 43 -307 55 -505 49 -195 -6 -300 -20 -477 -67 -59 -15 -110 -27 -111 -25 -6 6 207 71 289 89 204 46 460 57 663 31z m-105 -386 c354 -33 707 -198 992 -463 l74 -68 -70 54 c-249 195 -549 339 -850 409 -131 30 -448 38 -600 15 -152 -24 -294 -60 -470 -120 -11 -4 -4 2 15 12 118 66 424 145 625 162 135 11 160 11 284 -1z m96 -328 c289 -61 584 -207 898 -444 125 -95 159 -128 54 -53 -183 131 -566 335 -768 410 -177 65 -280 87 -439 94 -100 4 -134 8 -110 13 57 12 268 1 365 -20z m-2825 -317 c91 -66 200 -197 266 -319 43 -81 39 -78 -41 30 -33 44 -117 137 -186 208 -121 122 -135 151 -39 81z m2479 0 c356 -52 753 -220 1061 -450 123 -91 137 -111 28 -41 -233 152 -556 308 -798 387 -215 71 -326 92 -520 99 -104 3 -150 7 -125 12 76 12 248 9 354 -7z m-1356 -296 c-4 -7 -34 -53 -67 -102 -88 -132 -126 -260 -95 -317 9 -17 2 -29 -45 -80 -199 -215 -268 -431 -161 -504 36 -24 36 -58 -1 -93 -46 -44 -24 -137 64 -266 34 -51 51 -87 56 -121 19 -125 92 -267 189 -372 106 -113 207 -171 412 -238 132 -43 192 -58 570 -140 448 -97 733 -189 998 -321 199 -100 369 -237 463 -375 26 -38 52 -69 57 -69 17 0 -1 88 -30 148 -37 77 -165 204 -276 277 -172 111 -464 235 -746 314 -80 23 -309 75 -510 116 -201 41 -414 88 -473 105 -319 89 -496 222 -603 453 -18 39 -36 86 -40 102 -6 30 -6 30 13 10 10 -11 68 -76 128 -144 134 -154 187 -196 339 -271 198 -97 354 -146 920 -287 369 -91 655 -167 695 -184 14 -6 77 -41 140 -78 63 -38 174 -100 245 -139 72 -39 153 -88 182 -109 116 -86 229 -183 246 -211 9 -17 33 -77 53 -134 20 -56 51 -128 70 -159 45 -74 194 -216 269 -256 66 -34 170 -58 215 -48 28 6 29 4 51 -62 29 -89 37 -259 16 -320 l-15 -43 52 37 c180 129 241 260 235 508 -2 55 3 125 9 155 7 31 10 79 6 110 -5 48 -2 63 25 120 17 36 37 92 43 124 12 54 17 63 57 90 25 17 90 67 145 111 98 77 200 145 219 145 5 0 6 -7 3 -16 -4 -11 9 -7 47 14 72 41 157 64 222 60 52 -3 54 -2 59 26 10 50 8 56 -26 57 l-33 1 33 14 c28 12 32 19 32 52 0 129 -59 405 -120 557 -80 202 -221 440 -407 685 -103 136 -72 107 63 -60 295 -364 477 -786 486 -1126 2 -54 -1 -124 -5 -155 l-9 -56 64 -30 c34 -16 88 -53 120 -81 105 -97 149 -191 169 -364 31 -273 -60 -598 -247 -880 -152 -227 -513 -615 -592 -635 -31 -7 -145 13 -184 33 -43 22 -62 75 -54 149 7 80 21 125 51 169 l24 36 -24 0 c-37 0 -99 -67 -124 -134 -23 -62 -28 -166 -10 -213 14 -38 57 -83 96 -99 47 -20 129 -18 177 6 33 15 204 70 220 70 2 0 -5 -27 -15 -60 -38 -124 -33 -289 16 -454 8 -27 15 -57 15 -65 0 -9 -29 -36 -65 -60 -177 -120 -250 -273 -262 -552 -9 -205 22 -284 146 -364 60 -39 151 -129 151 -150 0 -4 -43 -57 -96 -118 -52 -62 -113 -139 -135 -172 -102 -155 -136 -437 -78 -646 30 -107 75 -184 155 -266 86 -89 171 -133 270 -141 55 -4 64 -7 58 -21 -4 -9 -8 -42 -9 -74 -2 -62 -12 -77 -52 -77 -13 0 -37 -13 -54 -28 -26 -23 -32 -36 -32 -71 0 -26 8 -53 20 -69 28 -40 118 -81 191 -88 35 -4 59 -10 55 -14 -4 -5 -89 -45 -188 -89 -194 -88 -637 -316 -935 -481 -170 -94 -205 -110 -430 -185 -1073 -362 -1431 -505 -1830 -733 -380 -217 -744 -513 -867 -705 -37 -59 -21 -54 27 8 221 287 812 616 1635 912 242 87 675 233 675 228 0 -3 -100 -72 -222 -154 -1001 -671 -1966 -1519 -2683 -2356 -385 -449 -767 -993 -953 -1360 -28 -55 -52 -95 -52 -90 0 6 5 37 10 70 15 92 68 625 85 855 30 421 39 679 39 1189 l1 525 22 22 c13 13 23 30 23 37 0 8 16 138 35 288 30 235 75 630 75 660 0 5 9 9 20 9 30 0 226 73 330 124 l95 46 -50 -6 c-96 -10 -218 -44 -303 -84 -46 -22 -85 -40 -86 -40 -1 0 9 107 21 238 70 751 112 1726 99 2307 l-7 300 36 -35 c45 -43 44 -33 -2 42 -29 46 -38 73 -41 119 -2 32 -8 59 -13 59 -5 0 -9 -9 -9 -19 0 -46 -22 -24 -85 81 -89 150 -212 405 -268 553 -89 235 -167 576 -167 726 0 69 15 160 32 192 8 16 13 14 55 -18 25 -19 50 -35 54 -35 5 0 9 -4 9 -10 0 -5 -10 -10 -22 -10 -48 0 1 -20 87 -37 108 -20 148 -20 181 1 13 9 70 36 126 60 57 24 132 60 166 80 35 20 65 36 66 36 1 0 1 -14 -2 -30 -8 -56 -252 -258 -358 -295 l-39 -14 38 -1 c80 0 233 84 359 199 36 34 72 61 78 61 10 0 11 -20 5 -82 -4 -46 -11 -175 -15 -288 -6 -160 -12 -220 -28 -275 -77 -261 47 -550 283 -661 101 -48 184 -52 280 -13 27 10 28 12 10 19 -42 15 86 35 219 33 118 -1 127 0 112 15 -34 34 -209 26 -337 -15 -50 -16 -53 -16 -118 6 -36 13 -96 39 -134 59 -119 61 -226 199 -262 337 -19 74 -20 198 -1 228 32 52 60 320 76 727 6 135 15 263 21 285 17 56 14 181 -5 240 -8 28 -11 51 -6 53 12 4 -12 70 -47 129 -91 157 -192 269 -299 331 -161 93 -304 128 -488 119 -198 -9 -317 -44 -401 -118 -19 -17 -35 -27 -35 -23 0 5 -5 2 -11 -6 -9 -12 -10 -12 -5 3 3 11 0 44 -8 75 -88 344 -98 722 -24 960 38 124 151 322 239 417 52 56 42 57 -28 4 -95 -74 -186 -182 -256 -304 -18 -31 -27 -41 -23 -25 3 14 8 60 12 103 6 70 10 81 44 120 20 23 67 87 104 142 70 104 106 137 239 218 72 45 73 45 207 56 74 7 174 21 222 33 l87 21 -21 29 c-11 16 -35 39 -54 51 -19 12 -34 26 -34 30 0 10 91 -2 150 -19 24 -7 46 -11 49 -9 2 3 -6 17 -20 32 -24 26 -23 27 26 7 9 -4 15 -1 15 7 0 15 -52 123 -72 150 -9 13 -9 24 2 48 7 17 17 31 22 31 5 0 36 -18 69 -41 33 -22 62 -39 65 -37 11 12 -65 137 -118 193 l-59 64 24 16 c21 14 28 14 60 0 20 -8 45 -15 56 -15 12 0 38 -23 67 -60 26 -33 49 -58 51 -56 3 2 -1 31 -7 64 -16 80 -12 96 25 97 21 0 32 7 41 25 45 99 62 125 92 148 19 14 45 43 58 64 14 21 43 52 67 69 55 40 83 88 103 178 9 41 30 95 46 121 16 25 39 73 53 105 17 42 31 62 52 71 l28 13 -27 -5 -28 -6 0 65 c0 64 1 66 53 127 43 51 231 220 244 220 2 0 0 -6 -4 -12z m1379 -53 c228 -30 420 -90 630 -197 119 -60 371 -221 398 -253 8 -10 -24 7 -70 38 -448 291 -890 420 -1395 405 -99 -3 -175 -4 -170 -2 62 24 448 30 607 9z m-2845 -101 c149 -48 301 -155 382 -270 35 -49 34 -48 -40 22 -42 39 -96 85 -120 102 -113 77 -307 154 -427 169 -48 6 -52 8 -27 13 44 8 139 -6 232 -36z m2575 -249 c561 -74 1178 -402 1513 -805 105 -127 103 -139 -6 -34 -129 125 -220 197 -385 306 -357 235 -721 388 -1073 453 -239 45 -413 49 -776 21 l-70 -6 50 15 c50 15 239 51 305 58 92 10 340 6 442 -8z m-2655 -134 c106 -41 237 -121 323 -196 38 -33 69 -63 69 -67 1 -4 -28 13 -63 37 -114 80 -295 182 -369 210 -40 14 -107 33 -148 40 l-74 15 90 -4 c73 -2 106 -9 172 -35z m2608 -196 c279 -37 498 -101 722 -211 137 -68 332 -191 408 -259 39 -35 39 -35 -30 8 -145 92 -307 164 -567 252 -347 118 -632 168 -1083 190 -138 7 -199 14 -190 23 24 24 550 23 740 -3z m-2755 -49 c36 -8 94 -24 130 -35 76 -26 274 -122 310 -152 22 -18 20 -18 -25 4 -90 43 -164 69 -175 62 -6 -4 -17 0 -23 8 -13 16 -162 66 -262 88 -33 7 -109 13 -169 13 -99 1 -105 2 -70 13 54 16 206 15 284 -1z m6261 -231 c137 -204 247 -540 278 -850 17 -172 22 -267 13 -261 -5 3 -12 49 -16 103 -27 369 -152 787 -308 1029 -24 38 -48 76 -52 84 -14 28 45 -45 85 -105z m-6231 6 c161 -42 350 -152 425 -248 l29 -38 -34 26 c-160 121 -320 191 -522 230 -118 23 -307 31 -383 16 -59 -11 -20 10 52 28 88 22 323 15 433 -14z m5910 -156 c225 -300 366 -680 386 -1044 3 -58 1 -126 -3 -151 -8 -40 -10 -31 -16 75 -15 271 -81 530 -202 791 -70 150 -129 245 -291 469 l-36 50 47 -50 c26 -27 77 -90 115 -140z m-3514 155 c341 -27 646 -112 991 -275 108 -51 303 -161 303 -170 0 -3 -27 8 -61 25 -233 118 -709 272 -1016 329 -260 48 -336 56 -566 56 -203 0 -213 1 -155 13 139 28 324 36 504 22z m88 -235 c412 -48 830 -188 1180 -395 47 -28 86 -53 86 -55 0 -2 -51 20 -112 50 -241 114 -669 257 -963 320 -218 46 -351 65 -530 73 -104 5 -136 9 -105 13 88 12 317 9 444 -6z m-2229 -94 c111 -31 221 -91 280 -153 39 -40 43 -46 18 -29 -144 98 -431 152 -695 131 -250 -20 -452 -78 -570 -161 l-31 -22 18 26 c21 32 132 108 208 141 72 32 179 65 269 82 116 21 401 13 503 -15z m5050 -240 c65 -29 118 -81 147 -145 21 -46 23 -65 23 -206 0 -117 -5 -171 -18 -220 -54 -196 -167 -311 -353 -357 -149 -36 -493 -16 -722 43 -116 30 -281 108 -337 159 l-40 37 42 -31 c168 -126 470 -204 793 -204 230 -1 330 27 428 118 66 61 103 129 133 243 26 98 36 295 20 375 -24 112 -114 186 -251 206 l-65 10 75 -3 c50 -2 91 -10 125 -25z m-4994 -21 c157 -33 156 -35 -14 -37 -275 -2 -533 -52 -681 -131 -87 -46 -178 -134 -212 -203 -16 -35 -23 -43 -19 -24 14 65 62 142 131 211 86 87 212 154 344 183 120 27 326 28 451 1z m4904 -174 c64 -30 117 -86 150 -159 24 -52 27 -67 23 -150 -3 -74 -8 -103 -30 -150 -68 -145 -186 -222 -368 -242 -126 -13 -337 26 -493 91 -69 29 -242 128 -252 144 -4 6 17 -4 47 -23 319 -204 710 -254 903 -116 124 89 195 308 141 434 -55 129 -181 210 -275 177 -36 -13 -42 -6 -8 8 41 16 110 11 162 -14z m-90 -1206 c-49 -94 -165 -163 -276 -163 -125 0 -244 79 -254 170 l-5 38 9 -35 c12 -47 87 -114 152 -135 63 -21 168 -16 218 9 74 39 158 138 163 193 0 10 3 4 5 -14 2 -17 -3 -46 -12 -63z m1114 -1247 c-61 -97 -89 -241 -89 -455 0 -415 122 -669 383 -796 48 -23 110 -48 137 -54 60 -14 56 -28 -9 -28 -258 0 -457 188 -538 506 -25 99 -25 443 0 567 25 121 62 218 104 266 19 23 36 41 39 41 2 0 -10 -21 -27 -47z m-5416 -188 c19 -19 44 -35 56 -35 12 0 21 -4 21 -8 0 -9 -165 -119 -217 -146 l-33 -17 0 66 c0 37 -4 75 -10 85 -8 16 0 23 63 53 39 20 75 36 79 36 3 1 22 -15 41 -34z m6706 -39 c202 -162 359 -474 407 -814 21 -143 12 -246 -30 -337 -27 -60 -83 -127 -121 -147 -11 -6 -1 6 22 26 50 44 99 137 114 221 30 158 -28 453 -132 670 -62 131 -135 233 -243 342 -111 111 -112 115 -17 39z m-267 -93 c157 -94 255 -191 351 -351 130 -216 206 -497 178 -665 -28 -167 -103 -265 -268 -346 -136 -68 -404 -82 -478 -27 -18 13 -14 13 29 1 120 -36 327 1 457 81 33 20 38 29 49 89 31 162 -38 393 -153 513 -53 56 -144 116 -292 193 -77 40 -165 89 -195 110 -74 49 -162 143 -195 208 -27 54 -55 162 -55 215 0 46 10 25 21 -45 20 -124 90 -233 201 -313 35 -24 142 -83 238 -129 249 -121 337 -193 410 -337 69 -136 83 -281 44 -430 -7 -24 -5 -24 29 8 225 214 111 768 -222 1084 -60 58 -121 103 -199 148 -62 36 -120 71 -130 78 -35 26 103 -39 180 -85z m-903 -327 c46 -222 176 -418 346 -521 65 -40 43 -39 -45 2 -75 36 -185 148 -232 238 -89 172 -123 376 -100 611 6 73 7 66 13 -96 3 -96 12 -202 18 -234z m266 -26 c41 -82 107 -171 167 -225 58 -53 197 -145 368 -244 60 -36 134 -86 163 -113 l52 -49 -70 50 c-38 27 -133 83 -209 126 -169 93 -244 143 -315 209 -58 56 -126 145 -161 216 -27 53 -70 177 -70 199 0 9 11 -13 24 -49 12 -36 35 -90 51 -120z m-188 -1317 c-63 -121 -81 -331 -39 -447 12 -33 36 -81 53 -108 43 -66 145 -158 227 -202 65 -36 66 -37 27 -31 -121 19 -261 127 -320 249 -60 122 -66 250 -19 406 17 57 74 174 81 166 3 -2 -2 -17 -10 -33z m-238 -50 c-46 -91 -59 -152 -59 -272 1 -228 96 -416 260 -513 66 -39 178 -82 245 -94 l40 -7 -30 -7 c-68 -17 -178 -10 -248 14 -205 73 -332 283 -331 551 1 93 5 122 28 190 15 44 37 96 49 114 20 33 76 101 82 101 2 0 -15 -35 -36 -77z m-469 -238 c-15 -63 -12 -330 5 -432 26 -162 95 -341 176 -460 16 -23 29 -44 29 -48 0 -11 -79 35 -115 67 -79 69 -174 231 -200 340 -19 80 -19 262 -1 349 14 66 50 148 88 202 25 36 29 32 18 -18z m2301 18 c67 -174 -6 -379 -186 -522 -125 -100 -291 -174 -458 -206 -257 -49 -478 -15 -544 84 -26 38 -31 120 -10 158 11 19 12 15 13 -33 0 -38 6 -62 20 -81 78 -105 451 -74 719 59 190 95 343 227 401 344 25 51 29 71 29 142 0 45 1 82 3 82 1 0 7 -12 13 -27z m186 -225 c-21 -272 -129 -414 -425 -562 -109 -55 -234 -98 -350 -121 -116 -24 -289 -18 -354 12 -27 12 -48 26 -48 32 0 5 14 3 30 -6 42 -21 170 -31 265 -22 200 20 481 141 654 281 110 88 197 256 217 416 10 82 18 61 11 -30z m-9326 -5944 c309 -53 645 -238 904 -498 126 -127 505 -629 505 -670 0 -10 -5 -27 -11 -38 -11 -20 -13 -18 -41 28 -37 59 -228 247 -268 264 -45 18 -80 2 -107 -51 -26 -50 -30 -121 -10 -159 14 -26 30 -100 22 -100 -7 0 -98 55 -242 146 -149 94 -217 128 -365 179 -317 110 -708 123 -1168 39 -185 -34 -366 -79 -485 -121 -55 -19 -111 -35 -125 -35 -40 -1 -130 14 -130 21 0 3 -29 7 -65 8 -89 3 -139 18 -181 55 -41 36 -74 96 -74 133 0 59 63 128 193 213 107 70 214 112 494 197 293 88 384 121 558 204 118 56 142 64 275 86 159 27 280 55 280 65 0 9 -143 30 -210 31 -43 1 -49 3 -30 9 43 14 182 11 281 -6z m1359 -1574 c69 -29 131 -57 139 -64 21 -16 53 -94 45 -107 -5 -8 -37 -10 -98 -7 -80 4 -104 10 -189 48 -53 23 -97 47 -97 54 0 10 23 93 35 125 6 16 8 16 165 -49z m-150 -1274 c-31 -510 -26 -852 16 -1083 l6 -33 -39 38 c-190 182 -326 256 -583 318 -175 42 -241 63 -385 122 -60 25 -162 62 -225 83 -63 20 -169 59 -235 87 -146 60 -232 88 -242 78 -8 -8 48 -64 82 -84 16 -8 17 -13 6 -25 -10 -13 -9 -18 11 -31 36 -23 154 -75 253 -111 117 -43 568 -245 830 -373 120 -59 143 -67 115 -43 -19 17 -31 30 -27 31 5 0 50 -39 101 -87 140 -134 235 -211 338 -275 51 -32 107 -71 125 -87 37 -33 39 -32 18 9 -9 17 -12 30 -7 30 15 0 264 -271 451 -490 415 -485 660 -732 911 -917 194 -143 351 -224 516 -265 49 -12 105 -32 125 -44 122 -76 392 -190 599 -254 103 -31 357 -133 373 -149 17 -17 99 -270 132 -406 107 -440 110 -841 8 -1165 -28 -90 -157 -356 -195 -403 l-23 -27 -100 24 c-98 24 -681 148 -760 162 -22 3 -44 9 -49 12 -6 3 -19 6 -30 7 -51 4 -351 58 -447 80 -250 59 -474 87 -814 105 -438 22 -612 57 -870 175 -200 92 -521 292 -531 331 -7 27 -38 48 -59 40 -8 -3 -82 47 -167 111 -84 64 -209 159 -278 211 -146 110 -140 105 -115 96 11 -3 -12 16 -50 42 -39 27 -147 110 -240 185 -252 200 -515 377 -875 588 -30 17 -62 36 -70 41 -8 5 -78 46 -155 91 -294 173 -432 275 -469 347 -22 43 -30 129 -17 179 10 35 20 47 57 69 54 32 154 64 199 64 24 0 46 -11 77 -37 82 -69 238 -165 380 -232 190 -91 371 -167 433 -182 93 -23 200 -92 350 -227 116 -106 190 -146 267 -146 63 -1 101 20 128 67 30 54 -8 84 -265 211 -49 25 -146 61 -215 81 -106 31 -131 43 -165 75 -51 49 -148 97 -413 204 -272 110 -387 166 -386 188 1 9 -9 22 -22 29 -13 7 -24 16 -24 20 0 5 -39 53 -86 106 -150 170 -174 217 -174 337 0 107 22 169 80 227 69 69 84 70 163 14 110 -77 258 -137 553 -225 128 -39 385 -100 418 -100 9 0 56 -13 106 -29 49 -16 90 -28 90 -26 0 1 -27 21 -60 44 -33 23 -60 44 -60 46 0 2 24 -10 53 -25 114 -62 386 -180 413 -180 106 0 162 160 91 254 -84 109 -371 143 -446 53 -12 -15 -11 -17 7 -17 24 0 150 -72 134 -78 -11 -3 -128 25 -152 38 -8 4 -38 15 -67 23 -40 12 -55 13 -68 3 -15 -11 -14 -14 7 -41 21 -26 17 -25 -40 13 -92 63 -237 127 -417 183 -477 150 -438 134 -523 213 -216 198 -253 253 -260 383 -4 74 -2 88 21 135 16 32 58 85 105 132 l80 78 63 -25 c79 -31 165 -54 434 -111 116 -25 260 -57 320 -71 277 -65 327 -76 440 -95 115 -20 187 -35 230 -46 11 -3 -5 11 -35 31 l-55 36 38 -6 c21 -3 81 -19 134 -36 145 -44 189 -37 213 37 23 70 -11 154 -77 191 -89 49 -267 58 -368 18 -59 -23 -59 -24 -24 -24 35 -1 145 -41 204 -75 l30 -17 -51 5 c-28 3 -99 16 -158 31 -108 26 -126 26 -126 -2 0 -10 -5 -13 -17 -8 -245 99 -653 179 -985 192 -82 3 -148 9 -148 13 0 3 15 14 33 23 18 9 25 16 16 16 -24 1 -148 -38 -193 -61 -52 -27 -61 -15 -60 75 2 95 21 135 107 224 63 65 74 73 99 68 25 -6 28 -4 28 19 0 65 233 178 420 205 123 17 511 33 548 22 56 -17 35 -1 -55 40 -56 26 -126 47 -196 61 l-109 22 9 35 c4 20 8 119 8 221 0 163 -2 189 -18 214 -10 15 -17 29 -15 30 2 2 89 10 193 19 105 9 246 26 315 38 120 20 129 20 225 5 194 -31 333 -40 635 -40 348 -1 376 4 545 86 l90 43 3 -41 c2 -23 -6 -193 -18 -378z m8335 -2311 c109 -247 417 -837 536 -1025 l29 -45 -123 -7 c-296 -16 -817 -70 -912 -94 -14 -3 -25 -3 -25 1 0 5 20 42 44 84 85 149 209 494 261 726 33 149 71 359 79 445 4 36 10 79 13 95 l6 30 13 -30 c7 -16 43 -97 79 -180z m-4652 -987 c69 -97 179 -329 164 -345 -3 -3 -77 9 -164 26 -174 34 -180 37 -202 112 -7 24 -19 59 -27 77 -25 57 -18 91 24 132 39 37 85 57 134 59 22 1 35 -10 71 -61z m-303 -335 c66 -22 68 -26 114 -204 66 -258 96 -496 103 -824 6 -244 -3 -388 -32 -562 -18 -105 -65 -279 -93 -345 l-20 -46 -104 25 c-57 15 -104 27 -106 28 -1 1 22 51 52 111 136 274 195 562 182 886 -11 292 -68 604 -156 862 -16 50 -30 91 -30 94 0 2 8 1 18 -2 9 -3 42 -14 72 -23z m355 -93 c77 -18 146 -38 152 -44 29 -27 104 -378 140 -651 25 -199 25 -640 0 -775 -34 -177 -119 -487 -145 -528 -7 -10 -41 -3 -163 34 -85 25 -155 47 -157 49 -1 1 7 28 19 61 34 100 77 286 95 421 22 156 24 551 6 748 -24 251 -69 497 -128 704 -6 21 -4 23 17 19 13 -3 87 -20 164 -38z m439 -190 c43 -234 50 -327 51 -665 0 -298 -3 -343 -23 -460 -12 -71 -29 -152 -37 -180 l-15 -50 5 50 c44 477 40 889 -11 1230 -30 205 -30 189 -7 176 16 -8 24 -30 37 -101z m-4674 -982 c338 -257 656 -401 1006 -453 55 -8 209 -24 344 -35 297 -25 482 -48 745 -96 243 -43 285 -50 398 -65 76 -10 87 -14 81 -28 -44 -105 -53 -374 -16 -522 37 -152 99 -266 205 -376 119 -124 256 -189 382 -181 84 6 123 23 201 88 32 27 93 73 134 101 147 102 302 277 405 459 74 130 59 122 177 89 56 -16 120 -31 143 -35 72 -10 73 -13 17 -105 -129 -214 -282 -343 -477 -405 -60 -19 -70 -25 -70 -45 0 -38 60 -45 175 -23 25 5 25 5 5 -11 -11 -9 -47 -30 -80 -47 -72 -37 -133 -42 -164 -14 -20 18 -21 18 -21 1 0 -9 18 -35 40 -57 40 -40 40 -40 107 -36 199 12 465 244 687 601 26 42 53 77 60 77 19 0 165 -45 224 -69 29 -12 50 -16 46 -9 -5 7 -2 9 7 6 336 -138 538 -215 724 -278 127 -43 268 -95 315 -115 270 -117 892 -347 1200 -444 384 -120 717 -199 1002 -237 73 -10 122 -20 108 -22 -52 -6 -71 -13 -92 -34 -30 -30 -137 -60 -428 -118 -484 -98 -1179 -202 -1635 -244 -437 -41 -1070 -54 -1370 -28 -82 7 -202 18 -265 23 -548 48 -1089 200 -1577 445 -59 29 -108 52 -110 50 -4 -3 286 -167 502 -284 367 -198 766 -359 1185 -477 275 -77 616 -131 998 -156 297 -19 825 12 1212 72 738 115 1321 298 1558 489 l64 51 61 -15 c108 -27 188 -36 355 -43 89 -3 165 -9 167 -13 7 -11 -96 -130 -151 -176 -284 -238 -1128 -601 -2164 -934 -933 -299 -990 -319 -1040 -376 -24 -28 -30 -44 -30 -80 0 -39 5 -51 33 -79 38 -38 76 -50 202 -65 303 -34 619 4 960 116 447 148 1022 468 1495 832 96 74 192 146 213 160 20 13 37 26 37 28 0 2 -80 -36 -177 -85 -98 -48 -207 -101 -243 -117 -36 -16 -209 -102 -385 -193 -705 -361 -951 -464 -1257 -525 -184 -37 -449 -60 -448 -38 0 4 236 92 523 196 287 104 698 257 912 341 809 316 1163 494 1358 684 88 85 123 131 182 241 l40 75 69 8 c72 8 187 49 272 98 28 16 59 29 67 29 32 0 42 -74 40 -295 l-1 -210 -35 -95 c-123 -339 -302 -730 -430 -942 -101 -166 -241 -358 -441 -601 -372 -455 -512 -602 -836 -881 l-45 -38 55 38 c30 21 89 63 130 94 41 31 167 122 280 202 587 418 1065 903 1391 1413 95 148 128 185 166 185 37 0 53 -16 53 -53 0 -21 11 -39 39 -66 32 -29 46 -55 74 -137 80 -230 190 -713 202 -884 6 -82 -5 -268 -21 -350 l-4 -25 10 24 c14 32 85 315 117 466 20 95 27 162 32 318 l6 198 52 -80 c29 -43 123 -175 210 -292 219 -300 248 -340 319 -455 99 -161 126 -216 391 -824 30 -69 90 -231 133 -360 42 -129 102 -294 133 -366 75 -179 108 -285 157 -514 67 -314 162 -692 260 -1035 110 -385 141 -513 264 -1110 270 -1309 298 -1511 312 -2205 6 -272 5 -304 -15 -410 -27 -152 -45 -298 -76 -625 -39 -411 -69 -605 -175 -1150 -62 -322 -103 -562 -165 -970 -90 -595 -141 -795 -343 -1340 -124 -337 -155 -442 -227 -793 -79 -379 -143 -574 -311 -944 -113 -250 -125 -284 -155 -438 -29 -150 -44 -197 -115 -364 -87 -203 -104 -261 -114 -398 -14 -176 -62 -260 -148 -257 -38 1 -94 23 -103 40 -4 8 -16 63 -27 123 -29 156 -44 159 -35 6 l6 -123 -39 6 c-21 4 -84 11 -139 17 -196 20 -274 32 -344 50 -39 10 -71 16 -71 14 0 -2 28 -18 63 -35 73 -37 197 -126 197 -142 0 -21 -52 -58 -74 -52 -64 18 -197 96 -315 185 -73 55 -164 119 -202 141 -48 29 -85 61 -126 112 -32 40 -148 164 -258 277 -202 207 -289 313 -407 495 -92 142 -132 218 -182 339 -25 59 -57 128 -71 154 -65 112 -425 431 -899 795 -127 98 -288 225 -357 282 -172 143 -394 373 -516 535 -101 136 -387 569 -380 577 2 2 49 -31 103 -74 55 -42 167 -127 249 -189 168 -125 211 -167 315 -304 107 -142 247 -278 389 -378 225 -158 358 -259 498 -380 76 -65 173 -144 216 -175 42 -32 77 -61 77 -66 0 -5 -10 -12 -22 -14 -14 -3 -8 -5 15 -6 30 -1 50 -11 87 -43 27 -24 98 -69 157 -101 60 -31 129 -75 154 -97 120 -102 364 -555 508 -943 65 -175 84 -213 186 -367 158 -239 270 -310 515 -327 172 -11 247 27 347 176 61 91 61 91 23 61 -114 -90 -191 -95 -404 -26 -142 46 -152 51 -201 100 -86 86 -200 269 -264 424 -71 169 -217 457 -285 563 -28 42 -85 117 -126 165 -189 222 -245 267 -405 329 -83 32 -185 87 -185 99 0 2 37 17 83 32 303 100 717 413 1101 832 663 725 1144 1591 1519 2737 181 552 320 1177 396 1785 48 376 97 973 71 850 -6 -25 -28 -191 -50 -370 -76 -607 -145 -980 -270 -1448 -235 -882 -682 -1920 -1126 -2613 -120 -186 -224 -336 -344 -490 -384 -496 -1055 -1125 -1346 -1261 l-64 -30 -42 34 c-24 19 -74 56 -113 83 -38 27 -124 95 -190 151 -146 123 -231 186 -445 331 -197 133 -295 221 -392 351 -142 192 -172 224 -318 340 -380 303 -787 716 -1050 1067 -211 282 -270 376 -403 644 -111 223 -209 386 -291 486 -41 50 -346 356 -533 535 -55 52 -146 153 -203 224 -188 234 -301 340 -520 486 -107 71 -152 110 -315 275 -104 106 -237 232 -295 281 -244 206 -330 294 -610 629 -155 185 -324 413 -527 710 -147 215 -360 550 -400 628 -14 29 -53 97 -86 152 -73 120 -209 399 -266 545 -22 58 -82 209 -132 335 -85 214 -147 382 -334 906 -128 357 -318 997 -420 1415 -249 1014 -390 1936 -450 2932 -26 429 -30 346 90 1862 81 1025 110 1356 121 1408 3 17 8 21 17 14 7 -5 50 -38 97 -74z m2828 -683 c47 -6 516 -147 520 -157 2 -4 19 -8 39 -8 l35 0 -31 -39 c-51 -64 -167 -177 -217 -212 -65 -44 -123 -60 -171 -47 -47 12 -143 108 -191 190 -36 60 -107 219 -118 262 -6 25 -6 25 48 20 29 -3 68 -7 86 -9z m-168 -37 c0 -42 44 -204 77 -287 19 -47 54 -113 78 -146 74 -104 147 -147 249 -146 126 0 290 114 447 312 39 49 76 89 83 89 6 -1 64 -16 129 -34 l117 -32 -50 -85 c-157 -260 -368 -459 -606 -571 -45 -21 -88 -38 -96 -38 -7 0 -47 16 -88 36 -109 52 -230 176 -293 301 -66 133 -82 213 -82 413 0 91 4 178 8 193 8 31 27 28 27 -5z m-2836 -22184 c131 -38 249 -94 273 -131 15 -22 15 -26 -4 -50 -27 -37 -36 -38 -51 -5 -32 74 -104 119 -297 189 -136 49 -98 47 79 -3z"/>
<path d="M61709 66601 c-86 -34 -158 -93 -213 -176 -46 -70 -32 -81 28 -21 101 101 245 148 339 112 118 -45 199 -209 178 -361 -9 -65 -48 -168 -79 -212 -10 -16 -25 -39 -32 -53 l-13 -24 29 18 c76 48 140 135 174 237 48 140 8 313 -95 413 -82 80 -212 108 -316 67z"/>
<path d="M58374 66555 c-102 -18 -174 -41 -309 -96 -261 -107 -425 -207 -492 -299 -18 -25 -50 -63 -72 -85 -124 -123 -81 -289 74 -289 87 0 171 71 182 154 5 36 13 46 67 84 223 159 496 234 916 253 113 5 136 3 240 -22 63 -15 140 -36 170 -46 l55 -19 -29 23 c-15 12 -54 37 -85 54 -31 18 -53 33 -49 33 19 0 292 -115 323 -136 19 -13 35 -21 35 -17 0 3 -17 28 -37 55 -21 27 -38 52 -38 56 0 4 -4 13 -8 20 -11 17 4 15 31 -4 12 -8 22 -13 22 -10 0 3 -33 28 -72 54 -40 27 -106 72 -147 100 -171 119 -528 182 -777 137z"/>
<path d="M61470 66213 c-89 -89 -90 -168 -4 -289 57 -80 55 -98 -11 -137 -136 -79 -215 -217 -156 -271 25 -23 87 -45 128 -46 37 0 78 32 88 70 6 23 5 23 -20 -7 -22 -27 -33 -33 -66 -33 -62 0 -109 24 -109 55 0 36 23 77 64 113 35 30 49 35 140 47 131 17 150 145 43 276 -84 102 -94 143 -53 222 13 26 19 47 13 47 -5 0 -31 -21 -57 -47z"/>
<path d="M56823 65981 c-52 -9 -70 -24 -82 -67 -26 -95 63 -177 166 -154 71 16 96 69 73 152 -19 68 -58 85 -157 69z"/>
<path d="M59235 65781 c-17 -15 -83 -42 -193 -78 -9 -3 1 11 23 31 l40 36 -45 -15 c-24 -9 -94 -27 -155 -41 -60 -14 -184 -45 -275 -69 -334 -90 -639 -146 -667 -123 -11 9 -21 8 -41 -4 -15 -9 -48 -19 -74 -22 -61 -9 -70 -24 -18 -32 22 -4 40 -10 40 -15 0 -5 8 -9 18 -9 10 0 13 -3 6 -8 -5 -4 -18 -33 -28 -64 -23 -76 -141 -240 -230 -322 l-31 -28 30 15 c17 8 68 42 115 76 47 33 87 56 88 50 3 -6 14 -4 29 6 14 9 27 15 29 12 6 -6 -53 -114 -94 -172 -26 -38 -29 -45 -11 -30 91 77 172 186 199 267 15 44 19 49 26 33 12 -32 89 -149 110 -166 28 -24 111 -49 161 -49 24 0 52 -5 62 -12 15 -9 28 -8 65 6 71 27 193 112 276 190 41 40 93 85 115 101 89 63 131 115 144 178 5 23 17 33 72 56 116 49 159 85 218 184 25 42 24 45 -4 18z m-375 -230 c9 -17 4 -24 -37 -53 -27 -18 -84 -60 -128 -93 -44 -34 -108 -81 -142 -104 l-63 -42 0 56 c0 31 -7 69 -15 86 -12 23 -13 30 -3 33 107 31 256 83 303 105 73 36 72 35 85 12z"/>
<path d="M58772 65765 c-23 -7 -48 -17 -55 -23 -11 -8 -95 -32 -114 -32 -4 0 -1 5 7 10 25 16 -10 12 -81 -9 -116 -36 -292 -80 -416 -105 -216 -44 -191 -64 31 -26 127 21 233 48 426 105 105 31 148 38 273 46 82 5 156 13 165 18 51 28 -153 42 -236 16z"/>
<path d="M61161 64546 c-35 -268 -140 -616 -266 -884 -188 -397 -445 -772 -881 -1288 -80 -94 -260 -260 -340 -314 -12 -8 -60 -46 -106 -83 -110 -90 -339 -242 -463 -308 -54 -29 -165 -79 -245 -111 -80 -31 -138 -57 -130 -58 13 0 13 -1 0 -10 -8 -5 -56 -10 -106 -10 -69 0 -95 -4 -104 -15 -22 -26 -57 -19 -69 15 -13 38 -31 39 -31 1 0 -25 -4 -29 -37 -34 -102 -17 -370 79 -560 200 -153 97 -228 164 -359 320 -52 62 -149 172 -217 245 -252 275 -316 346 -411 466 -129 160 -148 175 -62 47 106 -159 229 -308 420 -510 78 -82 177 -196 219 -251 251 -329 621 -562 935 -589 46 -4 85 -12 88 -16 21 -34 128 -677 115 -691 -3 -4 -46 -12 -96 -18 -49 -6 -105 -13 -124 -16 -28 -4 -33 -3 -28 10 10 26 -43 20 -72 -8 -20 -18 -67 -34 -193 -65 -293 -72 -605 -190 -863 -325 -124 -65 -275 -154 -275 -162 0 -2 17 3 38 12 129 56 235 94 552 197 379 123 674 217 683 217 4 0 6 -49 6 -109 -1 -119 10 -175 46 -236 22 -39 69 -75 81 -63 3 4 -1 51 -10 105 -19 121 -30 314 -19 329 13 17 271 109 281 100 2 -2 6 -48 9 -102 7 -104 16 -103 28 2 11 98 16 115 38 124 l22 9 -22 0 c-22 1 -23 5 -23 69 0 87 -32 302 -64 433 -31 125 -31 119 -5 119 15 0 19 5 15 18 -6 18 -3 18 61 5 166 -35 398 35 683 207 230 138 419 281 569 430 100 100 261 307 312 403 17 33 65 96 106 141 94 101 257 315 355 466 317 483 517 1056 535 1533 3 81 4 147 1 147 -2 0 -10 -43 -17 -94z"/>
<path d="M57936 64473 c-4 -5 -34 -6 -67 -5 -32 2 -59 0 -59 -5 0 -4 28 -16 62 -26 51 -15 72 -29 123 -81 53 -53 66 -73 84 -130 46 -149 21 -265 -77 -359 l-50 -49 -30 16 c-17 9 -40 16 -51 16 -35 0 -114 -35 -179 -79 -76 -52 -115 -106 -116 -164 l-1 -42 90 4 c50 1 104 9 120 16 34 15 90 60 155 126 25 25 58 51 73 59 46 23 105 79 132 123 50 86 50 237 1 359 -14 34 -23 64 -20 67 3 3 43 -35 89 -84 46 -50 84 -85 85 -79 0 25 -100 162 -157 215 -84 77 -183 126 -207 102z"/>
<path d="M58703 63513 c-15 -6 -17 -69 -3 -78 16 -10 -67 -85 -147 -133 -88 -53 -175 -71 -353 -72 -69 0 -172 -5 -230 -11 -58 -5 -147 -13 -199 -18 l-94 -8 -62 -67 c-65 -70 -97 -82 -130 -49 -14 14 -18 14 -26 2 -13 -20 -11 -27 11 -49 14 -14 33 -20 65 -20 53 0 99 35 135 103 l23 43 133 23 c122 21 226 30 503 45 85 4 92 4 72 -10 -26 -19 -112 -57 -211 -96 -42 -16 -60 -26 -40 -22 19 3 76 22 125 41 50 19 126 48 170 64 44 16 109 44 144 61 l64 31 53 -18 c52 -18 53 -18 90 4 50 30 106 21 153 -23 53 -49 23 -2 -70 111 -45 54 -86 108 -92 121 -6 12 -16 21 -23 18 -8 -3 -16 -1 -19 4 -7 11 -22 12 -42 3z"/>
<path d="M57315 63039 c-25 -23 -55 -63 -67 -90 -21 -44 -23 -46 -42 -33 -28 19 -60 18 -106 -6 -34 -17 -40 -25 -40 -53 1 -47 33 -110 80 -156 23 -23 46 -41 51 -41 4 0 -3 19 -16 43 -14 23 -25 44 -25 47 0 3 28 5 63 5 50 0 71 6 109 28 26 16 136 55 244 88 274 83 497 169 481 185 -2 3 -44 -9 -93 -27 -395 -139 -591 -200 -632 -196 -24 3 -46 8 -50 11 -11 12 49 116 100 171 26 29 45 55 41 59 -17 17 -57 3 -98 -35z"/>
<path d="M58213 62653 c-101 -101 -187 -160 -298 -203 -50 -20 -79 -24 -170 -25 -101 0 -115 2 -167 28 -69 34 -94 71 -110 159 -12 70 -26 59 -27 -22 -2 -103 47 -179 142 -221 41 -18 75 -24 164 -27 l112 -4 -22 -38 c-12 -21 -19 -41 -16 -45 4 -3 29 10 57 29 49 33 120 60 285 107 42 12 77 25 77 29 0 10 -53 20 -102 20 l-40 0 59 58 c32 31 76 85 96 118 38 63 71 134 63 134 -3 0 -49 -44 -103 -97z"/>
<path d="M57970 60619 c-510 -112 -750 -192 -1049 -351 -136 -71 -237 -136 -271 -174 l-25 -28 32 23 c56 38 310 156 483 224 136 53 599 211 890 304 80 26 53 27 -60 2z"/>
<path d="M58044 60395 c-5 -11 -9 -60 -9 -110 1 -77 5 -99 29 -152 27 -59 77 -116 134 -153 23 -15 10 -22 -343 -198 l-367 -183 36 -39 c19 -21 42 -54 52 -72 9 -18 18 -35 20 -37 2 -2 47 29 101 69 101 75 462 293 734 445 177 99 402 209 641 316 91 40 165 75 164 76 -8 9 -584 -210 -820 -311 l-178 -77 -22 20 c-26 24 -108 177 -126 234 -7 22 -18 73 -25 115 -9 60 -14 73 -21 57z"/>
<path d="M53543 52510 c-44 -10 -117 -55 -142 -86 -52 -66 -51 -139 4 -200 l36 -39 -21 40 c-11 22 -20 59 -20 83 0 36 6 49 42 89 24 25 67 59 95 75 78 44 80 56 6 38z"/>
<path d="M57280 45960 c0 -34 53 -208 96 -313 183 -448 562 -959 997 -1344 622 -549 1390 -838 2312 -869 530 -18 1100 70 1560 241 150 56 295 116 240 100 -11 -4 -78 -24 -150 -46 -568 -171 -1493 -222 -2165 -119 -439 67 -850 199 -1174 377 -339 186 -553 348 -841 637 -409 411 -712 858 -835 1231 -22 66 -40 113 -40 105z"/>
<path d="M64480 45707 c-175 -322 -380 -548 -730 -806 -367 -271 -801 -496 -1259 -652 -225 -76 -353 -106 -499 -116 l-97 -7 75 -14 c105 -19 384 -10 507 17 207 44 519 166 745 291 518 287 901 628 1126 1005 62 104 176 334 169 341 -1 2 -18 -25 -37 -59z"/>
<path d="M56490 45260 c0 -8 16 -74 35 -147 134 -509 431 -1050 817 -1489 803 -913 2057 -1431 3373 -1390 732 22 1378 189 2030 525 356 183 624 363 973 653 123 101 388 348 375 348 -2 0 -39 -31 -81 -69 -394 -353 -1100 -781 -1642 -994 -469 -185 -868 -282 -1345 -329 -165 -16 -630 -16 -800 0 -484 46 -947 156 -1365 324 -146 59 -454 212 -590 294 -808 485 -1467 1301 -1736 2154 -24 74 -43 128 -44 120z"/>
<path d="M65515 44575 c38 -27 57 -50 96 -117 119 -204 295 -760 365 -1153 26 -152 30 -127 9 70 -51 479 -218 1006 -370 1162 -43 44 -57 53 -86 53 -32 -1 -33 -1 -14 -15z"/>
<path d="M64785 44503 c-15 -103 -100 -419 -172 -638 -272 -832 -672 -1709 -1218 -2670 -797 -1402 -1523 -2362 -2721 -3600 -414 -428 -575 -579 -771 -725 -54 -40 -102 -78 -108 -83 -34 -34 399 250 520 341 373 281 914 812 1371 1347 664 778 1204 1568 1784 2605 615 1101 1024 2076 1230 2934 60 249 112 536 97 536 -2 0 -8 -21 -12 -47z"/>
<path d="M65151 44280 c-1 -3 -8 -180 -16 -395 -23 -622 -58 -875 -195 -1411 -153 -596 -328 -1122 -611 -1830 -473 -1185 -979 -2133 -1539 -2883 -102 -136 -205 -272 -230 -302 -131 -158 -301 -347 -378 -420 -104 -99 -62 -70 153 105 192 157 503 463 646 636 288 350 522 703 764 1154 153 286 177 335 321 652 327 722 655 1646 848 2394 174 673 241 1101 252 1610 4 195 -7 712 -15 690z"/>
<path d="M56700 42975 c0 -20 99 -213 162 -320 147 -246 307 -452 518 -669 278 -285 539 -480 884 -661 444 -233 953 -376 1430 -401 95 -5 159 -2 296 15 249 32 278 40 120 34 -171 -7 -419 16 -675 63 -1024 188 -1735 606 -2361 1390 -108 136 -249 340 -323 469 -28 49 -51 85 -51 80z"/>
<path d="M55272 79463 c-15 -29 -20 -73 -52 -443 -214 -2540 -315 -4100 -400 -6185 -11 -275 -29 -716 -40 -980 -11 -264 -22 -552 -25 -640 -12 -364 -36 -964 -45 -1165 -6 -118 -17 -413 -25 -655 -8 -242 -20 -548 -25 -680 -6 -132 -17 -411 -25 -620 -8 -209 -24 -519 -35 -690 -22 -345 -23 -417 -4 -245 l13 115 -5 -135 c-3 -74 -9 -596 -14 -1160 -5 -623 -15 -1168 -24 -1390 -33 -752 -144 -3241 -176 -3910 -10 -234 -24 -537 -30 -675 -6 -137 -17 -374 -25 -525 -8 -151 -17 -340 -20 -420 -10 -278 -35 -846 -45 -1045 -6 -110 -12 -240 -15 -290 l-4 -90 15 95 c8 52 34 217 59 365 62 382 142 1022 170 1370 49 610 63 886 100 1945 5 153 15 537 36 1420 6 250 14 1047 19 1770 5 922 13 1415 23 1650 23 492 36 910 47 1595 10 545 14 644 41 925 123 1322 172 2066 264 3995 15 321 67 1551 105 2495 11 278 31 773 45 1100 51 1250 67 1694 86 2475 10 442 18 593 34 628 4 10 3 17 -4 17 -5 0 -14 -8 -19 -17z"/>
<path d="M55303 79454 c-10 -26 25 -145 60 -202 140 -233 478 -358 874 -324 203 18 365 63 565 159 87 42 157 78 155 79 -7 8 -258 -19 -462 -48 -192 -28 -246 -32 -425 -32 -190 0 -212 2 -305 27 -179 48 -308 126 -385 234 -22 31 -42 71 -46 89 -7 36 -21 44 -31 18z"/>
<path d="M55430 79016 c0 -28 72 -135 122 -181 167 -155 385 -222 693 -212 209 6 346 36 540 118 137 58 193 86 150 75 -11 -3 -38 -9 -60 -15 -76 -19 -432 -70 -573 -83 -242 -20 -462 11 -627 91 -99 47 -172 104 -213 167 -18 26 -32 44 -32 40z"/>
<path d="M56215 65363 c-69 -10 -152 -36 -205 -63 -56 -28 -125 -79 -117 -86 2 -2 33 9 68 25 109 49 157 56 359 55 102 0 197 -3 213 -7 15 -4 27 -3 27 2 0 10 -77 44 -135 60 -48 13 -169 21 -210 14z"/>
<path d="M64058 65116 c35 -19 145 -129 211 -210 215 -264 306 -498 267 -686 -18 -83 -50 -144 -115 -214 -45 -48 -45 -49 -9 -22 122 91 176 271 134 450 -31 131 -123 300 -247 456 -94 118 -223 241 -253 240 -6 -1 0 -7 12 -14z"/>
<path d="M64606 61602 c307 -110 896 -563 1179 -907 85 -104 201 -265 191 -265 -4 0 -34 22 -69 49 -153 119 -338 225 -475 271 -166 55 -363 67 -508 30 -136 -35 -295 -122 -404 -221 -49 -45 -44 -43 44 15 196 128 453 161 679 86 117 -39 285 -133 412 -230 281 -214 600 -591 758 -898 87 -168 345 -874 382 -1044 79 -367 122 -780 147 -1388 l12 -305 18 103 c20 123 24 135 31 102 3 -14 24 -113 47 -220 23 -107 102 -436 175 -730 162 -648 206 -836 329 -1405 420 -1942 632 -3673 687 -5615 10 -354 4 -565 -18 -690 -3 -19 -3 -32 1 -29 10 10 63 260 90 429 120 739 73 1931 -130 3325 -100 692 -221 1332 -410 2185 -83 376 -299 1239 -404 1615 -158 566 -252 913 -301 1110 l-50 200 18 155 c22 193 25 714 5 885 -44 367 -97 614 -190 885 -101 295 -297 662 -486 909 -23 31 -69 103 -101 161 -277 503 -597 856 -1047 1157 -227 151 -506 280 -648 299 -38 5 -33 1 36 -24z"/>
<path d="M64590 61007 c-299 -132 -685 -489 -902 -834 -162 -257 -286 -558 -393 -948 -210 -770 -308 -1622 -308 -2680 0 -492 7 -676 53 -1380 50 -770 55 -878 55 -1325 0 -473 -11 -621 -61 -870 -89 -443 -336 -869 -606 -1045 -42 -28 -84 -56 -95 -62 -32 -22 150 57 217 94 162 88 258 168 379 316 119 147 208 311 279 518 114 332 154 641 154 1189 0 340 -4 461 -42 1200 -53 1033 -56 1752 -10 2420 46 655 145 1296 269 1750 140 510 301 831 578 1152 80 92 458 469 513 511 50 38 15 35 -80 -6z"/>
<path d="M62083 59735 c-45 -19 -183 -112 -283 -191 -117 -93 -408 -387 -512 -517 -400 -503 -687 -1089 -853 -1744 -43 -168 -100 -473 -93 -495 2 -6 12 34 22 88 160 868 647 1762 1381 2533 151 159 355 332 355 302 0 -6 -50 -63 -111 -128 -333 -352 -576 -663 -836 -1068 -95 -148 -250 -420 -329 -576 -51 -100 -265 -581 -261 -585 1 -1 43 73 92 164 156 289 603 990 857 1342 57 80 210 286 340 458 252 335 296 403 275 420 -8 7 -22 6 -44 -3z"/>
<path d="M60428 59617 c-631 -482 -1061 -930 -1430 -1488 -89 -136 -162 -255 -121 -199 212 288 413 525 697 823 225 236 608 609 849 826 136 124 166 153 155 150 -2 0 -69 -50 -150 -112z"/>
<path d="M62992 59013 c-153 -212 -217 -314 -304 -487 -107 -213 -158 -341 -213 -532 -80 -279 -129 -553 -190 -1067 -39 -328 -65 -481 -96 -583 -25 -83 -60 -152 -86 -177 -19 -16 -20 -16 -35 0 -76 86 -90 475 -32 888 44 313 207 935 348 1330 20 54 34 100 32 102 -6 6 -254 -580 -322 -759 -108 -286 -163 -491 -205 -768 -19 -122 -23 -187 -23 -410 -1 -225 2 -275 17 -330 27 -97 55 -148 101 -182 37 -27 47 -29 99 -26 49 4 62 9 93 39 109 104 164 325 269 1068 49 345 90 581 131 751 45 184 153 519 231 715 81 207 136 318 230 468 34 53 60 97 59 97 -2 0 -49 -62 -104 -137z"/>
<path d="M54470 58723 c0 -6 10 -23 22 -38 83 -106 339 -170 585 -145 65 6 145 18 178 25 38 9 45 13 20 10 -22 -3 -101 -8 -175 -11 -260 -13 -496 43 -597 139 -18 17 -33 26 -33 20z"/>
<path d="M54104 57535 c-241 -36 -411 -105 -559 -229 -27 -23 -77 -60 -110 -82 -79 -51 -241 -215 -284 -287 -48 -82 -63 -133 -63 -213 0 -130 74 -284 137 -284 52 0 57 10 26 46 -38 43 -71 149 -71 228 0 102 36 161 210 341 127 132 210 230 210 249 0 3 -12 1 -26 -5 -15 -5 -29 -7 -31 -5 -10 9 204 104 269 120 112 27 264 38 425 32 337 -13 607 -70 876 -184 l108 -46 -52 -13 c-57 -15 -129 -51 -129 -66 0 -5 8 -6 18 -2 37 16 131 17 176 2 48 -16 187 -105 244 -155 41 -37 41 -61 -3 -149 -48 -96 -64 -109 -134 -106 -65 3 -124 18 -101 26 8 3 37 9 65 12 73 10 38 24 -117 46 -108 16 -156 29 -210 57 -21 10 -5 -39 18 -57 27 -21 112 -51 145 -51 10 0 30 -11 45 -25 14 -13 63 -39 108 -56 111 -43 170 -39 225 15 56 55 93 137 99 219 l5 68 -50 47 c-27 26 -64 67 -81 92 -41 61 -123 138 -202 190 -36 24 -67 46 -70 50 -3 4 -14 9 -25 13 -11 3 -63 24 -115 47 -114 51 -281 95 -437 115 -139 18 -413 18 -539 0z"/>
<path d="M53733 57278 c-50 -55 -65 -143 -39 -231 27 -92 77 -136 174 -152 l42 -7 -54 58 c-31 31 -63 73 -72 92 -24 51 -31 191 -11 231 14 29 14 31 -2 31 -10 0 -27 -10 -38 -22z"/>
<path d="M54923 57161 c-71 -70 -81 -255 -17 -297 13 -9 27 -15 29 -12 2 2 9 58 14 125 11 133 27 179 66 189 36 9 20 24 -25 24 -29 0 -45 -7 -67 -29z"/>
<path d="M54057 55573 c-10 -15 -27 -165 -27 -229 0 -62 20 -124 39 -124 14 0 21 117 14 237 -6 103 -13 137 -26 116z"/>
<path d="M54345 54943 c-38 -42 -59 -116 -59 -213 0 -94 18 -146 62 -180 40 -32 56 -26 35 13 -15 27 -18 58 -18 198 0 150 2 169 19 188 16 18 17 21 3 21 -9 0 -28 -12 -42 -27z"/>
<path d="M53760 45622 c0 -76 145 -129 414 -152 151 -13 268 -5 421 27 133 28 160 39 73 29 -32 -3 -167 1 -300 9 -392 25 -550 50 -590 97 -18 20 -18 20 -18 -10z"/>
<path d="M53860 44632 c0 -17 57 -59 97 -74 53 -18 315 -17 413 2 l75 14 -110 7 c-114 8 -426 45 -457 55 -10 3 -18 1 -18 -4z"/>
<path d="M56445 36794 c-333 -515 -547 -816 -704 -988 -82 -89 92 46 222 173 209 204 379 472 536 845 23 54 49 109 58 122 9 14 14 26 12 29 -3 2 -58 -79 -124 -181z"/>
<path d="M53050 36269 c33 -61 172 -140 286 -163 151 -30 290 -27 167 3 -125 31 -278 85 -365 129 -67 34 -94 43 -88 31z"/>
<path d="M57911 36188 c-207 -511 -643 -1102 -1290 -1748 -278 -278 -517 -493 -717 -648 -66 -50 -166 -128 -224 -173 -144 -112 -394 -276 -531 -348 -107 -56 -330 -141 -373 -141 -11 0 -16 -3 -13 -6 15 -15 304 55 482 116 186 64 546 259 716 388 237 178 491 406 685 612 620 660 1046 1297 1258 1884 53 146 58 190 7 64z"/>
<path d="M57819 32088 c-209 -354 -731 -1052 -1145 -1533 -708 -824 -1224 -1195 -1658 -1195 -180 0 -291 43 -401 154 -127 128 -184 281 -192 514 -6 164 7 289 43 402 43 136 8 88 -44 -62 -43 -122 -62 -232 -62 -363 0 -302 112 -531 322 -657 95 -58 174 -80 310 -85 133 -6 208 5 347 49 529 167 1175 761 1838 1688 114 161 336 514 463 739 154 274 233 421 227 421 -3 0 -24 -33 -48 -72z"/>
<path d="M57902 31889 c-100 -455 -281 -907 -625 -1559 -82 -157 -180 -339 -217 -405 -384 -686 -608 -1194 -705 -1598 -52 -215 -54 -313 -8 -368 28 -33 75 -39 121 -15 62 33 171 175 292 381 88 151 451 871 622 1235 146 311 321 730 290 695 -5 -5 -50 -102 -102 -215 -51 -113 -169 -365 -263 -560 -93 -195 -180 -378 -192 -405 -62 -137 -309 -622 -360 -705 -127 -208 -252 -348 -313 -350 -17 0 -10 54 24 198 76 326 277 807 639 1532 419 839 627 1349 748 1835 43 173 92 426 85 445 -2 5 -18 -58 -36 -141z"/>
<path d="M61316 29203 c116 -211 306 -455 524 -674 333 -334 622 -530 1010 -687 141 -57 324 -116 342 -110 6 2 -24 15 -68 27 -121 36 -313 115 -486 203 -283 142 -542 333 -794 583 -194 193 -416 476 -524 668 -17 31 -34 57 -37 57 -3 0 12 -30 33 -67z"/>
<path d="M60540 28196 c0 -62 211 -738 300 -961 293 -737 614 -1259 1020 -1665 377 -376 759 -589 1195 -666 461 -81 953 56 1253 349 65 64 172 189 172 201 0 4 -23 -14 -51 -41 -119 -113 -297 -213 -504 -281 -187 -62 -285 -76 -535 -77 -186 0 -230 3 -330 23 -314 64 -629 217 -920 448 -128 102 -423 402 -544 554 -125 156 -319 445 -432 640 -212 370 -455 935 -579 1350 -35 117 -45 144 -45 126z"/>
<path d="M54622 27250 c-204 -10 -434 -33 -556 -56 -161 -31 -329 -98 -195 -78 123 18 619 4 1114 -32 1047 -74 1857 -199 3097 -474 432 -97 910 -188 1175 -224 190 -26 330 -87 473 -205 111 -91 299 -239 319 -251 9 -5 13 -11 9 -15 -3 -3 -82 -26 -174 -50 -616 -158 -1293 -402 -1779 -641 -137 -67 -231 -103 -485 -188 -485 -161 -767 -251 -975 -310 -104 -30 -273 -79 -375 -109 -326 -97 -922 -243 -1310 -321 -1700 -342 -3631 -425 -5370 -231 -708 80 -1369 201 -1909 351 -408 113 -659 208 -984 371 -115 57 -213 103 -218 101 -21 -7 124 -128 260 -216 589 -381 1461 -669 2606 -861 657 -110 1181 -164 1865 -192 356 -15 1198 -6 1550 15 1436 88 2653 308 3634 655 486 172 985 421 1446 722 30 19 144 59 340 119 162 50 412 129 555 175 686 221 776 241 1115 255 113 5 223 14 245 19 22 6 68 11 101 11 77 0 178 30 232 69 l41 30 8 -57 c4 -31 8 -158 7 -282 0 -211 -2 -230 -26 -313 -18 -58 -36 -99 -57 -122 -19 -22 -31 -47 -31 -64 0 -23 -33 -61 -191 -217 -417 -413 -733 -813 -1086 -1375 -226 -359 -521 -932 -683 -1324 -30 -71 -55 -132 -57 -135 -2 -2 -8 2 -13 10 -7 11 -10 4 -10 -25 0 -26 -28 -111 -81 -245 -149 -378 -371 -1071 -368 -1150 0 -20 4 -16 16 18 17 49 41 62 110 64 58 1 90 -23 120 -88 42 -93 56 -196 56 -434 0 -390 -52 -745 -218 -1490 -182 -818 -221 -1075 -239 -1580 l-5 -145 21 105 c11 58 71 305 134 550 368 1442 473 2057 435 2539 -18 223 -54 371 -113 471 -57 94 -128 125 -219 96 -28 -10 -53 -16 -54 -14 -6 6 210 536 324 798 l76 175 7 -50 c4 -27 14 -124 23 -214 107 -1072 638 -2449 1351 -3503 l92 -137 11 -363 c6 -200 16 -453 21 -563 40 -821 65 -1700 75 -2585 3 -305 10 -690 16 -855 6 -165 9 -339 7 -387 l-3 -87 -85 40 c-337 160 -810 314 -1195 388 -225 44 -218 42 -227 76 -15 61 -109 484 -133 601 -38 186 -82 467 -110 704 -41 347 -68 460 -141 581 -41 68 -129 153 -186 179 -58 27 -147 26 -199 0 -47 -24 -75 -74 -65 -115 l7 -28 22 21 c34 32 87 37 140 14 104 -46 154 -185 172 -482 12 -202 36 -433 61 -583 73 -448 162 -715 282 -848 24 -27 42 -52 39 -55 -3 -3 -40 0 -83 5 -139 19 -406 41 -495 41 -97 0 -97 0 -123 75 -10 28 -41 93 -69 145 -168 316 -453 575 -786 716 -220 92 -424 142 -691 169 -265 26 -566 13 -823 -37 -105 -20 -70 -1 100 55 108 36 215 63 298 77 350 57 897 211 1265 355 137 54 340 157 425 216 151 104 217 202 239 352 11 79 12 81 42 89 36 9 36 7 54 283 33 507 67 1369 54 1383 -8 10 -48 -150 -69 -278 -28 -164 -99 -730 -145 -1139 -21 -195 -27 -277 -19 -282 15 -9 -15 -124 -45 -169 -80 -119 -253 -229 -536 -339 -348 -136 -1057 -315 -1686 -426 -110 -19 -282 -50 -384 -69 -102 -19 -258 -45 -347 -58 -99 -14 -163 -27 -163 -34 0 -18 -949 -170 -1420 -228 -279 -34 -477 -46 -774 -46 -895 0 -1939 121 -2856 331 -670 154 -1110 289 -1460 451 -103 47 -109 53 -178 158 -74 113 -116 165 -237 290 -56 58 -108 115 -114 128 -7 12 -21 57 -31 98 -11 42 -40 119 -64 171 -44 92 -46 98 -56 241 -39 525 -95 1046 -165 1539 -47 328 -76 494 -174 993 -84 433 -111 612 -118 785 -8 218 20 308 126 415 43 43 147 120 162 120 4 0 10 -15 13 -34 4 -18 24 -60 45 -92 117 -180 374 -330 831 -485 737 -251 1661 -462 2399 -549 835 -98 1796 -84 2651 41 238 35 643 106 883 155 477 98 1221 307 1802 507 231 80 466 160 522 178 186 60 100 41 -198 -45 -599 -173 -1176 -300 -1994 -440 -677 -116 -1131 -171 -1890 -228 -269 -20 -1264 -17 -1531 5 -667 55 -1209 144 -1829 302 -659 167 -1092 312 -1321 441 -144 82 -303 249 -261 276 17 11 71 10 101 -2 22 -8 26 -7 26 8 0 9 -6 24 -13 33 -17 22 -78 59 -99 59 -23 0 -29 13 -22 49 10 47 37 48 91 4 l46 -38 -27 42 c-32 48 -29 58 15 67 28 5 38 -1 107 -65 463 -426 1214 -714 2242 -858 650 -91 1336 -128 2205 -118 286 3 603 11 705 17 1113 63 1918 179 2923 419 274 66 882 246 1187 352 113 40 367 127 565 195 198 68 356 123 352 123 -5 1 -113 -26 -240 -59 -306 -78 -552 -133 -1012 -224 -1582 -313 -2644 -458 -3860 -527 -305 -17 -1310 -23 -1655 -10 -1185 45 -2018 185 -2683 450 -336 134 -589 292 -827 515 -63 59 -122 112 -131 116 -10 6 -24 4 -38 -7 -18 -12 -21 -21 -16 -42 7 -29 62 -106 142 -197 l53 -61 -37 -6 c-20 -4 -38 -5 -39 -4 -1 1 -34 63 -75 137 -40 74 -168 295 -284 490 -117 195 -289 488 -382 650 -94 162 -210 363 -258 445 -249 431 -556 904 -770 1190 -118 158 -194 249 -202 241 -7 -7 65 -174 114 -266 26 -47 142 -245 258 -440 223 -374 369 -634 685 -1225 349 -652 535 -933 757 -1145 52 -50 93 -92 92 -94 -2 -1 -17 -6 -34 -12 -19 -6 -38 -24 -53 -51 -19 -35 -31 -44 -75 -58 -92 -30 -179 -85 -258 -164 -125 -125 -169 -247 -169 -466 0 -190 27 -376 154 -1045 86 -454 152 -854 226 -1361 68 -465 140 -893 176 -1046 29 -125 30 -158 4 -247 -10 -37 -24 -104 -31 -147 -6 -44 -14 -79 -18 -79 -11 0 -50 56 -72 103 l-20 42 5 -39 c3 -21 14 -56 25 -77 l21 -39 -63 0 c-140 -1 -370 -149 -473 -305 -68 -103 -104 -242 -124 -475 -13 -162 -57 -1151 -71 -1625 -14 -445 -5 -995 20 -1295 10 -118 17 -219 15 -225 -6 -19 -74 -475 -124 -830 -76 -544 -160 -1057 -234 -1421 -13 -65 -37 -190 -52 -277 -16 -86 -32 -157 -36 -157 -3 0 -11 12 -17 28 -10 24 -10 23 -4 -13 3 -22 6 -62 6 -89 0 -43 1 -46 11 -27 12 21 12 21 28 -11 48 -100 243 -321 436 -494 265 -237 687 -519 1122 -749 618 -328 1224 -529 1893 -630 201 -31 207 -31 207 -4 0 11 3 18 8 16 17 -11 249 -58 377 -76 177 -26 456 -48 700 -56 241 -8 552 14 718 50 64 14 123 25 131 25 10 0 17 -14 21 -37 124 -737 355 -1330 752 -1929 465 -704 1137 -1288 1922 -1671 325 -158 526 -235 881 -338 366 -106 711 -167 1135 -201 272 -22 725 -15 1025 16 490 49 1044 177 1484 342 435 163 742 311 1116 536 918 553 1684 1341 2195 2257 437 782 670 1599 710 2490 8 169 -9 539 -35 765 -95 824 -420 1642 -916 2300 -261 348 -545 639 -890 912 -63 50 -114 92 -114 93 0 14 126 141 270 272 96 88 205 192 242 231 37 40 69 72 71 72 2 0 41 -25 86 -55 108 -72 247 -138 393 -186 115 -38 293 -79 341 -79 14 0 104 -29 200 -65 486 -180 967 -272 1602 -306 243 -13 904 -7 1190 11 364 23 846 85 1120 145 l110 24 -115 -5 c-774 -34 -1339 -47 -1790 -40 -707 10 -1075 37 -1478 112 -191 35 -432 95 -429 106 1 6 -29 19 -67 29 -38 11 -105 35 -150 53 -45 18 -157 62 -251 97 -200 75 -395 171 -593 293 -220 135 -289 190 -365 292 -37 49 -67 93 -67 97 0 5 16 -1 35 -13 l36 -22 -25 37 c-103 151 -125 463 -47 641 31 69 201 222 370 333 342 224 772 381 1374 501 526 105 1000 174 1662 240 153 15 530 38 828 51 382 16 1282 6 1441 -15 65 -9 120 -15 123 -13 4 4 -335 79 -462 102 -82 14 -258 35 -490 57 -81 8 -308 12 -597 13 -407 0 -468 2 -472 15 -3 12 -4 12 -5 -2 -1 -18 -33 -24 -201 -33 -441 -25 -1095 -114 -1545 -210 -298 -63 -674 -170 -879 -249 l-68 -27 6 73 c8 88 -6 251 -40 453 -29 175 -132 749 -139 783 -4 18 -1 25 14 29 11 3 46 17 78 32 l58 28 -82 -5 c-46 -2 -83 -2 -83 1 0 9 -68 366 -120 634 -81 413 -120 653 -105 653 3 0 44 -16 92 -36 318 -132 654 -221 1023 -271 188 -25 660 -25 875 1 321 38 735 175 990 327 112 67 263 183 375 289 l65 61 -83 -61 c-154 -114 -316 -188 -522 -237 -213 -50 -290 -60 -720 -93 -394 -30 -912 3 -1288 81 -813 169 -1556 589 -2217 1254 -629 633 -1015 1284 -1079 1820 l-15 120 4 -170 c3 -194 20 -287 86 -492 102 -316 285 -658 536 -1003 475 -655 1059 -1171 1691 -1497 81 -41 148 -76 148 -77 1 0 7 -66 14 -146 14 -173 60 -600 99 -905 15 -121 26 -223 24 -227 -5 -10 -127 21 -253 64 -401 137 -839 450 -1227 880 -677 748 -1268 1783 -1606 2813 -180 549 -319 1152 -353 1536 l-7 77 68 148 c119 260 379 770 528 1034 384 680 838 1322 1318 1862 98 111 148 160 167 163 121 26 208 183 234 422 19 184 -17 464 -78 605 -23 53 -28 83 -33 188 -6 110 -10 133 -34 182 -62 126 -231 222 -462 263 -102 18 -213 19 -389 5 l-127 -11 -167 75 c-335 148 -754 278 -1332 411 -911 210 -1635 318 -2440 365 -259 14 -779 20 -988 10z m5497 -10120 c57 -69 194 -215 305 -325 287 -286 491 -439 761 -570 212 -104 386 -157 562 -172 83 -7 73 12 98 -173 88 -627 157 -976 219 -1098 15 -30 25 -57 22 -60 -4 -3 -70 -35 -149 -72 -151 -70 -314 -161 -437 -243 -89 -60 -235 -174 -270 -212 -14 -15 -50 -45 -81 -66 -150 -102 -229 -268 -229 -478 0 -53 7 -121 15 -151 8 -30 15 -70 15 -89 0 -88 69 -272 141 -378 18 -26 66 -83 108 -125 41 -43 73 -79 70 -81 -2 -1 -47 -24 -100 -51 -53 -26 -134 -77 -181 -112 -110 -83 -275 -254 -312 -324 -16 -30 -30 -56 -32 -58 -1 -2 -49 28 -106 66 -129 86 -265 167 -438 262 -74 40 -136 74 -138 75 -1 1 15 186 37 411 37 376 50 591 67 1079 12 346 -24 1230 -71 1775 -38 429 -69 700 -145 1245 -16 116 -32 237 -35 270 l-7 60 104 -140 c57 -77 151 -196 207 -265z m-13102 -1942 c0 -61 5 -98 20 -141 170 -463 1209 -980 2365 -1176 764 -130 1572 -153 2523 -70 127 11 307 24 401 29 102 6 187 16 213 25 23 8 146 29 274 47 252 35 284 48 59 24 -78 -9 -149 -16 -159 -15 -22 1 315 116 377 129 25 5 137 14 250 20 468 25 1014 83 1319 141 86 16 158 29 161 28 3 0 -44 -16 -105 -35 -933 -297 -1799 -908 -2387 -1684 -606 -802 -830 -1678 -602 -2366 33 -102 104 -252 155 -330 45 -69 46 -80 20 -132 -94 -184 -257 -640 -330 -922 -79 -304 -133 -622 -161 -956 -15 -167 -8 -701 10 -872 7 -62 10 -115 8 -118 -3 -2 -54 5 -114 16 -255 47 -647 71 -1449 90 -231 5 -421 13 -423 17 -10 29 -35 37 -193 68 -737 140 -1368 357 -2062 707 -363 184 -669 372 -912 560 -121 94 -324 284 -396 370 l-39 46 81 184 c257 578 374 1199 419 2220 5 125 23 336 40 471 16 134 39 365 50 513 31 418 84 1500 110 2234 15 432 36 553 115 660 55 75 210 207 283 242 35 17 66 37 69 44 10 25 11 15 10 -68z m87 -36 c42 -47 180 -156 256 -201 36 -21 95 -48 131 -60 37 -12 176 -77 310 -144 270 -136 407 -193 704 -290 963 -317 2023 -525 3035 -597 91 -7 166 -13 168 -15 10 -9 -564 -17 -848 -12 -1099 21 -1934 163 -2686 458 -180 71 -471 213 -604 294 -346 213 -539 433 -539 615 l0 45 22 -30 c12 -16 35 -45 51 -63z m8792 -922 c271 -21 459 -59 647 -129 671 -250 1054 -825 1023 -1535 -6 -158 -25 -308 -51 -423 -73 -321 -234 -688 -443 -1006 -256 -393 -645 -804 -1033 -1093 -192 -142 -235 -172 -494 -330 -33 -21 -136 -76 -230 -123 -582 -296 -1140 -441 -1695 -441 -536 0 -957 131 -1297 404 -134 109 -276 278 -290 347 -3 17 -10 26 -18 23 -16 -6 -71 95 -121 219 -311 784 45 1868 894 2726 l154 156 -130 -140 c-290 -311 -484 -581 -648 -900 -167 -325 -260 -622 -295 -940 -15 -145 -6 -398 21 -530 133 -666 636 -1112 1385 -1230 140 -22 482 -31 630 -16 459 46 878 172 1325 396 210 105 285 149 496 290 182 122 237 163 368 272 660 550 1122 1259 1260 1933 89 435 44 849 -126 1170 -78 147 -143 236 -258 350 -158 158 -291 246 -504 336 -348 147 -757 194 -1215 138 -327 -40 -704 -146 -1035 -293 -171 -76 -225 -90 -79 -21 508 241 974 366 1455 389 84 5 158 9 164 9 6 1 69 -3 140 -8z m-8 -204 c170 -27 291 -56 398 -96 523 -196 833 -547 945 -1070 20 -90 23 -136 23 -315 1 -221 -7 -294 -51 -475 -119 -499 -410 -1004 -827 -1440 -176 -184 -472 -443 -553 -484 -17 -8 -38 -22 -45 -30 -8 -8 -71 -51 -139 -95 -68 -45 -131 -87 -139 -95 -43 -39 -418 -229 -585 -296 -690 -277 -1392 -329 -1926 -144 -457 159 -778 471 -918 893 -56 171 -75 293 -75 501 -1 313 60 589 201 910 181 410 426 755 790 1111 390 382 823 669 1329 882 334 141 743 241 1064 260 126 8 411 -2 508 -17z m2057 -897 c183 -14 511 -62 711 -104 369 -76 854 -240 1164 -393 102 -50 116 -60 121 -87 5 -23 7 -25 8 -7 0 12 4 22 8 22 12 0 192 -99 310 -170 533 -325 979 -729 1350 -1224 188 -252 306 -444 447 -731 140 -284 208 -457 291 -745 136 -471 195 -890 195 -1384 0 -650 -126 -1287 -385 -1941 -109 -275 -247 -548 -423 -840 -442 -729 -1077 -1387 -1807 -1870 -458 -304 -861 -506 -1390 -698 -447 -162 -999 -281 -1490 -321 -744 -61 -1414 7 -2110 215 -676 202 -1309 550 -1843 1014 -135 116 -398 385 -523 535 -261 310 -511 714 -677 1090 -66 149 -167 416 -200 525 -54 181 -144 582 -154 685 -3 34 -1 35 42 48 85 25 89 31 25 31 -33 1 -65 5 -71 9 -28 18 -59 507 -51 787 10 309 57 690 123 984 75 334 249 848 359 1061 l17 33 59 -65 c120 -134 311 -272 502 -363 300 -144 612 -208 1017 -209 230 0 366 13 660 64 186 33 562 150 795 247 202 85 635 307 687 352 7 7 67 47 133 89 133 85 232 157 375 271 109 87 128 103 304 267 487 452 877 1033 1055 1571 107 323 132 453 138 740 6 215 -2 312 -33 441 -9 34 -14 68 -11 75 5 14 53 14 272 -4z"/>
<path d="M55340 13514 c-392 -73 -665 -176 -1008 -380 -427 -255 -852 -635 -1148 -1029 -319 -424 -496 -852 -534 -1294 -30 -338 65 -656 218 -735 15 -8 73 -63 130 -124 56 -60 117 -116 134 -124 28 -13 99 -15 468 -11 l435 4 60 25 c33 14 112 39 175 54 179 45 367 113 512 186 162 81 201 106 348 221 63 49 159 113 214 142 356 193 650 455 835 747 41 65 68 94 158 165 97 77 113 94 156 170 80 142 143 269 192 389 26 63 57 133 70 155 12 22 28 58 35 80 7 22 23 65 36 95 36 86 64 247 64 372 0 121 -20 199 -81 321 -94 185 -259 357 -424 440 -111 56 -171 69 -320 73 -77 3 -153 9 -170 14 -74 23 -223 42 -370 45 -88 2 -171 2 -185 -1z"/>
<path d="M59995 10562 c-66 -153 -212 -441 -315 -621 -301 -525 -619 -939 -1070 -1392 -484 -485 -1053 -932 -1800 -1417 -713 -461 -1377 -798 -1927 -976 -268 -87 -592 -157 -893 -193 -204 -24 -703 -24 -920 0 -245 28 -510 77 -655 121 -27 8 -51 14 -53 11 -5 -5 116 -41 238 -71 443 -108 1053 -134 1551 -64 792 111 1600 445 2629 1088 1081 675 1927 1407 2481 2147 319 426 578 892 730 1318 22 60 38 111 36 113 -1 2 -16 -27 -32 -64z"/>
<path d="M44340 25175 c0 -11 201 -101 300 -133 425 -139 1220 -240 1695 -216 l170 9 -100 32 c-229 73 -419 107 -960 168 -170 19 -362 42 -425 51 -195 26 -613 84 -647 90 -18 4 -33 3 -33 -1z"/>
<path d="M61131 25177 c-1 -14 69 -148 126 -240 166 -267 413 -518 682 -692 100 -65 292 -155 431 -203 179 -61 198 -59 48 7 -498 217 -955 601 -1214 1019 -74 120 -73 118 -73 109z"/>
<path d="M59596 24938 c-234 -26 -619 -123 -875 -220 -163 -62 -447 -203 -589 -293 -107 -67 -365 -256 -378 -277 -9 -14 -15 -18 156 95 163 106 469 261 680 344 341 134 626 209 1220 319 80 14 149 30 155 35 12 11 -264 9 -369 -3z"/>
<path d="M46471 24766 c-47 -57 -30 -759 34 -1391 23 -220 91 -688 136 -930 21 -115 39 -221 39 -234 0 -13 3 -22 6 -19 3 3 -2 93 -10 199 -9 107 -23 311 -31 454 -9 143 -25 376 -36 517 -11 142 -19 265 -17 275 2 10 15 -35 28 -99 13 -64 26 -115 28 -113 8 8 -51 607 -78 791 -11 72 -27 218 -36 325 -20 234 -29 266 -63 225z"/>
<path d="M46191 24527 c-1 -221 18 -1023 28 -1206 13 -222 13 629 0 1009 -12 368 -27 471 -28 197z"/>
<path d="M60039 23893 c-7 -20 -7 -57 0 -127 60 -548 526 -1432 1073 -2034 312 -343 680 -615 1059 -783 148 -66 433 -160 582 -194 245 -54 381 -68 662 -69 201 -1 286 3 375 17 188 28 323 63 461 118 302 121 456 248 591 488 26 47 48 90 48 95 0 6 -26 -28 -57 -74 -97 -142 -239 -237 -462 -310 -117 -38 -366 -85 -535 -101 -161 -15 -556 -6 -716 16 -255 35 -531 104 -726 180 -566 223 -1018 570 -1469 1130 -350 434 -657 957 -790 1345 -49 143 -80 271 -72 300 8 32 -12 34 -24 3z"/>
<path d="M57820 23438 c0 -29 -80 -429 -121 -603 -17 -71 -64 -271 -105 -444 -41 -172 -73 -315 -71 -318 5 -5 173 669 216 867 56 257 100 520 87 520 -3 0 -6 -10 -6 -22z"/>
<path d="M55455 23389 c-985 -218 -1848 -344 -2785 -406 -335 -22 -1616 -26 -1960 -5 -717 42 -1343 118 -1740 209 -14 3 -23 3 -19 0 3 -4 59 -20 125 -36 1027 -255 2869 -312 4409 -135 447 51 973 135 1437 230 368 75 842 192 773 192 -11 0 -119 -22 -240 -49z"/>
<path d="M56006 22024 c-41 -202 -38 -723 5 -749 34 -22 51 339 28 616 -12 142 -22 184 -33 133z"/>
<path d="M59305 20743 c14 -152 112 -348 294 -588 92 -121 436 -469 581 -587 626 -510 1373 -849 2153 -978 315 -52 433 -62 759 -67 448 -8 668 10 1020 83 164 33 503 125 516 140 4 4 -6 4 -23 -1 -245 -59 -422 -76 -880 -82 -731 -9 -1237 42 -1800 183 -467 117 -913 308 -1335 572 -645 404 -1195 976 -1276 1327 l-14 60 5 -62z"/>
<path d="M57842 20022 c-34 -18 -54 -44 -71 -93 -20 -55 -314 -156 -1226 -420 -137 -40 -263 -78 -280 -85 l-30 -14 40 5 c286 35 444 63 660 116 260 65 568 160 765 236 94 36 119 42 138 34 13 -6 43 -11 68 -11 39 0 51 5 80 34 60 60 47 150 -29 196 -40 25 -73 25 -115 2z"/>
<path d="M29105 17939 c-835 -8 -2044 -40 -2450 -64 -49 -3 -198 -10 -330 -15 -1635 -69 -3166 -234 -4374 -471 -1070 -210 -2230 -548 -2708 -788 -119 -59 -165 -95 -161 -125 3 -18 10 -21 53 -23 28 -1 42 1 33 4 -10 2 -18 8 -18 12 0 9 427 151 690 230 1289 388 2494 632 3745 760 1097 112 2256 169 4115 202 763 13 2838 13 3660 -1 344 -5 909 -15 1255 -20 347 -6 837 -15 1090 -21 1107 -27 3022 -13 3885 27 173 8 434 17 580 20 l265 6 205 -56 c113 -31 384 -101 602 -156 772 -194 1038 -275 1253 -379 116 -57 208 -123 219 -159 17 -54 -84 -196 -227 -319 -112 -96 -136 -113 -246 -175 -47 -26 -82 -48 -76 -48 5 0 65 18 133 41 68 23 126 39 128 36 3 -3 -2 -17 -11 -31 -13 -19 -16 -37 -11 -66 6 -40 5 -42 -81 -132 -218 -226 -636 -537 -1067 -795 -184 -110 -539 -293 -733 -378 -73 -32 -131 -60 -129 -62 4 -5 178 60 311 117 55 23 199 91 320 150 497 246 927 540 1386 951 52 47 85 68 111 73 30 6 48 20 101 84 79 95 99 133 95 180 -3 33 1 38 52 73 72 50 127 112 158 177 20 44 23 65 20 115 -6 84 -30 130 -108 207 -148 145 -435 269 -903 389 -321 83 -592 135 -1127 216 -527 80 -838 143 -871 176 -13 13 -19 15 -19 6 0 -38 110 -102 270 -159 67 -23 88 -34 71 -36 -26 -4 -530 26 -571 33 -25 5 -250 16 -715 35 -247 10 -475 20 -915 40 -124 5 -466 17 -760 25 -294 8 -654 19 -800 25 -1453 54 -3785 84 -5395 69z"/>
<path d="M65140 17587 c-25 -56 -53 -221 -85 -492 -41 -348 -74 -607 -100 -780 -35 -234 -83 -580 -100 -735 -9 -74 -20 -162 -25 -195 -6 -33 -9 -71 -9 -85 1 -21 2 -19 10 10 83 303 145 546 174 678 91 420 149 904 181 1510 6 120 5 132 -10 132 -11 0 -25 -17 -36 -43z"/>
<path d="M56431 17383 c-20 -211 -69 -582 -112 -858 -43 -282 -59 -455 -41 -455 42 0 117 465 152 944 12 177 25 496 19 496 -3 0 -11 -57 -18 -127z"/>
<path d="M35451 17456 c2 -2 51 -11 109 -21 292 -47 1237 -220 1535 -281 723 -148 1268 -345 1313 -473 9 -25 6 -38 -14 -80 -14 -28 -39 -62 -56 -76 -41 -35 -18 -31 69 11 87 41 113 75 113 145 0 86 -76 157 -265 250 -413 201 -1265 373 -2500 504 -228 24 -313 30 -304 21z"/>
<path d="M56667 17128 c-4 -161 -4 -365 0 -453 l7 -160 25 95 c23 86 25 113 25 285 0 143 -6 231 -23 355 -13 91 -24 166 -25 168 -2 1 -6 -130 -9 -290z"/>
<path d="M25550 17299 c-865 -24 -2026 -166 -3270 -400 -522 -98 -839 -187 -1061 -299 -225 -113 -393 -302 -413 -465 l-7 -50 19 46 c50 121 158 218 347 310 228 110 606 196 1450 329 644 101 1064 159 1930 270 83 10 267 31 410 45 143 14 384 39 535 55 151 16 324 35 385 41 110 11 203 10 1440 -21 215 -6 739 -17 1165 -25 2334 -44 2784 -54 3630 -85 873 -32 1354 -52 1950 -81 503 -24 1450 -61 1905 -74 481 -14 961 -30 1239 -40 241 -9 198 -3 -529 70 -82 8 -215 22 -295 30 -327 34 -778 76 -970 90 -1039 76 -1465 102 -2190 134 -124 6 -261 13 -305 16 -119 8 -811 33 -1215 45 -953 27 -1300 32 -2945 41 -973 6 -1869 14 -1990 18 -271 11 -835 10 -1215 0z"/>
<path d="M38455 17229 c-66 -4 -183 -14 -260 -22 -77 -9 -207 -19 -290 -23 l-150 -8 145 -12 c241 -21 345 -44 715 -159 77 -24 202 -60 278 -80 75 -21 137 -40 138 -44 7 -42 6 -183 -2 -208 -12 -38 -179 -201 -264 -257 -62 -42 -175 -90 -237 -101 -28 -5 -38 -12 -38 -26 0 -30 45 -42 130 -35 128 9 216 47 412 178 148 99 209 157 226 216 24 81 42 262 30 315 -28 134 -178 222 -440 261 -110 17 -193 18 -393 5z"/>
<path d="M40165 16675 c-683 -298 -1678 -585 -2560 -740 -82 -14 -256 -46 -385 -70 -677 -127 -1434 -231 -2575 -354 -1005 -109 -2212 -179 -3810 -223 -597 -16 -2728 -16 -3350 0 -1171 30 -2132 79 -3145 158 -849 66 -1948 187 -2845 314 -714 101 -1450 222 -1880 310 -82 17 -163 33 -180 37 -16 3 -28 3 -25 0 21 -23 1148 -268 1730 -376 2186 -406 4398 -622 7205 -703 660 -19 2679 -16 3325 5 2411 79 3935 242 5600 598 614 131 1501 411 2099 660 388 163 1049 473 996 468 -5 -1 -95 -38 -200 -84z"/>
<path d="M55555 16593 c-16 -141 -34 -720 -20 -688 8 19 51 845 44 845 -3 0 -13 -71 -24 -157z"/>
<path d="M48721 16280 c0 -19 12 -172 29 -340 16 -168 36 -406 45 -530 30 -439 34 -458 30 -160 -2 151 -11 347 -19 435 -20 200 -64 549 -75 595 l-9 35 -1 -35z"/>
<path d="M48233 15930 c3 -195 13 -425 21 -510 18 -185 53 -485 65 -555 17 -102 12 102 -9 315 -32 343 -50 593 -59 848 -5 134 -12 247 -16 250 -4 4 -5 -153 -2 -348z"/>
<path d="M49443 15988 c5 -189 52 -576 91 -764 8 -39 18 -101 22 -138 4 -37 10 -69 14 -71 4 -3 11 68 15 158 7 164 0 282 -31 522 -23 182 -90 485 -107 485 -6 0 -8 -74 -4 -192z"/>
<path d="M18880 15931 c-32 -61 9 -183 83 -244 117 -96 369 -207 674 -296 l72 -22 69 -137 c171 -336 423 -992 767 -1987 51 -148 139 -398 195 -555 56 -157 142 -402 190 -545 48 -143 118 -341 155 -440 71 -190 322 -938 450 -1338 42 -132 78 -237 81 -235 5 6 -199 835 -346 1408 -264 1025 -669 2227 -1025 3041 -101 231 -239 510 -313 634 -41 69 -56 101 -46 103 7 2 46 -6 86 -17 40 -11 161 -40 268 -65 917 -211 2408 -451 4040 -651 2273 -278 4289 -433 6340 -486 516 -13 1901 -7 2265 10 1191 56 2090 158 3116 355 196 38 1416 333 1384 335 -6 1 -94 -14 -196 -33 -225 -42 -588 -99 -804 -125 -88 -11 -221 -29 -295 -40 -532 -79 -1515 -179 -2215 -226 -205 -13 -318 -19 -860 -45 -1068 -51 -2795 -29 -4415 55 -505 27 -1443 86 -1590 100 -30 3 -147 12 -260 20 -1380 99 -3416 327 -4855 545 -71 11 -209 31 -305 45 -632 93 -1221 199 -1646 295 -73 17 -134 30 -138 30 -3 0 -33 25 -67 55 -70 62 -98 68 -127 28 l-19 -27 -154 53 c-371 126 -535 244 -517 372 2 19 11 25 38 29 l35 6 -40 7 c-58 10 -63 9 -75 -12z"/>
<path d="M40031 15283 c-94 -33 -245 -206 -378 -434 -155 -263 -507 -994 -878 -1819 -73 -162 -220 -488 -327 -725 -108 -236 -254 -569 -326 -740 -72 -170 -204 -483 -295 -695 -90 -212 -203 -484 -249 -605 -133 -344 -311 -775 -318 -770 -4 3 -13 -17 -21 -43 -7 -26 -34 -99 -61 -162 -53 -126 -57 -141 -28 -92 20 32 33 43 25 20 -2 -7 -38 -139 -80 -293 -97 -353 -188 -649 -272 -880 -68 -188 -87 -236 -263 -660 -59 -143 -110 -268 -113 -278 -4 -9 -18 -22 -31 -27 -54 -20 -106 -62 -106 -85 0 -41 29 -52 80 -31 12 5 15 -5 16 -53 0 -33 6 -66 13 -75 11 -13 10 -17 -10 -25 -13 -5 -69 -30 -124 -56 -133 -62 -623 -268 -805 -338 -241 -93 -528 -173 -790 -221 -159 -29 -329 -50 -338 -42 -7 7 -18 -2 182 150 86 65 156 121 156 123 0 2 -24 -10 -52 -27 -109 -64 -293 -152 -427 -205 -113 -45 -150 -55 -202 -56 l-64 -1 44 -10 c40 -9 43 -11 25 -21 -17 -10 -185 -87 -489 -224 -321 -145 -656 -243 -943 -275 -62 -6 -106 -15 -99 -19 7 -5 70 -13 139 -19 324 -28 724 53 1117 225 137 59 434 224 504 278 l57 44 122 7 c251 14 458 46 724 111 481 118 1140 403 1524 658 138 92 250 179 244 189 -7 11 -117 7 -247 -8 l-58 -7 46 129 c26 71 91 259 146 419 97 281 102 293 180 412 257 396 502 907 647 1353 90 275 197 686 173 667 -26 -22 -88 -169 -171 -407 -92 -261 -196 -526 -289 -730 -97 -212 -319 -636 -328 -626 -2 1 19 92 46 202 55 218 117 521 152 739 l22 140 153 300 c83 165 200 388 258 495 164 300 786 1548 959 1921 241 521 469 1027 787 1744 300 677 449 995 541 1157 81 143 159 256 198 289 l36 29 -45 -1 c-25 0 -65 -8 -89 -16z m-3161 -8231 c0 -12 -315 -182 -339 -182 -11 0 44 126 63 148 20 21 276 53 276 34z"/>
<path d="M66965 15014 c270 -84 535 -172 635 -211 514 -200 924 -519 1026 -799 29 -78 39 -169 26 -218 -10 -34 -9 -36 5 -24 31 25 63 110 63 168 -1 66 -33 165 -80 245 -45 75 -201 239 -306 321 -313 244 -669 395 -1163 493 -259 51 -313 58 -206 25z"/>
<path d="M64930 14289 c-245 -8 -395 -19 -710 -50 -902 -88 -1621 -273 -1972 -506 -105 -69 -177 -172 -178 -253 0 -87 105 -201 255 -275 435 -216 1253 -337 2280 -338 1032 -1 2005 121 2657 332 429 140 653 284 689 445 11 52 10 58 -15 110 -180 367 -1431 590 -3006 535z"/>
<path d="M68597 13530 c-51 -103 -152 -235 -269 -354 -73 -73 -103 -97 -117 -93 -13 3 -18 0 -15 -8 13 -34 -280 -231 -536 -360 -355 -179 -757 -335 -990 -385 l-85 -18 55 -1 c94 -1 300 18 415 39 372 66 820 290 1141 569 l94 82 38 -29 c69 -56 397 -396 494 -512 418 -504 804 -1166 1000 -1715 77 -216 133 -434 237 -925 52 -244 93 -399 86 -325 -3 28 -12 133 -21 235 -53 632 -197 1142 -482 1706 -333 659 -813 1248 -1253 1541 -38 25 -69 48 -69 50 0 3 25 34 55 70 112 131 189 262 240 404 37 105 28 120 -18 29z"/>
<path d="M21731 10844 c-1 -30 34 -200 65 -314 50 -186 139 -446 442 -1286 245 -677 421 -1299 517 -1819 25 -133 45 -247 45 -253 0 -24 -22 -10 -90 56 -105 104 -140 198 -111 300 13 45 -6 31 -30 -22 -12 -27 -19 -64 -19 -107 0 -56 5 -77 35 -136 180 -360 1037 -815 2077 -1104 1080 -299 2568 -441 4303 -410 605 11 864 21 1225 46 1154 81 1745 163 2665 371 481 108 538 126 234 74 -798 -137 -1513 -188 -3169 -226 -750 -17 -1947 -14 -2385 6 -1047 48 -1659 110 -2359 240 -873 162 -1786 488 -2266 810 l-86 58 -23 183 c-85 694 -247 1257 -744 2589 -198 531 -237 645 -291 840 -19 69 -35 115 -35 104z"/>
<path d="M70136 9243 c2 -120 -19 -227 -49 -251 -14 -11 -306 -174 -502 -279 -938 -507 -1703 -740 -2815 -857 -695 -73 -1322 -84 -2030 -36 -544 38 -1086 129 -1627 274 -164 44 -193 50 -193 38 0 -6 28 -19 63 -30 34 -11 164 -56 289 -100 508 -181 922 -266 1508 -312 1171 -90 2402 16 3365 291 703 201 1362 518 1835 882 47 36 86 64 88 63 6 -7 -101 -269 -208 -506 -97 -218 -284 -560 -440 -806 -184 -289 -513 -760 -683 -979 l-39 -50 47 50 c26 28 126 141 222 253 647 751 988 1330 1139 1932 l44 175 53 48 c51 48 49 53 -6 14 -16 -10 -31 -16 -34 -13 -3 3 1 40 10 81 18 82 23 160 8 136 -6 -10 -14 3 -25 43 -9 31 -18 56 -19 56 -2 0 -2 -53 -1 -117z"/>
<path d="M39630 7675 c364 -20 678 -40 1400 -90 619 -43 1144 -69 1560 -79 l205 -4 -190 18 c-950 93 -2045 158 -2765 165 l-465 4 255 -14z"/>
<path d="M68649 6534 c-62 -64 -297 -207 -538 -328 -232 -117 -695 -301 -896 -356 -44 -12 -84 -26 -90 -30 -31 -24 -525 -155 -788 -209 -137 -29 -245 -42 -152 -19 22 5 215 53 428 105 214 52 387 97 384 99 -2 2 -82 -12 -178 -31 -325 -64 -659 -113 -1199 -175 -478 -54 -1090 -76 -1320 -46 -280 37 -669 128 -940 221 -208 72 -375 147 -580 260 -61 34 -63 34 -33 8 91 -80 442 -272 643 -351 58 -22 98 -41 89 -41 -22 -1 -289 65 -404 100 -231 71 -502 192 -724 324 -61 36 -112 65 -115 65 -35 0 55 -88 159 -155 241 -157 554 -285 940 -383 274 -70 484 -106 820 -141 105 -11 237 -27 295 -35 574 -83 1286 -47 1942 98 835 185 1647 532 2143 916 90 70 167 140 154 140 -3 0 -21 -16 -40 -36z"/>
</g>
</svg>