<?xml version="1.0" encoding="UTF-8" standalone="no"?>
<!DOCTYPE svg PUBLIC "-//W3C//DTD SVG 20010904//EN" "http://www.w3.org/TR/2001/REC-SVG-20010904/DTD/svg10.dtd">
<svg version="1.0" xmlns="http://www.w3.org/2000/svg" width="9550.000000pt" height="5929.000000pt" viewBox="0 0 9550.000000 5929.000000" preserveAspectRatio="xMidYMid meet">
<metadata>
Created by potrace 1.16, written by Peter Selinger 2001-2019
</metadata>
<g transform="translate(0.000000,5929.000000) scale(0.100000,-0.100000)" fill="#000000" stroke="none">
<path d="M26840 51666 c-622 -103 -1099 -398 -1423 -879 -65 -97 -169 -311 -208 -426 -28 -86 -37 -101 -113 -186 -188 -212 -314 -461 -396 -785 -116 -456 -117 -942 -4 -1351 62 -225 143 -389 271 -546 18 -23 42 -67 53 -97 23 -67 35 -91 71 -137 16 -20 29 -39 29 -42 0 -3 -35 -3 -78 0 -143 10 -236 -44 -305 -175 -58 -109 -71 -180 -71 -382 -1 -234 29 -394 120 -650 75 -206 256 -565 406 -800 26 -41 43 -77 37 -78 -5 -2 -49 3 -97 12 -120 21 -420 30 -567 17 -224 -20 -555 -99 -764 -182 -842 -335 -1590 -1026 -2004 -1849 -198 -396 -323 -901 -290 -1170 l9 -65 12 97 c54 430 307 938 706 1418 92 111 397 416 511 511 390 325 786 561 1248 743 92 36 177 66 188 66 80 0 228 -178 355 -427 370 -730 555 -2050 438 -3128 -51 -470 -165 -966 -345 -1492 -78 -228 -179 -552 -180 -576 0 -12 -8 -53 -18 -92 -16 -61 -17 -67 -2 -45 9 13 39 55 68 93 91 121 226 403 318 662 171 486 275 962 332 1515 14 140 18 263 18 615 -1 385 -4 466 -23 650 -53 500 -131 894 -244 1244 -69 214 -117 332 -202 497 -92 177 -147 257 -255 364 -79 78 -125 108 -206 135 -25 8 42 35 265 105 85 27 223 71 305 99 143 48 376 114 440 124 29 4 34 -2 120 -121 114 -159 260 -309 385 -392 79 -53 90 -57 63 -29 -18 19 -33 38 -33 42 0 4 16 7 35 7 44 0 90 19 132 54 17 15 34 22 38 17 3 -6 0 -50 -6 -100 -10 -70 -10 -123 0 -241 25 -319 132 -947 226 -1340 51 -211 86 -376 121 -570 13 -74 22 -110 19 -80 -2 30 -9 217 -15 415 -11 402 -11 407 -46 665 -27 199 -90 510 -184 899 -33 135 -58 246 -56 248 1 2 25 -29 51 -69 345 -522 983 -1127 1480 -1405 290 -163 449 -208 928 -265 172 -21 387 17 549 97 39 20 72 34 74 32 3 -3 -18 -81 -162 -605 -64 -230 -175 -676 -229 -914 -25 -112 -61 -259 -80 -327 -19 -69 -33 -126 -31 -128 1 -2 18 36 36 85 18 48 82 197 142 332 257 579 397 1045 463 1545 l18 130 64 69 c74 78 140 175 186 274 24 52 54 90 131 167 163 164 240 263 391 500 55 86 165 311 218 445 82 205 158 471 192 670 9 52 18 100 20 106 2 7 77 -25 185 -77 475 -233 761 -432 1062 -736 231 -233 348 -377 531 -650 600 -895 928 -2022 892 -3068 -3 -110 -11 -243 -16 -295 -5 -52 -14 -158 -19 -235 -40 -536 -90 -690 -387 -1188 -266 -447 -374 -718 -467 -1178 -72 -356 -106 -656 -106 -944 0 -210 21 -370 60 -460 16 -37 20 -61 16 -95 -9 -68 -25 -550 -36 -1045 -13 -609 -34 -873 -95 -1222 -68 -381 -215 -925 -394 -1453 -48 -140 -241 -683 -252 -710 -21 -49 -67 -240 -59 -245 15 -9 89 106 158 244 l66 134 18 -69 c23 -92 95 -234 167 -332 164 -221 349 -372 773 -630 307 -187 517 -401 607 -617 17 -40 33 -92 37 -116 l7 -44 -69 67 c-38 37 -85 79 -104 94 -111 82 -250 157 -283 152 -21 -3 -20 -6 14 -39 20 -19 93 -79 163 -134 219 -169 279 -253 301 -416 7 -55 15 -102 18 -105 11 -11 48 8 64 33 9 13 18 50 19 81 2 31 8 86 14 121 33 204 -72 469 -291 738 -130 158 -260 261 -584 464 -364 227 -474 308 -607 447 -85 89 -146 174 -189 265 -49 104 -49 102 36 327 257 681 460 1410 534 1915 49 337 55 441 56 1005 0 294 -3 634 -7 755 -4 121 -3 211 1 200 6 -14 10 -2 14 42 4 34 21 105 38 160 65 201 78 283 154 988 82 753 115 909 326 1528 102 300 135 384 224 568 205 424 288 764 314 1289 29 591 -72 1250 -287 1880 -414 1209 -1165 2131 -2037 2501 -157 67 -325 122 -459 151 l-108 23 6 65 c30 322 33 564 11 904 -13 211 -13 220 5 243 10 13 33 69 50 124 21 69 47 125 84 182 88 135 173 296 216 407 22 58 54 130 70 161 34 65 92 259 111 374 17 97 16 679 -1 837 -34 323 -100 569 -231 866 -94 211 -159 392 -159 440 0 31 -38 173 -66 242 -74 186 -230 374 -428 513 -48 34 -136 110 -195 168 -296 294 -665 488 -1105 581 -147 31 -157 32 -416 32 -238 1 -277 -1 -378 -22 l-113 -23 -87 40 c-91 42 -161 64 -252 81 -30 6 -90 24 -133 41 -43 16 -122 36 -175 44 -145 22 -370 27 -472 11z m2651 -3297 c8 -14 13 -60 14 -111 1 -101 17 -133 77 -156 74 -28 205 25 318 129 29 27 54 48 55 46 0 -1 13 -40 28 -87 47 -149 154 -304 279 -405 42 -33 60 -55 67 -83 5 -20 19 -75 31 -122 12 -47 36 -123 54 -170 27 -70 34 -105 40 -197 4 -61 11 -126 16 -145 6 -18 9 -53 9 -78 -1 -38 -3 -35 -10 23 -4 38 -10 71 -12 74 -3 2 -8 -35 -12 -84 -4 -54 -20 -134 -41 -205 -40 -136 -42 -176 -12 -229 21 -38 21 -40 9 -286 -20 -421 -57 -704 -132 -1013 -107 -435 -261 -796 -542 -1270 -202 -341 -245 -415 -277 -480 -18 -36 -50 -95 -71 -132 -36 -62 -42 -67 -67 -62 -33 7 -50 -10 -84 -81 -30 -63 -90 -110 -233 -180 -229 -113 -466 -140 -731 -86 -51 11 -131 35 -180 54 -49 20 -90 35 -91 33 -2 -2 18 -27 44 -57 l48 -53 -45 26 c-25 14 -117 66 -205 116 -506 284 -792 499 -1175 882 -227 227 -420 452 -595 698 -36 51 -37 54 -26 96 21 83 -24 143 -73 97 l-22 -21 -62 103 c-60 100 -94 174 -112 246 -8 29 -8 25 -4 -24 7 -76 51 -210 104 -315 l41 -81 -26 -34 c-30 -38 -56 -57 -102 -73 -25 -8 -33 -8 -33 0 0 7 -6 4 -13 -6 -12 -16 -19 -7 -74 81 -248 400 -561 1046 -671 1383 -71 219 -86 309 -87 520 0 202 11 260 61 320 27 32 103 54 162 48 30 -3 35 -8 51 -55 21 -61 64 -126 101 -153 20 -14 29 -33 38 -81 6 -34 20 -79 31 -100 23 -44 22 -45 -21 -23 -47 24 -136 15 -181 -19 -141 -108 -120 -420 46 -667 102 -152 199 -239 294 -264 l50 -13 -26 51 c-15 28 -68 114 -118 191 -151 233 -187 320 -188 455 0 159 52 206 163 147 47 -25 172 -132 172 -148 0 -5 -11 -9 -25 -9 -14 0 -29 -8 -35 -20 -10 -18 1 -32 83 -119 146 -152 159 -213 73 -352 -26 -41 -49 -91 -52 -110 -7 -51 23 -92 96 -129 73 -37 100 -62 100 -94 0 -33 -11 -38 -78 -37 -31 0 -62 -5 -69 -11 -21 -17 -16 -65 9 -82 28 -20 126 -21 172 -2 66 28 99 102 75 173 -19 60 -47 90 -121 128 -37 20 -68 42 -68 49 0 6 14 34 32 62 52 81 70 131 69 192 0 118 -66 226 -184 306 -24 16 -57 55 -88 106 -27 45 -61 97 -76 117 l-28 36 35 -18 c21 -11 58 -19 93 -19 57 -1 58 -1 67 -36 14 -52 36 -78 79 -91 31 -9 43 -8 68 4 l30 16 46 -117 c80 -208 135 -433 154 -637 l6 -70 18 146 c26 224 39 452 46 809 6 365 3 349 86 440 62 68 88 109 117 185 20 53 24 82 28 251 l4 192 127 4 c106 4 137 9 195 31 168 66 306 216 357 392 11 38 35 105 52 148 l32 78 60 -8 c79 -10 202 -5 265 11 28 7 50 9 50 4 0 -12 -46 -57 -80 -80 l-25 -16 70 -33 c58 -28 84 -34 157 -37 112 -6 222 11 353 52 103 33 111 32 72 -11 -33 -37 -17 -49 68 -56 89 -7 139 6 260 63 44 21 118 48 165 60 86 23 266 101 321 141 17 11 32 19 34 17 2 -2 -11 -46 -30 -96 -86 -228 -59 -357 73 -357 131 0 285 139 427 384 35 61 80 131 101 157 l38 46 17 -50 c9 -27 23 -60 30 -73z"/>
<path d="M28108 47540 c-139 -22 -285 -89 -535 -246 -75 -47 -153 -94 -174 -105 -65 -33 -188 -61 -302 -68 -91 -6 -112 -11 -124 -27 -20 -27 -10 -87 21 -129 33 -42 140 -97 226 -115 36 -7 67 -15 69 -16 2 -2 -19 -28 -46 -57 -51 -53 -91 -117 -75 -117 5 0 17 9 28 21 10 11 46 36 81 55 225 126 528 153 709 62 49 -24 111 -73 79 -63 -81 27 -168 37 -280 32 -237 -11 -358 -51 -556 -183 -136 -90 -179 -110 -230 -102 -19 2 -25 11 -29 38 l-6 35 -17 -32 c-9 -18 -17 -42 -17 -55 0 -79 126 -129 245 -97 22 6 93 37 159 70 126 63 150 70 142 42 -25 -90 -13 -163 37 -220 l32 -36 -40 7 c-22 4 -110 25 -195 46 -187 46 -245 56 -254 41 -20 -31 144 -121 299 -165 121 -34 221 -46 378 -46 152 0 314 21 406 51 50 17 68 19 83 10 27 -17 36 -14 73 27 30 32 35 44 35 88 0 28 -11 83 -25 124 -14 40 -25 75 -25 77 0 2 9 -1 21 -7 20 -11 20 -11 5 19 -9 16 -16 45 -16 63 0 47 -49 144 -104 205 -56 62 -160 133 -236 161 l-55 20 35 15 c19 8 78 33 130 55 116 50 183 66 413 101 157 24 180 26 199 13 19 -14 20 -13 14 6 -4 12 -9 44 -11 72 -9 136 -131 262 -302 313 -67 20 -193 28 -265 17z m-258 -1016 c0 -29 -7 -43 -37 -71 -34 -31 -43 -34 -81 -30 -24 3 -47 9 -52 13 -4 5 -10 32 -13 61 l-6 52 37 4 c20 2 63 4 95 5 l57 2 0 -36z m315 10 c17 -4 40 -18 52 -33 20 -23 22 -38 22 -121 1 -52 -5 -115 -13 -139 l-13 -45 -104 3 c-57 1 -106 4 -108 7 -2 2 11 20 29 40 54 62 73 118 74 216 1 73 4 87 16 83 8 -2 29 -7 45 -11z"/>
<path d="M29744 47450 c-112 -15 -200 -48 -278 -103 -41 -29 -86 -105 -86 -145 0 -87 34 -101 263 -112 100 -5 209 -12 242 -15 76 -8 357 -55 368 -62 5 -3 17 -18 26 -34 l18 -30 8 58 c15 104 11 184 -12 228 -27 52 -107 127 -170 158 -98 50 -257 74 -379 57z"/>
<path d="M29783 47020 c-225 -23 -355 -93 -476 -258 -44 -60 -82 -157 -74 -189 4 -16 5 -16 11 2 20 56 46 91 124 170 147 146 242 179 527 180 182 0 233 -11 325 -69 79 -50 96 -17 28 53 -88 90 -263 131 -465 111z"/>
<path d="M29740 46786 c-90 -19 -189 -57 -256 -97 -73 -45 -160 -132 -190 -191 -23 -46 -34 -93 -12 -53 19 36 82 96 120 116 l37 19 -6 -83 c-7 -103 5 -144 57 -190 l38 -35 -82 -6 c-127 -10 -256 -28 -256 -36 0 -14 157 -41 305 -52 204 -15 431 0 523 34 34 14 60 27 57 30 -3 3 10 21 29 41 60 64 85 136 101 288 6 55 6 55 35 51 25 -4 30 -1 30 16 0 55 -51 105 -140 138 -61 23 -300 29 -390 10z m393 -145 c4 -4 3 -55 -2 -112 -10 -116 -31 -172 -93 -241 -33 -37 -33 -37 -95 -31 l-63 6 34 37 c19 21 47 59 62 86 28 47 29 53 26 162 l-3 113 63 -7 c35 -3 66 -10 71 -13z m-333 -51 c0 -66 -8 -75 -70 -82 l-35 -3 -5 55 c-3 30 -9 60 -13 67 -8 12 17 19 86 22 l37 1 0 -60z"/>
<path d="M29160 46433 c-31 -39 -25 -109 12 -136 24 -18 30 -18 57 -7 35 14 46 43 38 97 -12 72 -68 96 -107 46z"/>
<path d="M29337 45663 c-17 -16 -4 -45 35 -75 23 -18 66 -57 95 -86 81 -82 90 -140 40 -243 l-23 -47 25 11 c80 34 111 78 111 157 0 88 -63 180 -174 252 -55 36 -94 47 -109 31z"/>
<path d="M28125 45492 c-40 -25 -94 -88 -112 -131 -17 -40 -19 -143 -4 -182 15 -41 69 -98 114 -121 57 -28 183 -23 244 12 66 36 62 46 -25 59 -107 17 -166 37 -197 69 -25 25 -27 32 -22 89 8 99 42 148 132 187 6 3 1 12 -9 20 -27 21 -84 20 -121 -2z"/>
<path d="M28553 45246 c-28 -14 -59 -36 -69 -51 -16 -24 -16 -27 0 -43 14 -14 41 -17 181 -17 143 0 166 2 182 17 13 14 15 24 7 45 -24 71 -194 98 -301 49z"/>
<path d="M29258 45255 c-15 -8 -32 -25 -38 -36 -16 -29 11 -69 48 -69 15 0 38 -9 52 -20 30 -24 49 -25 78 -4 32 22 30 83 -2 113 -31 30 -100 37 -138 16z"/>
<path d="M29080 44770 c-25 -4 -68 -17 -95 -28 -86 -34 -225 -123 -225 -143 0 -19 65 -7 153 27 125 49 182 64 247 64 67 0 141 -32 188 -82 l32 -34 -22 -22 c-49 -45 -246 -53 -664 -26 -167 11 -312 14 -439 10 l-190 -5 125 50 c150 60 223 79 312 79 81 0 110 -10 160 -56 45 -41 62 -40 66 3 4 35 -33 85 -79 108 -73 38 -250 35 -372 -6 -34 -11 -114 -45 -176 -75 -127 -60 -226 -91 -244 -75 -19 15 -99 41 -129 41 -68 0 -112 -97 -69 -151 27 -35 62 -43 107 -24 22 9 68 15 118 15 44 0 141 9 214 20 74 11 148 20 165 21 l32 1 -30 9 c-16 4 -57 13 -90 18 -104 17 228 2 440 -20 299 -31 504 -35 674 -14 174 21 235 17 314 -25 52 -27 63 -30 88 -20 36 15 79 78 79 116 0 76 -95 102 -158 45 -28 -26 -36 -29 -64 -20 -18 5 -45 9 -59 9 -20 0 -30 7 -39 30 -17 42 -92 107 -156 137 -61 28 -143 37 -214 23z"/>
<path d="M28995 44122 c-123 -33 -319 -40 -509 -18 -76 9 -148 16 -158 16 -34 0 -14 -22 37 -42 190 -75 541 -90 643 -28 29 18 89 87 81 94 -2 2 -44 -8 -94 -22z"/>
<path d="M73143 51655 c-65 -18 -163 -67 -226 -112 l-47 -35 -39 35 c-21 19 -55 40 -76 47 -51 17 -139 8 -173 -17 -15 -11 -86 -37 -157 -57 -392 -112 -656 -275 -1079 -665 -21 -20 -36 -30 -32 -23 11 19 -1 15 -98 -32 -71 -35 -131 -54 -271 -86 -330 -75 -492 -128 -690 -228 -172 -86 -294 -171 -620 -432 -448 -359 -603 -471 -752 -542 -150 -71 -317 -97 -399 -63 -53 22 -28 -4 30 -31 93 -43 236 -27 421 47 201 81 443 235 791 506 449 349 583 414 1209 588 199 55 302 111 341 186 25 49 360 307 594 457 200 128 405 216 580 248 l89 16 52 -26 c29 -14 60 -26 68 -26 8 0 43 -10 78 -22 66 -22 89 -44 78 -79 -6 -19 -8 -19 -37 6 -16 14 -39 25 -51 25 -67 0 -201 -111 -213 -178 -4 -20 -12 -43 -18 -51 -19 -24 -103 -82 -296 -205 -386 -246 -590 -429 -785 -701 -22 -31 -12 -24 46 31 87 84 165 142 427 319 232 156 486 336 602 428 47 36 105 77 130 90 25 13 59 31 75 40 17 8 55 21 87 27 160 31 237 166 166 292 l-26 47 46 15 c84 27 175 37 232 25 121 -26 210 -190 210 -386 0 -127 -38 -218 -158 -379 -183 -246 -449 -488 -893 -814 -186 -136 -292 -220 -285 -227 20 -20 489 275 761 479 402 300 629 534 700 720 15 41 23 49 54 58 154 43 243 -27 303 -237 29 -104 31 -314 4 -413 -66 -239 -193 -412 -585 -797 -135 -134 -243 -243 -239 -243 4 0 62 22 129 50 216 87 366 186 522 344 202 204 318 429 349 672 11 88 13 94 33 88 11 -4 26 -11 33 -17 60 -48 98 -305 82 -542 -11 -154 -25 -217 -56 -250 -28 -30 -30 -37 -9 -29 21 8 19 -5 -10 -83 -51 -136 -148 -300 -324 -548 -39 -55 -94 -138 -123 -184 -84 -138 -301 -376 -403 -443 -79 -52 -163 -76 -320 -91 l-130 -13 76 -8 c92 -10 225 5 301 34 31 11 84 39 117 60 72 46 220 186 294 278 28 34 67 75 87 90 l35 26 -42 -50 c-23 -28 -49 -57 -58 -64 -8 -7 -15 -17 -15 -23 0 -5 26 15 58 45 77 73 141 119 328 236 308 192 414 244 699 346 88 32 174 66 190 75 19 11 44 16 65 13 45 -5 81 22 110 84 67 138 -78 319 -316 390 -108 33 -301 19 -414 -30 -13 -5 -15 14 -16 141 -2 222 -41 413 -108 528 -34 56 -68 80 -118 79 l-38 -1 0 61 c0 157 -59 370 -128 461 -45 60 -126 111 -190 119 -43 6 -112 -6 -164 -29 -16 -6 -18 0 -18 61 -1 205 -108 419 -240 481 -62 29 -134 35 -197 18z m1551 -2020 c84 -22 148 -60 206 -121 37 -39 50 -61 50 -83 0 -51 -9 -62 -44 -55 -79 14 -286 -46 -481 -141 -126 -61 -303 -171 -356 -221 -46 -44 -40 -25 19 64 114 170 183 318 223 482 l22 89 56 4 c93 7 242 -2 305 -18z"/>
<path d="M48678 50220 c-348 -27 -650 -102 -897 -221 l-124 -60 -178 10 c-304 19 -605 -20 -889 -116 -386 -130 -665 -324 -925 -645 -29 -36 -35 -38 -175 -69 -208 -45 -286 -72 -454 -157 -214 -108 -340 -195 -472 -326 -152 -152 -233 -278 -284 -441 -23 -78 -50 -236 -50 -303 0 -28 -11 -65 -31 -105 -56 -114 -74 -196 -74 -347 0 -122 3 -143 28 -215 31 -87 91 -196 140 -251 25 -29 28 -37 16 -45 -8 -5 -19 -9 -25 -9 -19 0 -101 -78 -150 -143 -84 -113 -152 -271 -191 -449 -28 -129 -25 -422 5 -543 98 -390 345 -704 632 -802 l65 -22 7 -88 c4 -48 19 -131 34 -183 17 -62 29 -135 33 -210 5 -83 13 -128 27 -161 27 -58 76 -113 115 -129 22 -10 37 -27 51 -59 31 -72 121 -202 198 -284 39 -42 70 -84 70 -95 0 -52 -113 -129 -231 -157 -73 -17 -214 -20 -256 -5 -25 9 -23 5 17 -31 56 -51 133 -88 199 -96 106 -12 250 54 327 151 33 41 44 45 44 15 0 -12 16 -37 35 -56 31 -31 40 -35 80 -31 25 2 45 0 45 -3 0 -11 -76 -123 -113 -168 -47 -55 -52 -75 -51 -191 1 -192 76 -321 266 -458 11 -8 -2 28 -38 105 -114 239 -121 260 -125 384 -3 73 -2 78 28 112 145 165 265 477 293 759 8 87 8 158 0 280 -6 89 -13 165 -16 167 -2 2 -4 -4 -4 -15 0 -54 -31 -376 -41 -424 -18 -95 -18 -94 -40 -75 -18 17 -18 18 3 35 20 15 20 20 9 48 -8 18 -27 37 -46 46 -65 31 -261 15 -405 -34 l-85 -29 -32 37 c-34 38 -42 62 -22 62 15 0 50 37 77 81 11 19 32 75 47 124 15 50 48 135 73 189 46 101 60 166 48 229 -9 47 -226 377 -247 377 -19 0 -29 -78 -19 -151 15 -120 14 -124 -26 -148 -56 -33 -130 -99 -160 -142 -15 -22 -28 -38 -30 -36 -6 6 -34 240 -29 245 3 3 15 -4 28 -16 l22 -21 3 57 c2 31 4 113 4 182 3 152 -3 169 -117 410 -82 173 -145 333 -145 371 0 40 103 225 170 304 81 97 206 211 314 289 75 53 82 56 140 56 292 1 631 76 871 195 186 92 304 172 367 250 44 55 59 67 109 84 l58 19 25 -38 c28 -43 96 -80 144 -80 40 0 99 24 129 52 24 22 26 22 128 -8 41 -12 94 -17 165 -17 88 1 119 5 197 31 89 29 93 29 145 14 92 -26 262 -21 398 12 233 58 302 77 382 111 45 19 83 34 84 32 1 -1 10 -56 19 -122 21 -160 44 -240 106 -376 94 -205 185 -341 339 -507 105 -112 241 -218 431 -335 34 -21 110 -167 143 -277 39 -130 64 -269 106 -580 34 -251 43 -299 79 -399 27 -78 56 -137 89 -185 65 -93 92 -148 93 -188 l1 -33 14 33 c30 69 201 309 264 372 76 75 168 210 198 290 12 30 21 51 22 45 1 -5 10 24 21 65 21 82 87 203 160 297 37 47 55 61 99 76 41 15 67 34 119 90 121 130 175 178 236 207 146 70 346 97 479 66 106 -25 195 -77 273 -160 111 -116 173 -259 193 -443 26 -244 -51 -514 -247 -862 -133 -236 -195 -326 -257 -372 -22 -16 -35 -29 -29 -29 6 0 -3 -22 -20 -49 -26 -40 -49 -59 -122 -99 -91 -51 -269 -133 -283 -130 -4 1 -20 -5 -37 -12 -20 -9 -71 -14 -150 -14 -140 -1 -212 17 -271 68 -33 28 -38 39 -42 89 -5 64 11 142 36 172 10 12 5 10 -12 -5 -71 -63 -108 -218 -72 -302 44 -102 169 -169 349 -186 l76 -7 -108 -215 c-316 -630 -532 -919 -1189 -1590 -121 -124 -218 -227 -216 -229 6 -7 148 79 268 163 308 216 622 504 800 736 304 394 478 748 562 1148 2 12 10 22 17 22 7 0 49 17 93 39 77 38 234 160 234 183 0 17 13 0 16 -20 14 -97 51 -182 102 -236 56 -58 123 -86 207 -86 73 0 155 28 184 64 11 13 25 15 77 10 86 -9 143 8 202 61 26 24 63 46 82 50 59 12 221 85 281 126 31 21 77 61 101 89 l44 50 45 -15 c167 -60 364 -1 519 155 83 84 130 156 167 258 90 246 62 513 -72 687 -57 73 -66 124 -52 296 28 354 -51 855 -195 1241 l-39 106 35 50 c55 76 104 191 117 273 58 374 -157 937 -482 1263 -93 92 -109 113 -109 140 0 105 -65 239 -166 341 -65 66 -80 89 -158 247 -51 104 -102 192 -128 222 -54 63 -144 121 -226 146 -44 14 -82 35 -116 64 -61 51 -156 116 -211 144 -63 31 -202 72 -269 79 -48 4 -92 21 -213 80 -130 64 -163 85 -218 140 -78 76 -134 113 -285 188 -290 146 -695 255 -1115 300 -169 19 -540 27 -687 15z m-78 -211 c-58 -17 -150 -52 -205 -79 -127 -62 -257 -115 -270 -111 -27 9 -265 80 -305 91 l-45 13 75 23 c191 61 420 92 675 92 l180 1 -105 -30z m-2562 -736 l-110 -108 -51 4 c-29 1 -53 4 -55 6 -10 9 296 205 320 205 4 0 -43 -48 -104 -107z m-625 -5243 c-39 -10 -106 -33 -149 -51 l-77 -32 -34 36 c-18 20 -33 41 -33 46 0 12 59 17 230 19 l135 1 -72 -19z m187 -103 c0 -5 -56 -168 -69 -201 l-12 -30 -19 32 c-11 17 -38 50 -60 72 -23 23 -40 43 -38 44 2 1 35 14 74 29 39 15 80 34 90 42 18 13 34 19 34 12z"/>
<path d="M68765 49369 c-121 -10 -319 -25 -440 -33 -533 -38 -1317 -125 -2315 -256 -1166 -154 -1982 -283 -2547 -404 -384 -83 -508 -113 -785 -192 -696 -198 -1225 -418 -1858 -774 -91 -51 -202 -113 -247 -137 -46 -25 -83 -46 -83 -48 0 -4 5 -2 336 148 704 321 1219 476 2259 681 637 126 983 182 2485 407 1058 158 2275 374 2940 522 139 31 358 72 510 96 l55 9 -45 -1 c-25 0 -144 -8 -265 -18z"/>
<path d="M34421 49194 c-100 -127 156 -776 513 -1304 104 -153 146 -225 146 -250 0 -16 -5 -15 -57 4 -55 20 -77 21 -373 20 -173 0 -374 -4 -447 -8 l-132 -7 65 193 c168 499 234 812 234 1101 0 151 -4 174 -33 183 -32 10 -42 -14 -56 -133 -38 -326 -131 -607 -406 -1218 -153 -338 -158 -354 -163 -489 -8 -214 29 -505 124 -973 56 -278 61 -299 138 -585 39 -146 109 -381 136 -458 20 -57 83 -291 79 -294 -2 -3 -23 1 -47 7 -51 14 -75 3 -80 -35 -4 -32 60 -118 327 -437 316 -377 488 -592 624 -778 l38 -53 -16 -81 c-19 -94 -14 -141 20 -175 32 -32 81 -31 128 0 l36 25 41 -52 c23 -28 49 -64 58 -79 9 -16 20 -28 25 -28 16 0 0 201 -21 267 l-20 63 24 87 c59 212 94 507 94 786 0 160 2 178 15 167 20 -17 26 -10 32 37 5 40 -12 115 -45 198 -25 61 -42 272 -42 510 0 362 -25 853 -76 1520 -14 182 -29 436 -33 565 -8 277 1 248 -168 498 -200 297 -390 638 -473 852 -39 102 -100 299 -100 326 0 22 -38 54 -64 54 -15 0 -33 -11 -45 -26z m54 -1590 c453 -6 572 -19 599 -62 3 -5 10 -101 16 -213 27 -513 131 -1553 197 -1962 26 -165 26 -170 10 -232 -9 -35 -17 -73 -17 -84 0 -26 -2 -26 -67 -1 -77 29 -164 35 -269 16 -157 -27 -368 -113 -507 -208 -65 -44 -45 -50 -159 41 l-56 44 -6 91 c-3 50 -8 197 -11 326 -12 448 -39 690 -160 1400 -37 217 -63 436 -66 560 -2 76 -1 80 73 279 6 18 13 22 31 17 12 -4 189 -9 392 -12z m713 -2772 c38 -18 52 -31 52 -46 0 -80 -97 -750 -116 -805 -2 -8 -37 31 -86 95 -147 197 -306 382 -476 556 l-86 87 30 11 c215 83 397 132 458 124 23 -3 52 -1 66 5 34 14 95 4 158 -27z"/>
<path d="M72155 48173 c-506 -13 -1125 -70 -1560 -144 -416 -71 -729 -151 -1245 -321 -971 -319 -1121 -374 -1895 -693 -612 -252 -998 -404 -1665 -653 -1433 -536 -2108 -755 -3285 -1066 -359 -94 -596 -165 -752 -224 -80 -30 -83 -31 -83 -11 0 27 -16 57 -49 92 -33 36 -65 53 -118 62 -54 9 -102 -7 -139 -46 -27 -28 -29 -36 -29 -103 0 -68 13 -106 35 -106 4 0 10 25 12 57 4 43 10 61 28 75 31 25 73 23 106 -6 26 -22 27 -25 14 -57 -20 -50 -24 -53 -100 -83 -89 -35 -87 -43 2 -11 51 19 77 23 121 18 51 -5 57 -4 87 26 18 17 36 31 40 31 22 0 674 115 815 144 971 198 1816 454 3140 951 1053 396 1740 681 2400 1000 361 174 443 207 805 333 1241 430 1655 514 2900 592 560 35 810 61 1105 116 77 14 140 26 141 27 4 3 -708 4 -831 0z"/>
<path d="M60255 47394 c-16 -3 -62 -11 -102 -20 -92 -19 -163 -71 -317 -227 -267 -274 -679 -515 -1071 -627 -124 -36 -318 -75 -450 -91 -164 -19 -144 -28 65 -30 l195 -1 -190 -28 c-625 -92 -963 -164 -1459 -311 -634 -188 -1365 -510 -1956 -862 -566 -337 -1065 -721 -1480 -1137 -252 -252 -475 -525 -592 -723 -22 -37 -38 -50 -90 -73 -255 -113 -498 -281 -694 -479 -283 -286 -447 -605 -525 -1020 -27 -140 -37 -482 -20 -636 89 -786 543 -1457 1356 -2008 607 -411 1357 -696 2277 -866 418 -77 790 -109 1268 -109 400 1 542 10 894 60 l178 25 160 -41 c210 -53 309 -68 497 -76 483 -20 1078 139 1463 391 210 138 323 297 347 487 45 352 -261 859 -824 1367 -188 170 -366 307 -805 619 -503 359 -781 590 -865 720 l-28 42 54 58 c191 202 366 447 455 637 50 108 100 252 109 317 4 26 12 51 19 56 6 5 65 33 131 62 418 186 1294 673 1909 1062 409 259 824 561 1126 819 52 44 128 106 168 136 40 31 71 57 69 59 -9 10 -494 -236 -697 -353 -510 -293 -1363 -846 -2250 -1459 -190 -132 -371 -256 -403 -277 l-57 -37 5 92 c3 51 8 116 10 143 l4 50 -28 -50 c-15 -27 -45 -77 -67 -110 -22 -33 -62 -95 -89 -138 -338 -536 -586 -849 -966 -1222 -742 -728 -1377 -1034 -2103 -1013 -126 4 -159 8 -198 26 -27 11 -48 19 -48 16 0 -14 107 -69 185 -94 181 -58 410 -74 628 -45 553 73 1206 460 1897 1122 66 64 122 114 123 112 1 -2 18 -38 38 -79 78 -160 204 -293 689 -726 355 -317 811 -754 992 -951 227 -247 354 -418 439 -597 117 -246 101 -402 -56 -560 -71 -71 -210 -168 -319 -223 -264 -133 -668 -232 -1066 -263 -305 -23 -716 -7 -897 35 -36 9 -68 14 -70 12 -2 -3 55 -26 126 -53 99 -37 127 -51 114 -58 -23 -13 -459 0 -643 19 -730 75 -1665 254 -2297 440 -881 260 -1537 621 -2044 1125 -440 437 -667 884 -730 1440 -28 246 4 601 75 834 115 374 382 722 761 987 96 68 243 154 250 147 3 -3 -6 -29 -20 -59 -44 -96 -27 -124 23 -36 38 66 96 134 131 151 14 7 69 24 121 37 85 21 118 24 305 24 116 0 190 3 165 7 -129 19 -411 6 -545 -27 -30 -8 -30 -7 15 40 59 61 301 281 415 376 788 657 1876 1270 3090 1742 94 36 262 102 375 146 222 86 522 198 610 226 30 10 146 55 256 101 240 99 749 292 994 376 96 33 270 84 385 113 116 30 206 54 201 55 -4 0 -76 -12 -159 -26 -166 -28 -422 -64 -446 -64 -9 1 34 14 94 29 371 97 729 273 1030 506 125 98 280 192 337 206 96 22 147 17 237 -25 90 -42 124 -41 150 6 33 57 -42 174 -142 222 -52 26 -140 39 -202 30z"/>
<path d="M60445 47045 c-84 -52 -162 -85 -217 -91 -78 -9 -106 0 -123 38 l-13 32 -11 -38 c-24 -87 43 -145 166 -146 34 0 84 7 110 16 103 35 182 121 168 184 -8 37 -27 38 -80 5z"/>
<path d="M42408 46557 c-428 -306 -942 -710 -1348 -1061 -608 -525 -1181 -1108 -1614 -1641 -64 -79 -6 -18 123 131 317 365 842 891 1256 1260 487 433 1198 1010 1723 1398 80 59 101 77 90 76 -2 0 -105 -73 -230 -163z"/>
<path d="M46817 45730 c-187 -39 -408 -129 -590 -239 -136 -82 -229 -122 -297 -128 -48 -5 -64 -2 -79 11 -17 15 -20 15 -44 -8 -36 -33 -42 -67 -21 -111 54 -114 287 -150 624 -97 354 56 481 72 680 87 128 10 260 27 326 41 144 31 175 30 252 -6 l63 -30 -35 43 c-19 23 -55 83 -81 134 -85 166 -213 267 -392 307 -99 22 -291 20 -406 -4z"/>
<path d="M51053 45535 c-170 -48 -307 -186 -434 -437 -46 -91 -50 -109 -11 -47 34 53 131 144 211 199 279 189 478 161 596 -85 51 -106 68 -184 69 -310 1 -104 -1 -113 -28 -160 l-29 -49 40 32 c115 91 161 191 150 331 -17 219 -142 428 -301 502 -80 37 -183 47 -263 24z"/>
<path d="M50687 45092 c-104 -144 -103 -175 13 -306 68 -76 93 -118 88 -149 -3 -19 -15 -24 -88 -39 -191 -40 -280 -126 -280 -272 0 -64 20 -106 69 -148 64 -54 157 -72 226 -44 38 16 75 68 75 104 l0 23 -29 -22 c-65 -48 -193 -29 -232 35 -38 62 -14 141 55 180 22 14 86 34 141 45 85 18 104 25 128 51 21 24 27 40 27 77 0 71 -31 122 -132 217 -90 86 -91 87 -86 129 5 45 33 111 68 165 42 62 13 31 -43 -46z"/>
<path d="M50943 44872 c-2 -275 -18 -395 -72 -524 -34 -81 -16 -81 27 0 37 71 87 221 108 325 23 112 16 304 -13 367 -47 102 -48 100 -50 -168z"/>
<path d="M47035 44899 c-49 -4 -139 -16 -200 -26 l-110 -18 320 -6 c331 -7 525 -19 704 -44 124 -18 171 -19 171 -4 0 29 -194 79 -389 99 -116 11 -360 11 -496 -1z"/>
<path d="M47300 44743 c-172 -15 -275 -28 -390 -49 -195 -36 -520 -108 -520 -116 0 -6 34 -13 132 -23 l57 -6 -19 -32 c-41 -69 -30 -237 18 -290 30 -34 63 -40 93 -18 l27 20 21 -23 c38 -40 117 -77 183 -84 l63 -8 -30 -17 c-37 -23 -19 -17 65 19 138 59 363 217 470 329 54 57 42 51 -65 -30 -44 -34 -109 -81 -144 -105 -59 -39 -64 -41 -57 -19 30 103 31 169 5 279 -3 11 7 16 41 18 86 5 294 43 374 67 45 13 97 28 116 33 76 18 -309 67 -440 55z m-541 -217 c12 -13 38 -32 57 -42 31 -17 35 -23 32 -54 -3 -31 -6 -35 -28 -33 -14 2 -51 15 -82 30 -47 22 -58 32 -63 57 -4 17 -9 39 -11 49 -9 28 66 24 95 -7z"/>
<path d="M25142 44618 c130 -150 341 -482 467 -734 251 -504 362 -933 536 -2068 77 -502 124 -737 196 -976 183 -610 532 -1069 980 -1287 164 -80 308 -114 479 -115 259 0 475 95 701 310 412 391 788 1149 934 1877 61 305 80 483 89 855 l6 195 -19 -150 c-25 -198 -42 -290 -102 -528 -257 -1026 -685 -1851 -1134 -2183 -366 -270 -809 -202 -1209 186 -174 169 -306 350 -423 585 -166 329 -256 647 -388 1365 -179 974 -280 1345 -479 1765 -157 329 -382 664 -590 878 -47 48 -88 87 -92 87 -3 0 19 -28 48 -62z"/>
<path d="M31353 44520 c-115 -191 -222 -432 -306 -695 -256 -798 -415 -2069 -459 -3654 -19 -700 7 -1122 90 -1445 l18 -70 22 105 c61 290 78 500 92 1124 34 1529 46 1814 100 2375 78 797 200 1401 411 2034 50 148 89 278 87 290 -2 16 -16 -1 -55 -64z"/>
<path d="M47390 44332 c-36 -25 -139 -100 -230 -167 -91 -67 -190 -137 -220 -154 l-55 -33 43 5 c90 11 266 116 397 238 70 66 152 160 138 158 -4 0 -37 -21 -73 -47z"/>
<path d="M40490 44093 c-321 -326 -755 -1019 -1080 -1723 -52 -113 -160 -361 -160 -368 0 -3 73 141 163 319 396 786 924 1622 1166 1846 25 24 42 43 36 43 -5 0 -61 -53 -125 -117z"/>
<path d="M52325 43529 c-434 -62 -939 -502 -1209 -1053 -180 -369 -260 -733 -259 -1186 0 -406 58 -761 195 -1180 225 -691 593 -1296 1043 -1712 94 -87 162 -140 305 -235 173 -115 291 -172 545 -264 73 -27 91 -38 136 -87 156 -170 147 -352 -25 -510 -183 -166 -483 -207 -791 -106 -238 78 -477 240 -750 510 -317 314 -686 779 -1007 1269 -127 194 -128 195 -97 170 51 -43 207 -184 283 -255 43 -41 75 -68 71 -60 -77 138 -219 314 -371 459 -283 271 -1250 983 -1589 1170 -260 144 -499 200 -635 149 l-24 -9 19 23 c11 13 40 45 65 72 l45 50 -40 -33 c-128 -103 -406 -260 -551 -309 -245 -84 -476 -101 -671 -52 -197 51 -318 177 -369 386 -24 97 -24 258 0 302 24 45 14 52 -13 9 -23 -38 -46 -208 -39 -298 1 -27 2 -49 0 -49 -3 0 -239 359 -322 490 -83 131 -151 253 -223 396 l-56 112 67 21 c37 12 177 76 312 143 l245 121 111 -7 c80 -4 136 -2 200 9 104 19 121 17 150 -12 15 -15 35 -23 59 -23 20 0 51 -7 70 -15 19 -7 63 -19 98 -26 34 -6 71 -19 81 -28 18 -15 18 -15 9 4 -6 11 -14 50 -17 86 -9 85 -51 173 -113 240 -53 57 -94 79 -147 79 -44 0 -92 -39 -105 -86 -10 -37 -4 -101 10 -110 25 -15 2 -24 -58 -24 -74 0 -136 -14 -234 -52 -47 -19 -85 -26 -144 -27 -147 -3 -309 -66 -514 -200 -51 -34 -94 -61 -95 -59 -6 10 -91 199 -131 293 -57 134 -171 434 -180 475 l-7 30 69 -32 c49 -24 86 -34 135 -36 62 -4 67 -3 83 21 25 38 8 57 -90 100 -105 46 -177 58 -205 32 -18 -16 -19 -16 -29 23 -6 22 -18 68 -26 103 l-15 64 4 -87 c2 -49 1 -88 -2 -88 -13 0 -62 55 -63 69 0 9 -3 11 -5 5 -8 -18 13 -61 50 -102 28 -31 39 -56 56 -125 59 -255 201 -616 378 -961 154 -302 301 -521 499 -743 90 -101 101 -118 112 -170 47 -214 196 -360 426 -419 109 -28 320 -24 446 9 194 51 345 127 493 249 141 117 154 123 276 123 128 0 199 -21 375 -110 196 -99 380 -225 995 -683 362 -270 596 -453 696 -544 46 -43 67 -74 126 -192 131 -261 440 -791 642 -1101 439 -672 865 -1011 1339 -1066 343 -40 692 136 828 416 83 172 67 329 -51 483 -22 28 -37 52 -33 52 4 0 -4 8 -17 17 -14 9 -54 42 -90 74 -36 31 -137 109 -225 174 -215 158 -250 190 -433 388 -224 243 -251 274 -381 447 -188 250 -295 419 -432 685 -403 782 -569 1694 -444 2429 13 78 36 182 50 231 103 355 306 690 573 946 199 192 404 292 648 318 69 7 72 8 24 8 -30 1 -82 -3 -115 -8z"/>
<path d="M46539 43360 c20 -21 52 -64 71 -96 32 -54 35 -64 35 -139 0 -68 -4 -89 -29 -140 -36 -74 -112 -155 -190 -207 -33 -21 -62 -38 -66 -38 -4 0 -5 20 -3 44 5 43 3 47 -44 94 -61 61 -129 87 -226 86 -94 -2 -122 -22 -122 -90 1 -62 35 -117 90 -143 51 -25 168 -19 188 9 10 15 16 16 29 6 8 -6 17 -20 19 -31 3 -13 19 -23 49 -32 54 -16 127 -5 192 28 68 35 155 125 191 198 30 61 32 74 32 166 0 85 -3 106 -23 143 -33 62 -103 125 -171 154 l-58 25 36 -37z"/>
<path d="M36787 43295 c-118 -30 -278 -118 -404 -223 -137 -115 -255 -301 -303 -477 -16 -61 -16 -61 -35 -45 -8 7 -15 8 -15 2 0 -5 6 -15 14 -21 10 -8 12 -24 9 -52 -5 -33 -1 -44 18 -65 20 -22 30 -25 64 -19 38 5 43 3 80 -36 66 -68 339 -306 500 -435 344 -275 659 -502 1165 -839 498 -331 877 -565 2120 -1312 1349 -810 1571 -946 2241 -1364 1062 -662 1495 -926 2119 -1292 299 -176 344 -205 417 -276 139 -135 338 -293 685 -544 l107 -78 12 -57 c27 -133 133 -391 284 -692 102 -203 164 -298 238 -364 58 -52 60 -56 69 -117 15 -115 80 -173 224 -204 152 -32 266 -16 524 75 441 156 588 233 763 399 l78 75 97 -24 c115 -27 462 -127 469 -134 9 -8 -62 -92 -148 -177 -371 -366 -871 -584 -1236 -540 -117 14 -180 34 -239 74 -58 39 -80 68 -105 138 l-19 54 5 -65 c15 -191 191 -310 531 -358 122 -17 124 -17 124 -43 0 -43 56 -142 115 -202 125 -128 259 -192 426 -204 75 -5 189 6 233 23 10 4 22 -8 36 -36 54 -106 188 -190 338 -212 148 -22 269 15 377 114 l56 51 67 -66 c80 -78 112 -104 217 -183 276 -208 472 -322 655 -383 l65 -22 0 -44 c1 -50 26 -92 69 -113 47 -24 152 -16 215 14 81 39 189 152 235 245 61 126 65 205 16 316 l-18 42 26 3 c40 4 40 38 1 83 -37 42 -751 579 -1134 853 l-110 78 -6 85 c-8 109 -35 170 -122 279 l-68 85 123 6 c439 23 822 276 889 588 10 46 18 191 11 191 -1 0 -7 -12 -13 -27 -24 -64 -139 -233 -208 -305 -109 -115 -249 -198 -431 -256 -237 -76 -526 -73 -885 9 -323 74 -435 98 -510 110 -44 6 -82 13 -84 15 -2 2 8 19 23 38 29 39 116 207 116 225 0 6 9 30 21 53 19 38 12 33 -98 -66 -97 -87 -119 -103 -125 -89 -38 104 -86 198 -115 224 -19 16 -35 29 -37 29 -10 0 10 -114 29 -165 13 -33 28 -80 33 -105 5 -25 13 -52 16 -61 10 -24 -56 -79 -96 -79 -17 0 -61 -6 -97 -12 l-66 -13 75 -5 75 -5 -58 -42 c-108 -77 -229 -130 -527 -232 -318 -107 -347 -116 -428 -126 l-54 -7 60 61 c82 83 105 134 110 242 4 77 1 94 -21 141 -25 56 -64 89 -119 103 -44 11 -53 30 -32 64 11 17 39 63 63 103 52 86 175 240 236 297 38 35 288 171 315 171 10 0 318 -206 415 -278 33 -25 49 -34 35 -20 -32 33 -252 232 -309 280 -25 21 -43 39 -40 41 6 4 129 33 289 67 165 35 203 49 275 95 42 27 61 47 76 80 18 41 18 47 5 80 -19 45 -65 66 -214 101 -75 18 -149 27 -249 31 -144 6 -189 0 -282 -34 l-43 -17 73 -17 c117 -29 173 -37 342 -54 160 -16 241 -29 265 -44 19 -11 -1 -58 -30 -67 -13 -4 -102 -8 -198 -9 -179 -2 -249 -10 -402 -47 l-87 -21 -58 50 c-325 279 -1413 1070 -2310 1681 -1014 690 -1813 1202 -3118 1995 -126 77 -279 170 -340 207 -60 37 -216 131 -345 210 -1431 871 -2081 1308 -2955 1985 -93 72 -264 202 -380 288 -115 87 -247 187 -293 223 -46 36 -85 64 -88 62 -7 -8 509 -522 626 -624 470 -410 974 -790 1622 -1222 502 -336 903 -587 2328 -1459 919 -563 1290 -795 1925 -1206 714 -463 2226 -1486 3093 -2094 l202 -142 -52 -35 c-142 -95 -203 -151 -263 -243 -66 -99 -165 -285 -185 -345 -6 -21 -14 -38 -17 -38 -2 0 -59 51 -126 113 -305 283 -464 407 -1172 917 -102 74 -189 139 -193 145 -3 5 5 3 18 -6 14 -9 57 -35 95 -59 39 -24 102 -64 140 -90 144 -96 129 -81 -70 72 -82 63 -229 175 -325 250 -827 641 -2384 1639 -4465 2863 -297 174 -603 355 -680 400 -77 45 -318 187 -535 315 -1193 703 -1749 1060 -2556 1643 l-322 232 42 15 c164 60 338 237 595 606 l33 48 29 -35 c52 -66 193 -197 269 -251 41 -30 127 -89 190 -132 l115 -78 -75 68 c-89 81 -483 466 -488 477 -2 4 6 27 17 50 27 56 26 80 -2 113 -29 33 -95 40 -180 19z m-17 -230 c-98 -146 -266 -367 -339 -447 -54 -58 -148 -138 -164 -138 -3 0 8 24 24 53 16 28 29 59 29 67 0 9 9 32 19 53 10 20 18 37 16 37 -1 0 -15 -6 -31 -14 -16 -7 -41 -17 -57 -20 l-28 -7 35 68 c93 186 284 360 469 429 104 39 105 36 27 -81z m8963 -6967 c255 -192 469 -372 606 -511 l74 -75 -35 -35 c-23 -23 -43 -60 -62 -113 -15 -43 -48 -111 -72 -151 -25 -39 -50 -89 -58 -109 l-13 -38 -18 49 c-34 94 -72 171 -252 500 -277 509 -311 575 -297 575 2 0 60 -41 127 -92z m784 -691 c23 -10 25 -15 19 -55 -3 -25 -6 -75 -6 -111 0 -62 -4 -73 -57 -166 -31 -55 -58 -102 -59 -104 -9 -10 -85 22 -94 39 -18 34 -11 88 24 172 19 46 42 115 52 153 9 39 18 76 20 84 5 15 56 9 101 -12z m2121 -311 c11 -11 1 -110 -19 -196 -57 -249 -197 -492 -383 -667 -142 -133 -264 -192 -422 -200 -106 -6 -171 9 -279 65 -67 36 -170 125 -193 168 -11 21 -9 22 66 29 175 16 323 60 494 147 291 150 457 359 490 621 l12 93 114 -27 c62 -15 116 -30 120 -33z m218 -30 c1 0 12 -21 24 -46 12 -25 37 -65 55 -90 57 -79 76 -126 73 -180 l-3 -49 -47 29 c-61 38 -63 21 -7 -50 38 -48 41 -56 36 -95 -10 -68 -83 -281 -136 -391 -90 -188 -189 -318 -278 -366 -98 -53 -233 -60 -346 -18 -49 19 -127 73 -127 89 0 4 21 17 48 30 92 45 183 115 280 215 236 246 362 538 362 838 l0 100 33 -7 c17 -4 33 -8 33 -9z m439 -723 c255 -217 740 -575 937 -690 l76 -45 -19 -54 c-44 -129 -122 -252 -193 -305 -22 -16 -41 -27 -43 -25 -2 2 10 32 27 67 16 35 30 72 30 82 0 27 -37 57 -70 57 -79 0 -158 -77 -187 -182 l-16 -58 -81 78 c-163 158 -353 285 -784 526 l-103 58 17 26 c109 166 177 352 219 595 l6 38 52 -50 c29 -27 88 -80 132 -118z"/>
<path d="M58430 42843 c0 -5 15 -35 34 -66 112 -185 355 -401 653 -579 429 -257 999 -475 2113 -812 1348 -406 1961 -548 3345 -776 1139 -188 1564 -280 2150 -470 550 -178 1282 -510 1615 -733 97 -65 293 -218 286 -224 -2 -2 -46 22 -98 55 -408 260 -666 417 -673 410 -8 -7 200 -184 455 -387 135 -107 277 -219 315 -250 796 -635 1458 -1326 1777 -1854 63 -105 178 -333 178 -354 0 -55 -578 -608 -800 -765 -263 -186 -549 -292 -935 -347 -390 -56 -715 -51 -1330 24 -387 46 -443 50 -775 49 -796 -1 -1476 -123 -2040 -364 -911 -389 -1708 -1053 -2546 -2120 -218 -278 -309 -405 -737 -1032 -65 -95 -130 -189 -144 -208 l-27 -35 34 30 c65 55 153 149 304 325 631 732 1492 1650 1801 1921 382 335 757 587 1160 780 577 276 1010 360 1875 362 423 1 590 -14 1075 -93 479 -78 746 -99 1036 -81 680 43 1125 212 1500 568 226 216 437 543 529 823 17 52 33 102 36 110 4 12 65 -109 81 -162 8 -26 32 -22 43 6 29 78 16 249 -29 384 -11 31 -18 58 -17 60 5 5 191 -280 285 -435 198 -331 371 -684 504 -1029 266 -693 333 -1301 213 -1919 -173 -883 -769 -1856 -1835 -2995 -277 -295 -713 -720 -982 -955 -469 -411 -517 -450 -874 -731 -289 -226 -344 -268 -350 -262 -2 2 10 22 28 44 17 21 24 33 14 25 -10 -8 -20 -11 -24 -8 -16 16 -214 -105 -408 -249 -249 -185 -524 -349 -892 -533 -449 -224 -697 -325 -1343 -546 -309 -106 -463 -168 -552 -221 -192 -116 -161 -243 67 -275 380 -53 1132 195 1885 623 107 61 218 124 245 139 67 38 54 36 -45 -6 -45 -19 -154 -62 -243 -94 -155 -57 -237 -89 -732 -286 -380 -150 -642 -229 -848 -255 -110 -14 -291 -10 -308 7 -22 22 199 117 556 237 568 191 791 280 1150 461 234 118 432 233 660 385 121 80 484 270 516 270 5 0 -16 -35 -49 -77 -181 -239 -701 -979 -1062 -1508 -326 -479 -673 -962 -883 -1230 -251 -319 -460 -574 -636 -775 -63 -72 -97 -121 -111 -157 -11 -29 -42 -81 -69 -116 -27 -34 -71 -94 -98 -134 l-50 -72 -13 42 c-32 109 -141 285 -278 447 -452 538 -1595 1359 -2912 2090 -224 125 -865 449 -1085 550 -666 303 -1322 554 -1825 697 l-65 19 -13 59 c-6 33 -15 96 -18 140 l-7 81 114 114 c324 327 880 947 1285 1430 204 245 370 450 668 830 115 146 216 273 224 283 8 9 13 17 9 17 -3 0 -56 -60 -118 -132 -217 -254 -709 -782 -1279 -1373 -64 -66 -290 -302 -502 -525 l-387 -406 -40 4 c-78 8 -201 -68 -266 -163 -37 -53 -105 -219 -105 -255 0 -16 -7 -20 -37 -21 l-38 -1 33 -9 c31 -9 32 -12 32 -60 0 -27 6 -64 14 -83 19 -45 70 -101 107 -116 34 -15 34 -8 -1 -125 -57 -194 -90 -447 -97 -755 -6 -246 8 -458 44 -672 l17 -102 -44 -35 c-280 -228 -548 -494 -762 -758 -73 -89 -245 -344 -344 -508 -135 -225 -320 -624 -424 -915 -206 -574 -407 -1516 -415 -1945 -2 -88 -2 -149 1 -135 3 14 17 88 31 165 l27 140 13 -105 c29 -249 90 -462 192 -675 190 -397 462 -649 756 -701 32 -6 59 -25 140 -102 55 -52 199 -181 320 -286 539 -469 783 -691 1259 -1145 881 -839 1089 -1023 1493 -1321 l88 -66 37 -184 c163 -815 299 -1791 363 -2600 8 -107 24 -296 35 -420 34 -398 34 -443 6 -855 -53 -772 -114 -1144 -275 -1678 -124 -408 -329 -903 -504 -1215 -329 -586 -417 -720 -577 -884 -79 -80 -73 -77 100 47 251 181 340 267 512 492 325 428 624 1224 757 2018 48 284 76 689 68 945 l-5 145 13 -135 c7 -74 17 -202 21 -285 l8 -150 8 100 c4 55 14 172 22 260 47 479 56 719 46 1170 -17 784 -104 1607 -270 2566 -212 1223 -510 2402 -1117 4414 -124 414 -154 511 -481 1575 -363 1179 -562 1859 -562 1919 0 7 24 -7 53 -32 199 -168 408 -247 612 -233 103 8 265 33 219 35 -177 6 -517 257 -730 540 -123 164 -247 394 -338 626 -62 162 -129 374 -122 391 3 7 1 14 -4 16 -24 9 -99 447 -121 705 -12 145 -7 667 6 711 5 16 15 22 36 22 44 0 99 26 140 66 l37 36 213 -87 c738 -301 1063 -444 1489 -656 520 -258 920 -483 1480 -832 249 -155 580 -374 580 -383 0 -3 -11 -19 -25 -36 -35 -42 -48 -100 -42 -193 6 -95 36 -189 116 -366 74 -162 185 -364 396 -724 356 -607 535 -969 696 -1408 179 -485 296 -1014 374 -1688 14 -118 36 -297 51 -399 31 -225 39 -374 29 -542 -6 -116 -9 -128 -26 -128 -25 0 -25 -34 0 -100 17 -45 19 -72 15 -317 -3 -148 -9 -594 -14 -993 -6 -399 -14 -815 -20 -925 -23 -473 -70 -1902 -70 -2136 0 -168 -5 -202 -31 -194 -31 10 -34 -22 -8 -74 l23 -46 1 -870 c1 -570 5 -930 13 -1045 18 -252 59 -601 82 -699 11 -46 19 -86 16 -88 -7 -8 -69 131 -92 207 l-23 75 0 -89 c-1 -123 29 -205 203 -566 237 -488 296 -662 299 -885 4 -267 -63 -378 -267 -440 -122 -37 -217 -42 -290 -16 -33 11 -56 17 -50 12 20 -18 180 -129 202 -140 45 -24 118 -41 172 -41 203 0 359 140 407 363 18 89 12 306 -12 417 -55 250 -167 489 -406 866 l-109 171 0 94 c0 52 5 311 12 576 11 473 12 482 32 487 12 3 39 6 62 6 22 0 88 9 145 19 239 43 407 148 477 299 36 78 38 204 4 307 -72 214 -259 482 -569 813 l-106 114 17 516 c9 285 23 697 31 917 30 854 38 1291 39 2121 l1 862 50 -71 c28 -39 150 -204 272 -368 246 -331 356 -488 848 -1214 373 -550 464 -689 532 -812 24 -46 46 -83 48 -83 2 0 -3 17 -11 38 l-14 37 19 -25 c11 -14 106 -146 212 -295 452 -635 843 -1113 1325 -1620 259 -271 416 -423 1014 -982 232 -217 491 -476 571 -573 163 -195 232 -384 199 -542 -14 -64 -166 -380 -213 -441 -24 -31 -22 -31 95 28 188 95 272 175 329 316 34 83 38 250 10 353 -87 315 -273 553 -891 1134 -173 164 -367 347 -430 408 -63 61 -159 153 -214 205 -255 243 -800 833 -1192 1290 -267 311 -903 1092 -1026 1259 -14 19 -60 110 -103 202 -152 330 -407 759 -643 1085 -212 291 -505 646 -695 839 l-79 82 31 253 c111 880 29 1794 -239 2684 -107 355 -289 797 -457 1112 l-55 103 138 -88 c271 -173 705 -416 970 -543 287 -138 504 -189 619 -144 46 17 75 53 75 94 0 29 -45 77 -95 101 -25 12 -45 23 -45 26 0 2 24 43 54 91 119 195 133 220 160 282 19 45 48 87 96 137 213 225 548 665 869 1144 227 337 357 547 706 1140 131 223 347 587 480 810 132 223 293 494 356 603 l114 198 304 155 c373 190 588 313 939 535 488 310 1073 787 1547 1263 996 1000 1643 2077 1805 3003 48 273 64 629 40 874 -81 815 -492 1760 -1074 2469 -109 134 -272 290 -368 353 -85 57 -88 60 -138 155 -111 209 -300 470 -512 707 -341 381 -756 735 -1245 1060 -89 59 -160 111 -158 115 7 11 -400 386 -596 551 -147 124 -535 369 -728 461 -679 324 -1319 482 -2776 688 -514 73 -903 135 -1255 201 -1151 216 -2990 743 -3815 1094 -481 204 -871 452 -1007 639 -15 21 -28 35 -28 29z m-540 -16590 c19 -89 75 -271 119 -382 89 -223 178 -379 303 -535 46 -57 58 -80 67 -130 34 -180 130 -616 191 -861 74 -305 167 -652 434 -1631 333 -1220 502 -1856 745 -2804 161 -627 452 -1893 438 -1906 -1 -2 -35 34 -74 79 -148 170 -415 429 -808 782 -61 55 -194 175 -295 266 -102 91 -315 284 -475 429 -472 428 -841 745 -1274 1096 -128 104 -243 197 -255 206 -21 17 -20 18 24 18 77 0 208 38 290 83 l77 42 -81 1 c-52 0 -122 10 -196 29 -362 88 -586 249 -805 580 -168 252 -294 573 -335 847 -11 77 -11 77 44 290 129 503 272 897 499 1376 167 354 415 795 648 1155 74 113 171 266 217 339 137 218 467 688 484 688 4 0 12 -26 18 -57z m5847 -10804 c273 -344 365 -507 367 -654 2 -117 -43 -171 -279 -340 -54 -38 -127 -91 -163 -117 -36 -27 -69 -48 -73 -48 -11 0 -11 3 1 485 15 649 22 827 30 818 4 -4 57 -69 117 -144z"/>
<path d="M59044 22303 c-31 -36 -171 -239 -190 -276 -37 -70 7 -98 78 -49 58 40 90 76 132 146 41 68 54 133 36 176 -15 37 -26 38 -56 3z"/>
<path d="M50723 42286 c-104 -162 -379 -496 -603 -732 -101 -107 -359 -354 -505 -483 l-50 -45 60 34 c159 88 379 255 539 409 205 198 343 372 466 585 55 95 155 306 148 311 -2 1 -26 -34 -55 -79z"/>
<path d="M46312 42279 c-74 -12 -128 -43 -156 -88 -36 -56 -81 -90 -147 -108 -69 -19 -76 -41 -20 -59 l34 -11 -64 -8 c-62 -9 -60 -9 71 -16 74 -4 148 -12 164 -18 57 -23 106 47 56 82 -19 13 -19 14 6 63 15 29 34 52 47 56 12 3 97 6 188 7 168 1 313 -17 434 -54 80 -24 76 -17 -20 32 -211 108 -420 151 -593 122z"/>
<path d="M21470 41718 c-106 -392 -158 -1014 -147 -1753 6 -368 21 -578 62 -858 28 -190 104 -497 166 -673 16 -45 29 -92 29 -103 0 -12 4 -21 9 -21 5 0 25 -45 46 -100 21 -55 40 -100 42 -100 3 0 2 8 -2 18 -16 42 -57 215 -75 316 -32 187 -48 319 -74 626 -40 464 -56 887 -63 1665 -6 714 -1 909 28 1019 6 21 8 40 6 42 -3 3 -15 -32 -27 -78z"/>
<path d="M50801 41562 c-65 -133 -211 -357 -354 -540 -148 -189 -243 -282 -315 -308 l-37 -13 44 -1 c107 -1 284 139 438 345 93 125 192 323 228 459 14 54 25 100 22 102 -2 2 -14 -18 -26 -44z"/>
<path d="M46660 41581 c-25 -9 -94 -47 -155 -82 -60 -36 -143 -83 -183 -104 -51 -27 -74 -45 -78 -61 -26 -105 205 -62 392 72 75 53 144 135 144 170 0 21 -4 24 -37 24 -21 -1 -58 -9 -83 -19z"/>
<path d="M24430 41250 c0 -12 -16 -103 -34 -203 -19 -100 -65 -339 -101 -532 -36 -192 -120 -629 -185 -971 -178 -923 -261 -1389 -395 -2224 -50 -316 -50 -327 0 -135 102 392 149 616 340 1630 254 1348 315 1698 355 2060 23 211 36 395 27 395 -4 0 -7 -9 -7 -20z"/>
<path d="M60131 40280 c92 -105 118 -141 184 -255 166 -283 283 -605 315 -868 16 -124 8 -340 -16 -427 -73 -276 -244 -490 -558 -701 -423 -285 -884 -394 -1591 -376 -268 7 -437 27 -552 66 -46 15 -83 26 -83 24 0 -10 175 -87 245 -108 102 -31 274 -61 444 -76 178 -15 630 -6 766 15 476 77 891 280 1181 578 250 257 354 522 341 868 -9 224 -58 417 -162 635 -127 269 -266 445 -505 639 l-75 61 66 -75z"/>
<path d="M38030 39987 c-115 -498 -172 -938 -189 -1463 -22 -647 30 -1297 160 -2004 130 -707 279 -1203 566 -1878 47 -111 87 -201 89 -199 2 2 -24 73 -57 157 -187 475 -276 769 -398 1320 -119 531 -220 1197 -265 1745 -65 779 -23 1714 105 2318 12 54 19 100 17 102 -2 3 -15 -42 -28 -98z"/>
<path d="M30317 39133 c-164 -585 -249 -1216 -297 -2223 -24 -502 -32 -901 -28 -1464 l3 -599 -105 -39 c-137 -50 -327 -112 -415 -137 -38 -10 -146 -42 -240 -71 -168 -51 -530 -139 -737 -179 -659 -127 -1555 -150 -2348 -60 -715 80 -1255 216 -1766 444 -257 115 -570 294 -716 410 l-58 45 6 673 c4 369 4 669 1 666 -7 -5 -38 -300 -56 -524 -25 -304 -55 -988 -71 -1630 -32 -1234 -96 -1762 -328 -2701 -49 -196 -123 -510 -157 -666 -14 -64 -37 -149 -50 -189 -14 -40 -24 -74 -22 -76 2 -1 25 48 52 110 26 61 66 147 87 190 37 75 124 301 186 482 75 220 182 668 236 990 96 573 120 957 120 1913 l-1 722 86 -83 c634 -611 1832 -1048 3176 -1159 228 -19 801 -16 1020 6 301 28 556 72 822 141 274 70 650 223 847 344 139 86 330 217 376 258 27 24 53 43 59 43 7 0 11 -29 11 -82 0 -156 38 -741 76 -1163 50 -569 159 -1433 239 -1905 8 -47 18 -125 22 -175 l8 -90 6 110 c4 61 13 191 20 290 17 247 15 849 -5 1165 -17 252 -38 504 -96 1100 -30 314 -66 734 -74 875 -3 44 -10 157 -16 250 -42 688 -41 1583 5 2430 44 813 92 1331 151 1609 8 38 13 71 11 73 -2 2 -20 -54 -40 -124z"/>
<path d="M50264 39144 c60 -147 60 -151 57 -619 -3 -482 1 -532 64 -760 38 -139 89 -260 142 -333 18 -25 31 -47 30 -48 -1 -1 -74 -30 -162 -64 -88 -34 -239 -95 -335 -136 -197 -82 -300 -114 -444 -139 -225 -38 -692 -36 -929 5 -270 46 -648 159 -1117 333 -96 36 -227 79 -290 97 -63 17 -162 47 -219 67 -72 24 -112 33 -134 29 -52 -10 -232 -104 -317 -165 -91 -65 -344 -291 -361 -322 -12 -24 -19 -27 241 127 188 111 301 169 364 186 45 12 50 11 95 -14 26 -15 160 -65 297 -111 137 -46 330 -114 429 -150 412 -150 769 -239 1070 -267 61 -5 256 -10 435 -10 520 0 629 25 1084 250 184 92 279 153 319 207 l22 31 35 -30 c19 -16 132 -94 250 -173 314 -209 460 -347 683 -645 136 -182 477 -635 501 -665 11 -14 18 -27 15 -29 -2 -3 -222 -59 -489 -125 -267 -66 -552 -141 -635 -166 -457 -142 -759 -313 -993 -560 -98 -104 -99 -105 -117 -85 -23 26 -59 26 -85 0 -18 -18 -20 -33 -20 -145 0 -88 -4 -136 -15 -161 -18 -43 -110 -151 -149 -175 l-29 -18 38 -7 c127 -24 252 40 304 156 25 55 28 164 6 236 -17 58 -16 59 90 138 109 82 267 177 420 254 341 171 504 226 1245 422 107 28 264 74 349 102 84 27 156 46 160 41 78 -95 123 -151 261 -328 240 -306 367 -461 519 -634 75 -84 156 -176 179 -205 71 -83 76 -85 28 -11 -26 39 -85 147 -133 240 -192 379 -392 745 -525 963 l-69 113 51 46 c28 25 49 47 47 50 -3 2 -33 -7 -68 -21 -34 -14 -63 -25 -64 -23 -1 1 -40 58 -86 127 -127 188 -502 720 -595 845 -115 154 -246 299 -350 386 -121 101 -137 113 -309 219 -203 125 -247 161 -300 240 -99 149 -165 369 -215 715 -46 319 -73 432 -135 555 -33 65 -102 165 -139 199 l-26 25 24 -60z"/>
<path d="M38926 39123 c-65 -541 -58 -1064 25 -1743 50 -418 114 -774 204 -1146 52 -218 156 -596 162 -590 2 2 -14 71 -36 154 -180 666 -287 1320 -353 2162 -17 220 -17 891 0 1073 13 136 11 203 -2 90z"/>
<path d="M36528 38003 c-6 -440 2 -740 27 -1038 69 -809 246 -1607 538 -2430 158 -442 371 -916 644 -1430 131 -246 365 -669 376 -680 6 -5 -8 24 -30 65 -95 177 -347 677 -414 820 -284 614 -547 1344 -719 2000 -252 958 -358 1718 -399 2853 -5 137 -11 251 -14 253 -2 2 -7 -184 -9 -413z"/>
<path d="M21591 38050 c-2 -322 -15 -435 -146 -1240 -117 -719 -163 -1064 -200 -1510 -24 -296 -16 -266 -96 -330 -132 -105 -276 -304 -393 -543 -151 -309 -252 -652 -274 -932 l-9 -110 -90 -195 c-274 -589 -487 -1253 -632 -1975 -71 -353 -112 -623 -143 -950 -18 -189 -16 -746 4 -908 l15 -128 -39 -107 c-43 -119 -122 -377 -132 -432 -4 -19 9 6 27 55 67 178 150 355 167 355 5 0 12 -15 16 -32 7 -29 9 -23 15 42 6 67 13 85 64 175 154 268 516 781 762 1080 419 508 483 583 663 769 101 104 113 120 65 82 -33 -26 -112 -87 -175 -135 -531 -407 -979 -939 -1277 -1516 -45 -88 -83 -155 -83 -149 -1 42 36 375 60 544 82 570 208 1156 455 2110 129 499 227 903 250 1031 16 86 35 139 35 96 0 -22 28 -77 39 -77 4 0 6 22 3 50 -15 163 78 525 224 867 79 185 265 547 369 718 23 39 50 84 59 100 15 28 16 13 10 -255 -12 -562 34 -1117 131 -1574 70 -329 124 -514 244 -824 l52 -134 -10 -146 c-12 -177 -24 -219 -108 -387 -74 -146 -97 -205 -82 -205 46 0 158 114 199 202 44 96 60 170 60 288 l0 105 66 -125 c73 -139 294 -530 299 -530 2 0 -17 44 -42 98 -68 145 -125 300 -208 567 -233 755 -336 1263 -391 1930 -13 156 -18 319 -18 635 0 602 32 1076 139 2085 64 604 91 1053 80 1350 -11 325 -22 376 -24 115z"/>
<path d="M35358 37630 c-28 -761 11 -1233 162 -1981 85 -417 205 -815 425 -1402 43 -114 80 -206 81 -204 2 2 -35 113 -82 248 -191 543 -302 973 -413 1600 -41 228 -107 701 -125 894 -16 170 -35 613 -39 885 l-2 165 -7 -205z"/>
<path d="M62375 36985 c-207 -27 -476 -99 -910 -241 -1188 -391 -1787 -678 -2335 -1120 -124 -100 -266 -227 -180 -161 288 221 765 478 1334 719 346 147 593 238 1191 443 514 176 546 188 785 280 118 46 224 85 235 88 l20 5 -20 0 c-11 0 -65 -6 -120 -13z"/>
<path d="M63164 35815 c-166 -36 -400 -159 -624 -329 -318 -240 -595 -516 -1120 -1116 -254 -290 -505 -544 -685 -694 -242 -202 -539 -380 -750 -451 -103 -35 -233 -44 -288 -22 -70 30 -92 120 -63 257 8 36 13 66 11 68 -7 7 -58 -90 -71 -135 -62 -205 104 -341 372 -304 310 43 646 232 1040 584 172 154 337 323 659 677 420 463 685 724 945 933 226 182 455 319 603 362 32 9 60 15 63 13 8 -8 -58 -122 -113 -195 -91 -121 -156 -189 -648 -678 -585 -581 -740 -758 -1047 -1190 -118 -166 -293 -458 -401 -670 -69 -136 -199 -411 -189 -400 5 6 39 53 76 105 36 52 92 129 124 171 31 42 118 163 192 269 489 698 686 928 1334 1565 553 543 705 715 794 894 33 66 37 84 37 149 0 70 -1 75 -32 102 -33 30 -89 50 -133 49 -14 0 -52 -7 -86 -14z"/>
<path d="M23857 35616 c18 -32 155 -146 268 -221 266 -177 579 -318 1085 -486 641 -212 1160 -323 1785 -381 218 -20 895 -17 1115 5 186 19 410 53 575 87 121 25 629 170 621 177 -2 2 -34 -3 -72 -11 -402 -84 -1544 -137 -2099 -98 -668 48 -1216 145 -1830 322 -611 176 -1206 425 -1419 594 -25 19 -36 24 -29 12z"/>
<path d="M52706 34875 c121 -224 265 -409 513 -656 214 -214 385 -354 626 -514 218 -144 360 -224 620 -351 549 -267 1146 -480 1975 -703 302 -81 1541 -394 1900 -480 445 -106 967 -203 1405 -261 238 -31 362 -48 405 -56 14 -3 -15 11 -65 30 -49 19 -169 64 -265 101 -597 228 -1267 424 -2625 769 -877 222 -1162 299 -1525 412 -887 276 -1710 645 -2170 974 -254 181 -521 430 -715 665 -54 66 -103 125 -108 130 -5 6 8 -21 29 -60z"/>
<path d="M26670 33178 c-21 -72 -72 -164 -201 -365 -68 -106 -144 -226 -169 -268 -210 -352 -327 -522 -432 -628 -64 -64 -72 -76 -50 -71 l27 7 -21 -24 c-11 -13 -81 -94 -154 -179 -74 -85 -198 -227 -277 -316 -78 -88 -257 -304 -398 -480 -715 -892 -1194 -1673 -1375 -2239 -52 -162 -107 -427 -66 -315 62 168 365 671 703 1170 97 143 384 549 621 877 233 324 498 707 608 880 57 89 160 248 229 354 l125 191 33 -9 c62 -16 188 -8 262 17 359 119 711 495 904 966 27 65 56 136 65 157 9 20 15 37 13 37 -2 0 -21 -28 -43 -62 -58 -95 -744 -779 -888 -886 -98 -72 -301 -190 -311 -180 -10 10 47 76 87 103 131 86 296 248 422 415 156 207 242 419 277 680 11 80 22 160 25 178 9 46 -1 40 -16 -10z"/>
<path d="M20609 33124 c-42 -50 11 -160 120 -251 117 -97 252 -149 461 -177 41 -6 39 -4 -35 27 -94 39 -232 121 -337 200 -73 55 -118 103 -170 180 -23 34 -26 36 -39 21z"/>
<path d="M25268 33025 c49 -97 63 -213 82 -655 11 -265 14 -282 43 -278 26 4 34 33 47 178 30 343 -14 572 -138 730 -53 67 -56 69 -34 25z"/>
<path d="M27920 32872 c-152 -51 -225 -128 -237 -249 l-6 -55 49 49 c95 95 274 154 474 157 63 0 126 -3 140 -7 l25 -8 -25 21 c-14 11 -61 38 -105 61 -72 36 -90 41 -170 45 -70 3 -102 0 -145 -14z"/>
<path d="M42756 32639 c170 -336 489 -870 768 -1284 231 -345 626 -895 642 -895 2 0 -36 55 -84 123 -292 402 -715 1033 -927 1382 -140 229 -336 568 -385 664 -17 34 -33 61 -35 61 -3 0 6 -23 21 -51z"/>
<path d="M20824 32334 c17 -67 71 -94 183 -93 72 0 184 15 138 18 -18 1 -262 77 -309 97 -17 6 -18 4 -12 -22z"/>
<path d="M41508 32048 c316 -597 828 -1344 1446 -2108 251 -311 843 -1011 868 -1026 7 -4 -42 55 -108 132 -343 398 -874 1055 -1174 1454 -385 511 -779 1107 -1010 1528 -40 72 -75 132 -77 132 -3 0 22 -51 55 -112z"/>
<path d="M28112 32057 c-61 -65 10 -163 87 -122 33 17 44 41 39 88 -5 57 -84 78 -126 34z"/>
<path d="M30408 31490 c-7 -573 -18 -648 -165 -1150 -152 -522 -191 -708 -200 -945 -9 -230 16 -402 77 -532 21 -46 35 -64 54 -69 33 -8 42 -1 57 43 9 29 9 64 -1 167 -25 244 5 503 125 1080 36 171 74 364 86 429 66 392 65 765 -5 1252 l-23 160 -5 -435z"/>
<path d="M26450 31875 c0 -6 4 -15 9 -20 4 -6 34 -71 66 -145 32 -74 139 -317 238 -540 229 -516 321 -734 440 -1046 107 -279 329 -937 462 -1369 352 -1142 539 -1546 905 -1956 l59 -67 -41 -48 c-72 -84 -74 -91 -9 -29 l62 60 60 -65 60 -65 -45 75 c-24 41 -43 78 -40 81 2 4 43 33 90 65 81 56 86 58 97 39 20 -38 132 -147 210 -206 158 -119 373 -228 600 -303 305 -102 521 -136 910 -143 l277 -6 29 -36 c103 -131 205 -322 261 -491 31 -95 99 -413 102 -480 1 -19 -6 -93 -16 -165 -14 -93 -19 -187 -18 -330 2 -596 174 -1284 517 -2060 81 -184 298 -625 454 -925 434 -829 491 -950 881 -1865 56 -132 143 -325 194 -430 l91 -190 3 -185 c4 -202 -8 -410 -39 -710 -11 -107 -21 -262 -22 -345 -2 -181 17 -547 37 -705 20 -159 43 -404 61 -670 32 -462 41 -490 230 -716 179 -216 237 -266 353 -307 50 -18 88 -21 322 -25 222 -3 297 0 456 17 456 50 594 39 838 -72 50 -22 113 -53 140 -69 49 -27 46 -24 -47 67 -164 160 -284 236 -436 277 -104 28 -331 29 -531 3 -174 -23 -562 -26 -649 -5 -86 21 -161 79 -277 218 -58 68 -113 141 -123 161 -25 48 -35 103 -71 366 -41 296 -64 427 -111 638 -22 99 -38 181 -36 183 3 3 14 -10 25 -28 33 -52 152 -164 215 -202 77 -46 146 -61 208 -45 46 12 46 12 33 38 -8 14 -14 31 -14 36 -1 16 -40 56 -130 131 -174 145 -244 251 -293 444 -21 82 -22 100 -19 530 2 268 -1 501 -8 585 -13 166 -56 379 -110 548 -21 67 -57 190 -80 272 -85 308 -114 405 -177 580 -105 291 -224 568 -369 857 -71 141 -123 240 -469 878 -347 641 -537 1078 -700 1612 -116 379 -216 856 -259 1230 -21 181 -19 200 9 98 44 -155 116 -359 110 -310 -3 25 -9 207 -14 405 -10 371 -25 552 -62 723 -36 165 -96 315 -176 441 -19 29 -32 56 -28 59 3 3 38 9 78 12 l72 7 -87 2 -87 1 -47 63 c-27 34 -89 109 -139 166 -178 204 -198 227 -269 322 -87 115 -153 229 -200 347 -35 86 -76 262 -76 321 0 37 -23 42 -44 9 -26 -41 -37 -109 -37 -218 1 -276 113 -514 423 -897 32 -39 58 -75 58 -79 0 -10 -110 3 -350 42 -508 82 -853 190 -1227 384 -155 80 -313 176 -313 190 0 29 500 297 776 415 621 267 1329 447 2064 525 251 27 707 37 915 21 611 -49 968 -221 1011 -487 14 -88 -32 -216 -103 -289 -42 -43 -33 -39 40 19 l49 39 -9 -49 c-4 -27 -8 -137 -8 -244 1 -314 26 -414 310 -1265 296 -885 361 -1136 565 -2185 233 -1202 271 -1577 269 -2685 0 -486 3 -639 15 -755 9 -80 16 -181 17 -225 l0 -80 24 100 c12 55 43 174 69 265 93 334 134 676 143 1190 13 770 -78 1444 -332 2462 -183 734 -320 1167 -660 2083 -234 633 -303 855 -340 1100 -17 113 -20 291 -6 329 7 17 7 26 -1 28 -8 3 -7 11 1 26 39 72 30 200 -20 298 -30 60 -123 168 -184 213 -26 20 -28 24 -15 34 75 57 111 225 90 418 -20 181 -61 321 -143 488 l-46 92 32 29 c76 66 103 171 87 340 -5 63 -15 178 -20 255 -16 208 -22 255 -31 225 -4 -14 -8 -68 -9 -120 l-1 -95 -33 90 c-122 332 -267 575 -506 845 -51 58 -95 107 -98 110 -2 3 3 -11 13 -30 19 -37 70 -114 185 -275 86 -121 206 -362 253 -506 63 -193 72 -252 71 -474 -1 -110 -5 -213 -11 -229 -9 -28 -10 -27 -67 70 -72 121 -233 370 -334 519 -113 166 -263 375 -268 375 -13 0 79 -140 256 -390 261 -368 365 -562 456 -852 63 -202 78 -293 78 -493 1 -163 -1 -187 -23 -258 -13 -43 -27 -80 -31 -82 -4 -2 -56 16 -116 40 -447 182 -1129 204 -1989 65 -1102 -178 -2008 -562 -2532 -1073 -51 -50 -95 -89 -97 -86 -10 11 -104 206 -146 304 -26 61 -75 171 -108 245 -167 374 -299 709 -557 1415 -230 626 -479 1231 -763 1850 -351 766 -631 1338 -632 1290z"/>
<path d="M23095 31126 c-43 -102 -71 -477 -62 -826 9 -326 38 -494 162 -916 88 -298 112 -397 130 -532 27 -201 15 -409 -35 -642 -30 -137 -62 -250 -71 -250 -4 0 -21 11 -37 25 -56 47 -133 25 -162 -46 -10 -24 -11 -44 -2 -94 7 -34 12 -84 12 -111 0 -67 -33 -324 -41 -324 -17 0 -92 100 -128 170 -51 98 -74 176 -101 340 -21 128 -21 144 -9 303 26 352 -14 582 -131 760 -57 87 -133 160 -184 177 -51 16 -143 9 -191 -16 -33 -17 -45 -33 -73 -95 -27 -61 -31 -82 -27 -119 3 -25 9 -70 12 -101 l5 -56 -85 -71 c-47 -40 -343 -327 -659 -639 -581 -576 -743 -726 -900 -834 -100 -69 -237 -137 -292 -146 -37 -6 -38 -5 -31 18 4 13 8 25 9 26 0 1 32 13 69 27 57 21 105 52 172 108 5 5 -10 2 -34 -7 -55 -19 -181 -21 -181 -2 0 23 19 50 370 528 202 274 370 511 521 734 67 99 181 259 252 355 139 188 136 187 -58 -25 -71 -77 -181 -194 -245 -260 -103 -106 -276 -302 -396 -450 -122 -150 -296 -412 -399 -600 -21 -38 -39 -71 -41 -73 -1 -2 -12 2 -24 8 -41 22 -93 -33 -126 -135 -9 -27 -18 -51 -19 -53 -8 -9 -67 32 -89 61 -39 51 -57 113 -63 217 -9 163 36 353 123 519 52 98 37 90 -59 -29 -36 -45 -56 -65 -52 -50 16 53 106 169 525 675 64 77 156 192 205 255 49 63 119 151 155 195 36 44 103 132 148 195 107 151 247 326 380 475 l106 120 -84 -75 c-47 -42 -142 -123 -211 -182 -171 -144 -342 -300 -411 -373 -85 -91 -263 -300 -328 -385 -158 -207 -350 -517 -422 -679 l-32 -74 -79 6 c-142 10 -235 76 -258 185 -17 83 -9 205 16 233 l20 22 -23 -5 c-28 -8 -30 -11 87 142 94 122 164 207 386 464 61 70 164 192 230 271 193 231 288 336 366 409 l73 68 -144 -96 c-359 -236 -537 -387 -750 -636 -191 -223 -400 -631 -416 -813 l-4 -52 15 34 c9 18 18 31 20 29 3 -3 1 -36 -4 -74 -6 -48 -35 -137 -99 -299 -148 -377 -176 -497 -176 -755 0 -288 56 -469 223 -732 52 -82 95 -147 97 -145 1 1 -11 40 -26 87 -55 166 -124 538 -135 735 -15 237 38 669 116 959 l11 41 19 -37 c25 -50 81 -102 138 -130 37 -19 63 -23 131 -23 47 0 95 4 108 8 22 8 22 7 16 -34 -4 -24 -24 -77 -45 -118 -51 -99 -72 -199 -72 -336 0 -209 64 -337 200 -397 43 -19 43 -19 43 -72 0 -129 61 -174 115 -84 12 22 22 27 37 23 41 -14 158 -5 220 15 173 58 345 181 655 467 504 465 932 934 1091 1194 29 46 68 107 89 134 l37 50 -42 -39 c-23 -22 -44 -38 -46 -35 -9 9 41 180 61 206 23 32 77 42 123 23 43 -18 105 -89 149 -170 75 -141 121 -322 155 -622 14 -117 13 -134 -4 -230 -10 -56 -21 -131 -25 -165 l-7 -61 -67 76 c-206 233 -438 407 -590 441 -41 9 -74 -1 -56 -17 6 -5 65 -51 132 -101 169 -127 294 -241 410 -373 140 -159 189 -226 238 -326 23 -48 67 -118 98 -155 83 -101 147 -279 147 -406 -1 -104 -64 -170 -148 -155 -42 8 -105 35 -142 61 -21 16 -20 12 10 -31 97 -137 167 -188 255 -190 63 0 109 25 150 83 29 41 30 47 30 149 -1 98 -4 116 -38 212 -21 58 -41 113 -44 122 -5 15 3 17 71 17 85 -1 133 19 143 60 6 23 -10 44 -39 53 -5 2 21 89 57 193 119 342 200 646 237 890 19 129 16 423 -5 561 -24 154 -73 346 -160 634 -144 470 -182 630 -212 885 -20 165 -30 518 -18 613 5 39 8 72 6 72 -2 0 -10 -15 -18 -34z m110 -3239 c-44 -126 -129 -406 -138 -454 -6 -35 -16 -61 -22 -59 -5 2 -9 12 -7 22 1 10 9 80 17 154 23 214 40 275 87 326 31 34 44 42 54 33 7 -6 11 -16 9 -22z"/>
<path d="M68425 29750 c-73 -52 -291 -163 -580 -296 -93 -43 -379 -183 -635 -310 -493 -246 -666 -326 -912 -425 -760 -303 -1476 -410 -1775 -264 -79 39 -113 73 -113 114 0 142 451 411 935 559 372 113 660 167 1520 283 l250 34 -100 12 c-322 37 -542 39 -875 7 -572 -55 -1104 -209 -1498 -435 -203 -116 -338 -233 -389 -338 -37 -74 -39 -184 -6 -247 104 -197 435 -296 856 -255 640 63 1362 334 2348 884 618 344 966 577 1027 685 13 23 22 42 20 41 -2 0 -34 -23 -73 -49z"/>
<path d="M31345 29640 c-119 -26 -198 -73 -288 -170 -66 -72 -113 -152 -122 -210 l-5 -35 15 39 c38 97 145 194 258 233 118 41 255 35 412 -19 344 -117 710 -402 1370 -1064 148 -149 304 -310 345 -357 41 -47 76 -84 78 -82 6 5 -68 146 -131 250 -114 189 -270 379 -497 605 -370 369 -716 627 -990 740 -151 62 -343 93 -445 70z"/>
<path d="M31006 29178 c-14 -90 -103 -244 -193 -330 -80 -77 -138 -108 -201 -108 -46 0 -53 -2 -43 -14 7 -8 8 -16 4 -19 -29 -17 -136 -30 -238 -31 -138 0 -182 12 -191 53 -18 81 -21 86 -41 89 -14 2 -23 -5 -31 -25 -34 -90 -12 -165 60 -207 120 -70 423 -46 591 47 59 33 68 35 182 39 66 3 176 15 243 28 98 19 127 21 140 12 33 -24 45 -25 76 -8 18 9 40 14 49 10 25 -9 32 22 14 62 -9 19 -20 34 -25 34 -4 0 -13 26 -20 58 -17 82 -74 194 -128 252 -71 76 -170 118 -214 90 -9 -6 -17 -5 -21 2 -4 5 -9 -10 -13 -34z m81 -32 c104 -61 180 -160 198 -257 l7 -36 -94 -6 c-51 -3 -137 -17 -191 -31 -53 -14 -99 -26 -101 -26 -3 0 11 26 30 58 43 71 62 132 76 245 6 48 13 87 14 87 2 0 29 -15 61 -34z"/>
<path d="M22294 27795 c61 -226 73 -626 27 -856 -81 -406 -265 -691 -428 -666 l-38 6 30 -16 c104 -57 252 24 371 204 135 203 204 451 204 738 0 192 -33 362 -96 490 -36 75 -80 137 -70 100z"/>
<path d="M31851 27190 c-1 -72 22 -138 81 -237 45 -77 216 -249 308 -310 339 -226 722 -275 954 -121 58 38 120 118 148 190 27 69 35 216 18 312 l-13 71 -12 -60 c-38 -182 -148 -355 -264 -414 -111 -57 -345 -67 -516 -22 -162 42 -333 144 -487 289 -125 118 -194 224 -208 317 l-8 50 -1 -65z"/>
<path d="M19286 26332 c-218 -480 -333 -773 -431 -1092 -150 -494 -246 -987 -304 -1570 -30 -300 -61 -839 -61 -1077 0 -97 -1 -102 -22 -106 -23 -4 -23 -4 1 -6 23 -1 24 -2 18 -73 -4 -40 -9 -633 -13 -1318 -7 -1363 -2 -1541 51 -1840 13 -74 29 -180 37 -235 l13 -100 6 162 c4 88 9 166 13 171 3 6 17 163 31 349 24 319 26 407 36 1603 6 696 14 1266 17 1267 4 2 5 40 4 85 -7 170 36 855 79 1248 73 673 200 1347 355 1889 24 86 94 306 155 490 60 183 109 337 107 342 -2 4 -43 -81 -92 -189z"/>
<path d="M22055 26088 c-249 -290 -298 -549 -244 -1284 25 -343 30 -784 11 -949 -65 -551 -207 -917 -694 -1790 -503 -902 -713 -1353 -749 -1602 -9 -62 -20 -91 -51 -142 -144 -231 -233 -482 -292 -826 -47 -279 -60 -431 -61 -720 0 -242 2 -282 23 -382 30 -147 79 -287 159 -453 l65 -135 -1 -195 c-3 -325 -9 -364 -121 -742 -16 -54 -26 -71 -49 -83 -53 -27 -141 -117 -195 -199 -107 -161 -149 -266 -201 -496 -24 -106 -61 -177 -120 -235 -96 -94 -283 -179 -419 -192 l-63 -6 -6 95 c-4 77 -25 168 -39 168 -2 0 -3 -28 -3 -63 0 -50 -7 -76 -37 -138 -23 -50 -43 -79 -57 -84 -15 -4 -21 -15 -21 -34 0 -37 -102 -180 -195 -275 -177 -180 -334 -236 -625 -222 -289 13 -447 63 -495 157 -16 30 -19 120 -6 154 8 19 8 19 15 -2 12 -37 84 -91 145 -109 177 -52 390 59 480 250 18 37 31 70 29 72 -2 1 -51 -31 -108 -73 -186 -134 -274 -170 -394 -161 -70 6 -125 28 -144 58 -10 17 -8 30 17 84 27 60 96 172 138 224 l19 23 39 -21 c22 -11 77 -34 121 -50 58 -22 98 -45 138 -80 63 -55 80 -60 96 -29 35 65 -108 170 -282 208 l-80 17 98 93 c202 192 323 281 380 281 13 0 24 5 24 11 0 14 -129 3 -209 -17 -237 -61 -479 -275 -623 -551 -53 -100 -53 -100 -70 -78 -31 42 -97 38 -145 -7 -27 -25 -29 -41 -7 -63 15 -15 27 -14 70 2 7 3 14 -14 18 -42 4 -26 15 -54 25 -64 13 -13 20 -39 23 -92 11 -167 114 -267 343 -334 180 -52 526 -60 689 -16 153 42 275 119 406 258 90 94 147 181 181 274 l20 55 67 -9 c192 -26 439 58 578 198 100 99 134 181 159 390 9 72 23 157 31 190 17 63 80 193 115 235 l21 25 -18 -30 c-9 -17 31 16 91 73 59 57 128 113 152 124 45 21 59 38 67 80 2 13 20 49 39 79 114 179 137 282 137 625 0 276 -7 314 -100 508 -73 154 -123 296 -147 426 -15 78 -18 149 -18 400 0 467 51 908 146 1268 46 176 87 268 198 442 8 14 16 27 16 31 0 6 96 186 214 399 77 140 255 448 513 885 522 884 720 1415 768 2060 19 263 11 477 -36 980 -58 625 -40 944 67 1163 21 42 37 78 36 79 -1 1 -29 -30 -62 -69z"/>
<path d="M38661 25936 c3 -3 126 -17 274 -31 396 -38 606 -61 1030 -111 348 -41 1001 -116 1435 -164 185 -21 1139 -119 1645 -169 361 -36 1231 -116 1915 -176 316 -27 2018 -160 2565 -200 193 -14 491 -37 663 -51 317 -26 466 -29 227 -6 -71 7 -407 42 -745 77 -811 85 -2399 245 -2870 290 -206 20 -625 60 -930 91 -501 49 -1264 122 -2130 204 -590 56 -1574 140 -2025 175 -333 25 -1029 75 -1048 75 -6 0 -8 -2 -6 -4z"/>
<path d="M93880 24859 c-652 -4 -1520 -14 -1930 -23 -975 -20 -2100 -34 -3845 -46 -1907 -14 -2682 -31 -3700 -85 -2608 -138 -4153 -520 -4350 -1075 -21 -58 -21 -158 0 -220 89 -267 525 -566 1000 -685 188 -47 226 -51 115 -11 -266 94 -510 215 -688 343 -149 106 -283 257 -324 365 -66 174 58 341 367 495 743 372 2419 585 5215 663 512 14 1495 28 2435 35 1760 13 3125 42 4165 90 561 26 1309 65 1455 75 335 24 917 54 1350 70 529 20 537 20 -1265 9z"/>
<path d="M3251 23440 c-377 -11 -900 -44 -888 -57 3 -2 89 2 193 8 250 15 1256 6 1624 -15 750 -43 1787 -123 3490 -271 1762 -153 2949 -238 4890 -350 500 -29 2414 -114 3130 -140 777 -28 1243 -49 2124 -96 313 -16 579 -29 590 -27 12 2 -157 16 -374 31 -217 16 -728 53 -1135 82 -407 30 -927 68 -1155 84 -228 17 -705 49 -1060 71 -355 22 -888 56 -1185 75 -297 19 -691 44 -875 55 -538 32 -1278 79 -1510 95 -118 8 -512 35 -875 60 -860 59 -1236 86 -1940 140 -2848 218 -4085 281 -5044 255z"/>
<path d="M22570 22555 c8 -2 209 -9 445 -15 1003 -25 2410 -107 5050 -295 424 -30 865 -62 980 -70 116 -8 455 -33 755 -55 923 -67 1281 -91 1298 -88 28 5 -2202 195 -3093 263 -253 19 -548 42 -655 50 -1204 92 -2196 149 -3365 195 -263 10 -1443 23 -1415 15z"/>
<path d="M81170 22383 c-213 -70 -437 -126 -975 -243 -512 -111 -1318 -233 -1910 -290 -980 -92 -1737 -124 -2975 -124 -1350 0 -2808 51 -4560 159 -356 22 -1695 114 -1830 125 -63 5 -131 9 -150 9 -44 -2 175 -23 980 -93 1890 -165 3021 -235 4820 -297 451 -16 1851 -16 2225 -1 946 40 1522 88 2185 182 628 89 1299 237 1670 367 204 71 662 242 669 249 9 8 -16 1 -149 -43z"/>
<path d="M35895 22199 c365 -13 1010 -49 1760 -99 453 -31 975 -70 2385 -180 3330 -259 5510 -398 8580 -545 478 -23 1225 -50 2025 -75 480 -15 1625 -33 1632 -26 4 3 -43 6 -103 6 -146 0 -725 24 -1469 60 -643 32 -709 35 -1440 75 -253 14 -721 38 -1040 55 -3111 162 -5080 284 -7750 480 -1591 117 -2171 156 -2765 190 -760 42 -1540 71 -1855 68 l-180 -1 220 -8z"/>
<path d="M65880 20063 c156 -7 465 -37 904 -88 2839 -327 5206 -513 7841 -615 281 -10 562 -22 625 -25 155 -7 2410 -62 2875 -70 655 -11 1431 -34 2160 -65 564 -24 502 -16 -310 40 -170 11 -470 32 -665 45 -1248 87 -2740 174 -4040 235 -500 23 -1049 51 -1480 75 -250 14 -657 36 -905 50 -663 37 -1934 117 -2845 180 -2622 181 -3732 247 -4070 243 -85 -1 -126 -3 -90 -5z"/>
<path d="M39060 19574 c860 -30 912 -34 2465 -169 1943 -168 3167 -229 4970 -249 l420 -4 -440 13 c-774 23 -1196 42 -1960 85 -872 50 -1028 61 -3130 220 -1031 78 -1441 99 -2000 104 -231 2 -377 2 -325 0z"/>
<path d="M10610 19259 c-945 -42 -1510 -121 -2030 -285 -270 -85 -644 -251 -910 -404 -515 -297 -1001 -705 -1121 -941 -139 -277 94 -407 1051 -583 135 -25 436 -77 670 -116 536 -89 1012 -173 1205 -211 431 -86 941 -211 1139 -279 49 -16 91 -28 94 -26 5 6 -263 93 -443 145 -174 50 -450 119 -660 165 -348 76 -503 105 -1660 306 -997 174 -1348 286 -1379 440 -16 82 56 201 226 376 369 379 930 740 1513 974 602 241 1387 371 2540 420 391 17 459 27 175 27 -129 0 -314 -4 -410 -8z"/>
<path d="M35100 19107 c-1 -21 149 -514 204 -668 293 -832 744 -1408 1491 -1906 240 -160 513 -307 769 -414 76 -32 145 -67 152 -78 8 -11 90 -85 182 -164 275 -237 460 -442 527 -582 28 -60 47 -150 38 -183 -6 -24 -67 -42 -146 -42 l-55 0 -27 53 c-138 264 -454 536 -950 817 -99 56 -196 113 -215 127 -22 16 -15 6 20 -27 30 -28 143 -111 250 -183 342 -231 503 -358 670 -526 115 -117 195 -234 163 -239 -52 -8 -65 -15 -72 -35 -18 -49 28 -106 114 -139 l39 -15 24 -129 c13 -71 26 -141 29 -155 5 -26 5 -26 -104 -43 -186 -28 -381 -18 -553 30 -87 24 -85 23 -68 37 24 18 36 70 48 199 5 65 15 129 21 144 14 38 5 54 -30 54 -39 0 -94 -48 -126 -109 l-25 -46 6 45 c10 70 41 151 71 182 19 20 24 31 16 39 -16 16 -92 -21 -146 -70 -24 -23 -48 -41 -53 -41 -4 0 -47 -20 -94 -44 -111 -58 -211 -85 -336 -93 -368 -22 -742 179 -897 482 -17 33 -43 98 -58 145 -15 47 -28 81 -28 75 -2 -30 42 -265 60 -317 84 -251 289 -438 587 -538 209 -69 409 -63 573 20 l56 28 1 -28 c2 -65 79 -163 177 -225 120 -75 297 -128 485 -144 135 -11 228 0 305 38 33 16 83 32 112 35 70 7 147 41 183 83 17 18 30 38 30 43 0 4 3 15 6 23 5 14 0 14 -46 0 -28 -8 -52 -13 -53 -11 -14 25 -94 278 -89 281 4 2 29 5 56 6 60 3 111 23 149 59 59 56 70 107 38 176 -10 23 -24 68 -31 100 -23 112 -111 252 -249 399 -35 37 -62 69 -59 72 7 7 161 -129 204 -181 77 -93 111 -151 153 -264 12 -30 29 -68 40 -83 l19 -29 16 23 c25 36 19 96 -17 184 -45 110 -104 195 -207 295 -130 126 -337 248 -359 211 -6 -9 -15 -6 -37 12 -16 13 -64 50 -108 81 -43 31 -76 56 -73 56 3 0 43 -9 89 -20 46 -11 126 -25 179 -30 52 -5 115 -12 140 -15 l44 -6 -59 26 c-32 15 -77 38 -99 52 -22 14 -180 95 -351 181 -632 316 -932 499 -1299 791 -149 118 -434 398 -552 541 -312 380 -600 887 -796 1405 -38 99 -68 176 -69 172z"/>
<path d="M18487 19050 c-3 -14 -9 -95 -12 -180 -12 -296 -30 -361 -157 -564 -150 -240 -187 -357 -195 -611 l-5 -160 -57 -79 c-86 -121 -226 -262 -451 -455 -243 -209 -392 -352 -515 -495 -68 -78 -102 -109 -136 -125 -75 -33 -213 -69 -373 -96 -225 -38 -260 -59 -368 -218 -33 -49 -93 -125 -133 -169 -94 -101 -120 -153 -120 -235 0 -43 -4 -63 -12 -63 -17 0 -36 38 -29 57 4 10 1 13 -12 11 -54 -10 3 -144 79 -183 14 -8 45 -30 68 -49 49 -41 61 -44 61 -16 0 18 7 20 68 20 37 0 76 3 87 6 13 3 30 -3 45 -17 38 -33 84 -49 140 -49 43 0 119 24 108 35 -1 1 -40 13 -85 25 -94 25 -122 48 -134 114 -11 62 5 190 35 277 26 76 105 214 165 289 l36 45 -50 -29 c-107 -61 -184 -161 -228 -294 -33 -99 -50 -241 -38 -308 5 -27 8 -51 5 -53 -2 -2 -44 11 -94 29 -85 31 -90 34 -100 69 -19 70 -12 151 19 216 43 91 163 265 219 317 58 54 90 65 297 103 77 14 165 32 196 40 74 19 79 19 49 -6 -17 -14 -10 -12 20 6 25 15 82 44 128 66 121 57 330 181 440 261 274 197 535 475 688 731 l46 79 32 -30 c31 -29 121 -78 110 -60 -10 15 -19 172 -18 298 0 90 5 128 22 175 11 33 17 62 11 63 -5 2 -9 12 -9 22 0 42 56 226 116 384 93 242 106 296 107 446 1 128 -11 222 -42 327 -15 50 -18 54 -24 33z"/>
<path d="M58645 18470 c-158 -35 -662 -127 -955 -174 -548 -89 -994 -146 -2125 -271 -1827 -202 -2585 -310 -3485 -496 -962 -199 -1929 -496 -2455 -754 -252 -124 -344 -211 -353 -336 -15 -208 187 -323 903 -514 789 -210 1041 -303 1178 -435 48 -47 57 -61 57 -91 0 -173 -456 -355 -1326 -528 -776 -155 -1695 -285 -4274 -606 -817 -102 -1746 -219 -2065 -260 -319 -41 -742 -95 -940 -120 -198 -26 -736 -97 -1195 -160 -459 -62 -1055 -142 -1324 -177 -269 -34 -482 -64 -474 -66 8 -2 179 15 379 37 618 68 1495 155 2039 201 460 39 2142 210 2955 299 2684 297 4258 516 5155 717 707 159 1086 334 1186 547 78 168 -34 331 -331 480 -179 89 -352 156 -827 318 -191 65 -398 138 -461 163 -178 69 -357 162 -357 185 0 13 63 61 151 113 366 221 1108 490 1904 691 796 201 1701 359 3170 552 2373 312 3072 430 3795 641 289 85 305 94 75 44z"/>
<path d="M25670 18314 c-652 -25 -1345 -201 -1798 -457 -264 -150 -446 -325 -460 -442 -6 -60 2 -88 40 -126 69 -69 193 -111 728 -249 370 -95 824 -223 1141 -320 224 -69 648 -211 744 -249 l50 -20 -220 -3 -220 -3 238 -3 237 -2 178 -76 c198 -84 371 -176 571 -300 74 -47 135 -83 137 -81 5 5 -313 207 -453 287 -72 42 -176 96 -230 121 l-98 44 120 5 120 6 -135 2 -135 2 -175 71 c-403 163 -1214 412 -1915 588 -436 109 -565 153 -633 218 -40 38 -43 44 -37 75 12 56 52 113 136 193 316 301 1003 558 1754 655 196 25 389 39 660 49 218 8 219 8 69 9 -83 1 -191 4 -240 6 -49 2 -127 2 -174 0z"/>
<path d="M19915 17913 c17 -45 24 -131 15 -190 -19 -118 -29 -125 -150 -111 -95 11 -138 30 -146 62 -8 34 -19 33 -34 -3 -15 -37 -1 -88 34 -120 37 -35 124 -63 212 -68 105 -7 151 15 189 91 57 113 12 291 -85 341 -37 19 -44 19 -35 -2z"/>
<path d="M27500 16710 c969 -25 1502 -32 2820 -35 l1445 -3 -1040 8 c-572 5 -1411 13 -1865 19 -454 6 -1021 13 -1260 15 l-435 4 335 -8z"/>
<path d="M31274 16545 c-856 -47 -1914 -71 -3654 -85 l-1065 -8 1495 3 c1395 3 1715 8 2400 35 566 22 1334 67 1145 67 -49 0 -194 -6 -321 -12z"/>
<path d="M17712 16385 c-144 -32 -457 -240 -579 -385 -115 -137 -165 -290 -164 -505 0 -179 30 -272 118 -366 81 -87 184 -120 267 -85 29 12 76 58 76 75 0 4 -34 24 -76 46 -90 47 -139 92 -168 154 -18 41 -21 64 -21 196 0 137 3 155 26 210 13 33 41 85 62 116 49 73 211 244 334 351 93 81 214 209 196 207 -4 0 -36 -7 -71 -14z"/>
<path d="M17017 16219 c-310 -159 -447 -357 -447 -643 0 -159 41 -256 136 -322 59 -41 137 -54 197 -35 l36 12 -60 50 c-116 97 -142 154 -141 309 2 233 132 495 312 633 45 34 39 34 -33 -4z"/>
<path d="M65390 15630 c-8 -5 -51 -21 -95 -36 -145 -46 -384 -183 -458 -261 l-28 -30 123 42 c195 67 295 122 408 228 71 65 81 77 50 57z"/>
<path d="M27260 15205 c-51 -82 -213 -209 -415 -326 -379 -218 -900 -430 -1850 -754 -640 -219 -820 -287 -1018 -387 -227 -115 -309 -213 -268 -320 74 -195 789 -359 1661 -382 190 -4 186 -4 -90 20 -448 38 -895 116 -1162 205 -192 63 -328 147 -328 201 0 24 55 85 116 126 53 36 262 137 424 205 176 73 319 128 850 326 966 358 1456 580 1800 815 107 73 261 216 293 274 24 43 14 41 -13 -3z"/>
<path d="M66265 15107 c-29 -13 -27 -14 51 -19 66 -4 91 -10 130 -33 137 -81 224 -226 224 -378 0 -65 -27 -180 -57 -245 -70 -148 -205 -186 -419 -116 -193 62 -370 210 -425 353 -21 56 -25 143 -9 188 9 26 9 27 -5 9 -23 -30 -55 -123 -55 -161 0 -61 21 -138 58 -215 29 -59 56 -95 132 -170 106 -106 173 -150 293 -192 200 -71 387 -40 501 82 185 198 145 546 -88 775 -110 108 -249 159 -331 122z"/>
<path d="M63681 13862 c-6 -94 59 -437 129 -678 150 -515 279 -835 572 -1412 371 -732 508 -1125 562 -1617 9 -77 21 -180 27 -230 16 -129 54 -207 95 -191 8 3 14 3 12 -1 -29 -57 -70 -151 -74 -170 -9 -33 -31 -45 -166 -92 -125 -43 -262 -81 -878 -245 -217 -58 -501 -135 -630 -170 -129 -35 -237 -62 -239 -60 -2 2 3 14 11 26 37 58 53 131 52 243 -2 103 -5 119 -47 245 -31 91 -47 125 -47 105 -2 -48 -25 -100 -44 -99 -9 1 -16 -4 -16 -12 0 -21 -175 -193 -287 -282 -258 -205 -622 -414 -868 -499 -63 -21 -218 -63 -238 -63 -4 0 0 17 9 38 42 94 56 234 32 303 -6 19 -21 50 -32 68 l-20 35 -8 -35 c-22 -106 -128 -300 -219 -404 -10 -11 -37 -42 -60 -68 -59 -67 -187 -161 -251 -185 -107 -40 -232 -35 -344 13 l-39 17 31 9 c76 21 97 87 65 200 -17 57 -24 121 -32 284 -20 417 11 680 101 842 25 43 27 52 14 57 -41 16 -111 -49 -162 -149 -52 -104 -134 -381 -167 -570 -22 -124 -31 -338 -17 -427 6 -40 14 -102 17 -138 l5 -65 -88 -52 c-161 -95 -284 -122 -411 -89 -110 28 -152 75 -155 172 -1 59 -10 61 -26 6 -16 -59 -12 -129 10 -173 79 -153 399 -191 589 -69 50 31 114 95 123 121 4 10 23 -3 61 -40 67 -66 112 -94 195 -122 83 -28 227 -23 316 9 119 43 257 146 349 258 l52 64 145 4 c220 6 444 62 670 167 46 22 91 37 100 33 36 -15 146 -21 213 -13 93 12 180 41 253 85 50 30 79 38 228 64 185 31 271 50 916 195 580 130 789 188 960 269 30 14 64 26 74 26 11 0 35 10 53 23 41 26 118 175 132 252 9 50 0 139 -17 172 -20 36 -82 125 -82 117 0 -5 -11 -27 -24 -49 l-25 -40 6 90 c12 185 -36 494 -123 793 -78 269 -170 493 -345 844 l-109 217 33 5 c260 38 346 54 515 96 297 74 602 169 1195 374 742 256 1113 320 1717 296 90 -4 99 -2 173 29 162 69 293 178 342 284 14 28 25 57 25 64 0 7 34 47 75 90 96 98 119 145 110 214 l-7 51 -117 -114 c-81 -81 -134 -125 -176 -146 -380 -191 -381 -192 -530 -218 -76 -13 -189 -35 -250 -49 -60 -13 -204 -38 -320 -55 -469 -69 -675 -121 -1660 -425 -663 -205 -992 -314 -1165 -389 -15 -6 -68 90 -330 598 -300 580 -476 1038 -513 1331 -3 21 -4 23 -6 7z"/>
<path d="M35256 13409 c-32 -10 -102 -28 -155 -38 -134 -27 -402 -127 -626 -234 -475 -225 -809 -449 -974 -651 -34 -41 -61 -77 -61 -80 0 -12 88 29 180 84 156 93 308 175 435 236 366 173 708 346 853 431 l165 97 126 -68 c321 -172 675 -336 1171 -543 280 -117 414 -170 1175 -468 237 -92 592 -233 790 -312 198 -80 491 -196 650 -258 160 -61 412 -162 560 -222 149 -61 333 -135 410 -166 241 -94 492 -205 709 -313 115 -57 210 -103 211 -102 2 2 -108 66 -244 142 -135 77 -361 205 -501 284 -395 224 -1103 571 -1500 737 -500 208 -1045 418 -1740 670 -162 58 -419 152 -570 207 -482 175 -1073 385 -1147 407 -40 12 -73 23 -73 25 0 9 114 88 171 120 72 40 70 42 -15 15z"/>
<path d="M15735 12772 c-585 -319 -1516 -880 -2020 -1217 -608 -406 -952 -711 -1074 -953 -104 -206 -69 -392 107 -569 243 -245 755 -473 1612 -717 314 -89 526 -143 1440 -366 945 -231 1446 -372 1901 -535 1183 -425 1774 -913 1948 -1610 55 -221 69 -343 91 -805 23 -466 90 -718 262 -982 332 -510 1088 -862 2348 -1092 1157 -211 3439 -442 7210 -731 1528 -117 2931 -208 3830 -250 179 -8 379 -17 445 -20 271 -13 1035 -35 1565 -46 623 -13 2257 -7 2750 10 2315 80 3579 207 6745 681 1225 183 1333 199 1525 224 227 31 754 93 870 103 47 4 76 9 64 11 -39 6 -843 -70 -1459 -138 -148 -17 -607 -73 -1020 -125 -2334 -296 -2590 -326 -3260 -390 -1518 -143 -2743 -195 -4620 -195 -2424 0 -4284 81 -8060 350 -2946 211 -5300 444 -6413 635 -1405 242 -2165 604 -2466 1175 -57 108 -98 232 -130 390 -25 124 -32 189 -62 600 -24 332 -56 521 -124 734 -218 679 -824 1172 -1965 1596 -495 184 -1019 332 -2176 614 -802 196 -883 217 -1189 303 -530 148 -863 266 -1155 408 -471 230 -616 433 -495 693 97 208 430 530 921 889 124 90 559 385 709 480 316 200 428 270 650 405 140 85 392 238 560 338 283 170 331 200 320 200 -3 0 -86 -44 -185 -98z"/>
<path d="M33635 12145 c75 -66 190 -136 385 -233 343 -171 731 -328 1510 -612 493 -179 546 -199 945 -338 204 -72 433 -153 510 -180 231 -83 469 -167 660 -232 99 -35 293 -103 430 -152 138 -50 401 -142 585 -205 699 -239 1065 -365 1068 -367 1 -2 -17 -16 -40 -32 -54 -36 -39 -40 87 -20 l90 13 210 -72 c116 -40 235 -82 265 -94 l56 -21 -3 -42 c-1 -27 0 -35 5 -23 22 62 17 62 160 2 73 -30 132 -53 132 -52 0 2 -49 31 -110 65 -60 34 -113 66 -116 72 -4 5 0 16 8 24 11 12 31 13 108 4 296 -31 589 -22 658 20 64 39 82 107 44 160 -15 20 -18 37 -15 77 6 59 -12 229 -32 306 -42 163 -107 254 -198 278 -42 12 -47 16 -47 42 0 33 -36 73 -76 83 -50 13 -124 -36 -556 -362 -190 -145 -385 -281 -445 -312 -18 -10 -49 2 -225 87 -364 178 -963 436 -1365 590 -1092 416 -1933 696 -3723 1240 -523 158 -859 265 -950 300 l-55 21 40 -35z m7354 -1724 c34 -34 41 -89 41 -308 l0 -213 -77 0 c-43 0 -116 -3 -163 -6 l-85 -7 41 44 c23 24 65 73 94 109 29 35 63 72 76 82 35 28 48 79 31 120 -18 44 -38 59 -84 64 -55 7 -96 -22 -131 -93 -38 -77 -168 -296 -190 -321 -11 -12 -42 -23 -92 -31 -95 -15 -141 -37 -153 -75 -13 -38 16 -76 74 -97 37 -14 65 -39 44 -39 -6 0 -353 187 -363 195 -2 2 43 25 100 52 178 86 352 202 646 431 79 62 150 112 158 112 7 0 23 -9 33 -19z"/>
<path d="M58855 9903 c-51 -59 -142 -118 -330 -213 -253 -129 -509 -219 -795 -280 -166 -35 -280 -69 -343 -102 -83 -45 -164 -136 -224 -254 -157 -307 -187 -600 -76 -761 41 -61 68 -69 78 -23 l6 29 48 -62 c130 -170 325 -261 586 -274 206 -10 380 38 506 139 52 43 65 49 84 40 43 -20 176 -35 263 -30 117 7 196 41 253 110 23 26 49 48 59 48 10 0 44 -16 76 -35 115 -69 263 -105 378 -91 125 16 234 105 272 221 9 28 25 59 35 70 30 33 38 68 54 237 39 403 82 586 191 817 30 63 66 130 80 148 l26 34 -48 -24 c-114 -58 -257 -250 -329 -442 -81 -215 -132 -631 -90 -731 l15 -36 -49 -57 c-42 -48 -111 -102 -111 -87 0 3 11 22 25 42 34 51 48 106 48 195 0 132 -64 230 -188 290 -67 33 -94 35 -134 15 -55 -29 -79 -200 -51 -357 14 -76 32 -113 65 -135 36 -23 50 -7 17 21 -26 23 -27 26 -26 132 0 59 6 127 12 150 14 48 18 48 98 -3 81 -51 93 -74 111 -224 9 -72 12 -134 9 -138 -4 -3 -53 -8 -109 -10 -112 -4 -241 19 -317 58 l-40 20 0 93 c0 246 91 493 293 792 51 77 124 185 161 240 37 55 93 145 123 200 30 55 67 118 81 140 20 31 21 37 6 25 -31 -25 -65 -68 -156 -197 -48 -68 -156 -212 -241 -321 -260 -333 -343 -463 -400 -627 -26 -78 -31 -104 -31 -195 -1 -112 9 -146 60 -200 l23 -25 -124 0 -124 0 53 55 c86 90 106 137 86 209 -13 48 -97 144 -180 204 -30 23 -67 53 -82 69 -32 34 -45 35 -89 5 -104 -70 -159 -236 -101 -307 17 -21 18 -21 31 42 12 63 46 133 75 157 13 11 30 2 110 -58 156 -118 178 -158 135 -244 -46 -89 -78 -127 -109 -127 -59 0 -177 31 -247 65 -71 35 -72 36 -80 83 -37 226 47 503 210 692 16 19 94 103 172 186 78 83 190 211 249 284 l108 132 -60 -45 c-32 -25 -128 -87 -213 -137 -242 -144 -352 -235 -463 -382 -198 -265 -272 -619 -171 -818 27 -54 48 -74 100 -96 l40 -17 -42 -13 c-79 -24 -233 -37 -357 -31 -213 10 -373 65 -490 168 -48 43 -130 138 -123 145 1 2 25 -4 52 -12 36 -11 78 -14 147 -11 85 3 105 8 174 41 96 46 183 107 254 181 l55 58 -35 -7 c-19 -3 -105 -39 -190 -80 -188 -90 -206 -96 -287 -96 -60 0 -153 16 -153 27 0 18 44 171 65 229 33 87 89 191 123 227 37 39 75 57 258 122 203 72 389 163 634 310 355 213 528 343 571 426 25 51 14 48 -36 -8z"/>
<path d="M57572 9078 c-30 -30 7 -76 126 -154 48 -31 106 -72 129 -90 44 -36 62 -41 81 -22 22 22 13 66 -19 102 -51 59 -242 176 -287 176 -10 0 -23 -5 -30 -12z"/>
<path d="M60002 8694 c-31 -21 -52 -66 -52 -109 0 -100 94 -165 128 -89 15 32 15 35 -2 28 -18 -7 -56 42 -56 72 0 27 24 54 49 54 32 0 60 -44 92 -143 18 -55 36 -94 40 -90 5 5 12 29 15 54 9 69 -18 151 -66 199 -34 34 -46 40 -83 40 -23 0 -53 -7 -65 -16z"/>
<path d="M61030 8670 c-35 -38 -46 -94 -30 -160 13 -54 30 -66 31 -22 1 34 22 95 35 99 5 2 15 -12 22 -31 7 -19 19 -40 27 -46 13 -10 18 -6 30 23 49 117 -38 220 -115 137z"/>
<path d="M46600 7103 c-990 -17 -2377 -127 -3575 -283 -170 -22 -393 -51 -495 -64 -102 -13 -175 -24 -163 -25 31 -1 959 76 1123 94 369 40 1405 130 1845 160 1012 69 2165 84 3105 41 103 -5 101 -4 -50 14 -435 51 -1112 75 -1790 63z"/>
<path d="M35310 6965 c33 -17 466 -207 675 -295 606 -255 1190 -448 1890 -625 1222 -309 2386 -477 3855 -557 316 -17 1613 -17 1930 0 1521 82 2770 272 3867 587 429 124 664 210 917 337 127 64 296 157 296 163 0 2 -69 -29 -152 -70 -233 -112 -450 -187 -883 -306 -1169 -321 -2458 -508 -4095 -591 -321 -16 -1501 -16 -1845 0 -1536 74 -2765 246 -4049 568 -806 202 -1450 411 -2150 698 -235 97 -322 128 -256 91z"/>
</g>
</svg>