<?xml version="1.0" encoding="UTF-8" standalone="no"?>
<!DOCTYPE svg PUBLIC "-//W3C//DTD SVG 20010904//EN" "http://www.w3.org/TR/2001/REC-SVG-20010904/DTD/svg10.dtd">
<svg version="1.0" xmlns="http://www.w3.org/2000/svg" width="2008.000000pt" height="4972.000000pt" viewBox="0 0 2008.000000 4972.000000" preserveAspectRatio="xMidYMid meet">
<metadata>
Created by potrace 1.16, written by Peter Selinger 2001-2019
</metadata>
<g transform="translate(0.000000,4972.000000) scale(0.100000,-0.100000)" fill="#000000" stroke="none">
<path d="M10126 48190 c-33 -17 -85 -49 -115 -73 l-56 -42 -107 0 c-99 0 -108 -2 -132 -24 -35 -33 -33 -53 14 -115 22 -29 40 -56 40 -60 0 -5 -31 -51 -68 -105 -157 -223 -305 -482 -526 -921 -252 -499 -529 -1118 -716 -1600 -403 -1039 -651 -1912 -799 -2810 -77 -464 -92 -625 -112 -1130 -6 -162 -12 -296 -14 -298 -2 -2 -108 100 -236 226 l-234 230 85 173 c47 95 131 254 188 353 56 100 102 184 102 188 0 29 -10 16 -340 -443 l-126 -175 -51 43 c-55 47 -372 384 -450 478 -77 93 -156 215 -174 270 l-16 50 -7 -70 c-21 -220 115 -563 386 -968 43 -65 81 -124 84 -131 3 -7 -50 -104 -117 -217 -707 -1186 -1395 -2827 -1799 -4295 -221 -802 -369 -1511 -484 -2324 -74 -521 -141 -1266 -153 -1710 -6 -238 11 -922 27 -1061 5 -46 8 -84 7 -86 -2 -1 -48 35 -103 80 -277 232 -862 671 -1132 851 -238 158 -396 252 -549 328 l-121 61 -78 209 c-43 114 -89 232 -103 261 -54 109 -100 52 -87 -108 5 -70 27 -217 41 -282 5 -21 2 -23 -44 -23 -27 0 -53 -4 -56 -10 -4 -6 5 -10 20 -10 47 0 93 -26 99 -57 3 -15 35 -163 70 -328 140 -650 179 -1000 179 -1595 0 -483 -29 -829 -108 -1315 -50 -307 -79 -448 -265 -1295 -261 -1184 -365 -1736 -474 -2500 -92 -644 -143 -1144 -193 -1895 -25 -375 -25 -1524 0 -1905 106 -1597 372 -2952 866 -4410 132 -390 201 -571 366 -960 317 -745 603 -1277 1047 -1948 83 -125 171 -254 196 -287 78 -102 372 -452 517 -615 282 -317 357 -388 806 -761 102 -85 257 -214 345 -287 87 -72 189 -160 226 -195 l68 -62 -203 -1 c-209 -1 -318 -13 -482 -55 -312 -80 -551 -236 -655 -429 -30 -57 -35 -74 -35 -137 0 -62 3 -75 25 -98 44 -47 54 -48 121 -14 52 26 60 28 54 12 -15 -35 -35 -117 -35 -143 1 -44 36 -107 71 -125 48 -26 91 -14 152 41 104 94 203 143 332 162 82 13 130 5 186 -32 86 -58 185 -231 252 -443 59 -187 72 -256 152 -848 128 -940 375 -1483 925 -2035 310 -311 586 -481 925 -568 162 -42 249 -52 433 -52 185 1 246 12 367 67 87 40 213 76 305 89 l46 6 -26 -178 -25 -179 -49 -60 c-75 -92 -128 -210 -134 -299 -6 -96 9 -139 71 -199 l49 -48 -11 -172 c-31 -476 -36 -640 -34 -1177 1 -613 8 -788 53 -1395 40 -527 45 -578 86 -860 106 -727 110 -750 215 -1152 54 -210 130 -480 168 -600 38 -120 71 -227 74 -238 3 -12 5 -7 6 15 1 19 8 116 16 215 8 99 22 284 30 410 8 127 22 316 30 422 22 276 12 1090 -20 1668 -14 237 -27 486 -30 555 -4 69 -15 229 -25 355 -11 127 -33 408 -50 625 -17 217 -33 409 -35 425 -3 17 -23 210 -45 429 -22 220 -49 476 -60 569 -11 94 -19 171 -18 172 2 1 55 23 118 48 273 108 519 137 725 86 64 -16 223 -78 315 -124 47 -23 112 -52 145 -65 33 -13 63 -26 67 -29 4 -3 3 -35 -2 -71 -18 -120 -60 -702 -76 -1040 -8 -184 -18 -616 -21 -960 -5 -593 -4 -645 21 -1025 32 -495 28 -457 86 -770 27 -143 56 -303 65 -355 8 -52 29 -151 45 -220 37 -157 69 -341 77 -443 6 -79 23 -118 23 -53 0 54 46 306 84 461 38 156 181 862 190 940 4 28 20 234 36 458 26 361 30 459 30 835 0 602 -35 1482 -81 2022 -20 243 -59 534 -89 663 -16 72 -28 132 -26 135 2 2 42 12 88 22 266 59 660 253 983 484 282 201 460 404 590 671 87 178 134 326 290 915 175 659 345 994 669 1316 155 154 223 191 421 229 477 91 499 96 548 123 119 64 166 215 104 327 l-26 46 52 31 c172 105 433 291 667 476 331 262 848 829 1134 1246 474 689 856 1490 1141 2392 325 1030 522 2224 596 3619 14 269 20 1207 9 1480 -41 1024 -144 2046 -335 3300 -25 162 -264 1610 -354 2140 -452 2660 -603 4782 -476 6700 124 1867 512 3186 1170 3974 149 179 312 311 447 361 31 11 61 27 68 35 32 38 -62 92 -145 83 -39 -5 -44 -3 -34 9 33 39 447 362 563 439 80 53 54 54 -91 6 -247 -83 -638 -274 -983 -482 -643 -386 -1399 -971 -2145 -1661 -183 -169 -660 -647 -844 -847 -63 -67 -116 -120 -118 -118 -2 2 19 64 47 138 28 73 60 157 71 186 24 66 42 182 71 472 76 765 -37 2075 -293 3380 -207 1052 -415 1838 -894 3365 -253 806 -349 1150 -450 1606 l-37 166 56 77 c67 90 68 103 1 16 -25 -33 -49 -60 -53 -60 -4 0 -17 49 -30 110 -30 146 -57 218 -88 232 -62 29 -112 -35 -139 -175 -17 -89 -35 -305 -35 -422 l0 -80 -266 -265 c-226 -225 -265 -260 -261 -234 3 17 11 145 18 285 14 280 10 345 -36 594 -76 411 -170 704 -385 1190 -84 190 -293 583 -452 847 -145 242 -441 672 -577 838 -291 356 -551 601 -750 709 -92 50 -88 41 -46 117 21 38 46 84 57 102 11 17 16 32 11 32 -4 0 -35 -14 -67 -30z m-56 -820 c478 -883 1112 -2153 1315 -2635 35 -82 94 -217 131 -300 36 -82 99 -235 139 -340 40 -104 102 -253 137 -330 36 -77 83 -187 104 -244 21 -57 54 -129 73 -160 51 -83 91 -162 91 -180 -1 -9 -48 -70 -107 -136 -465 -527 -844 -1082 -1196 -1755 -365 -697 -726 -1704 -948 -2642 -30 -125 -56 -228 -59 -228 -3 0 -38 49 -79 108 -109 157 -427 580 -591 787 -256 321 -430 523 -762 882 -98 105 -178 198 -178 206 0 7 20 103 45 213 44 193 56 271 90 554 9 74 34 259 55 410 21 151 50 363 65 470 48 361 156 961 251 1390 53 242 188 774 285 1126 74 272 330 1117 436 1439 36 110 101 310 145 445 133 411 328 978 397 1154 7 17 15 25 20 20 5 -5 68 -119 141 -254z m2846 -3770 c45 -404 124 -786 398 -1915 406 -1677 614 -2795 761 -4095 24 -216 93 -985 110 -1225 8 -121 24 -294 35 -385 11 -91 29 -262 40 -380 16 -177 26 -235 54 -332 42 -142 75 -328 82 -468 l6 -105 -117 -140 c-606 -727 -1281 -1745 -1750 -2640 l-79 -149 -61 304 c-160 790 -473 1876 -776 2687 -391 1048 -805 1920 -1340 2824 l-128 216 65 214 c35 118 85 293 110 389 181 694 457 1572 683 2166 73 194 263 653 355 858 173 385 465 936 688 1299 99 160 104 163 107 65 1 -33 21 -67 21 -36 0 7 7 59 15 116 14 99 16 105 76 193 115 171 327 467 558 779 l56 75 7 -85 c4 -47 15 -150 24 -230z m-5925 -2685 c163 -209 337 -423 528 -650 101 -121 203 -242 226 -270 23 -27 59 -76 79 -107 20 -32 45 -62 55 -67 19 -11 424 -507 646 -792 311 -399 778 -1064 1050 -1492 l68 -109 13 -191 c19 -267 32 -396 60 -587 13 -91 24 -178 25 -195 1 -20 5 -10 15 33 18 84 135 485 143 495 14 15 328 -557 551 -1003 551 -1100 972 -2234 1344 -3620 30 -113 102 -374 159 -580 58 -206 122 -437 142 -513 l38 -138 -63 -132 c-367 -774 -642 -1435 -975 -2342 -226 -616 -560 -1703 -729 -2372 -78 -306 -307 -1455 -375 -1883 -31 -189 -208 -1823 -326 -3005 -3 -27 12 24 34 115 221 930 470 1813 695 2460 41 118 104 314 141 435 99 327 220 699 356 1096 66 195 196 581 289 859 236 710 329 968 665 1850 247 647 433 1103 680 1660 62 140 156 352 208 470 222 502 450 973 769 1590 360 696 536 1010 836 1490 716 1146 1358 1929 2318 2826 141 131 635 572 688 614 11 8 -7 -25 -41 -75 -419 -628 -744 -1480 -952 -2499 -355 -1733 -444 -4287 -241 -6921 62 -802 108 -1252 365 -3540 56 -505 129 -1261 164 -1700 100 -1255 105 -2379 16 -3425 -25 -291 -89 -837 -99 -847 -1 -2 -8 21 -15 51 -12 54 -46 116 -67 123 -19 6 -24 -76 -24 -381 0 -482 -38 -759 -166 -1204 -106 -372 -356 -944 -606 -1392 -39 -69 -115 -206 -171 -305 -98 -178 -266 -460 -506 -850 -223 -363 -415 -639 -700 -1004 -75 -96 -140 -182 -145 -190 -14 -24 263 269 440 464 248 274 552 646 694 849 96 138 273 409 379 579 40 64 75 117 77 117 6 0 -78 -195 -161 -372 -96 -206 -325 -638 -433 -818 -98 -165 -238 -376 -348 -526 -49 -67 -136 -186 -194 -265 -58 -79 -149 -198 -203 -264 -96 -118 -449 -499 -496 -536 -49 -39 -76 -27 -168 71 -89 94 -233 200 -362 264 -70 36 -247 95 -344 117 l-58 12 49 51 c60 61 318 374 394 477 807 1094 1433 2299 1869 3599 130 388 220 737 279 1074 17 103 81 629 80 667 -1 42 -20 -34 -44 -174 -87 -508 -295 -1070 -687 -1857 -221 -442 -479 -907 -743 -1335 -114 -187 -465 -723 -594 -910 -759 -1097 -862 -1263 -942 -1515 l-18 -54 -138 -23 c-273 -45 -515 -137 -744 -284 l-56 -36 -27 141 c-70 359 -210 701 -413 1005 -47 70 -61 98 -53 107 11 13 96 70 216 144 71 44 101 82 309 391 293 432 746 1346 991 1994 353 937 551 1813 663 2925 33 335 51 576 80 1070 32 541 46 675 90 838 27 99 24 101 -11 7 -80 -213 -117 -391 -198 -955 -71 -487 -78 -535 -137 -870 -177 -1011 -471 -1921 -929 -2880 -127 -267 -377 -761 -382 -756 -2 1 29 85 67 185 91 236 136 368 215 626 324 1063 494 2007 560 3105 31 527 37 801 33 1672 l-3 878 -22 -108 c-74 -364 -100 -578 -153 -1307 -44 -608 -59 -778 -96 -1125 -119 -1117 -376 -2092 -848 -3220 -41 -96 -115 -274 -166 -395 -50 -121 -136 -317 -190 -435 -75 -166 -126 -300 -223 -590 -71 -212 -137 -429 -152 -500 -27 -128 -71 -299 -78 -307 -3 -2 -38 21 -78 52 -87 65 -230 138 -314 160 -33 8 -89 16 -123 16 l-64 1 6 37 c4 20 9 320 13 666 5 585 7 633 24 678 22 55 124 411 233 807 119 436 262 1205 320 1730 86 764 124 1470 113 2120 -11 651 -40 878 -109 868 -71 -10 -90 -118 -163 -918 -72 -780 -148 -1442 -226 -1950 -22 -146 -65 -434 -94 -640 -56 -385 -121 -789 -128 -796 -2 -2 -9 101 -16 229 -139 2628 -591 5082 -1361 7397 -381 1147 -845 2257 -1335 3200 -354 680 -775 1372 -1135 1865 l-102 140 -23 140 c-13 77 -33 228 -45 335 -12 107 -28 238 -35 290 -22 154 -53 448 -75 705 -10 132 -26 312 -34 400 -47 502 -61 904 -61 1775 0 768 6 973 41 1570 91 1565 306 2920 633 4005 60 198 151 460 197 564 14 30 23 56 21 58 -6 5 -261 -523 -342 -707 -443 -1008 -742 -2446 -865 -4160 -88 -1235 -80 -2191 25 -3126 52 -462 180 -1057 304 -1411 33 -95 58 -173 57 -173 -2 0 -55 64 -119 143 -342 424 -675 783 -1071 1156 l-88 84 6 56 c4 31 22 148 41 261 41 245 42 256 60 580 8 140 26 395 40 565 13 171 31 420 40 555 30 476 101 1196 166 1680 124 938 313 1895 575 2910 274 1063 691 2326 1079 3270 58 141 65 154 74 144 5 -5 50 -63 102 -129z m-4442 -8374 c272 -230 1211 -1103 1639 -1525 l192 -190 76 -150 c83 -165 138 -295 193 -461 l36 -110 1 165 c0 91 3 177 7 192 7 27 9 26 91 -60 420 -438 934 -1087 1323 -1672 573 -860 1156 -1991 1622 -3147 858 -2131 1420 -4346 1701 -6703 104 -871 176 -1881 215 -3035 9 -242 22 -606 30 -810 8 -203 15 -416 15 -472 l0 -103 -40 16 c-68 27 -165 15 -295 -36 -165 -66 -807 -391 -1000 -508 -208 -125 -407 -273 -556 -411 l-112 -105 -38 45 c-22 24 -67 80 -102 123 -64 82 -95 119 -256 310 -51 61 -144 179 -207 261 -63 83 -155 202 -205 265 -152 193 -479 693 -639 980 -101 179 -347 675 -425 855 -323 748 -516 1340 -645 1985 -75 375 -128 846 -131 1154 l-1 121 -19 -75 c-132 -526 -53 -1679 182 -2650 193 -799 455 -1448 827 -2055 166 -271 478 -661 671 -841 211 -195 483 -401 648 -489 71 -37 152 -81 180 -97 l53 -29 -56 -80 c-31 -43 -80 -125 -109 -180 l-52 -101 -125 144 c-171 196 -232 264 -380 425 -299 325 -658 785 -950 1213 -382 561 -775 1302 -1033 1945 -82 205 -223 613 -289 838 -124 419 -218 891 -270 1349 -17 146 -55 669 -57 778 -1 90 -17 40 -18 -60 -1 -41 -8 -151 -16 -245 -29 -350 -39 -715 -27 -1007 45 -1063 246 -1964 644 -2888 345 -801 860 -1585 1378 -2100 325 -323 536 -487 918 -715 62 -36 110 -70 108 -74 -9 -14 -36 -236 -44 -358 -5 -68 -11 -126 -15 -129 -3 -3 -21 3 -39 14 -18 11 -79 43 -136 72 -114 59 -150 92 -269 252 -39 51 -105 131 -147 177 -43 47 -132 150 -199 230 -66 80 -175 202 -242 271 -240 249 -618 687 -797 925 -300 400 -479 672 -704 1075 -546 979 -1013 2299 -1193 3375 -63 373 -105 783 -118 1128 -6 179 -23 257 -23 108 0 -45 -8 -206 -17 -359 -44 -736 -5 -1486 117 -2206 16 -99 28 -181 26 -183 -11 -11 -371 935 -499 1312 -626 1846 -922 3695 -893 5585 23 1509 154 2721 471 4360 219 1131 257 1374 286 1840 14 222 6 668 -16 888 -54 539 -188 1151 -360 1639 -25 70 -45 129 -45 131 0 6 18 -8 159 -127z m7154 -18318 c3 -115 10 -246 16 -293 6 -47 27 -240 47 -430 52 -499 59 -550 99 -704 41 -161 89 -421 108 -586 l13 -115 8 80 c14 142 66 435 108 600 28 108 48 220 62 345 l21 185 68 -80 c234 -274 443 -707 520 -1080 52 -249 59 -415 45 -1012 -6 -248 -5 -301 8 -350 23 -86 13 -193 -31 -333 -44 -137 -47 -163 -21 -168 13 -3 44 23 106 90 l87 93 23 -37 c12 -21 23 -38 25 -38 2 0 1 26 -2 58 l-5 57 48 36 c27 20 81 53 121 73 92 46 128 78 206 184 162 222 214 326 263 521 18 73 35 135 36 136 2 2 35 23 73 48 156 99 322 165 475 188 115 16 341 6 450 -21 94 -23 257 -75 280 -90 12 -7 -6 -31 -91 -117 -220 -225 -378 -452 -518 -743 -123 -258 -215 -538 -316 -965 -151 -639 -176 -726 -254 -889 -68 -141 -157 -262 -291 -397 -311 -312 -669 -524 -1037 -614 -70 -17 -73 -16 -100 3 -15 11 -57 34 -93 52 -236 119 -532 148 -815 81 -44 -11 -81 -19 -81 -18 -1 1 -12 66 -23 144 -12 78 -30 167 -41 197 -10 30 -31 99 -45 153 -46 170 -136 445 -170 520 -47 102 -110 131 -173 78 -44 -37 -63 -96 -69 -210 -9 -163 22 -342 98 -575 48 -144 56 -163 139 -295 33 -54 60 -98 58 -99 -2 -1 -48 -28 -103 -59 -55 -30 -116 -67 -135 -82 l-35 -26 -26 163 c-33 203 -59 322 -69 311 -4 -4 -15 -36 -26 -70 -13 -46 -22 -63 -35 -63 -27 0 -193 56 -251 86 -29 14 -73 41 -98 59 -59 43 -109 67 -195 95 -155 51 -436 160 -525 205 -262 132 -534 369 -751 657 -261 347 -369 634 -519 1388 -97 483 -161 719 -259 942 -49 110 -127 252 -177 317 -19 24 -33 46 -31 48 7 7 290 -69 405 -108 294 -102 564 -239 802 -409 143 -102 174 -134 200 -210 127 -367 447 -757 741 -905 185 -93 398 -98 510 -12 59 45 80 77 86 130 12 100 -41 218 -229 520 -203 323 -298 539 -334 756 -14 86 -16 148 -11 375 8 385 37 545 136 753 111 229 256 407 691 847 322 325 398 408 550 596 109 137 209 240 230 240 15 0 18 -21 23 -207z m1543 -185 c-13 -29 -50 -109 -82 -178 l-58 -124 -10 -138 c-6 -76 -13 -139 -16 -141 -3 -1 -50 44 -105 101 l-98 103 45 47 c167 174 294 312 315 345 14 20 27 37 29 37 2 0 -7 -24 -20 -52z"/>
<path d="M7272 38363 c-61 -201 -101 -357 -141 -558 -174 -862 -422 -3070 -491 -4365 -50 -953 -37 -1934 36 -2650 35 -346 103 -802 169 -1134 59 -301 206 -820 326 -1156 87 -242 353 -802 529 -1110 70 -124 153 -274 184 -334 31 -60 56 -107 56 -104 0 3 -14 50 -30 104 -17 55 -51 182 -76 284 -24 102 -76 313 -114 470 -38 157 -89 380 -114 495 -25 116 -65 291 -90 390 -62 247 -109 465 -162 760 -25 138 -49 269 -54 291 -65 291 -172 1136 -214 1689 -98 1280 -75 3007 69 5125 54 789 112 1450 161 1838 9 68 14 126 11 128 -2 2 -27 -71 -55 -163z"/>
<path d="M14737 20355 c-8 -43 -13 -84 -52 -455 -44 -414 -72 -613 -131 -912 -198 -1014 -572 -2012 -1179 -3143 -198 -368 -501 -875 -750 -1255 -101 -154 -294 -486 -367 -630 -32 -63 -41 -94 -53 -193 -10 -72 -27 -149 -45 -199 -22 -61 -27 -85 -19 -95 17 -19 23 -18 133 37 56 27 133 59 171 71 39 12 88 32 111 45 88 50 386 391 519 594 335 511 690 1195 931 1793 91 225 230 603 288 784 304 945 485 2082 486 3040 0 198 -12 416 -29 508 -7 40 -7 40 -14 10z"/>
<path d="M6366 17959 c-4 -31 -27 -279 -42 -469 -14 -170 28 -519 91 -770 96 -380 319 -852 595 -1260 109 -161 493 -610 589 -687 100 -82 370 -319 437 -384 40 -38 74 -69 78 -69 3 0 -25 38 -64 85 -87 107 -183 244 -277 395 -39 63 -114 175 -165 247 -51 73 -137 201 -191 285 -54 84 -160 248 -237 363 -158 240 -295 481 -421 740 -139 287 -228 546 -288 841 -30 146 -81 549 -81 642 0 61 -16 89 -24 41z"/>
</g>
</svg>