<?xml version="1.0" encoding="UTF-8" standalone="no"?>
<!DOCTYPE svg PUBLIC "-//W3C//DTD SVG 20010904//EN" "http://www.w3.org/TR/2001/REC-SVG-20010904/DTD/svg10.dtd">
<svg version="1.0" xmlns="http://www.w3.org/2000/svg" width="4813.000000pt" height="5682.000000pt" viewBox="0 0 4813.000000 5682.000000" preserveAspectRatio="xMidYMid meet">
<metadata>
Created by potrace 1.16, written by Peter Selinger 2001-2019
</metadata>
<g transform="translate(0.000000,5682.000000) scale(0.100000,-0.100000)" fill="#000000" stroke="none">
<path d="M26990 50956 c-205 -62 -581 -264 -905 -484 -285 -193 -510 -377 -749 -612 -338 -332 -603 -679 -762 -998 l-71 -142 -18 27 c-33 51 -297 406 -373 503 -126 159 -450 545 -612 729 l-153 174 12 49 c50 220 -73 436 -271 473 l-36 7 49 101 c37 75 49 111 47 137 -6 72 -54 46 -262 -144 l-76 -68 -76 68 c-208 190 -256 216 -262 144 -2 -26 10 -62 47 -137 l49 -101 -36 -7 c-209 -39 -331 -273 -262 -499 l21 -66 -41 -121 c-55 -167 -112 -294 -256 -575 -68 -132 -142 -284 -163 -336 -31 -77 -66 -134 -174 -283 -74 -102 -138 -187 -142 -188 -4 -1 -26 57 -50 128 -148 449 -437 900 -799 1248 -284 272 -657 515 -921 600 -130 42 -192 51 -345 51 -127 1 -152 -2 -200 -22 -79 -31 -147 -87 -198 -162 -25 -36 -68 -83 -96 -105 -223 -174 -730 -672 -1001 -984 -385 -442 -502 -617 -600 -899 -3 -8 -71 53 -172 155 -1031 1037 -2147 1650 -3403 1868 -522 90 -1147 96 -1650 14 -1054 -170 -1954 -626 -2700 -1369 -510 -507 -755 -997 -585 -1167 30 -30 38 -33 92 -32 32 0 100 6 152 12 l95 13 -100 11 c-158 17 -178 36 -156 142 86 408 866 1067 1649 1394 709 296 1573 412 2383 321 163 -18 498 -74 658 -110 405 -90 929 -285 1327 -493 1063 -556 2106 -1586 2909 -2873 254 -407 428 -722 603 -1091 216 -455 288 -621 389 -897 29 -80 91 -239 138 -355 47 -115 86 -215 86 -222 0 -6 -51 -139 -114 -295 -406 -1006 -761 -1979 -982 -2693 -444 -1430 -643 -2446 -736 -3760 -17 -236 -17 -1232 0 -1490 26 -399 43 -578 93 -960 102 -782 267 -1600 454 -2245 199 -686 450 -1398 711 -2015 98 -233 459 -929 666 -1285 337 -578 541 -862 957 -1330 148 -166 616 -627 725 -714 108 -87 400 -285 569 -386 l108 -65 -28 -20 c-65 -46 -170 -164 -208 -235 -38 -70 -43 -75 -70 -72 -17 1 -147 34 -290 72 -143 38 -341 87 -440 110 -189 43 -487 118 -493 125 -2 2 1 13 7 24 11 19 10 20 -11 12 -38 -14 -164 5 -308 47 -74 21 -187 51 -250 67 -63 15 -118 30 -122 34 -6 6 23 167 38 205 5 13 4 17 -3 13 -6 -4 -78 -21 -159 -38 -83 -17 -170 -42 -198 -56 -48 -24 -50 -25 -106 -9 -90 25 -344 106 -349 111 -2 3 5 15 16 28 51 56 134 189 162 260 27 67 56 223 45 236 -2 2 -12 -3 -23 -13 -10 -9 -36 -22 -57 -27 -105 -28 -255 -125 -393 -254 -53 -49 -54 -49 -47 -20 4 17 21 60 39 98 19 37 32 67 30 67 -3 0 -19 -11 -36 -24 -60 -45 -134 -76 -181 -76 -25 0 -82 -13 -127 -30 l-82 -30 -133 50 c-432 162 -1008 436 -1362 649 -309 185 -651 429 -935 666 -729 609 -1441 1460 -2084 2490 -935 1499 -1648 3295 -2027 5105 -218 1043 -350 2103 -396 3185 -13 303 -13 1051 0 1385 50 1303 210 2446 487 3489 l47 174 23 -29 c13 -16 54 -76 90 -134 84 -133 98 -148 121 -134 9 6 18 20 20 30 1 10 -31 140 -73 287 -41 148 -75 279 -75 291 0 23 29 99 74 196 53 114 22 101 -51 -21 -26 -43 -48 -77 -50 -76 -1 2 4 43 12 92 63 388 70 478 70 925 0 434 -5 530 -46 810 -93 648 -284 1168 -562 1535 -188 248 -369 400 -622 521 -152 74 -274 104 -442 111 -253 11 -462 -47 -678 -188 -92 -59 -229 -193 -264 -259 l-24 -44 54 55 c66 65 178 127 304 166 85 26 101 27 285 27 216 1 249 -5 404 -70 241 -101 472 -303 649 -567 246 -366 405 -882 482 -1560 28 -251 48 -592 43 -767 l-3 -125 -50 70 c-224 316 -441 555 -800 881 -332 301 -662 538 -1100 789 -456 262 -953 461 -1484 594 -550 138 -1257 185 -1806 121 -560 -65 -984 -168 -1460 -355 -662 -260 -1235 -642 -1647 -1101 -123 -137 -348 -425 -341 -437 3 -4 55 41 117 100 306 297 761 565 1260 744 379 137 774 221 1351 290 337 39 970 37 1355 -7 471 -52 1050 -198 1505 -379 267 -106 702 -316 960 -463 388 -222 980 -630 1296 -894 68 -57 171 -142 229 -188 164 -132 273 -230 438 -393 l152 -151 -10 -140 c-40 -546 -62 -690 -146 -959 -301 -967 -483 -1988 -578 -3252 -100 -1316 -55 -2685 135 -4105 369 -2751 1447 -5417 2983 -7375 364 -464 830 -946 1271 -1316 219 -184 573 -438 842 -604 62 -38 111 -70 110 -72 -12 -11 -594 148 -899 246 -87 28 -204 62 -260 76 -513 130 -1312 422 -1898 695 -897 417 -1872 1022 -2675 1659 -1139 903 -2006 1862 -2642 2921 -599 999 -992 2065 -1268 3435 -272 1355 -478 3283 -565 5290 -46 1060 -79 1463 -160 1930 -137 791 -413 1503 -825 2130 -310 473 -659 787 -901 812 -62 7 -118 -17 -139 -58 -28 -54 -18 -76 55 -123 116 -76 330 -324 504 -586 159 -238 256 -407 376 -655 317 -653 476 -1239 539 -1990 25 -287 34 -569 46 -1395 20 -1393 87 -2547 226 -3870 215 -2064 543 -3487 1086 -4715 406 -918 956 -1764 1647 -2535 165 -183 616 -637 801 -805 851 -776 1869 -1474 2905 -1993 426 -214 823 -384 1250 -535 516 -182 1306 -359 1730 -388 85 -6 156 -12 158 -13 1 -2 -39 -29 -90 -61 -332 -206 -686 -493 -1013 -820 -734 -734 -1166 -1473 -1324 -2270 -130 -650 -99 -1359 119 -2744 246 -1564 338 -2462 370 -3591 19 -671 -12 -1014 -114 -1244 -64 -143 -197 -310 -386 -484 -269 -247 -562 -436 -880 -570 -88 -37 -104 -40 -216 -46 -185 -9 -426 -51 -496 -87 l-58 -29 -82 15 c-76 13 -286 64 -333 80 -41 14 63 -42 157 -85 53 -24 95 -47 92 -50 -3 -3 -33 -7 -67 -10 -75 -6 -89 -28 -30 -49 107 -38 200 -92 263 -154 59 -56 82 -70 220 -131 243 -108 460 -143 765 -126 323 19 597 85 905 220 l85 37 380 6 c414 6 548 18 1040 93 293 45 424 71 715 144 457 114 681 182 1035 315 502 188 852 355 1265 603 257 154 532 351 805 578 163 135 518 489 654 654 439 525 716 1044 826 1545 14 66 27 124 29 129 1 5 55 -68 120 -164 306 -450 602 -844 1120 -1490 229 -285 824 -983 990 -1160 106 -114 125 -139 121 -160 -12 -57 -55 -480 -70 -670 -50 -678 -69 -1110 -90 -2030 -8 -366 -17 -708 -19 -760 -2 -52 0 -336 5 -630 5 -294 13 -821 19 -1170 6 -349 15 -691 20 -760 20 -256 70 -1040 95 -1470 14 -245 36 -553 50 -685 68 -638 92 -1099 102 -1915 l7 -535 17 292 c43 704 127 1645 190 2103 11 80 40 449 64 820 25 371 59 864 75 1095 26 352 32 521 41 1040 5 341 13 823 18 1070 5 248 7 569 4 715 -9 615 -44 1801 -63 2135 -24 434 -48 808 -56 890 l-6 60 213 -211 c126 -124 254 -241 312 -283 125 -92 266 -219 366 -331 l78 -87 -18 -94 c-10 -52 -19 -128 -19 -170 -1 -227 139 -389 335 -389 216 0 364 192 340 443 -5 57 -3 73 13 100 35 57 158 330 182 402 58 177 52 168 163 246 78 55 165 135 366 338 237 238 263 262 258 231 -10 -54 -45 -525 -62 -825 -32 -591 -69 -1611 -85 -2351 -5 -263 -16 -774 -24 -1134 -9 -360 -18 -882 -21 -1160 -3 -278 -10 -660 -15 -850 -13 -502 -14 -2259 -1 -2625 6 -170 16 -517 21 -770 22 -1049 24 -1094 33 -1020 60 498 190 1527 233 1840 65 479 64 466 108 1020 45 552 83 1106 90 1295 23 607 37 1349 37 2010 0 1387 -26 2284 -128 4416 l-17 362 324 338 c178 187 385 402 460 479 75 77 293 307 484 510 1031 1094 1610 1777 2011 2374 l110 164 8 -39 c96 -441 249 -852 512 -1374 459 -909 1094 -1761 1770 -2375 844 -766 1854 -1297 3135 -1648 492 -135 885 -215 1380 -281 391 -52 495 -59 785 -52 399 9 518 20 641 62 104 35 605 231 614 241 3 3 -17 2 -45 -2 l-50 -7 50 33 c85 57 220 201 254 271 46 94 79 241 101 448 11 102 20 187 20 190 0 3 -13 -18 -29 -46 -41 -70 -109 -138 -172 -170 -50 -25 -60 -26 -139 -21 -110 7 -252 58 -482 173 -598 299 -1050 682 -1425 1206 -102 142 -167 249 -281 463 -239 449 -414 991 -517 1602 -83 494 -113 918 -140 1973 -27 1044 -40 1348 -81 1839 -63 760 -156 1343 -324 2026 -264 1071 -609 1884 -1036 2435 -108 140 -399 433 -511 515 -45 33 -82 63 -83 66 0 4 28 14 63 24 191 53 742 263 1077 410 222 98 710 345 955 483 869 491 1698 1087 2400 1727 184 167 636 622 796 800 1349 1505 2113 3189 2508 5535 168 992 308 2310 385 3605 42 699 60 1223 71 2020 16 1184 45 1584 151 2100 108 526 324 1089 610 1587 225 393 540 797 704 904 53 34 69 52 70 77 0 33 -29 74 -66 92 -133 63 -420 -102 -675 -388 -484 -542 -893 -1394 -1083 -2255 -118 -534 -164 -999 -216 -2217 -62 -1442 -192 -2912 -361 -4085 -219 -1529 -500 -2607 -939 -3611 -358 -817 -862 -1617 -1455 -2309 -488 -570 -1016 -1076 -1684 -1613 l-136 -109 -100 5 c-234 13 -646 94 -959 188 -335 100 -758 270 -908 365 -21 13 -44 24 -53 24 -26 0 -48 -46 -42 -87 39 -240 515 -552 1095 -719 159 -46 352 -88 455 -100 47 -6 56 -9 45 -19 -35 -33 -341 -235 -356 -235 -9 0 -42 7 -72 15 -30 8 -116 24 -190 35 -74 11 -157 25 -185 31 -27 5 -111 21 -185 35 -306 56 -551 142 -870 305 -109 56 -206 99 -216 97 -49 -9 -54 -95 -10 -179 69 -133 270 -304 516 -438 52 -29 86 -50 75 -47 -275 70 -703 160 -806 171 -131 13 -235 -14 -187 -49 9 -6 49 -56 90 -111 41 -55 103 -126 139 -159 156 -142 392 -269 674 -361 l100 -33 -67 -33 -68 -33 -127 23 c-333 60 -681 172 -1008 326 -143 67 -335 175 -335 188 0 5 49 71 108 146 933 1173 1701 2605 2255 4206 560 1614 852 3231 938 5180 15 338 15 1245 0 1545 -76 1526 -269 2736 -615 3847 -84 269 -106 413 -146 959 l-10 140 147 146 c172 169 249 239 393 357 58 47 173 141 255 210 216 179 389 307 693 513 526 356 708 461 1236 710 340 160 630 266 976 358 630 168 1061 219 1745 207 320 -5 457 -17 844 -73 330 -47 713 -140 997 -243 499 -179 954 -447 1260 -744 62 -59 114 -104 117 -100 7 12 -218 300 -341 437 -412 459 -985 842 -1647 1101 -839 329 -1718 447 -2605 350 -488 -54 -936 -168 -1439 -368 -630 -249 -1289 -662 -1806 -1131 -359 -326 -576 -565 -800 -881 l-50 -70 -3 125 c-7 278 36 799 94 1132 34 198 103 475 160 641 57 166 182 421 271 554 177 264 408 466 649 567 154 64 188 70 399 70 165 0 201 -3 270 -22 124 -34 256 -104 322 -170 l56 -56 -24 43 c-33 60 -127 160 -201 216 -143 107 -282 171 -462 212 -100 23 -126 25 -261 20 -186 -6 -300 -33 -460 -111 -195 -93 -370 -224 -501 -372 -391 -444 -610 -1027 -710 -1889 -24 -209 -30 -849 -10 -1055 15 -151 60 -490 72 -550 3 -15 -13 4 -39 45 -25 39 -53 81 -63 94 -31 43 -27 4 9 -76 56 -124 67 -154 67 -178 0 -13 -34 -144 -75 -292 -42 -147 -74 -277 -73 -287 2 -10 11 -24 20 -30 23 -14 37 1 121 134 36 58 77 118 90 134 l23 29 47 -174 c276 -1035 437 -2190 487 -3489 13 -327 13 -1090 0 -1380 -69 -1603 -325 -3172 -744 -4551 -612 -2017 -1594 -3874 -2772 -5244 -449 -521 -818 -871 -1309 -1240 -379 -284 -665 -459 -1110 -680 -520 -257 -749 -351 -1365 -555 -505 -169 -733 -237 -1130 -340 -168 -44 -417 -111 -555 -149 -137 -37 -351 -92 -475 -121 -124 -28 -333 -80 -465 -115 -242 -64 -575 -145 -598 -145 -6 0 54 29 134 64 352 152 740 388 984 598 241 207 588 563 817 836 149 177 384 500 571 782 49 74 90 136 92 138 1 2 0 -17 -2 -42 -4 -36 0 -57 22 -102 106 -217 699 -585 1078 -669 209 -46 377 15 377 138 0 53 -19 85 -91 151 -50 47 -94 73 -228 137 -91 44 -337 166 -547 271 -360 181 -385 192 -447 196 -55 4 -72 1 -102 -18 -33 -21 -31 -15 58 127 661 1052 1266 2367 1626 3538 441 1435 612 2754 540 4155 -93 1813 -705 4227 -1724 6800 -140 354 -308 760 -425 1029 -38 89 -70 170 -70 180 0 60 350 826 540 1182 310 580 675 1139 1050 1608 435 543 822 939 1265 1295 590 474 1113 768 1790 1005 595 209 1333 320 1933 291 544 -26 936 -97 1387 -250 542 -185 1089 -512 1488 -890 222 -210 386 -446 419 -601 22 -106 2 -125 -156 -142 l-100 -11 95 -13 c52 -6 120 -12 153 -12 53 -1 61 2 91 32 133 133 13 464 -321 882 -113 141 -401 428 -573 570 -704 583 -1454 926 -2363 1080 -510 86 -1146 82 -1678 -10 -370 -65 -820 -192 -1163 -329 -523 -209 -1098 -552 -1578 -940 l-56 -46 -23 68 c-33 97 -133 313 -171 369 -56 82 -199 253 -299 357 -183 190 -584 540 -836 730 -333 250 -561 327 -774 262z m250 -698 c86 -69 194 -162 560 -483 168 -147 361 -311 430 -365 69 -53 150 -118 180 -144 30 -26 111 -83 180 -127 69 -44 150 -97 180 -119 30 -22 61 -40 68 -40 6 0 12 -4 12 -8 0 -5 -76 -79 -170 -167 -531 -495 -1080 -1176 -1516 -1882 -247 -400 -579 -1068 -709 -1425 l-27 -77 -223 442 c-423 843 -840 1577 -1261 2220 l-123 187 29 91 c17 50 51 132 77 182 219 425 933 1046 1733 1508 150 86 486 259 505 259 6 0 39 -23 75 -52z m-4397 -245 c8 -10 62 -99 119 -198 200 -347 338 -549 543 -797 159 -191 170 -207 222 -305 58 -110 70 -124 98 -117 21 5 35 -16 153 -213 300 -504 456 -803 729 -1393 686 -1482 1697 -4363 2107 -6005 363 -1453 500 -2520 483 -3770 -10 -675 -56 -1178 -173 -1880 -136 -814 -273 -1394 -522 -2205 -262 -851 -439 -1344 -703 -1957 -45 -104 -125 -291 -179 -418 -231 -547 -474 -1053 -690 -1440 -61 -110 -160 -292 -220 -405 -245 -465 -429 -767 -675 -1105 -56 -77 -142 -201 -192 -275 -200 -299 -392 -538 -622 -772 l-135 -138 -170 0 c-94 0 -256 -7 -359 -17 l-188 -17 -116 115 c-237 235 -470 521 -674 826 -51 76 -139 202 -196 280 -234 323 -489 740 -683 1123 -30 58 -117 218 -193 355 -238 427 -468 906 -707 1470 -54 127 -134 315 -179 418 -263 609 -441 1105 -703 1957 -249 811 -386 1391 -522 2205 -117 702 -163 1205 -173 1880 -17 1250 120 2317 483 3770 278 1114 823 2778 1426 4360 325 853 573 1434 876 2055 98 202 282 555 313 600 l15 23 55 -70 c30 -38 69 -91 86 -116 34 -49 63 -61 63 -27 0 11 -11 80 -24 153 -14 73 -28 171 -32 218 -8 99 -12 87 109 287 70 117 83 133 102 128 29 -7 41 7 99 119 26 50 85 137 132 195 211 259 259 321 328 420 96 136 191 287 301 480 130 228 148 247 188 203z m-3288 -232 c169 -82 463 -299 690 -508 195 -181 467 -463 668 -693 64 -74 162 -184 217 -245 55 -60 102 -117 105 -126 4 -11 -37 -82 -108 -190 -203 -310 -466 -756 -692 -1174 -110 -204 -498 -980 -594 -1190 -108 -235 -289 -639 -361 -805 -35 -80 -67 -149 -71 -154 -4 -4 -13 18 -19 50 -21 99 -135 490 -194 661 -120 347 -310 753 -578 1236 -236 425 -509 827 -861 1270 l-110 139 12 51 c34 138 136 291 315 476 251 258 907 833 1311 1149 150 117 140 116 270 53z m12485 -21606 c199 -133 413 -239 675 -336 l130 -48 -79 -36 -78 -37 -136 47 c-255 87 -424 179 -700 383 -88 64 -167 122 -178 128 -17 10 -14 16 36 72 l55 61 75 -75 c43 -44 128 -111 200 -159z m-437 -252 c98 -128 276 -276 449 -374 43 -24 78 -46 78 -49 0 -7 -222 -90 -239 -90 -24 0 -349 170 -526 276 -99 59 -182 108 -184 110 -2 2 67 73 155 158 l159 153 31 -62 c17 -35 52 -89 77 -122z m-492 -369 c95 -97 257 -227 333 -266 l41 -22 -86 -27 c-47 -15 -155 -46 -240 -69 -166 -44 -265 -73 -599 -176 -201 -61 -679 -188 -686 -181 -2 1 47 34 109 72 331 205 714 486 981 722 26 24 49 43 51 43 1 0 45 -43 96 -96z m829 -1095 c145 -88 270 -188 426 -344 218 -217 344 -393 494 -690 292 -575 505 -1421 634 -2515 86 -729 119 -1366 120 -2285 0 -614 -9 -958 -39 -1470 -54 -918 -58 -1019 -58 -1420 -1 -720 44 -1135 178 -1660 105 -410 250 -753 478 -1134 178 -297 484 -648 750 -860 64 -51 117 -95 117 -96 0 -11 -724 177 -960 249 -619 188 -1046 355 -1550 607 -503 252 -875 489 -1315 837 -527 417 -1028 945 -1502 1582 -431 580 -775 1160 -998 1684 -51 121 -155 421 -155 448 0 10 22 58 49 107 352 634 578 1356 658 2106 25 244 26 870 0 1105 -57 518 -142 916 -284 1323 -180 519 -480 1062 -795 1443 -88 106 -84 111 36 40 86 -50 296 -251 406 -387 108 -134 302 -409 403 -569 144 -230 393 -672 547 -970 81 -157 184 -350 229 -430 45 -80 125 -230 178 -334 52 -104 148 -275 213 -380 115 -187 145 -239 288 -501 79 -145 145 -281 172 -358 l19 -52 0 55 c0 30 -4 163 -9 295 -9 234 -56 666 -94 868 -33 169 -237 805 -327 1017 -84 197 -349 721 -444 880 -307 509 -594 856 -893 1083 -100 76 -312 180 -421 206 -203 50 -402 8 -524 -110 l-50 -48 -94 86 c-51 47 -91 88 -88 91 3 3 56 18 117 34 312 80 740 223 1053 350 93 38 195 79 225 90 l55 21 310 -47 c191 -29 377 -51 485 -58 186 -11 735 -4 975 12 152 10 468 61 715 114 85 19 162 34 170 35 8 0 53 -22 100 -50z m-15445 -28 c35 -16 38 -20 20 -26 -380 -143 -938 -543 -1287 -921 -365 -396 -575 -746 -702 -1171 -27 -91 -51 -262 -65 -457 -7 -101 -5 -175 10 -345 10 -119 19 -226 19 -238 0 -13 6 -23 13 -23 7 0 24 42 41 103 15 56 50 158 76 227 27 69 69 177 93 240 25 63 69 169 100 235 30 66 74 165 97 220 43 105 166 338 257 488 259 428 674 930 1117 1347 120 114 301 270 311 270 3 0 -45 -51 -107 -113 -480 -479 -878 -1140 -1132 -1876 -39 -112 -92 -353 -126 -576 -20 -130 -21 -162 -15 -443 l8 -304 28 110 c29 113 81 256 129 352 15 30 45 102 65 159 41 112 56 123 30 22 -66 -255 -91 -522 -82 -866 4 -140 10 -207 30 -300 14 -66 35 -181 46 -255 35 -220 34 -216 42 -113 10 113 51 301 90 407 16 44 45 141 65 215 20 75 64 224 99 331 35 107 84 268 109 357 45 160 195 578 276 769 65 154 260 534 356 694 217 363 521 800 753 1082 l71 87 48 -15 c26 -8 117 -35 202 -59 85 -25 159 -47 164 -48 5 -2 -53 -56 -128 -120 -674 -582 -1072 -1048 -1321 -1549 -157 -315 -215 -485 -274 -804 -54 -289 -59 -351 -53 -779 l5 -400 18 106 c25 148 72 328 120 461 22 62 71 203 109 313 37 110 94 259 125 330 32 72 82 191 111 265 105 260 287 606 458 869 181 279 553 733 932 1138 108 115 116 121 143 113 15 -4 147 -29 292 -56 145 -26 266 -49 268 -50 2 -2 -45 -59 -103 -128 -89 -105 -125 -138 -224 -208 -770 -546 -1302 -1196 -1622 -1983 -61 -150 -152 -416 -180 -525 -49 -193 -108 -608 -117 -815 -11 -283 48 -660 155 -995 l37 -115 6 120 c15 257 54 480 130 732 26 89 62 217 79 285 43 170 83 305 145 493 29 88 74 228 100 310 50 160 148 416 213 555 22 47 62 132 89 190 73 155 182 345 297 520 112 169 243 347 231 315 -201 -569 -262 -879 -272 -1390 -9 -459 47 -859 191 -1361 224 -780 745 -1923 1304 -2862 43 -72 62 -114 62 -138 0 -47 -62 -283 -105 -400 -48 -131 -169 -373 -251 -504 -153 -245 -367 -504 -625 -755 -377 -368 -790 -664 -1469 -1055 -155 -89 -725 -371 -960 -475 -208 -92 -615 -257 -860 -348 -352 -131 -988 -342 -1330 -441 -124 -36 -245 -72 -269 -80 -24 -9 -48 -16 -53 -16 -5 0 23 31 61 70 308 308 457 688 502 1280 13 179 7 1013 -11 1310 -53 904 -139 1668 -321 2840 -132 852 -178 1199 -216 1620 -22 242 -25 900 -5 1050 55 414 133 694 293 1059 419 948 1257 1884 2062 2300 110 57 114 58 217 65 58 4 229 27 380 50 321 51 332 51 385 27z m543 -212 c51 -17 92 -34 90 -38 -2 -4 -64 -64 -139 -133 -348 -323 -732 -760 -954 -1088 -104 -152 -107 -154 -41 -23 160 320 391 676 639 981 108 133 288 332 301 332 6 0 53 -14 104 -31z m10172 -446 c40 -43 119 -134 175 -203 647 -794 948 -1561 1026 -2617 18 -247 6 -860 -20 -1078 -108 -881 -355 -1564 -841 -2327 -294 -459 -790 -1116 -1415 -1873 -1129 -1365 -1610 -1997 -1979 -2598 -81 -133 -158 -262 -171 -287 -13 -25 -46 -74 -74 -109 -28 -35 -97 -141 -153 -237 -57 -95 -105 -174 -108 -174 -3 0 -32 46 -65 103 -162 276 -398 559 -740 885 -232 222 -274 251 -326 228 -13 -6 -32 17 -90 111 -215 350 -296 471 -547 823 -152 212 -397 545 -547 740 -696 911 -828 1088 -1087 1460 -916 1317 -1627 2767 -1852 3780 -82 369 -114 786 -87 1125 64 801 345 1648 721 2174 l45 63 60 -6 c33 -3 105 -10 160 -16 55 -5 256 -13 448 -16 325 -7 346 -8 335 -24 -161 -217 -275 -470 -417 -923 -74 -234 -85 -282 -121 -505 -38 -238 -40 -256 -40 -484 0 -130 3 -244 6 -252 4 -9 15 -21 25 -26 33 -18 62 7 108 93 24 45 75 130 112 188 62 97 173 332 264 559 40 98 164 493 226 717 44 161 65 205 29 62 -48 -188 -131 -602 -179 -889 -63 -385 -81 -650 -63 -914 7 -92 17 -176 22 -186 12 -23 44 -34 75 -26 28 7 192 239 249 354 65 129 153 335 180 421 111 350 214 861 314 1556 l7 50 58 2 c31 1 57 -1 57 -3 0 -3 -22 -96 -50 -207 -129 -527 -265 -1284 -311 -1737 -28 -264 -30 -320 -27 -537 4 -218 6 -245 23 -263 10 -11 28 -20 41 -20 22 0 64 34 64 52 0 4 36 106 81 225 175 472 288 1066 359 1898 8 105 30 515 30 586 0 24 5 27 60 38 l60 12 58 -48 c32 -26 71 -57 86 -68 l27 -20 -35 -82 c-157 -370 -345 -1266 -381 -1821 -19 -277 -16 -442 9 -570 15 -79 36 -276 52 -474 3 -49 10 -88 14 -88 4 0 13 30 20 68 30 177 99 413 157 542 34 75 152 553 193 780 79 440 152 995 180 1360 6 80 13 160 16 178 l5 32 82 0 c45 1 111 7 147 15 36 7 66 13 67 12 0 -1 -7 -69 -17 -152 -27 -218 -107 -967 -120 -1125 -6 -74 -23 -250 -36 -390 -22 -216 -26 -326 -31 -725 l-5 -470 41 -335 c23 -184 55 -414 72 -512 16 -97 29 -191 29 -209 0 -18 2 -30 5 -27 3 3 66 248 140 546 l135 541 54 438 c66 522 80 776 79 1373 0 388 -11 652 -38 920 -7 74 -11 138 -8 143 2 4 21 7 42 7 62 0 339 39 430 61 46 10 85 18 86 17 1 -2 -2 -50 -6 -108 -61 -849 -97 -2222 -80 -3040 13 -600 7 -515 72 -1073 36 -313 58 -459 79 -540 48 -188 218 -834 258 -982 l37 -140 7 102 c15 224 86 659 158 958 47 198 41 161 96 640 45 399 46 401 56 915 8 378 8 668 -1 1090 -10 485 -47 1474 -66 1755 -3 44 -12 186 -20 315 -8 129 -17 253 -20 275 l-6 41 83 34 c46 18 125 55 177 82 52 26 97 48 101 48 4 0 0 -37 -9 -82 -22 -121 -20 -645 3 -873 47 -472 101 -840 201 -1370 63 -340 235 -980 293 -1095 21 -41 84 -163 139 -270 56 -107 129 -257 164 -333 62 -138 89 -174 123 -161 26 10 29 48 12 167 -29 201 -38 359 -34 542 4 121 1 209 -8 270 -69 469 -130 849 -163 1022 -22 114 -59 314 -81 443 -22 129 -54 305 -70 390 -21 109 -230 1341 -230 1354 0 1 69 -8 153 -20 190 -27 555 -70 707 -84 143 -12 855 -13 1131 0 250 11 721 67 1001 119 3 0 39 -34 78 -76z m-4119 -11481 c57 -103 109 -241 108 -287 -1 -26 -5 -21 -34 40 -54 110 -112 245 -140 320 -23 62 -23 67 -6 45 11 -14 44 -67 72 -118z"/>
<path d="M28997 26165 c-90 -23 -117 -40 -117 -75 0 -34 5 -37 145 -90 299 -112 593 -388 908 -851 243 -358 560 -970 795 -1539 33 -80 84 -194 112 -255 29 -60 90 -195 137 -300 46 -104 102 -222 124 -261 21 -40 66 -132 99 -205 68 -154 93 -181 132 -142 l22 22 -13 253 c-13 267 -33 405 -107 743 -89 404 -324 993 -579 1450 -164 293 -392 603 -590 800 -227 227 -438 364 -660 431 -113 33 -314 43 -408 19z"/>
<path d="M30506 25975 c-88 -31 -136 -91 -136 -169 0 -70 18 -96 151 -213 173 -153 303 -296 441 -483 82 -111 271 -407 335 -524 31 -55 95 -171 144 -256 111 -197 337 -659 378 -770 31 -85 97 -313 123 -425 l14 -60 14 185 c7 102 13 309 13 460 1 311 -6 366 -87 684 -95 371 -301 777 -559 1097 -280 347 -629 546 -831 474z"/>
<path d="M26336 25684 c-59 -59 58 -298 449 -914 261 -411 397 -616 503 -760 106 -143 192 -271 257 -382 21 -38 43 -68 47 -68 4 0 -4 26 -18 58 -15 31 -73 170 -130 307 -116 279 -107 260 -252 515 -132 232 -655 1052 -760 1190 -44 58 -75 76 -96 54z"/>
<path d="M24950 25553 c-32 -12 -80 -69 -94 -112 -39 -120 -46 -313 -21 -616 41 -506 106 -946 220 -1490 63 -302 90 -407 166 -650 84 -266 271 -755 289 -755 4 0 11 100 15 223 4 122 8 236 9 252 0 17 -3 163 -7 325 -7 270 -12 328 -57 676 -28 210 -59 430 -70 490 -50 281 -141 836 -137 840 2 2 10 -22 17 -53 52 -236 259 -839 388 -1128 44 -99 99 -225 122 -280 36 -86 143 -289 255 -485 37 -65 70 -82 109 -56 34 21 34 52 1 339 -21 191 -33 252 -94 491 -39 150 -106 381 -150 512 -44 131 -146 442 -227 689 -80 248 -159 475 -175 506 -59 119 -161 154 -234 81 -43 -42 -58 -88 -64 -197 l-6 -100 -23 140 c-42 252 -62 307 -124 345 -32 19 -76 24 -108 13z"/>
<path d="M25775 25528 c-54 -19 -97 -59 -124 -117 -24 -53 -26 -65 -25 -201 0 -134 3 -156 37 -281 96 -364 323 -809 604 -1184 121 -162 168 -217 232 -270 75 -62 193 -197 270 -308 28 -41 51 -60 51 -42 0 3 -15 59 -34 123 -40 139 -62 245 -75 363 -12 108 -136 451 -264 729 -209 455 -254 566 -363 883 -71 205 -105 260 -186 297 -48 22 -78 24 -123 8z"/>
<path d="M12842 43743 c-70 -34 -112 -127 -92 -203 28 -106 131 -158 245 -125 66 19 140 81 150 125 16 71 -42 162 -129 201 -51 23 -130 24 -174 2z"/>
<path d="M12872 42925 c-136 -42 -207 -195 -152 -323 44 -103 140 -159 258 -150 101 7 186 64 228 153 32 67 31 120 -4 186 -61 116 -203 174 -330 134z"/>
<path d="M13089 41785 c-53 -27 -104 -82 -127 -134 -8 -20 -15 -66 -16 -102 0 -55 5 -74 30 -120 17 -30 49 -67 72 -84 22 -16 41 -32 41 -35 0 -3 -39 -30 -87 -60 -185 -118 -313 -282 -314 -402 -1 -111 60 -168 198 -183 135 -16 421 56 605 151 260 134 351 350 213 503 -56 62 -112 90 -198 98 -63 6 -67 8 -61 27 37 122 25 200 -46 281 -74 84 -213 111 -310 60z"/>
<path d="M6741 41316 c-25 -14 -50 -51 -51 -74 0 -28 32 -80 56 -91 55 -25 123 -3 143 47 15 37 3 70 -39 105 -34 29 -72 34 -109 13z"/>
<path d="M6905 40777 c-68 -23 -100 -44 -152 -101 -117 -127 -134 -269 -48 -387 96 -132 287 -115 389 34 58 85 86 174 85 270 -1 152 -32 190 -157 194 -43 2 -94 -3 -117 -10z"/>
<path d="M13730 40333 c-293 -48 -618 -144 -749 -220 -116 -68 -181 -162 -181 -265 0 -95 40 -166 121 -219 135 -86 347 -99 694 -43 446 72 611 144 689 299 89 178 -9 369 -221 435 -53 16 -90 20 -197 19 -72 -1 -142 -4 -156 -6z"/>
<path d="M7215 39730 c-27 -5 -88 -9 -135 -9 -96 -2 -235 -29 -302 -61 -143 -67 -204 -221 -132 -337 23 -36 44 -55 91 -80 l61 -31 -66 -39 c-128 -74 -238 -205 -256 -305 -15 -80 32 -171 107 -210 165 -85 587 92 688 289 36 71 34 174 -3 230 -33 49 -101 85 -175 91 -29 2 -53 7 -53 9 0 3 23 30 50 60 75 82 104 129 138 223 55 154 62 180 49 179 -7 -1 -34 -5 -62 -9z"/>
<path d="M13555 39459 c-55 -5 -156 -21 -225 -35 -499 -100 -786 -360 -604 -548 62 -64 152 -99 313 -122 127 -19 727 -21 966 -5 174 13 345 48 409 86 54 32 123 104 142 150 36 88 6 210 -75 298 -62 67 -206 131 -366 163 -90 18 -430 26 -560 13z"/>
<path d="M7241 38384 c-206 -61 -523 -210 -599 -281 -147 -139 -109 -317 84 -394 53 -21 75 -24 214 -24 138 0 166 3 255 28 153 42 308 121 392 200 89 84 124 148 130 236 4 58 2 72 -24 121 -31 60 -95 111 -161 130 -67 18 -199 11 -291 -16z"/>
<path d="M13425 38404 c-304 -29 -460 -67 -641 -155 -148 -72 -274 -192 -290 -275 -31 -167 95 -242 386 -230 74 3 365 10 645 15 601 12 684 20 796 76 106 54 159 134 159 240 0 151 -119 260 -333 307 -78 17 -136 21 -387 23 -162 1 -313 1 -335 -1z"/>
<path d="M36217 37710 c-57 -49 -76 -164 -37 -227 61 -101 181 -62 210 69 32 142 -77 242 -173 158z"/>
<path d="M7473 37565 c-156 -40 -415 -153 -673 -294 -329 -180 -399 -240 -387 -331 7 -55 33 -86 94 -116 46 -23 72 -28 157 -32 181 -7 394 44 665 160 372 158 524 287 524 443 0 89 -51 152 -145 180 -70 21 -127 18 -235 -10z"/>
<path d="M13685 37149 c-384 -29 -690 -116 -865 -245 -66 -49 -100 -94 -100 -136 0 -37 30 -55 115 -68 117 -18 571 -23 910 -11 523 20 723 47 858 118 156 82 150 177 -16 257 -162 78 -532 113 -902 85z"/>
<path d="M36146 37079 c-20 -16 -26 -29 -26 -58 0 -61 55 -95 108 -67 49 25 57 82 17 121 -30 30 -64 32 -99 4z"/>
<path d="M7728 37025 c-69 -17 -125 -41 -373 -155 -204 -94 -335 -145 -540 -211 -205 -66 -275 -108 -275 -168 0 -70 94 -129 247 -156 229 -40 490 7 800 143 228 101 379 211 419 307 27 65 15 146 -29 194 -53 57 -137 73 -249 46z"/>
<path d="M14095 36489 c-132 -13 -232 -36 -377 -85 -366 -125 -635 -326 -604 -450 22 -87 90 -119 251 -118 117 1 231 19 490 80 516 121 654 170 714 257 16 24 36 49 45 56 23 19 20 58 -6 92 -84 110 -111 128 -234 153 -102 20 -178 25 -279 15z"/>
<path d="M8160 36440 c-140 -30 -344 -117 -815 -345 -110 -54 -294 -142 -410 -197 -231 -109 -270 -134 -292 -185 -32 -78 29 -157 151 -196 92 -29 288 -30 416 -3 362 76 980 370 1170 556 115 113 146 200 101 288 -50 99 -140 121 -321 82z"/>
<path d="M35785 36341 c-51 -23 -66 -41 -72 -90 -25 -185 372 -300 527 -152 27 26 40 48 45 78 7 44 4 51 -44 99 -69 70 -356 111 -456 65z"/>
<path d="M30063 36203 c-31 -6 -83 -59 -85 -86 -4 -68 14 -106 65 -137 63 -39 145 -12 173 56 27 66 -2 131 -72 160 -34 14 -41 15 -81 7z"/>
<path d="M29989 35697 c-117 -44 -180 -161 -148 -275 17 -63 90 -136 150 -152 105 -28 209 15 266 109 74 123 49 244 -61 299 -60 30 -155 38 -207 19z"/>
<path d="M14285 35564 c-66 -20 -176 -57 -245 -84 -122 -47 -316 -111 -495 -165 -175 -53 -263 -110 -281 -180 -19 -78 41 -157 147 -195 99 -34 277 -39 444 -10 227 38 428 113 622 233 147 92 263 234 263 324 0 38 -4 45 -37 67 -89 59 -241 62 -418 10z"/>
<path d="M7936 35409 c-171 -30 -897 -261 -1058 -336 -164 -78 -228 -170 -194 -286 27 -94 126 -163 271 -188 86 -15 304 -7 430 16 341 61 666 177 856 306 120 81 209 216 209 316 0 69 -20 106 -73 137 -99 58 -246 70 -441 35z"/>
<path d="M35860 35248 c-89 -12 -165 -50 -197 -99 -22 -33 -25 -47 -21 -94 4 -48 10 -61 43 -95 21 -22 59 -47 84 -55 63 -23 191 -30 280 -16 85 13 208 62 253 99 36 30 148 179 148 197 0 24 -36 45 -77 45 -22 0 -60 7 -83 15 -48 17 -317 19 -430 3z"/>
<path d="M14484 34850 c-138 -36 -413 -196 -766 -448 l-77 -55 40 -29 c59 -43 111 -58 198 -58 251 0 585 204 729 446 72 121 69 165 -12 163 -23 0 -73 -9 -112 -19z"/>
<path d="M29820 34863 c-86 -31 -87 -154 -3 -190 46 -19 144 -14 190 10 50 26 92 67 114 108 l19 39 -20 0 c-11 0 -53 9 -92 20 -68 19 -174 25 -208 13z"/>
<path d="M8247 34764 c-71 -17 -251 -98 -372 -166 -264 -150 -616 -399 -673 -477 l-22 -31 35 -39 c53 -58 109 -76 230 -75 173 1 389 73 643 215 340 190 485 368 414 509 -35 71 -128 94 -255 64z"/>
<path d="M35655 34525 c-5 -2 -27 -6 -48 -10 -21 -3 -53 -20 -72 -37 -29 -25 -35 -37 -35 -72 0 -55 34 -104 113 -159 197 -141 490 -232 778 -244 131 -5 154 -4 216 15 75 23 151 80 178 133 19 36 19 122 0 158 -38 74 -134 116 -310 136 -235 27 -392 46 -540 65 -136 18 -254 24 -280 15z"/>
<path d="M30130 34114 c-321 -71 -416 -106 -449 -166 -70 -125 243 -190 496 -104 90 31 107 40 159 88 53 49 79 91 88 139 6 35 5 38 -25 48 -44 15 -190 12 -269 -5z"/>
<path d="M8530 34034 c-119 -21 -158 -32 -251 -74 -127 -56 -234 -119 -424 -248 -370 -252 -454 -338 -411 -420 73 -140 357 -116 707 59 201 100 398 230 485 318 70 70 121 154 134 217 11 51 10 59 -7 83 -11 14 -36 34 -56 44 -37 19 -129 29 -177 21z"/>
<path d="M14399 34016 c-37 -13 -77 -30 -90 -36 -37 -20 -164 -106 -264 -180 -49 -37 -118 -83 -152 -104 -35 -20 -70 -47 -78 -59 -54 -77 50 -167 195 -167 228 0 532 228 602 453 22 72 22 81 2 101 -24 25 -135 20 -215 -8z"/>
<path d="M35566 33785 c-32 -33 -11 -98 54 -169 81 -87 233 -163 450 -222 338 -93 669 -115 782 -52 121 68 94 222 -45 263 -27 8 -138 22 -246 30 -372 29 -815 103 -965 161 -7 3 -21 -2 -30 -11z"/>
<path d="M14832 33499 c-62 -11 -210 -81 -377 -180 -66 -39 -180 -100 -254 -137 -137 -68 -171 -97 -171 -149 0 -32 46 -81 88 -93 144 -40 417 65 610 234 62 54 147 170 177 241 28 65 28 68 10 81 -10 8 -21 13 -24 13 -3 -1 -30 -5 -59 -10z"/>
<path d="M8790 33398 c-52 -16 -109 -36 -127 -43 -43 -19 -156 -103 -343 -255 -85 -70 -208 -163 -272 -209 -186 -130 -205 -158 -153 -220 85 -100 348 -31 600 156 50 36 145 122 213 189 100 100 128 134 152 188 17 36 44 88 60 115 32 52 37 80 18 99 -17 17 -40 14 -148 -20z"/>
<path d="M29920 33354 c-106 -9 -245 -36 -291 -55 -69 -30 -109 -78 -109 -132 0 -125 121 -175 475 -197 444 -28 634 6 706 124 25 40 25 112 0 149 -23 36 -72 69 -136 92 -43 16 -87 19 -325 20 -151 1 -295 1 -320 -1z"/>
<path d="M35380 33028 c-111 -58 -120 -180 -18 -274 153 -143 514 -274 875 -318 188 -23 396 -30 486 -16 156 23 236 66 285 149 56 95 28 202 -70 269 -85 58 -184 78 -523 102 -202 14 -284 25 -530 67 -130 22 -258 37 -335 40 -116 4 -128 3 -170 -19z"/>
<path d="M9109 32879 c-112 -49 -153 -74 -235 -140 -121 -98 -407 -369 -446 -423 -35 -49 -37 -94 -5 -124 26 -25 58 -28 108 -10 132 44 526 380 625 532 26 39 64 92 86 117 21 26 38 55 38 66 0 18 -17 43 -29 43 -4 0 -67 -28 -142 -61z"/>
<path d="M14985 32695 c-61 -12 -196 -74 -270 -125 -59 -41 -191 -118 -266 -156 -37 -18 -76 -45 -88 -60 -30 -38 -27 -87 7 -125 66 -73 229 -39 413 88 76 52 118 90 173 157 50 61 65 88 95 164 26 65 17 73 -64 57z"/>
<path d="M29735 32640 c-134 -22 -226 -59 -270 -112 -57 -67 -9 -139 132 -198 190 -79 663 -170 887 -170 183 0 294 60 325 176 29 108 -42 210 -176 255 -35 11 -121 27 -191 35 -154 18 -624 27 -707 14z"/>
<path d="M9413 32494 c-121 -26 -296 -132 -525 -316 -54 -43 -109 -93 -123 -112 -30 -40 -33 -94 -6 -127 16 -20 28 -24 78 -24 49 1 75 8 149 44 205 98 421 274 509 416 46 74 54 102 33 123 -15 15 -35 14 -115 -4z"/>
<path d="M34935 32401 c-72 -18 -114 -53 -140 -114 -52 -124 29 -242 242 -350 348 -177 886 -288 1243 -257 132 12 175 22 245 57 150 76 208 185 156 299 -49 107 -157 140 -566 174 -287 23 -527 64 -855 145 -186 46 -276 58 -325 46z"/>
<path d="M15210 31936 c-41 -13 -129 -50 -195 -83 -112 -56 -160 -76 -278 -118 -59 -21 -107 -60 -107 -87 0 -58 54 -88 158 -88 196 0 447 147 529 311 19 38 20 47 9 64 -18 27 -30 28 -116 1z"/>
<path d="M29148 31934 c-33 -17 -48 -43 -48 -81 0 -94 178 -210 473 -308 252 -84 503 -123 832 -132 233 -6 383 6 471 37 225 79 197 275 -47 329 -62 14 -254 29 -454 36 -326 11 -521 33 -888 101 -203 37 -296 42 -339 18z"/>
<path d="M9667 31809 c-68 -27 -182 -106 -301 -209 -120 -103 -146 -133 -146 -170 0 -65 73 -81 163 -35 180 93 430 352 404 418 -9 23 -59 21 -120 -4z"/>
<path d="M34297 31759 c-103 -17 -155 -123 -108 -224 40 -88 175 -187 416 -305 440 -216 911 -363 1325 -415 186 -24 425 -17 525 15 193 62 285 151 285 279 0 55 -6 63 -77 109 -60 38 -206 75 -387 97 -472 57 -634 93 -1331 295 -505 146 -572 162 -648 149z"/>
<path d="M9795 31310 c-16 -11 -62 -31 -101 -46 -130 -47 -246 -166 -246 -251 0 -73 84 -115 155 -78 56 29 139 110 173 169 20 34 53 84 73 111 45 60 51 75 39 98 -12 23 -56 22 -93 -3z"/>
<path d="M28579 31117 c-20 -13 -41 -40 -52 -68 -45 -107 34 -204 256 -313 344 -169 835 -276 1277 -276 251 0 398 28 487 93 26 19 63 42 81 51 17 9 32 22 32 29 0 6 -22 25 -48 40 -26 15 -67 42 -92 60 -80 57 -221 90 -793 182 -280 45 -488 90 -761 165 -254 69 -328 77 -387 37z"/>
<path d="M34064 31029 c-18 -5 -46 -25 -62 -44 -82 -93 -35 -236 128 -389 376 -353 1150 -549 1710 -431 218 45 411 157 543 315 43 51 75 96 70 100 -8 7 -302 19 -623 26 -785 15 -1233 116 -1557 352 -107 78 -143 90 -209 71z"/>
<path d="M15565 30970 c-60 -15 -140 -37 -178 -48 -37 -12 -109 -29 -160 -37 -91 -16 -173 -40 -192 -57 -13 -12 35 -53 92 -79 144 -66 330 -26 448 97 46 48 111 143 103 149 -2 1 -52 -10 -113 -25z"/>
<path d="M15630 30729 c-25 -5 -88 -30 -140 -55 -300 -148 -397 -455 -209 -659 60 -65 144 -99 244 -99 69 -1 89 4 148 31 136 64 244 203 298 382 19 64 21 88 16 175 -3 56 -14 125 -24 155 -18 54 -18 55 -73 67 -62 15 -192 16 -260 3z"/>
<path d="M28400 30291 c-82 -18 -130 -69 -130 -137 0 -106 164 -248 408 -354 201 -87 527 -177 802 -221 158 -26 432 -36 524 -20 246 43 369 180 277 308 -16 22 -62 62 -101 88 -133 89 -357 146 -980 251 -449 75 -716 104 -800 85z"/>
<path d="M10030 30256 c0 -81 89 -121 203 -91 32 8 70 15 85 16 21 1 17 4 -18 13 -25 7 -54 17 -65 23 -11 6 -54 18 -95 27 -41 10 -83 25 -92 33 -17 15 -18 14 -18 -21z"/>
<path d="M16498 29625 c-3 -3 -48 -9 -100 -14 -79 -8 -107 -15 -169 -46 -97 -50 -239 -146 -272 -185 -79 -94 22 -226 157 -206 129 20 312 164 355 282 12 32 34 78 47 102 20 34 23 46 14 58 -13 15 -23 18 -32 9z"/>
<path d="M28055 29384 c-118 -30 -203 -78 -243 -138 -23 -34 -24 -34 -57 -20 -79 33 -164 10 -219 -59 -38 -48 -47 -138 -22 -215 81 -243 468 -526 899 -656 264 -80 461 -64 550 47 51 63 55 155 8 218 -12 16 -21 31 -21 34 0 4 35 3 78 0 112 -10 290 9 407 43 118 34 154 51 215 102 25 20 64 49 87 63 50 32 57 41 49 71 -4 16 -20 29 -48 41 -24 9 -68 35 -98 58 -57 43 -180 95 -345 146 -181 55 -388 119 -535 164 -250 78 -364 100 -535 103 -82 2 -159 1 -170 -2z"/>
<path d="M16879 29214 c-104 -32 -143 -135 -78 -209 71 -81 215 -69 323 26 19 16 40 47 47 67 6 20 22 51 35 69 32 42 31 46 -13 41 -21 -3 -55 1 -77 9 -50 17 -178 16 -237 -3z"/>
<path d="M17750 28941 c0 -22 -57 -75 -105 -96 -56 -24 -110 -66 -279 -215 -250 -219 -388 -290 -667 -340 -161 -29 -189 -38 -226 -75 -28 -28 -33 -40 -33 -79 0 -103 70 -164 237 -207 269 -68 634 41 879 263 78 71 110 108 167 192 56 83 86 172 94 277 5 64 2 83 -16 124 -12 27 -24 75 -28 107 -3 32 -10 58 -14 58 -5 0 -9 -4 -9 -9z"/>
<path d="M18111 28206 c-8 -10 -40 -30 -70 -46 -133 -67 -278 -235 -471 -545 -34 -55 -78 -117 -97 -137 l-36 -36 170 68 c94 37 203 85 244 106 202 106 322 317 289 509 -6 39 -13 76 -13 84 -2 11 -5 10 -16 -3z"/>
<path d="M26606 28024 c-31 -30 -40 -59 -39 -124 1 -81 29 -161 90 -258 151 -243 469 -424 628 -358 31 13 35 19 35 51 0 70 -54 136 -220 268 -159 126 -263 226 -357 344 -77 97 -103 112 -137 77z"/>
</g>
</svg>