<?xml version="1.0" encoding="UTF-8" standalone="no"?>
<!DOCTYPE svg PUBLIC "-//W3C//DTD SVG 20010904//EN" "http://www.w3.org/TR/2001/REC-SVG-20010904/DTD/svg10.dtd">
<svg version="1.0" xmlns="http://www.w3.org/2000/svg" width="10827.000000pt" height="8070.000000pt" viewBox="0 0 10827.000000 8070.000000" preserveAspectRatio="xMidYMid meet">
<metadata>
Created by potrace 1.16, written by Peter Selinger 2001-2019
</metadata>
<g transform="translate(0.000000,8070.000000) scale(0.100000,-0.100000)" fill="#000000" stroke="none">
<path d="M63282 69895 c-68 -24 -232 -100 -232 -109 0 -2 24 2 53 10 111 30 271 11 398 -48 l54 -26 -152 -1 c-134 -1 -248 -14 -305 -36 -9 -4 -86 4 -170 16 -120 18 -196 23 -353 23 -201 0 -286 -8 -438 -44 -60 -15 -121 -19 -279 -20 -121 0 -246 -7 -312 -16 -270 -37 -676 -122 -960 -200 -321 -88 -969 -357 -1298 -539 -387 -214 -834 -517 -1073 -726 -415 -363 -634 -595 -911 -964 -185 -247 -323 -474 -474 -780 -148 -299 -231 -539 -255 -735 -4 -30 -19 -75 -34 -100 -14 -25 -43 -94 -64 -155 l-37 -110 6 105 c13 239 51 446 104 573 16 39 28 72 26 75 -2 2 -36 -59 -74 -135 -117 -230 -179 -440 -219 -740 -21 -159 -23 -632 -4 -833 68 -710 248 -1262 521 -1595 124 -151 256 -247 417 -304 l77 -27 93 -149 c51 -83 103 -179 116 -215 14 -36 46 -182 72 -325 26 -143 63 -318 82 -390 42 -156 43 -186 14 -290 -62 -222 59 -405 269 -405 72 0 140 23 174 59 18 19 34 27 47 24 26 -7 24 -14 -13 -50 -44 -42 -119 -85 -231 -132 -147 -62 -196 -75 -274 -75 -40 1 -73 0 -73 -2 0 -1 40 -12 89 -23 108 -26 303 -28 399 -6 109 26 205 82 253 148 l30 41 -6 -39 c-32 -227 -57 -642 -58 -960 -1 -212 2 -274 16 -334 46 -201 155 -322 342 -377 90 -27 261 -24 338 5 69 27 76 24 123 -62 l29 -52 0 -200 c0 -175 2 -204 18 -234 30 -53 103 -118 174 -153 57 -28 79 -33 160 -36 l95 -4 -6 -43 c-9 -57 16 -173 51 -237 47 -87 135 -173 221 -216 73 -36 80 -37 182 -37 114 0 151 12 254 77 45 29 191 187 181 196 -2 2 -18 -6 -35 -18 -86 -61 -313 -126 -411 -117 -173 15 -334 185 -347 365 l-4 68 43 38 c39 33 41 36 15 26 -53 -20 -193 16 -317 82 -103 54 -109 65 -120 219 -10 141 -20 192 -50 250 -20 39 -84 109 -125 136 l-26 17 44 23 c39 21 40 23 12 18 -19 -4 -65 4 -120 20 -49 14 -132 35 -184 47 -240 52 -300 107 -329 308 -6 41 -15 201 -21 355 -16 441 -45 779 -81 950 -16 74 -49 174 -61 181 -6 4 -8 -2 -3 -17 l6 -24 -18 22 c-40 47 -83 63 -171 63 -78 0 -85 2 -122 32 -55 43 -110 126 -110 164 0 38 -35 142 -55 163 -26 30 -36 149 -33 420 2 228 0 276 -16 336 -22 86 -83 213 -136 283 -22 29 -40 55 -40 58 0 4 33 5 74 2 l74 -3 -33 22 c-24 17 -40 43 -68 113 -21 50 -37 96 -37 101 0 5 16 1 35 -8 25 -12 42 -31 58 -65 12 -26 24 -47 27 -48 3 0 13 26 22 59 19 64 55 116 65 92 3 -7 14 -22 25 -33 23 -23 29 -19 69 49 28 48 28 48 131 77 87 24 131 29 288 36 156 6 204 12 305 38 204 52 421 138 600 239 223 126 329 198 515 353 160 133 141 123 192 100 24 -10 70 -26 101 -34 39 -10 85 -35 149 -81 170 -123 355 -218 578 -298 450 -161 1027 -227 1401 -158 58 11 163 27 235 36 71 9 167 25 213 36 l84 20 39 -38 c53 -51 194 -222 255 -309 26 -38 84 -107 128 -154 127 -134 132 -143 164 -281 45 -196 98 -392 122 -450 100 -252 149 -398 149 -447 0 -59 16 -71 24 -18 4 25 18 76 30 113 l24 68 7 -40 c11 -67 13 -63 14 22 1 54 11 122 30 202 38 154 39 166 51 424 l10 219 37 51 c166 225 387 468 559 611 150 125 434 322 545 377 200 100 379 153 519 154 109 0 152 -16 211 -82 52 -57 73 -97 124 -227 60 -153 68 -226 69 -606 0 -223 -4 -335 -18 -460 -10 -91 -22 -171 -26 -179 -4 -8 -11 20 -16 65 l-8 79 -7 -115 c-18 -299 -122 -603 -282 -823 -182 -251 -543 -590 -785 -736 -176 -106 -323 -137 -429 -91 -102 43 -188 165 -218 305 -19 89 -19 296 -1 348 17 46 6 47 -30 5 -65 -78 -106 -220 -108 -373 -1 -117 13 -182 61 -283 62 -132 190 -233 331 -263 79 -16 211 -6 297 24 195 67 387 194 634 419 l95 87 21 -58 c42 -115 155 -269 307 -417 168 -165 295 -249 416 -277 34 -8 72 -23 83 -33 11 -9 61 -45 112 -78 88 -59 94 -64 132 -141 44 -88 75 -116 136 -124 l40 -6 -179 -137 c-170 -130 -470 -391 -666 -578 -131 -126 -461 -474 -600 -634 -637 -733 -1113 -1497 -1470 -2359 -114 -273 -232 -629 -157 -472 42 90 411 732 548 955 233 380 479 732 737 1054 344 429 577 685 1171 1286 417 422 455 463 585 625 73 90 125 167 148 215 19 41 52 104 73 139 22 34 39 65 39 68 0 3 -25 -18 -56 -46 -31 -28 -64 -56 -75 -61 -17 -10 -17 -8 -4 25 8 19 15 48 15 64 l0 29 117 7 c64 4 146 5 182 2 l66 -6 -64 29 c-67 32 -179 110 -221 155 -14 15 -56 53 -95 83 -82 65 -85 69 -85 103 0 40 -49 127 -88 157 -76 58 -145 129 -167 172 -13 25 -35 86 -50 135 -50 163 -76 227 -92 220 -11 -4 -13 -1 -8 12 67 163 102 312 114 486 9 137 -1 324 -23 439 l-15 76 54 121 c30 67 64 154 76 193 12 40 38 127 59 194 44 138 98 369 134 564 41 228 59 425 62 712 1 147 7 275 12 285 16 30 90 282 127 434 52 210 59 293 59 674 1 301 -2 359 -22 510 -60 442 -117 681 -267 1133 -76 226 -88 274 -119 460 -19 114 -55 289 -79 389 -43 175 -49 191 -137 360 -100 194 -139 252 -253 386 -53 62 -81 103 -92 140 -10 28 -28 71 -42 95 -26 46 -17 53 28 21 34 -24 37 -18 10 19 -10 15 -32 54 -49 87 -51 102 -168 192 -310 240 -42 14 -115 47 -161 74 l-84 49 139 7 c249 12 414 9 464 -8 l45 -16 -62 59 c-112 106 -217 150 -404 168 l-84 8 40 13 c22 6 75 15 118 18 l78 6 -84 38 c-134 60 -192 72 -337 66 -130 -5 -235 -30 -373 -92 l-55 -24 -4 82 c-7 114 -41 231 -97 326 -49 85 -169 224 -151 175 12 -30 35 -293 27 -301 -3 -3 -12 8 -21 25 -24 47 -256 272 -280 272 -2 0 6 -19 19 -42 22 -41 66 -189 80 -271 l6 -37 -90 66 c-50 36 -116 96 -148 133 -196 226 -403 331 -653 331 -75 0 -111 -6 -168 -25z"/>
<path d="M65395 63066 c-215 -42 -552 -260 -811 -527 -157 -162 -259 -325 -252 -401 5 -57 29 -44 96 50 67 95 237 268 365 369 195 156 537 373 588 373 53 0 117 -94 154 -225 39 -142 27 -410 -25 -547 -31 -82 -17 -67 28 30 65 139 87 229 86 352 0 118 -19 202 -66 290 -36 69 -56 93 -98 119 l-34 20 84 40 c46 23 98 41 114 41 26 1 28 2 14 11 -29 16 -168 19 -243 5z"/>
<path d="M64634 62391 c-65 -40 -133 -147 -160 -252 -29 -114 -7 -194 97 -336 33 -45 66 -98 74 -118 l15 -35 -72 -36 c-91 -45 -101 -54 -138 -127 -23 -47 -30 -74 -30 -120 0 -73 20 -111 75 -137 103 -50 225 -4 270 102 24 59 19 69 -18 34 -37 -34 -115 -66 -162 -66 -44 0 -75 25 -75 61 0 71 51 133 119 144 209 34 225 151 52 380 -94 123 -104 146 -103 227 0 93 44 220 95 276 26 28 5 30 -39 3z"/>
<path d="M59745 62243 c-344 -42 -638 -137 -835 -268 -93 -62 -130 -105 -130 -153 1 -93 83 -114 255 -66 352 98 526 134 870 179 110 14 250 35 310 45 332 58 477 70 585 50 29 -6 55 -8 57 -6 5 5 -264 119 -344 145 -34 11 -128 34 -210 51 -136 27 -163 30 -338 28 -104 0 -203 -3 -220 -5z"/>
<path d="M60590 61576 c-52 -39 -545 -289 -670 -339 -104 -43 -233 -82 -320 -97 -69 -13 -232 -16 -249 -5 -6 3 -36 54 -68 113 -66 123 -91 152 -130 152 -98 0 -111 -99 -38 -290 45 -119 60 -200 44 -248 -29 -90 -101 -222 -145 -266 -41 -42 -43 -45 -17 -36 72 27 183 89 231 128 l54 44 -4 -59 c-2 -32 -8 -67 -13 -77 -7 -17 -4 -16 26 5 69 49 94 72 116 107 l22 35 6 -37 c4 -21 5 -55 2 -77 l-5 -39 61 75 62 74 5 -47 5 -47 36 50 c19 28 42 65 49 83 9 23 16 30 23 23 15 -15 47 -14 66 2 9 8 42 19 74 26 73 16 254 107 377 191 52 36 130 99 172 142 73 74 158 198 158 233 0 9 8 29 19 43 18 27 102 172 98 172 -1 0 -22 -16 -47 -34z"/>
<path d="M59187 60264 c-64 -15 -131 -51 -166 -88 -36 -39 -18 -46 53 -20 162 58 343 33 496 -71 164 -111 251 -304 207 -456 -21 -71 -99 -200 -145 -241 -20 -17 -30 -29 -22 -26 161 63 225 108 267 192 31 61 42 173 24 257 -46 212 -246 407 -467 454 -85 18 -171 18 -247 -1z"/>
<path d="M67520 59659 c382 -37 652 -79 928 -145 1094 -260 1823 -708 2619 -1609 303 -344 614 -735 1178 -1480 902 -1192 1023 -1349 1334 -1725 186 -224 390 -447 567 -619 145 -142 178 -179 176 -198 -2 -13 1 -29 6 -36 5 -7 15 -34 21 -62 13 -52 58 -133 111 -199 16 -21 30 -45 30 -52 0 -8 -39 -53 -86 -101 -47 -49 -105 -109 -130 -135 -24 -26 -102 -85 -172 -133 -112 -75 -137 -88 -212 -106 -114 -27 -211 -80 -459 -252 -120 -84 -264 -175 -346 -217 -974 -509 -1470 -796 -2015 -1168 -498 -340 -781 -575 -849 -704 l-30 -58 -23 33 c-12 17 -95 122 -183 232 -200 249 -473 613 -655 874 -13 19 -45 102 -70 185 -26 83 -51 160 -55 171 -7 16 -4 15 14 -5 12 -14 -3 16 -32 65 -30 50 -72 126 -95 170 -22 44 -81 143 -132 220 -51 77 -136 212 -187 300 -97 164 -231 375 -549 863 -395 607 -602 975 -772 1377 -315 740 -427 1525 -322 2245 67 461 241 925 426 1142 20 23 1 7 -43 -37 -212 -214 -429 -645 -533 -1055 -76 -301 -102 -517 -102 -845 -1 -915 320 -1808 1002 -2790 86 -124 140 -213 140 -230 0 -17 -74 55 -169 165 -498 577 -803 1068 -1032 1662 -165 426 -284 933 -290 1230 l-2 63 -9 -70 c-15 -110 -3 -460 21 -605 78 -481 215 -910 435 -1365 186 -384 384 -693 662 -1030 105 -128 424 -441 544 -533 67 -51 121 -105 196 -197 145 -176 323 -406 439 -565 98 -135 450 -649 540 -790 27 -41 51 -77 55 -80 3 -3 53 -72 110 -155 136 -197 239 -335 394 -530 131 -163 165 -219 166 -267 0 -66 62 -143 142 -178 72 -31 165 -26 205 12 l28 26 115 -13 c293 -34 657 -44 925 -25 72 5 207 22 302 39 l172 30 75 -77 c43 -44 76 -86 76 -97 0 -27 79 -208 140 -321 27 -50 99 -175 160 -278 61 -103 131 -228 155 -277 l45 -89 0 -147 c0 -191 41 -632 52 -558 7 51 55 204 67 218 4 4 15 -32 25 -81 16 -79 17 -103 5 -246 -13 -175 -7 -678 11 -856 53 -528 131 -946 331 -1765 66 -269 136 -560 154 -645 151 -688 228 -1320 265 -2180 12 -271 14 -1143 3 -1137 -5 3 -9 -39 -10 -94 -7 -305 -135 -609 -435 -1031 -119 -167 -174 -236 -346 -427 -180 -200 -234 -267 -321 -396 -91 -137 -173 -300 -275 -553 -48 -117 -127 -303 -176 -413 -119 -265 -139 -330 -151 -499 -6 -74 -9 -358 -8 -630 2 -468 1 -501 -19 -610 -11 -63 -26 -164 -33 -225 -6 -60 -24 -153 -40 -205 -16 -52 -32 -117 -35 -143 -4 -27 -13 -55 -21 -62 -37 -37 -382 -131 -683 -185 -96 -18 -176 -33 -177 -34 -1 -1 37 -30 84 -65 72 -53 91 -62 115 -57 86 17 550 219 634 275 l31 21 5 -107 c4 -101 7 -113 42 -179 20 -39 58 -95 85 -125 26 -30 63 -82 81 -117 66 -124 154 -169 313 -159 l88 6 -6 -32 c-9 -58 -34 -270 -46 -400 -14 -147 -26 -125 106 -204 44 -26 130 -69 190 -95 l110 -48 3 33 c1 17 -4 102 -11 187 -8 85 -13 156 -12 158 2 2 20 -8 42 -22 75 -50 148 -69 268 -70 88 0 125 4 185 23 200 62 395 203 537 388 31 41 59 72 62 70 215 -120 421 -97 583 67 35 35 77 86 93 114 22 37 36 52 52 52 12 0 27 9 33 21 11 20 13 19 46 -20 43 -49 137 -97 221 -112 112 -20 278 31 408 125 74 53 200 182 243 248 26 40 41 55 52 51 108 -45 157 -55 240 -50 156 10 284 72 416 202 170 167 277 389 319 660 25 157 17 410 -19 600 -29 154 -46 253 -71 420 -9 61 -32 170 -51 244 -22 86 -34 157 -34 200 0 111 -27 420 -85 986 -97 939 -120 1238 -135 1766 -16 561 11 1255 80 2074 41 486 40 482 114 747 102 367 281 1085 320 1283 141 721 208 1163 265 1745 74 746 83 1549 25 2195 -120 1359 -533 2608 -1096 3318 -83 104 -262 290 -332 343 -34 27 -40 37 -48 90 -10 64 -48 149 -94 210 -24 31 -29 47 -30 99 0 59 -2 63 -40 97 -127 114 -457 264 -683 310 -64 13 -66 14 -110 77 -383 538 -1352 1810 -1925 2526 -658 823 -1068 1298 -1461 1690 -710 709 -1373 1091 -2278 1315 -396 98 -639 130 -1022 135 -215 3 -258 1 -185 -6z m7530 -6511 c12 -13 42 -65 67 -117 41 -84 45 -97 35 -123 -10 -26 -9 -28 5 -16 9 7 39 24 67 38 53 26 100 81 111 133 4 15 10 27 15 27 5 0 33 -28 62 -62 532 -616 944 -1735 1102 -2998 63 -499 80 -841 73 -1445 -9 -726 -47 -1188 -201 -2400 -26 -198 -62 -469 -81 -601 -19 -133 -44 -324 -55 -425 -11 -101 -36 -310 -55 -464 -19 -154 -46 -374 -60 -490 -14 -115 -37 -279 -50 -364 -14 -85 -23 -170 -20 -190 4 -29 3 -31 -4 -11 -5 15 -9 18 -10 9 -1 -9 -3 -32 -6 -50 -4 -29 -3 -30 4 -9 16 45 12 -3 -19 -211 -80 -529 -139 -1101 -161 -1539 -16 -326 -6 -971 20 -1290 54 -650 167 -1444 251 -1760 85 -322 150 -735 150 -958 0 -158 -60 -543 -111 -714 -78 -264 -230 -472 -405 -555 -71 -34 -87 -37 -161 -38 -46 0 -87 5 -93 11 -8 8 -4 34 14 95 40 141 50 230 49 434 -1 132 -9 256 -27 405 -14 118 -27 235 -29 260 -3 43 -4 42 -5 -11 -2 -58 -30 -292 -57 -469 -73 -492 -174 -726 -405 -943 -111 -105 -206 -152 -304 -152 -75 1 -132 22 -170 64 -19 21 -19 22 17 139 92 300 185 791 217 1142 12 138 13 350 2 350 -17 0 -35 -59 -164 -530 -209 -763 -236 -863 -255 -975 -20 -122 -29 -135 -170 -266 -109 -103 -182 -139 -278 -139 -70 0 -175 23 -175 39 0 4 11 34 24 67 13 32 27 70 30 84 6 22 5 21 -10 -5 -28 -50 -87 -124 -95 -119 -4 2 8 38 26 79 87 191 169 495 207 765 30 220 5 1030 -32 1030 -10 0 -16 -48 -40 -325 -54 -610 -153 -985 -403 -1535 -19 -41 -51 -126 -72 -188 l-39 -114 -121 -58 c-144 -71 -224 -93 -330 -94 -90 0 -162 25 -226 82 -43 37 -90 122 -72 129 27 10 62 45 65 66 2 12 -6 46 -19 76 -29 67 -29 80 2 141 285 563 386 1709 224 2559 -36 193 -98 414 -135 481 l-13 25 -1 -27 c0 -14 9 -79 20 -145 44 -255 52 -351 57 -740 7 -523 -15 -866 -87 -1351 l-28 -194 -50 -56 c-153 -177 -464 -386 -608 -409 -42 -7 -74 19 -132 107 l-37 54 2 118 c1 103 8 151 30 208 4 8 6 18 5 21 0 3 16 6 37 7 37 3 39 2 51 -43 20 -70 -3 -250 -46 -359 -15 -38 128 127 149 172 30 64 32 262 4 305 -24 37 -57 48 -113 38 l-46 -9 5 32 c24 163 50 308 67 386 50 221 51 228 60 740 6 381 12 512 24 568 8 40 45 143 82 230 36 86 117 283 179 437 61 154 142 339 178 410 116 227 308 504 466 670 92 96 274 323 340 423 125 187 246 441 306 638 50 164 66 276 70 474 2 96 6 182 9 190 11 29 46 458 57 705 31 683 -42 1535 -195 2290 -50 248 -72 341 -226 955 -243 976 -339 1474 -400 2079 -22 217 -28 812 -9 971 26 230 120 660 143 660 22 0 100 -56 139 -98 20 -23 37 -40 37 -37 0 10 -98 201 -124 244 -74 117 -281 280 -556 438 -101 59 -231 138 -315 192 l-40 26 60 6 60 6 -71 1 c-41 1 -78 8 -89 16 -18 13 -17 14 11 29 32 16 94 81 113 116 22 40 29 113 19 176 -10 59 -9 64 25 137 59 129 228 372 398 574 46 55 138 165 205 245 68 80 180 208 251 285 70 77 146 164 168 192 42 54 205 178 480 363 77 51 167 121 200 155 67 69 63 67 485 237 301 122 369 150 405 170 40 22 51 21 75 -5z"/>
<path d="M59350 59421 c-77 -24 -135 -77 -146 -136 -14 -75 21 -125 86 -125 34 0 48 7 83 40 35 33 38 40 22 40 -19 1 -19 1 -1 12 11 6 45 10 78 10 47 -1 60 3 68 18 15 28 12 82 -5 107 -25 36 -120 53 -185 34z"/>
<path d="M60334 58740 c-25 -10 -74 -66 -74 -85 0 -22 -49 -62 -120 -99 -70 -37 -277 -114 -405 -151 l-80 -23 85 5 c114 6 215 26 395 77 83 24 168 46 190 50 119 20 175 60 175 125 0 85 -82 135 -166 101z"/>
<path d="M59565 58724 c-82 -9 -145 -26 -169 -45 -32 -25 -34 -44 -3 -27 16 9 120 14 389 18 201 3 369 8 372 11 3 3 -38 14 -91 23 -95 17 -409 29 -498 20z"/>
<path d="M63525 58559 c-313 -378 -981 -944 -1510 -1278 -247 -156 -474 -255 -650 -281 -249 -38 -590 57 -757 209 -72 66 -104 128 -113 216 -22 214 -71 326 -151 341 -65 12 -103 -40 -68 -94 15 -22 17 -42 14 -107 -2 -44 -4 -123 -5 -176 0 -91 2 -99 39 -175 31 -63 57 -97 130 -169 127 -125 223 -175 495 -254 21 -6 18 -10 -40 -51 -162 -111 -371 -291 -505 -434 -439 -465 -742 -1070 -953 -1905 -152 -599 -231 -1169 -253 -1811 -12 -355 -8 -464 32 -1055 11 -154 20 -323 21 -375 2 -92 2 -91 10 45 10 162 39 434 75 685 13 96 40 299 59 450 147 1161 258 1757 434 2341 255 845 574 1357 1214 1951 l139 128 63 0 c224 0 505 107 807 306 161 107 164 108 267 57 102 -49 311 -290 311 -357 0 -14 -13 -108 -30 -208 -45 -276 -60 -426 -60 -603 1 -520 175 -886 464 -977 93 -30 217 -22 315 20 61 26 231 127 231 138 0 1 -26 -9 -57 -24 -47 -21 -77 -27 -155 -30 -282 -12 -452 98 -567 368 -93 217 -121 475 -111 1020 l5 264 62 -114 c33 -63 113 -217 177 -343 129 -253 123 -251 106 -31 -12 160 -51 307 -119 449 -86 180 -176 311 -288 421 l-62 60 67 22 c273 88 580 386 949 922 164 239 176 257 146 220 -99 -121 -263 -296 -475 -506 -300 -297 -394 -384 -494 -459 -82 -62 -233 -145 -262 -145 -9 0 -43 8 -75 19 l-59 18 84 68 c385 316 643 595 1048 1130 62 83 118 156 123 163 5 6 7 12 4 12 -3 0 -35 -36 -72 -81z"/>
<path d="M60436 53883 c-108 -328 -171 -646 -213 -1068 -22 -223 -25 -821 -5 -1015 44 -429 143 -917 271 -1342 166 -550 347 -919 861 -1758 287 -468 399 -664 388 -676 -3 -2 -79 2 -169 10 -90 8 -209 18 -264 21 -732 45 -1174 124 -1615 287 -190 71 -355 145 -671 303 -349 175 -432 223 -426 244 3 9 18 45 33 81 37 90 77 231 120 428 60 277 118 510 214 862 160 591 217 885 227 1183 6 181 -5 220 -27 95 -32 -185 -142 -584 -311 -1128 -133 -425 -179 -600 -274 -1020 -71 -316 -108 -436 -144 -457 -39 -25 -51 -43 -51 -82 0 -32 10 -45 89 -122 100 -96 264 -211 536 -374 691 -416 1251 -586 2060 -626 232 -12 422 -7 645 17 74 8 140 14 146 14 10 0 44 -83 44 -107 0 -10 -50 -13 -218 -13 -680 0 -1467 116 -2042 302 -174 56 -381 138 -385 151 -1 7 -8 31 -14 55 -15 53 -41 58 -41 7 0 -25 -4 -35 -16 -35 -26 0 -324 155 -458 240 -208 130 -346 239 -385 305 -11 18 -12 16 -7 -13 8 -49 52 -106 162 -212 153 -147 369 -301 598 -425 l88 -48 -7 -65 c-19 -178 -83 -404 -197 -702 -33 -85 -90 -238 -128 -340 -194 -528 -383 -933 -740 -1585 -301 -548 -429 -815 -539 -1119 -127 -351 -209 -679 -336 -1356 -76 -402 -110 -572 -230 -1165 -125 -612 -204 -1017 -244 -1260 -61 -360 -64 -371 -134 -511 -138 -275 -359 -629 -715 -1144 -407 -588 -746 -1014 -1061 -1332 -182 -183 -238 -263 -288 -407 -47 -138 -63 -238 -70 -441 -9 -282 28 -679 86 -896 17 -68 18 -79 4 -195 -15 -128 -12 -390 6 -476 7 -34 5 -45 -8 -57 -9 -7 -131 -88 -271 -178 -140 -91 -372 -241 -515 -335 -299 -196 -1020 -652 -2055 -1301 -883 -554 -2089 -1327 -2502 -1603 l-117 -79 -24 34 -23 35 -154 -102 c-317 -207 -1060 -693 -1200 -785 -80 -52 -197 -129 -260 -170 -63 -42 -362 -237 -665 -435 -302 -198 -614 -402 -692 -454 -79 -51 -207 -135 -285 -186 -79 -52 -334 -219 -568 -372 -234 -153 -510 -334 -615 -402 -104 -69 -386 -253 -625 -409 -239 -157 -502 -329 -585 -383 -82 -54 -249 -163 -370 -243 -121 -79 -348 -228 -505 -330 -157 -103 -603 -395 -993 -650 -389 -255 -834 -546 -990 -648 -155 -101 -406 -266 -557 -365 -151 -99 -663 -435 -1138 -745 -475 -311 -1024 -670 -1220 -799 -196 -128 -415 -272 -487 -318 -71 -46 -353 -230 -625 -409 -272 -179 -586 -384 -698 -457 -111 -73 -271 -177 -355 -232 -84 -55 -334 -220 -557 -365 -652 -427 -965 -632 -1125 -736 -82 -54 -325 -213 -540 -354 -214 -141 -516 -338 -670 -439 -420 -274 -1301 -851 -1825 -1194 -256 -168 -676 -443 -935 -612 -258 -170 -546 -358 -640 -419 -93 -62 -228 -150 -300 -197 -71 -46 -205 -133 -297 -194 -92 -60 -234 -153 -315 -206 -82 -53 -267 -175 -413 -271 -146 -95 -457 -299 -693 -453 -235 -154 -543 -356 -683 -448 -141 -92 -258 -166 -260 -164 -2 2 0 55 5 118 8 111 2 223 -20 344 -13 77 -102 405 -130 481 -72 196 -234 464 -388 642 -60 70 -93 119 -130 197 -252 527 -885 941 -1711 1119 -257 55 -458 76 -740 76 -822 -1 -1585 -303 -2254 -891 -333 -293 -628 -651 -799 -969 -56 -103 -120 -270 -140 -365 -8 -39 -33 -110 -55 -160 -95 -217 -166 -483 -192 -720 -14 -129 -14 -392 0 -520 69 -622 433 -1351 914 -1830 393 -391 820 -595 1301 -621 183 -10 346 27 430 98 29 24 36 25 155 26 281 0 528 69 716 201 l89 61 120 -118 c176 -174 213 -203 725 -565 47 -33 108 -80 137 -104 l52 -44 -41 -67 c-62 -101 -152 -285 -192 -393 -19 -53 -51 -163 -71 -245 -19 -82 -40 -167 -45 -189 -42 -167 -64 -430 -55 -642 l6 -163 -238 0 c-281 0 -575 13 -913 40 -135 10 -315 24 -400 30 -85 6 -276 22 -425 36 -148 13 -382 33 -520 44 -137 11 -387 34 -555 50 -1195 116 -1426 126 -1935 84 -196 -16 -218 -20 -212 -37 4 -12 28 -15 262 -36 66 -6 190 -20 275 -31 1745 -226 2378 -282 3245 -284 419 0 575 8 1144 59 151 14 275 24 276 23 1 -2 10 -50 19 -108 43 -246 107 -443 221 -672 198 -398 484 -675 825 -799 41 -14 100 -50 160 -95 464 -349 1049 -563 1705 -624 147 -14 515 -14 645 -1 463 49 839 158 1235 359 414 210 649 458 751 792 40 132 41 142 7 90 -37 -56 -148 -160 -234 -219 l-64 -45 85 90 c150 158 274 311 337 414 217 355 317 678 345 1112 25 379 -36 855 -167 1308 -178 613 -505 1231 -823 1554 -83 84 -128 119 -207 159 -38 19 -66 45 -109 101 -164 215 -400 344 -751 413 -129 25 -505 25 -660 0 -135 -22 -387 -85 -515 -128 -397 -132 -835 -381 -1238 -701 -78 -62 -141 -102 -214 -136 -211 -99 -607 -317 -750 -414 -56 -37 -59 -38 -103 -27 -24 6 -61 9 -82 7 -37 -5 -104 19 -117 41 -3 5 92 61 212 124 420 222 876 494 1155 689 123 86 130 89 158 78 54 -23 93 -6 277 118 97 65 377 253 622 418 245 164 599 402 787 529 586 393 1520 1022 1800 1210 277 186 1167 785 1741 1170 417 280 1246 838 1647 1108 171 115 474 319 675 454 201 134 500 335 665 446 911 613 1834 1234 2605 1751 294 198 569 383 610 411 41 28 309 209 595 401 286 192 655 440 820 551 165 111 451 303 635 426 184 124 517 348 740 498 566 381 1235 830 1630 1096 184 123 450 302 590 396 140 95 476 320 745 501 270 181 861 579 1315 884 454 305 983 661 1175 790 366 246 683 460 1195 804 2546 1712 2913 1958 3245 2168 562 355 996 639 2235 1464 1356 903 2090 1389 2610 1727 162 106 301 197 308 202 6 5 12 7 12 4 0 -2 -65 -56 -145 -118 -80 -62 -145 -119 -145 -126 0 -8 13 -40 30 -72 27 -54 77 -101 108 -101 6 0 162 119 347 265 184 146 338 265 341 265 4 0 34 -26 68 -58 77 -72 123 -95 204 -100 80 -6 135 9 251 64 74 36 108 60 161 114 67 67 68 68 78 45 17 -37 89 -83 165 -107 165 -50 336 17 518 202 181 184 304 416 359 678 40 188 38 576 -6 852 -27 173 -27 174 -35 95 -56 -587 -85 -792 -135 -970 -88 -308 -306 -621 -500 -716 -58 -29 -78 -33 -138 -33 -86 1 -146 17 -183 48 l-27 24 61 128 c141 294 240 625 358 1197 50 245 54 259 87 295 49 55 258 337 305 412 95 153 166 317 211 490 25 97 27 119 27 300 0 225 -13 293 -91 487 -41 103 -164 347 -171 339 -2 -1 6 -29 18 -62 65 -188 98 -620 65 -839 -32 -205 -74 -341 -158 -510 -53 -106 -179 -328 -183 -323 -2 2 6 57 16 123 10 66 18 129 18 140 l-1 20 -5 -20 c-65 -289 -85 -352 -154 -488 -47 -91 -72 -153 -76 -186 -6 -52 7 -72 32 -51 8 7 15 9 15 5 0 -21 -128 -515 -171 -658 -102 -342 -269 -703 -366 -789 -18 -16 -17 -12 5 55 30 87 33 201 7 317 -9 41 -18 81 -18 89 -1 9 60 53 147 107 82 51 157 100 165 109 10 9 18 42 22 83 3 37 9 75 14 85 5 13 -8 8 -51 -18 -33 -20 -147 -89 -254 -153 -174 -104 -204 -118 -279 -134 -104 -22 -154 -54 -176 -112 -13 -33 -28 -48 -78 -78 l-62 -38 -3 113 c-4 141 7 203 69 396 31 96 53 183 56 226 l6 70 172 170 c94 94 236 239 316 324 139 150 141 152 59 82 -47 -41 -130 -107 -185 -147 -253 -185 -335 -244 -344 -244 -5 0 -7 8 -5 18 12 48 20 454 13 643 -4 118 -13 358 -19 534 -6 176 -14 336 -19 355 -6 31 -9 22 -24 -73 -17 -108 -60 -540 -73 -734 -4 -57 -8 -103 -10 -103 -2 0 -30 26 -62 58 -33 32 -87 71 -123 89 -73 37 -219 103 -227 103 -3 0 19 -26 49 -57 41 -43 79 -104 149 -238 69 -130 108 -193 142 -227 46 -46 47 -49 41 -93 -3 -25 -8 -45 -10 -45 -2 0 -20 8 -41 19 -103 52 -234 61 -412 29 -71 -13 -73 -14 -40 -22 19 -4 64 -23 100 -41 74 -37 225 -87 317 -105 56 -11 62 -15 58 -34 -3 -11 -12 -70 -20 -131 -9 -60 -18 -112 -21 -114 -3 -3 -95 -66 -204 -141 -110 -74 -294 -200 -410 -279 -116 -78 -213 -141 -215 -139 -7 6 -43 202 -50 263 -3 33 -8 76 -11 95 -10 61 6 26 31 -71 14 -52 23 -80 20 -64 -25 135 -2 1322 29 1532 19 128 51 223 98 295 23 34 103 126 178 203 354 363 699 826 1072 1440 212 350 323 544 465 820 51 99 93 176 93 171 0 -4 -7 -35 -16 -68 -27 -108 -9 -70 29 59 21 70 61 185 89 257 65 170 100 279 128 396 21 90 173 657 370 1380 148 545 224 828 330 1230 274 1045 376 1310 798 2080 273 500 396 752 522 1070 113 284 159 445 280 979 87 384 110 531 110 714 0 75 2 137 4 137 2 0 62 -25 132 -56 370 -160 936 -306 1424 -368 354 -45 814 -67 1015 -48 55 5 102 7 105 5 3 -3 8 -131 12 -286 7 -300 20 -410 72 -588 l25 -86 -23 -99 c-187 -804 -647 -1961 -1298 -3264 -119 -239 -273 -538 -341 -665 -68 -126 -170 -318 -227 -425 -57 -107 -149 -276 -205 -375 -56 -99 -132 -238 -170 -310 -157 -300 -464 -828 -553 -955 -26 -36 -134 -177 -242 -315 -324 -413 -476 -620 -669 -908 -61 -92 -173 -249 -249 -348 -75 -100 -148 -198 -162 -219 -14 -21 -59 -69 -100 -108 -102 -94 -133 -152 -138 -258 -6 -105 14 -168 74 -235 31 -35 44 -58 44 -80 0 -38 22 -82 56 -108 31 -24 48 -94 39 -156 -11 -66 -64 -260 -105 -379 -73 -210 -159 -384 -283 -571 -71 -107 -78 -116 -270 -357 -125 -159 -156 -191 -194 -208 -109 -48 -210 -174 -195 -243 3 -15 10 -12 37 20 18 22 60 54 93 71 63 33 145 52 155 35 4 -6 -6 -35 -22 -64 -41 -78 -54 -147 -55 -297 -1 -129 0 -134 23 -153 13 -10 37 -19 55 -19 62 0 145 65 130 103 -8 23 -47 32 -74 17 -12 -6 -24 -10 -26 -8 -2 3 -10 81 -18 174 -14 161 -13 224 4 224 13 0 39 -35 56 -75 l17 -40 18 55 c30 93 21 157 -28 195 -10 8 3 25 55 71 82 74 92 80 85 55 -3 -11 0 -36 7 -56 l12 -36 16 33 c22 43 77 63 133 48 38 -10 109 -63 109 -81 0 -4 -11 -19 -25 -33 -23 -23 -25 -33 -25 -108 0 -105 13 -133 60 -133 29 0 37 5 50 30 l15 30 7 -65 c14 -120 -10 -311 -59 -464 -38 -123 -119 -292 -228 -481 -157 -270 -238 -435 -222 -452 8 -7 79 58 163 149 63 69 190 243 257 353 20 33 66 86 102 118 207 184 363 448 414 702 75 370 -9 783 -171 844 -36 14 -78 0 -139 -45 -88 -64 -149 -163 -149 -242 0 -29 -3 -33 -17 -27 -10 4 -42 15 -70 23 -48 14 -59 14 -108 0 l-55 -15 78 86 c280 310 456 648 532 1021 52 254 27 563 -60 733 l-29 59 44 76 c24 42 51 103 60 134 17 59 89 186 211 368 39 58 128 206 199 330 163 286 266 443 494 755 276 375 277 377 438 570 510 610 966 1253 1282 1807 701 1227 1268 2588 1485 3566 20 86 41 190 48 230 7 39 15 72 19 72 10 0 71 -147 118 -283 44 -127 82 -263 107 -374 21 -96 37 -477 39 -883 1 -388 4 -413 85 -665 27 -84 44 -157 47 -205 13 -192 -43 -647 -98 -797 -12 -32 -58 -114 -103 -183 -103 -160 -169 -292 -255 -510 -103 -261 -139 -383 -272 -907 -201 -791 -201 -792 -202 -1098 0 -174 3 -227 20 -310 l21 -99 -125 -149 c-68 -81 -144 -179 -168 -217 -55 -86 -98 -170 -91 -178 4 -3 72 2 152 11 139 15 146 17 166 44 11 15 89 96 172 178 91 89 160 166 171 190 29 61 30 139 5 272 -20 105 -22 138 -17 293 3 96 13 213 21 260 19 99 85 350 161 605 29 99 76 259 104 355 148 516 273 813 442 1051 44 63 94 140 110 171 78 153 129 460 136 821 6 280 4 294 -77 537 -95 284 -101 324 -134 885 -9 138 -18 311 -21 385 -6 159 -18 241 -81 530 -59 273 -81 348 -159 545 -91 229 -95 251 -105 650 -10 391 -20 476 -82 663 -24 70 -43 131 -43 136 0 5 18 15 40 22 l40 12 -48 1 -48 1 -58 123 c-116 245 -205 394 -568 947 -520 794 -687 1108 -862 1626 -379 1123 -504 2346 -327 3214 13 63 22 116 21 118 -2 2 -14 -32 -29 -75z m-2459 -17363 c45 -88 70 -196 83 -348 27 -312 -41 -557 -232 -840 -91 -133 -106 -145 -64 -50 70 158 109 353 109 538 -1 204 -42 356 -123 453 -34 41 -38 52 -33 85 13 95 50 151 133 204 67 43 88 36 127 -42z m-2557 -1367 c-15 -44 -30 -178 -30 -256 1 -67 9 -145 25 -243 l7 -41 -123 -79 c-958 -606 -2430 -1583 -3926 -2605 -84 -57 -230 -157 -325 -221 -95 -65 -327 -222 -515 -350 -1010 -687 -1065 -722 -1080 -702 -7 10 -19 36 -25 56 -6 21 -15 38 -20 38 -8 0 -423 -277 -1178 -785 -124 -83 -376 -253 -560 -377 -184 -123 -501 -337 -705 -473 -203 -137 -541 -364 -750 -505 -209 -140 -768 -516 -1243 -835 -1178 -792 -2049 -1378 -2467 -1659 -192 -129 -618 -415 -945 -635 -327 -220 -868 -583 -1202 -808 -335 -224 -728 -489 -875 -588 -148 -99 -532 -358 -856 -575 -323 -217 -870 -585 -1215 -817 -345 -232 -778 -523 -962 -646 -184 -124 -477 -321 -650 -437 -173 -117 -513 -345 -755 -508 -242 -162 -507 -341 -590 -397 -82 -56 -377 -254 -655 -440 -278 -186 -559 -375 -625 -420 -66 -45 -334 -225 -595 -400 -261 -176 -608 -409 -770 -518 -162 -109 -452 -304 -645 -433 -192 -130 -620 -417 -950 -639 -330 -222 -751 -505 -935 -628 -376 -253 -935 -629 -1480 -995 -699 -470 -907 -610 -1275 -857 -672 -451 -793 -535 -813 -560 -11 -14 -25 -47 -31 -73 l-12 -47 -127 -69 c-210 -114 -919 -534 -1232 -729 -114 -71 -118 -71 -119 0 -2 59 -50 189 -99 264 -92 141 -250 284 -391 354 -33 17 -60 33 -61 36 0 8 -4 5 1645 1084 226 148 466 305 535 350 69 45 138 85 153 89 16 4 50 26 75 50 26 23 223 157 437 297 368 241 1460 956 2135 1398 168 109 555 363 860 562 305 200 659 431 785 515 127 83 392 257 590 386 198 129 585 383 860 563 275 180 565 370 645 422 80 52 213 139 295 193 83 54 384 252 670 439 446 292 1053 689 2260 1480 143 93 397 260 565 370 168 110 427 279 575 376 149 97 455 297 680 445 643 421 709 464 983 643 141 93 365 239 497 326 132 87 317 208 410 269 94 61 301 196 460 301 160 104 565 369 900 589 336 219 863 565 1173 768 499 327 840 550 1360 889 84 55 241 159 350 230 109 72 318 209 465 305 147 96 384 252 527 345 143 94 322 211 397 260 409 268 2902 1900 3178 2080 110 73 265 174 345 226 142 93 311 196 715 434 1069 630 3355 2021 4038 2457 413 263 990 644 1180 779 l48 33 22 -27 22 -27 115 90 115 89 40 -39 c25 -24 54 -41 77 -45 l37 -7 -6 38 c-3 22 -14 59 -24 83 -14 31 -16 48 -9 55 19 20 595 464 602 465 4 1 3 -11 -2 -26z m669 -425 c29 -141 51 -275 51 -309 0 -36 -25 -53 -123 -84 -109 -35 -157 -33 -202 7 -20 17 -32 34 -27 37 19 13 26 51 31 175 l6 128 115 74 c63 40 118 74 121 74 4 0 16 -46 28 -102z m-32674 -15492 c566 -81 1020 -240 1400 -490 180 -119 278 -206 343 -305 31 -47 58 -89 60 -93 2 -4 -14 -4 -35 -1 l-38 5 42 -28 c23 -15 41 -30 39 -32 -2 -1 -48 17 -102 41 -301 135 -601 195 -1016 204 -443 10 -797 -42 -1176 -172 -448 -153 -840 -412 -1206 -796 -362 -379 -617 -786 -736 -1174 -39 -126 -76 -310 -89 -440 -20 -194 -33 -552 -28 -735 4 -165 8 -197 35 -300 82 -308 222 -564 450 -818 72 -80 212 -202 299 -260 64 -42 57 -50 -24 -27 -570 159 -1115 663 -1494 1380 -306 579 -380 1141 -233 1758 14 59 30 107 35 107 5 0 9 13 9 30 0 57 106 323 165 416 32 50 34 56 14 43 -13 -9 -48 -49 -78 -90 -60 -83 -59 -62 2 51 195 361 608 818 1012 1120 177 132 234 170 388 254 381 208 740 317 1208 366 130 13 625 4 754 -14z m1155 -966 c217 -26 481 -71 560 -95 25 -7 90 -23 145 -35 92 -21 103 -26 141 -64 25 -27 49 -66 64 -107 49 -135 78 -177 114 -163 9 3 32 -26 69 -88 181 -306 240 -508 251 -863 5 -144 -7 -468 -19 -521 -3 -15 -129 -103 -422 -295 -230 -150 -510 -333 -622 -407 -113 -74 -210 -136 -218 -139 -7 -3 -45 27 -85 65 -40 39 -97 89 -126 112 -29 22 -50 45 -47 50 3 5 18 11 35 15 16 3 41 16 56 27 14 12 41 26 60 33 l33 11 -57 38 c-115 76 -247 73 -507 -11 -99 -31 -334 -145 -435 -209 -201 -128 -375 -288 -438 -401 -7 -11 -14 -12 -37 -3 -22 9 -31 7 -46 -6 -23 -21 -24 -50 -4 -97 8 -20 15 -61 15 -91 0 -59 14 -102 36 -110 16 -6 19 10 4 19 -11 7 -14 58 -4 68 3 3 32 -27 63 -66 66 -83 200 -213 237 -229 13 -6 23 -14 21 -17 -36 -71 -62 -154 -54 -175 4 -9 18 -21 33 -26 19 -8 24 -15 19 -28 -23 -59 -34 -152 -26 -228 5 -43 7 -81 5 -83 -5 -5 -27 15 -175 157 -108 102 -138 106 -154 21 -10 -52 17 -148 70 -254 25 -50 45 -93 45 -97 0 -5 -44 -17 -207 -53 -110 -24 -190 -34 -339 -41 l-142 -7 -12 24 c-36 69 -93 93 -149 64 -18 -9 -35 -23 -38 -31 -8 -22 -50 -17 -174 25 -251 85 -459 220 -664 432 -207 214 -342 430 -425 677 -90 270 -97 615 -20 982 81 385 285 777 584 1125 454 528 942 854 1498 1000 153 40 374 79 533 95 61 5 128 12 150 14 78 8 721 -3 805 -14z m-257 -2681 c45 -44 110 -99 144 -122 35 -23 63 -44 63 -47 0 -6 -959 -634 -975 -638 -7 -2 -15 11 -19 29 -4 24 -34 58 -114 134 -59 56 -134 127 -167 159 l-60 56 40 37 c103 92 298 203 536 304 110 47 440 167 462 168 5 1 46 -35 90 -80z m3552 -793 c245 -33 393 -86 530 -189 72 -54 115 -105 193 -227 41 -63 73 -101 103 -121 54 -36 65 -36 82 -3 14 27 14 26 97 -107 578 -930 851 -2000 725 -2839 -30 -203 -118 -526 -185 -680 -17 -41 -51 -123 -75 -181 -24 -58 -52 -124 -64 -145 l-20 -39 -1 140 c-1 113 -4 136 -13 121 -7 -10 -42 -53 -80 -95 -37 -42 -77 -96 -89 -121 -80 -169 -255 -346 -513 -517 -162 -108 -340 -208 -386 -217 -13 -2 -33 -7 -44 -11 -21 -7 -18 -3 48 47 12 9 -28 -8 -88 -38 -109 -55 -113 -56 -245 -70 -480 -48 -1226 27 -1948 197 -29 7 -49 16 -45 20 5 3 37 16 73 28 36 11 87 29 114 40 l48 18 -123 -5 c-140 -5 -220 7 -384 61 -97 31 -101 34 -148 92 -115 144 -213 421 -230 655 -2 30 -4 21 -5 -27 -2 -85 28 -267 62 -378 14 -44 47 -123 73 -176 l48 -95 -115 47 c-319 131 -533 306 -725 594 -229 343 -370 728 -420 1150 -24 197 -17 301 28 437 93 279 262 591 439 815 34 43 87 110 117 148 76 96 384 402 506 504 367 305 686 506 1235 779 195 97 375 188 400 203 52 31 172 80 245 99 64 17 85 35 30 26 -79 -13 -10 12 80 29 223 42 493 55 670 31z m-4285 -387 c203 -110 383 -299 426 -447 9 -29 14 -55 12 -57 -2 -3 -35 16 -72 41 -75 51 -275 164 -289 164 -5 0 -7 -17 -5 -37 l4 -37 -35 41 c-45 50 -94 149 -115 229 -17 65 -21 144 -8 144 4 0 41 -19 82 -41z"/>
<path d="M24428 17650 c-244 -41 -424 -172 -528 -383 -76 -153 -75 -264 2 -426 74 -154 178 -233 320 -239 94 -5 153 13 226 68 29 22 56 40 60 40 16 0 119 -118 142 -164 32 -63 91 -123 143 -147 89 -40 220 -17 298 53 33 29 149 189 177 243 57 113 70 266 33 385 -24 75 -134 280 -192 358 -77 102 -202 178 -342 208 -72 15 -259 17 -339 4z"/>
<path d="M22657 16940 c-143 -26 -265 -80 -387 -170 -101 -76 -191 -174 -388 -423 -47 -59 -137 -247 -164 -342 -26 -92 -31 -272 -10 -363 39 -171 181 -307 373 -357 84 -22 222 -16 300 14 136 52 210 131 290 311 28 63 66 143 85 178 33 59 37 62 72 62 52 0 146 25 212 57 111 53 280 263 331 411 23 67 25 172 4 260 -43 180 -158 293 -352 343 -88 23 -289 33 -366 19z"/>
<path d="M27720 13993 c-429 -42 -828 -174 -1236 -409 -547 -315 -1100 -868 -1487 -1486 -74 -119 -182 -317 -175 -323 2 -3 17 21 34 52 16 32 74 125 129 208 344 518 780 977 1225 1289 481 338 1103 583 1675 660 l100 14 -115 -1 c-63 0 -131 -2 -150 -4z"/>
<path d="M28325 11710 c48 -214 57 -281 89 -667 5 -56 -1 -63 -53 -63 -47 0 -173 -40 -245 -78 -38 -20 -92 -57 -121 -84 -29 -26 -57 -48 -61 -48 -12 1 -219 202 -288 280 l-57 65 47 -80 c52 -89 148 -231 196 -287 l30 -37 -21 -29 c-24 -34 -64 -52 -179 -82 -198 -50 -425 -44 -617 16 -137 44 -316 141 -394 213 -18 18 -35 30 -37 28 -7 -7 102 -153 166 -221 151 -161 349 -272 599 -336 109 -28 308 -66 416 -81 50 -7 107 -20 127 -31 21 -10 44 -18 53 -18 38 0 4 -38 -124 -135 -114 -87 -223 -156 -316 -203 l-90 -44 64 7 c115 12 249 52 325 97 81 48 170 128 218 198 l33 48 142 -1 c78 -1 139 -5 137 -9 -11 -18 222 101 278 142 72 53 138 138 168 218 29 74 31 186 6 264 l-18 57 36 32 c71 62 154 240 170 362 5 45 1 39 -58 -80 -74 -147 -152 -273 -170 -273 -7 0 -29 18 -50 39 -21 22 -65 51 -97 66 -56 25 -59 28 -59 61 0 56 -29 181 -64 284 -28 80 -142 348 -176 415 -9 18 -10 17 -5 -5z"/>
<path d="M67380 50257 c0 -17 458 -335 614 -426 217 -127 500 -251 711 -310 146 -41 424 -96 613 -121 665 -88 1571 -14 2259 184 199 57 273 98 273 150 0 24 -41 56 -72 56 -16 0 -185 -22 -376 -50 -834 -119 -1174 -145 -1825 -137 -462 5 -525 10 -857 67 -465 80 -803 222 -1232 517 -60 40 -108 72 -108 70z"/>
<path d="M71810 48518 c-91 -61 -352 -189 -515 -254 -221 -87 -597 -204 -1040 -325 -740 -202 -928 -263 -1138 -371 -124 -63 -231 -161 -242 -221 -19 -99 50 -166 232 -226 244 -82 662 -125 973 -102 421 32 699 119 1038 325 105 65 192 119 192 120 0 1 -64 -30 -142 -69 -316 -158 -702 -259 -1091 -286 -381 -27 -843 30 -1045 129 -60 29 -87 61 -77 91 12 40 114 119 217 169 191 93 384 156 955 312 824 225 1188 358 1490 541 85 52 300 225 272 218 -2 0 -38 -23 -79 -51z"/>
<path d="M71645 46578 c-97 -301 -190 -512 -320 -726 -340 -563 -832 -1034 -1495 -1432 -199 -119 -210 -127 -210 -151 0 -45 22 -41 335 71 704 250 1458 595 1805 825 198 131 266 210 276 318 l4 52 -20 -56 c-52 -141 -239 -278 -690 -505 -394 -197 -891 -410 -1354 -580 -119 -44 -158 -51 -95 -18 75 38 313 196 439 291 634 474 1115 1106 1296 1701 33 110 53 222 40 222 -4 0 -8 -6 -11 -12z"/>
<path d="M72300 46078 c0 -57 7 -182 15 -278 16 -175 30 -309 125 -1140 124 -1093 196 -1930 240 -2790 19 -382 32 -491 55 -491 18 0 35 97 35 206 0 324 -60 1170 -141 1955 -37 363 -67 626 -169 1445 -44 352 -91 746 -105 875 -33 308 -35 320 -46 320 -5 0 -9 -45 -9 -102z"/>
<path d="M61255 39328 c-33 -4 -97 -12 -142 -19 l-83 -11 -24 -77 c-48 -154 -51 -180 -51 -498 0 -167 -3 -302 -6 -300 -13 5 -108 124 -148 186 -24 38 -41 56 -41 45 0 -35 77 -191 143 -292 l65 -99 -39 -229 c-53 -316 -60 -345 -154 -634 -46 -140 -104 -338 -130 -440 -109 -433 -257 -916 -369 -1207 -82 -213 -208 -559 -240 -658 -31 -99 -47 -190 -82 -463 -27 -216 -37 -339 -44 -557 -8 -254 -21 -412 -51 -654 -18 -148 -39 -241 -110 -488 -111 -390 -118 -425 -159 -881 -17 -185 -42 -425 -55 -532 -13 -107 -29 -271 -35 -365 -30 -474 -87 -825 -186 -1153 -20 -64 -72 -236 -115 -382 -121 -402 -188 -579 -316 -834 -83 -165 -103 -218 -153 -408 -22 -84 -74 -252 -115 -373 -88 -260 -89 -265 -120 -503 -14 -102 -43 -280 -65 -396 -72 -387 -107 -675 -120 -1001 -10 -246 -13 -269 -84 -493 -20 -63 -36 -121 -36 -131 0 -9 -18 -40 -40 -70 -69 -92 -86 -189 -51 -300 36 -115 121 -200 323 -320 47 -29 169 -108 270 -176 580 -392 624 -419 873 -542 137 -67 333 -149 445 -186 l45 -15 2 -68 c13 -408 61 -734 224 -1539 307 -1509 354 -1748 453 -2305 89 -498 126 -708 162 -930 19 -124 49 -301 65 -395 136 -797 172 -999 185 -1055 8 -36 37 -170 64 -298 l50 -234 -20 -58 c-11 -32 -33 -167 -50 -302 -56 -454 -132 -675 -310 -913 -210 -279 -689 -669 -1180 -960 -63 -38 -143 -85 -178 -106 -176 -104 -668 -334 -887 -413 -157 -57 -187 -62 -245 -41 -149 56 -154 57 -272 59 l-117 2 -29 39 c-74 100 -217 192 -383 245 -233 75 -749 89 -1065 29 -167 -32 -271 -75 -377 -156 -115 -89 -211 -236 -224 -343 l-6 -50 -95 -45 c-231 -109 -400 -263 -448 -408 -27 -83 -17 -244 21 -317 19 -38 72 -80 98 -80 12 0 48 18 80 39 l58 39 -34 6 c-60 11 -87 60 -89 162 -2 103 55 177 203 265 187 112 448 185 989 278 129 22 285 50 345 61 61 11 125 20 143 20 45 0 40 16 -15 40 -130 58 -239 79 -433 87 -210 7 -434 -24 -644 -91 -96 -30 -99 -18 -17 62 154 151 313 195 691 194 489 -2 716 -39 959 -158 142 -70 195 -82 245 -55 23 13 32 13 74 -1 26 -9 62 -20 79 -23 56 -11 46 -23 -39 -49 -234 -71 -435 -115 -573 -126 -76 -6 -140 -12 -142 -14 -2 -2 41 -6 94 -10 54 -3 170 -16 258 -27 183 -24 377 -22 620 6 307 35 677 152 1029 325 548 270 1117 674 1481 1051 339 351 479 691 502 1216 3 82 10 139 14 130 5 -7 18 -56 29 -108 12 -51 22 -94 23 -95 10 -10 -4 843 -16 1046 -42 668 -170 1616 -352 2605 -153 834 -282 1410 -566 2545 -179 711 -286 1170 -274 1170 3 0 52 -13 110 -30 571 -160 1668 -320 2395 -350 350 -14 513 -12 695 9 88 10 164 16 168 14 5 -3 6 -141 2 -307 -9 -364 10 -2149 30 -2951 16 -628 44 -1255 75 -1730 23 -337 65 -881 80 -1025 6 -52 19 -187 30 -300 89 -933 246 -1954 341 -2215 11 -33 33 -105 49 -159 15 -55 31 -101 36 -103 22 -7 -3 961 -31 1197 -3 25 -14 164 -25 310 -20 273 -44 560 -104 1255 -20 220 -38 436 -41 480 -3 44 -10 123 -15 175 -6 52 -19 221 -30 375 -11 154 -24 339 -30 410 -21 281 -82 1270 -100 1610 -5 110 -12 223 -15 250 -3 28 -14 201 -25 385 -21 352 -52 806 -95 1375 -14 187 -36 482 -49 655 -13 173 -21 318 -17 322 3 4 49 14 101 22 74 12 98 13 107 3 7 -7 39 -76 72 -154 78 -185 122 -268 231 -438 87 -135 146 -248 390 -750 207 -428 338 -666 510 -925 154 -233 201 -359 220 -589 6 -69 15 -167 20 -218 21 -221 135 -329 542 -514 337 -152 595 -241 868 -298 30 -7 105 -22 165 -36 61 -13 180 -35 265 -49 401 -67 506 -63 810 29 139 42 198 55 567 125 240 45 288 60 644 205 l66 27 80 -83 c482 -508 716 -787 920 -1094 131 -198 277 -465 353 -649 l42 -100 -13 -105 c-13 -115 -8 -319 16 -736 92 -1544 -7 -2597 -360 -3840 -74 -259 -238 -773 -332 -1040 -32 -88 -87 -261 -123 -385 l-67 -225 -54 -31 c-75 -44 -131 -112 -190 -229 -149 -300 -195 -875 -99 -1237 92 -349 309 -590 624 -693 104 -34 181 -46 303 -46 222 -1 424 82 573 235 24 25 48 46 52 46 4 0 8 -12 8 -26 0 -55 31 -235 51 -291 41 -121 106 -176 182 -153 36 11 41 10 66 -13 111 -102 297 -177 441 -177 141 0 286 59 382 155 l56 56 62 -12 c71 -14 186 -7 275 16 154 40 349 166 442 285 25 33 48 60 51 60 2 0 22 -18 44 -41 22 -22 70 -55 106 -72 61 -29 76 -32 163 -32 90 0 99 2 171 38 122 60 213 170 264 320 26 75 67 267 60 274 -3 3 -11 -8 -19 -24 -52 -98 -310 -309 -430 -349 -104 -35 -273 -13 -316 42 -24 31 -47 23 -61 -22 -7 -19 -20 -39 -31 -44 -19 -11 -96 -38 -314 -110 -176 -59 -335 -88 -335 -61 0 5 -13 3 -28 -5 -22 -10 -45 -12 -106 -5 -42 5 -79 11 -80 12 -2 2 -9 173 -15 379 -7 206 -16 463 -21 570 -5 107 -12 285 -15 395 -12 381 -39 721 -80 990 -39 256 -43 275 -65 275 -52 0 -78 -796 -61 -1885 10 -695 12 -715 68 -816 15 -26 25 -50 23 -53 -3 -2 -43 -12 -90 -22 -146 -29 -320 -3 -459 70 l-44 23 2 279 c2 267 14 494 46 819 63 651 49 1129 -47 1624 -31 161 -78 253 -78 154 -1 -26 -5 -79 -10 -118 -5 -38 -14 -169 -20 -290 -28 -553 -42 -678 -130 -1132 -54 -274 -89 -489 -97 -592 -5 -64 -11 -88 -25 -100 -18 -16 -193 -87 -298 -121 -259 -84 -581 -44 -730 92 -105 96 -157 235 -191 508 -20 158 -17 566 4 720 18 124 18 125 76 215 39 60 66 91 80 93 23 4 26 12 12 28 -5 5 18 54 61 124 110 183 198 367 327 688 253 629 454 1452 535 2182 41 366 50 550 50 1005 0 465 -12 723 -54 1165 -6 58 -15 152 -20 210 -6 58 -15 139 -20 180 -6 41 -19 152 -31 245 -31 250 -38 301 -45 329 -3 14 -2 26 3 26 6 0 40 -96 76 -212 61 -192 78 -264 105 -423 6 -38 10 5 15 180 8 248 6 306 -24 519 -70 505 -318 1007 -743 1505 -128 151 -378 403 -534 539 -73 63 -129 119 -125 123 5 3 67 32 138 63 72 32 195 92 275 135 80 43 192 102 250 131 167 84 720 316 895 377 270 93 366 137 530 246 98 65 335 260 403 330 35 37 65 61 66 54 2 -7 12 -55 21 -107 69 -377 320 -1120 580 -1715 32 -71 70 -159 85 -195 15 -36 58 -132 95 -215 325 -723 438 -962 536 -1130 57 -96 63 -113 55 -137 -17 -49 3 -71 119 -127 110 -54 164 -98 210 -170 61 -98 105 -263 105 -398 0 -115 -27 -201 -88 -282 -23 -31 -26 -33 -33 -15 -6 15 -8 12 -8 -13 -1 -27 -11 -40 -72 -88 -39 -30 -98 -72 -130 -92 -33 -19 -59 -41 -59 -48 0 -18 100 -37 182 -34 l73 2 -3 -274 c-4 -323 10 -616 44 -899 30 -257 37 -299 129 -825 78 -449 92 -535 109 -685 40 -356 43 -608 11 -845 -23 -172 -27 -319 -12 -480 9 -102 12 -208 8 -330 -9 -279 11 -586 50 -740 19 -77 52 -157 104 -251 65 -116 75 -174 76 -421 1 -196 -4 -212 -85 -320 -103 -136 -207 -203 -313 -203 -74 0 -103 20 -103 73 -1 45 -17 15 -31 -57 -10 -49 -9 -59 14 -109 16 -35 36 -61 56 -73 17 -10 31 -21 31 -25 0 -13 122 -32 177 -26 114 12 255 111 362 256 108 146 129 231 112 459 -22 285 -60 423 -162 589 -42 68 -57 155 -66 383 -4 96 -6 193 -5 215 2 22 4 213 6 425 2 304 6 404 19 475 38 211 46 427 27 700 -24 332 -67 588 -184 1100 -8 33 -22 94 -31 135 -9 41 -23 100 -30 130 -17 72 -112 520 -125 585 -24 125 -69 444 -100 710 -11 94 -25 209 -31 258 -7 48 -10 89 -8 90 2 2 30 19 61 40 100 64 181 189 208 322 18 85 16 255 -4 350 -50 237 -151 413 -296 520 -35 26 -61 59 -104 135 -93 163 -208 391 -307 605 -50 110 -105 229 -121 265 -336 728 -604 1337 -709 1610 -33 85 -65 166 -70 180 -68 160 -247 693 -282 838 -4 17 18 65 79 175 181 324 256 506 323 777 78 321 86 386 86 735 0 325 -10 416 -51 498 -28 55 -145 239 -189 297 -58 76 -56 72 -40 126 50 167 52 464 3 562 -30 60 -77 86 -129 72 -48 -13 -105 -77 -254 -280 -147 -202 -346 -407 -476 -493 -164 -108 -305 -156 -466 -158 -52 -1 -97 1 -101 5 -14 14 290 297 528 491 362 295 441 376 601 610 86 126 106 168 118 245 12 73 0 143 -50 293 -64 193 -136 335 -277 542 -53 79 -54 81 -47 134 17 132 78 271 235 531 148 245 218 383 264 520 63 191 71 264 71 635 0 476 -13 543 -192 1000 -90 228 -105 288 -133 510 -23 183 -39 271 -71 386 -40 145 -42 163 -43 459 0 285 0 299 26 420 36 163 126 504 244 920 212 745 258 920 318 1200 98 455 146 870 146 1245 0 162 -13 414 -26 520 l-6 50 -125 59 c-69 33 -172 90 -229 127 -57 38 -105 65 -107 61 -3 -4 -5 -43 -6 -87 -2 -108 -18 -337 -37 -520 -57 -556 -161 -1004 -467 -2015 -213 -705 -330 -1139 -372 -1386 -23 -134 -28 -194 -40 -473 l-5 -125 -39 -51 c-190 -252 -615 -630 -918 -818 -263 -162 -563 -267 -762 -267 -100 1 -267 28 -362 60 -122 41 -321 144 -434 225 -188 135 -502 444 -671 661 -191 244 -282 386 -350 546 -15 37 -29 66 -31 64 -4 -4 98 -305 136 -401 41 -103 110 -260 134 -305 124 -226 287 -473 390 -591 270 -308 565 -499 876 -569 113 -25 319 -27 442 -5 338 63 674 270 1059 655 190 189 349 378 468 554 l67 98 8 -133 c7 -102 18 -170 47 -284 21 -82 43 -193 50 -245 48 -393 71 -489 192 -794 49 -126 98 -259 108 -295 50 -182 83 -455 84 -701 1 -225 -5 -253 -131 -569 -217 -548 -270 -779 -227 -988 19 -93 52 -161 148 -302 82 -123 150 -249 171 -318 l14 -48 -52 -80 c-68 -104 -126 -170 -355 -403 -269 -273 -371 -418 -558 -788 -79 -155 -87 -177 -92 -242 -11 -162 77 -230 326 -251 297 -25 570 87 844 348 107 101 226 238 305 349 40 56 49 63 51 44 6 -42 -37 -182 -89 -284 -28 -57 -108 -188 -177 -293 -102 -155 -144 -209 -229 -293 -57 -57 -90 -96 -74 -85 16 10 96 58 178 107 81 50 175 110 208 135 88 66 184 167 235 249 25 39 48 71 53 71 4 1 7 -16 7 -37 0 -70 21 -155 57 -226 l35 -70 -5 -191 c-4 -170 -8 -202 -34 -305 -57 -217 -203 -551 -339 -775 -241 -397 -309 -480 -526 -642 -226 -169 -311 -213 -603 -313 -127 -43 -318 -116 -424 -161 l-192 -82 -72 29 c-40 15 -162 67 -273 115 -110 48 -233 98 -272 113 -69 25 -304 119 -562 226 -451 187 -909 421 -1305 668 -591 368 -1126 841 -1516 1342 -214 274 -407 632 -410 762 l-1 33 -9 -30 c-14 -43 -3 -183 25 -305 31 -137 89 -288 186 -485 503 -1019 1471 -1848 2800 -2397 249 -103 693 -243 853 -270 37 -6 67 -14 67 -17 0 -16 -349 -190 -570 -284 -135 -58 -297 -129 -360 -157 -191 -87 -292 -117 -614 -185 -183 -38 -324 -77 -475 -130 -168 -60 -210 -66 -450 -65 -203 0 -465 16 -661 40 -343 42 -854 199 -1011 311 l-31 22 6 166 c8 196 -2 290 -70 636 -84 424 -186 802 -304 1125 -111 302 -337 766 -480 985 -86 132 -191 329 -205 386 -6 22 -1 27 45 49 51 24 97 62 55 46 -29 -11 -125 -30 -129 -25 -18 23 -159 310 -154 315 4 3 80 21 170 39 235 48 528 121 497 124 -3 1 -66 -9 -140 -21 -166 -27 -563 -33 -578 -9 -12 18 -18 67 -41 341 -40 463 -58 589 -141 986 -72 344 -179 938 -213 1182 -37 258 -49 530 -43 922 4 184 11 693 16 1130 5 437 15 950 21 1140 8 216 13 1045 14 2215 2 1411 5 1906 15 2018 7 82 11 151 8 153 -6 6 -46 -232 -67 -401 -31 -250 -91 -1137 -120 -1760 -6 -126 -17 -347 -25 -490 -8 -143 -22 -384 -30 -535 -20 -354 -45 -659 -100 -1210 -56 -565 -62 -636 -80 -970 -24 -434 -34 -577 -60 -860 -67 -726 -68 -1050 -9 -1610 14 -129 32 -298 40 -375 31 -297 108 -1331 120 -1617 6 -143 5 -168 -7 -168 -19 0 -161 31 -319 70 -69 17 -170 40 -225 51 -124 25 -294 65 -327 78 -48 18 -234 176 -397 335 -495 487 -894 1013 -1214 1601 -168 309 -317 680 -351 873 -4 23 -2 32 8 32 25 0 198 -192 404 -448 437 -542 708 -837 997 -1084 143 -122 154 -127 74 -38 -36 41 -100 118 -141 170 -132 166 -309 383 -434 531 -66 79 -232 279 -370 444 -360 434 -494 562 -564 540 -106 -34 -70 -253 111 -680 320 -758 927 -1587 1587 -2168 23 -20 36 -37 28 -37 -15 0 -302 89 -501 155 -198 66 -409 150 -695 276 -321 142 -795 400 -1180 642 -128 81 -659 436 -900 603 -321 222 -400 264 -400 216 0 -32 312 -328 610 -578 934 -785 1766 -1283 2670 -1599 111 -39 137 -46 350 -101 153 -40 474 -105 630 -129 58 -8 207 -18 333 -22 l227 -6 0 -64 c0 -53 -3 -63 -17 -63 -10 0 -101 18 -203 39 -102 22 -273 51 -380 66 -107 15 -249 35 -315 46 -158 26 -230 36 -415 60 -154 19 -191 25 -530 74 -1081 158 -1619 287 -2052 493 -167 79 -272 141 -593 352 -321 210 -384 249 -532 324 -62 31 -114 60 -117 64 -2 4 11 66 29 137 42 167 55 274 55 461 0 278 30 545 110 994 27 151 59 349 70 440 24 193 30 216 110 460 34 102 81 259 105 350 54 201 58 214 129 364 109 229 217 519 295 795 45 158 174 653 190 726 45 211 82 476 105 755 9 102 20 235 26 295 11 127 129 837 160 970 56 235 134 486 287 915 184 519 199 578 243 945 23 195 101 644 131 755 11 41 41 126 66 190 25 63 64 169 88 235 24 66 62 170 85 230 172 450 348 1109 420 1573 41 269 43 560 5 853 -9 67 -14 123 -12 126 3 2 40 -35 83 -83 201 -221 529 -497 834 -701 1064 -711 2614 -1272 4234 -1533 1060 -171 2222 -223 3120 -140 260 24 549 62 696 91 242 47 671 164 673 184 1 6 -37 41 -83 78 -84 68 -86 69 -135 64 -49 -4 -49 -4 -25 11 143 91 172 245 68 358 -42 46 -108 74 -173 74 -17 0 -73 -21 -124 -46 -117 -58 -409 -154 -588 -193 -499 -109 -926 -147 -1571 -138 -505 7 -800 29 -1352 103 -788 104 -2157 394 -2855 604 -648 194 -1126 395 -1272 535 -78 75 -39 -9 45 -97 30 -32 51 -58 47 -58 -17 0 -476 240 -620 325 -373 218 -702 459 -953 700 l-62 60 10 315 c12 404 28 489 132 693 28 54 49 99 47 101 -2 1 -31 -1 -64 -6z"/>
<path d="M64183 35515 c8 -17 46 -73 83 -125 372 -523 844 -859 1484 -1056 422 -131 985 -192 1520 -165 420 21 872 102 1483 266 97 26 176 50 174 51 -2 2 -71 -10 -153 -26 -382 -78 -702 -121 -1034 -140 -225 -12 -749 -13 -920 0 -583 42 -938 108 -1325 246 -153 54 -464 212 -615 312 -242 159 -460 354 -620 553 -99 124 -96 122 -77 84z"/>
<path d="M61720 35390 c-31 -1099 191 -2552 536 -3506 223 -620 488 -979 782 -1059 166 -46 329 37 411 208 57 119 75 226 73 427 -2 96 -6 200 -11 230 l-9 55 -1 -72 c-3 -168 -42 -331 -113 -463 -91 -172 -192 -216 -338 -147 -338 161 -668 849 -960 2002 -201 794 -318 1540 -359 2285 l-8 145 -3 -105z"/>
<path d="M71975 34733 c-180 -409 -373 -670 -850 -1149 -709 -712 -1202 -1063 -2188 -1555 -286 -143 -314 -159 -393 -221 -64 -50 -94 -96 -94 -144 0 -48 80 -115 177 -147 306 -101 708 -27 1203 224 565 285 1064 680 1390 1099 62 80 120 154 129 165 9 11 -27 -21 -79 -70 -86 -82 -136 -123 -374 -304 -39 -30 -136 -100 -216 -156 -80 -55 -180 -127 -222 -158 -318 -235 -850 -546 -1106 -646 -117 -45 -319 -99 -421 -112 -176 -22 -375 15 -428 80 -48 57 55 143 272 224 39 15 165 60 280 101 642 226 1120 501 1630 937 151 129 514 492 664 664 367 419 577 749 684 1071 26 78 47 148 47 157 0 12 -39 47 -53 47 -3 0 -26 -48 -52 -107z"/>
<path d="M63227 29164 c-21 -114 -69 -214 -140 -290 -117 -126 -267 -168 -459 -129 -94 20 -107 25 -267 104 -155 76 -200 84 -246 41 -56 -53 -81 -176 -72 -363 12 -274 102 -482 356 -827 65 -89 374 -458 489 -584 30 -33 70 -84 90 -114 20 -30 38 -50 39 -45 4 12 -90 234 -123 291 -35 59 -132 187 -283 372 -272 332 -375 495 -434 686 -34 108 -50 257 -38 359 11 93 18 115 36 115 8 0 63 -29 123 -65 251 -151 493 -190 670 -110 108 49 212 193 251 347 18 69 40 298 29 298 -3 0 -13 -39 -21 -86z"/>
<path d="M68190 26260 c-214 -20 -483 -81 -660 -151 -388 -154 -589 -402 -536 -658 44 -209 175 -350 771 -828 501 -401 664 -507 895 -581 131 -43 193 -52 345 -52 213 0 413 42 785 165 124 40 265 86 313 100 49 15 87 29 84 31 -3 3 -56 -2 -118 -10 -187 -26 -480 -46 -663 -46 -482 0 -759 71 -1071 277 -238 157 -762 581 -961 778 -131 130 -174 196 -174 271 0 114 122 229 342 323 186 80 545 153 938 190 63 7 167 18 230 26 230 29 438 49 580 54 122 5 137 8 95 14 -114 19 -223 40 -275 52 -30 7 -102 19 -160 25 -58 6 -141 16 -184 21 -91 10 -451 10 -576 -1z"/>
<path d="M66276 24075 c21 -100 100 -267 188 -395 74 -108 177 -223 311 -348 458 -425 1243 -779 2085 -942 368 -71 494 -86 829 -101 357 -16 562 3 961 88 l175 38 -265 6 c-146 3 -299 11 -340 17 -77 11 -178 23 -360 43 -129 14 -286 35 -405 55 -49 8 -120 19 -157 24 -397 54 -949 186 -1313 315 -295 104 -645 267 -877 408 -362 219 -680 518 -802 752 -22 43 -33 58 -30 40z"/>
<path d="M70964 18125 c5 -140 66 -234 191 -296 71 -35 224 -69 310 -69 185 0 403 74 563 192 77 57 178 155 169 164 -4 4 -35 -2 -70 -13 -34 -12 -100 -33 -147 -46 -47 -14 -132 -39 -190 -56 -162 -47 -279 -65 -425 -65 -249 1 -360 65 -395 227 -8 36 -9 30 -6 -38z"/>
<path d="M61894 18005 c-5 -27 -9 -99 -8 -160 0 -90 4 -121 23 -169 58 -147 190 -289 340 -364 117 -59 188 -76 316 -77 129 0 191 16 278 72 62 40 77 69 30 56 -16 -5 -84 -8 -153 -7 -143 1 -228 20 -370 83 -159 69 -277 168 -350 291 -41 70 -64 137 -84 252 l-13 73 -9 -50z"/>
<path d="M71217 17295 c29 -53 120 -99 243 -121 77 -14 107 -15 179 -6 81 10 231 57 231 72 0 3 -89 12 -197 19 -411 27 -433 29 -450 42 -15 13 -15 12 -6 -6z"/>
<path d="M62020 16823 c0 -47 57 -104 124 -123 84 -23 231 0 301 47 18 12 15 13 -25 13 -51 0 -358 74 -374 90 -18 18 -26 11 -26 -27z"/>
<path d="M64387 15200 c-20 -113 -40 -387 -39 -545 1 -182 11 -304 37 -475 28 -186 48 -479 42 -635 -10 -270 -61 -395 -236 -578 -71 -74 -204 -182 -296 -239 -137 -86 -462 -227 -619 -269 -113 -31 -226 -41 -314 -29 -101 14 -142 18 -117 13 11 -3 25 -8 30 -12 6 -4 48 -23 95 -41 47 -18 89 -37 95 -42 5 -4 -36 -8 -93 -8 -55 0 -168 -10 -249 -21 -126 -18 -175 -21 -328 -15 -199 6 -503 29 -689 51 -67 8 -239 22 -384 32 -218 14 -285 15 -390 5 -211 -19 -396 -72 -615 -176 -230 -110 -372 -200 -647 -411 -102 -78 -216 -163 -254 -188 -259 -174 -545 -246 -861 -218 -285 26 -503 104 -693 248 -92 70 -211 198 -219 234 -6 34 -33 28 -33 -7 0 -72 89 -221 204 -342 147 -155 317 -254 516 -300 25 -6 66 -16 92 -21 85 -20 310 -31 409 -20 125 12 148 16 259 46 181 47 310 115 598 313 474 325 859 515 1154 566 77 14 136 15 348 10 316 -8 622 -20 938 -37 286 -15 379 -8 602 47 124 30 169 36 315 43 183 7 213 15 254 67 20 26 21 26 73 13 122 -30 326 -4 484 62 278 116 568 379 702 637 102 195 125 435 78 801 -15 112 -47 308 -72 435 -63 322 -110 589 -129 736 -42 313 -41 307 -48 270z"/>
<path d="M62960 15166 c0 -20 122 -223 186 -311 98 -132 114 -163 114 -211 0 -60 -38 -123 -126 -211 -144 -145 -289 -221 -440 -230 -217 -14 -365 110 -410 345 -17 88 -18 225 -3 254 9 17 8 19 -8 16 -35 -6 -57 -74 -61 -194 -4 -99 -1 -123 22 -206 61 -212 189 -339 383 -378 129 -26 307 21 428 113 175 133 293 314 303 462 4 66 2 80 -25 137 -36 78 -163 237 -272 341 -75 71 -91 84 -91 73z"/>
<path d="M77570 13974 c19 -2 85 -9 145 -15 61 -6 558 -66 1105 -134 2419 -302 3242 -380 4850 -460 484 -24 1952 -40 2380 -26 492 17 1014 30 1275 33 121 1 189 3 150 5 -559 21 -822 35 -1355 73 -151 11 -421 26 -600 35 -179 9 -512 27 -740 41 -543 32 -710 41 -1095 59 -437 21 -583 30 -1820 110 -543 35 -1235 88 -2275 175 -991 82 -1269 99 -1710 104 -190 3 -329 3 -310 0z"/>
<path d="M56645 13765 c-181 -29 -325 -77 -505 -171 -191 -99 -421 -283 -540 -430 -104 -130 -130 -214 -130 -429 0 -240 29 -341 118 -412 26 -20 51 -40 55 -43 4 -4 1 -46 -8 -95 -19 -113 -19 -300 1 -405 52 -277 233 -554 463 -710 87 -58 223 -116 322 -136 100 -20 313 -15 403 10 262 73 495 246 651 483 43 65 94 137 113 161 19 23 32 45 30 48 -3 3 -34 -17 -69 -43 -35 -26 -89 -59 -119 -72 -30 -13 -107 -48 -170 -77 -240 -109 -419 -154 -615 -154 -292 1 -532 145 -664 400 -47 90 -68 160 -77 260 l-7 74 33 -28 c43 -36 74 -48 128 -48 63 0 127 47 268 196 106 113 125 128 170 142 58 16 76 33 99 87 19 46 19 70 0 135 -25 82 -140 196 -218 216 -91 22 -141 -111 -71 -193 l25 -31 -79 -98 c-93 -114 -201 -217 -239 -227 -20 -5 -32 0 -55 22 -33 31 -32 65 2 95 14 11 16 18 8 21 -20 6 49 138 121 234 98 130 232 240 345 282 30 11 108 27 173 36 65 8 134 20 153 25 19 6 50 10 67 10 42 0 42 12 1 33 -18 9 -51 27 -73 40 -129 76 -337 103 -455 59 -145 -53 -227 -105 -337 -212 -92 -90 -180 -206 -224 -296 -32 -65 -32 -65 -52 -46 -28 29 -34 80 -27 242 8 173 17 198 118 300 228 231 490 372 817 438 115 24 499 61 835 81 84 5 105 9 105 21 0 9 -48 41 -115 77 -151 83 -184 97 -255 112 -33 8 -76 17 -95 22 -51 13 -332 9 -425 -6z"/>
<path d="M53805 13464 c-33 -8 -181 -35 -330 -59 -717 -117 -1203 -262 -1875 -560 -696 -309 -1632 -853 -1930 -1123 -120 -108 -133 -228 -36 -309 70 -57 115 -65 389 -71 272 -5 481 6 857 44 356 35 399 41 1565 204 834 117 1474 169 1705 141 106 -13 175 -39 184 -69 18 -55 -66 -155 -269 -325 -240 -200 -295 -266 -295 -350 0 -65 38 -111 125 -152 113 -52 312 -89 845 -160 431 -57 657 -90 1125 -165 784 -125 1079 -162 1535 -195 457 -32 668 -36 1190 -25 468 9 909 26 917 33 2 2 -151 7 -339 10 -366 7 -619 18 -948 42 -113 8 -337 24 -498 35 -776 53 -1528 152 -2975 390 -507 84 -790 151 -827 195 -21 25 17 71 233 287 264 264 301 325 259 421 -68 154 -364 205 -1117 194 -626 -10 -985 -39 -2040 -166 -521 -63 -856 -93 -1175 -106 l-145 -6 40 37 c69 63 273 212 450 329 578 381 1201 690 1983 984 256 96 428 155 1075 366 229 75 417 138 417 141 0 7 -32 3 -95 -12z"/>
<path d="M73033 12290 c-65 -178 -104 -448 -104 -712 0 -255 30 -374 179 -708 145 -327 173 -420 197 -650 26 -259 76 -360 180 -360 37 0 50 6 79 35 48 48 66 114 66 244 -1 264 -60 462 -265 891 -147 308 -162 352 -200 605 -8 55 -23 156 -34 225 -18 119 -27 185 -55 415 l-12 100 -31 -85z"/>
<path d="M72306 12108 c-39 -138 -50 -551 -21 -793 32 -269 143 -752 250 -1085 8 -25 30 -113 49 -197 19 -83 45 -174 57 -202 56 -132 185 -157 239 -47 28 58 25 114 -11 264 -31 128 -37 149 -134 457 -176 559 -235 801 -290 1180 -47 326 -83 475 -115 475 -5 0 -16 -24 -24 -52z"/>
<path d="M36080 12027 c-3 -3 -903 -8 -2000 -11 -1097 -3 -2047 -8 -2110 -11 -63 -3 -245 -10 -405 -16 -727 -26 -1009 -79 -969 -182 23 -62 238 -108 734 -156 674 -66 1322 -93 2408 -98 708 -4 942 -2 1235 12 348 15 1170 58 1367 71 139 9 1868 181 2050 204 508 64 1251 135 1700 162 25 2 -133 1 -350 -1 -368 -3 -2294 12 -3240 26 -228 3 -417 3 -420 0z"/>
<path d="M70183 11269 c-52 -7 -73 -24 -73 -60 0 -55 32 -69 243 -100 235 -34 257 -45 291 -138 10 -28 21 -51 25 -51 10 0 37 58 45 97 5 20 2 53 -8 87 -27 92 -108 145 -246 161 -76 9 -226 11 -277 4z"/>
<path d="M70779 10903 c-110 -168 -290 -330 -413 -374 -70 -24 -113 -24 -153 0 -69 43 -154 180 -182 296 -16 63 -27 78 -51 65 -44 -24 -53 -147 -17 -250 46 -136 133 -259 215 -307 63 -37 170 -39 257 -4 154 62 335 223 401 357 43 87 53 158 34 243 -7 31 -16 59 -20 64 -3 4 -35 -37 -71 -90z"/>
<path d="M31110 10165 c63 -29 262 -84 380 -104 277 -49 373 -53 1520 -62 597 -4 1101 -11 1120 -13 19 -3 89 -10 155 -17 326 -30 537 -92 681 -200 56 -41 94 -105 94 -155 -1 -106 -125 -220 -535 -494 -288 -192 -452 -323 -475 -380 -10 -25 -10 -34 5 -56 23 -36 70 -53 167 -60 111 -8 1858 13 2173 26 580 25 1222 75 1805 141 496 56 1325 157 1298 158 -14 1 -212 -15 -440 -34 -227 -19 -530 -44 -673 -55 -143 -11 -330 -27 -415 -35 -229 -21 -1000 -82 -1265 -99 -626 -42 -896 -50 -1590 -50 -680 0 -901 8 -973 35 l-27 11 58 54 c65 60 200 154 377 259 401 240 538 369 557 524 22 186 -249 359 -707 451 -444 90 -801 110 -1955 110 -979 1 -1111 6 -1340 55 -29 6 -28 5 5 -10z"/>
<path d="M66455 9753 c15 -15 225 -105 365 -156 213 -79 387 -132 1265 -389 437 -127 861 -281 1088 -394 101 -50 103 -48 13 11 -191 123 -505 285 -721 370 -363 143 -835 278 -1580 450 -149 35 -374 94 -420 111 -13 4 -17 4 -10 -3z"/>
<path d="M77125 9744 c22 -9 117 -48 210 -86 94 -38 325 -139 515 -223 190 -84 451 -199 580 -255 129 -56 395 -173 590 -260 353 -157 615 -265 1330 -545 554 -217 1198 -450 2020 -730 1326 -452 1726 -605 1961 -750 60 -37 119 -95 119 -117 0 -24 -119 -80 -240 -112 -376 -101 -1103 -181 -2675 -296 -188 -14 -1236 -82 -1835 -120 -1149 -72 -1880 -123 -3580 -250 -1449 -107 -2118 -150 -2880 -185 -1445 -64 -2671 -35 -3590 86 -967 127 -1805 401 -2077 681 -152 155 -151 319 4 723 140 365 165 446 181 575 25 207 -64 368 -282 508 -373 239 -1322 483 -2811 721 -741 119 -1400 204 -2730 351 -924 102 -1149 140 -1230 208 l-20 17 20 -24 c24 -28 108 -71 195 -99 223 -72 510 -125 1429 -263 1416 -212 1973 -302 2751 -444 855 -156 1407 -278 1860 -410 426 -124 636 -238 707 -383 24 -49 28 -68 27 -137 -1 -114 -43 -229 -164 -460 -257 -487 -298 -604 -271 -780 59 -378 555 -676 1530 -920 679 -170 1496 -270 2576 -316 342 -14 1388 -15 1820 0 813 28 1750 82 2775 161 140 11 433 33 650 50 217 16 690 52 1050 79 360 28 878 66 1150 86 2740 196 3487 261 4265 371 808 114 1286 240 1472 388 68 54 103 117 103 186 0 98 -58 174 -213 278 -286 191 -827 413 -2552 1049 -231 85 -555 206 -720 268 -165 63 -482 180 -705 260 -223 81 -553 202 -735 269 -325 121 -1678 574 -2275 762 -321 101 -370 115 -305 88z"/>
<path d="M60395 8453 c-396 -26 -796 -68 -1376 -143 -408 -53 -679 -84 -819 -95 -99 -8 -120 -17 -120 -50 0 -40 50 -49 223 -41 156 7 239 13 942 70 1145 94 1744 108 2325 56 1002 -90 1603 -393 1726 -870 27 -103 23 -280 -9 -410 -27 -112 -61 -209 -96 -278 -37 -73 -14 -45 38 46 102 179 144 307 157 477 25 346 -217 680 -655 904 -342 174 -826 289 -1396 331 -126 9 -815 11 -940 3z"/>
<path d="M69564 7681 c-34 -32 -117 -103 -185 -158 -211 -171 -282 -261 -282 -359 0 -41 6 -63 26 -93 96 -145 347 -180 1712 -241 1694 -75 2955 -73 4065 5 915 65 1797 189 2380 334 151 38 297 72 323 76 87 13 41 17 -75 6 -62 -6 -223 -15 -358 -20 -298 -11 -707 -40 -1220 -86 -1576 -142 -2477 -192 -3871 -217 -970 -17 -1652 4 -2215 67 -483 55 -654 107 -654 199 0 69 83 198 209 326 116 117 215 220 210 220 -2 -1 -32 -27 -65 -59z"/>
</g>
</svg>