<?xml version="1.0" encoding="UTF-8" standalone="no"?>
<!DOCTYPE svg PUBLIC "-//W3C//DTD SVG 20010904//EN" "http://www.w3.org/TR/2001/REC-SVG-20010904/DTD/svg10.dtd">
<svg version="1.0" xmlns="http://www.w3.org/2000/svg" width="8677.000000pt" height="6630.000000pt" viewBox="0 0 8677.000000 6630.000000" preserveAspectRatio="xMidYMid meet">
<metadata>
Created by potrace 1.16, written by Peter Selinger 2001-2019
</metadata>
<g transform="translate(0.000000,6630.000000) scale(0.100000,-0.100000)" fill="#000000" stroke="none">
<path d="M42380 64595 c-917 -46 -1758 -114 -2285 -186 -202 -27 -564 -82 -820 -124 -115 -19 -318 -50 -450 -70 -904 -133 -1545 -247 -2240 -396 -3439 -739 -6650 -2001 -9655 -3794 -891 -532 -1920 -1222 -2735 -1834 -3300 -2477 -6087 -5562 -8190 -9066 -2688 -4477 -4224 -9502 -4505 -14745 -28 -519 -32 -671 -37 -1438 -7 -1034 7 -1558 62 -2414 246 -3823 1191 -7609 2775 -11123 331 -735 761 -1595 1143 -2290 1141 -2075 2536 -4056 4095 -5819 97 -109 133 -157 138 -183 8 -44 100 -144 166 -182 32 -18 106 -90 210 -202 1676 -1811 3544 -3415 5631 -4833 176 -120 190 -132 236 -200 139 -205 358 -342 595 -371 43 -6 76 -21 157 -71 56 -34 106 -67 111 -72 5 -5 -15 -24 -48 -46 -31 -21 -54 -39 -52 -41 1 -1 60 -26 130 -55 l128 -53 40 27 40 26 122 -74 c1967 -1184 4140 -2185 6342 -2921 2453 -820 4923 -1327 7547 -1550 l296 -25 2344 0 c2264 0 2353 1 2594 20 4534 367 8898 1683 12859 3878 3137 1738 5928 3975 8356 6697 568 637 1173 1382 1727 2125 377 506 612 842 1076 1535 158 237 380 563 493 725 416 598 850 1272 1145 1777 501 856 785 1450 989 2063 97 290 157 512 201 740 18 91 46 174 135 400 1381 3505 2109 7032 2235 10825 13 408 7 1960 -10 2320 -102 2162 -363 4077 -826 6050 -241 1026 -481 1861 -895 3110 -115 347 -263 797 -330 1002 -202 624 -502 1347 -830 2008 -115 231 -259 510 -320 620 -165 300 -267 491 -422 790 -1277 2460 -2914 4800 -4804 6866 -2118 2316 -4548 4304 -7229 5916 -2167 1303 -4565 2380 -6940 3117 -352 110 -402 127 -660 221 -398 146 -836 290 -1050 344 -556 140 -1000 222 -1505 280 -97 11 -311 45 -475 76 -792 147 -1537 258 -2399 355 -198 22 -495 61 -660 86 -166 24 -373 55 -461 69 -233 35 -319 44 -520 55 -1046 58 -2239 82 -2765 55z m-6185 -1056 c-145 -48 -209 -63 -328 -80 -82 -11 -154 -18 -160 -16 -7 2 49 18 123 35 74 18 218 52 320 76 102 24 194 44 205 44 11 0 -61 -26 -160 -59z m9012 -4000 c383 -32 1044 -145 1698 -290 870 -194 1622 -420 2390 -717 1667 -645 3401 -1656 4895 -2853 l246 -196 50 4 c47 5 52 3 77 -27 19 -22 27 -43 27 -69 0 -36 6 -43 117 -137 449 -382 741 -653 1213 -1130 400 -405 710 -739 1039 -1124 211 -246 206 -243 -75 54 -190 201 -592 592 -864 842 -546 502 -1390 1197 -1985 1635 -1106 815 -2027 1398 -3105 1966 -301 159 -476 248 -518 264 l-25 10 18 -27 c38 -58 -17 -144 -94 -144 -93 0 -142 110 -79 177 12 13 32 23 45 23 13 0 23 4 23 9 0 10 -160 84 -167 78 -6 -7 -154 62 -178 83 -34 29 -276 128 -358 146 -42 9 -77 21 -77 26 0 4 6 8 13 8 22 1 -15 17 -256 115 -1027 415 -2231 781 -3482 1059 -519 115 -850 173 -1097 192 -64 5 -88 10 -88 20 0 11 43 14 234 14 129 0 293 -5 363 -11z m-2347 -240 c215 -9 718 -53 729 -64 2 -3 -144 -5 -325 -5 -636 -1 -1044 -24 -1749 -100 -148 -16 -418 -43 -600 -60 -367 -34 -507 -49 -800 -86 -1113 -139 -2400 -411 -3239 -684 -120 -39 -221 -69 -223 -66 -3 3 -2 9 1 14 7 12 440 197 701 299 846 333 1939 569 3185 687 387 37 824 63 1340 80 150 5 722 -4 980 -15z m-295 -924 c709 -21 1497 -131 2392 -332 248 -55 327 -80 161 -49 -322 59 -926 129 -1388 161 -935 64 -1947 52 -2880 -36 -1233 -115 -2471 -382 -3547 -763 -488 -174 -947 -357 -1266 -507 -163 -77 -197 -89 -197 -70 0 11 316 197 528 311 589 315 1515 645 2487 885 838 207 1526 315 2460 386 307 23 765 28 1250 14z m4715 -280 c413 -48 1401 -444 2320 -930 1344 -710 2412 -1461 3430 -2410 102 -95 196 -185 210 -201 14 -15 -30 23 -98 84 -682 621 -1437 1186 -2415 1808 -103 65 -299 191 -435 278 -330 212 -576 353 -877 501 -264 130 -495 231 -710 310 -71 27 -276 106 -455 176 -419 165 -714 274 -917 338 -150 48 -204 70 -135 57 15 -3 52 -8 82 -11z m-11625 -433 c-6 -5 -239 -136 -520 -292 -704 -391 -994 -565 -1454 -873 -279 -187 -515 -356 -831 -595 -794 -602 -1263 -993 -1955 -1632 -93 -86 -251 -231 -350 -322 -844 -775 -1760 -1781 -2466 -2708 -293 -385 -699 -971 -1004 -1449 -320 -504 -725 -1228 -986 -1766 -192 -397 -251 -519 -266 -558 -9 -21 -17 -36 -20 -34 -9 10 179 463 337 807 230 505 515 1061 825 1616 692 1237 1582 2441 2623 3549 479 509 1425 1435 1776 1738 126 108 570 432 966 704 387 266 1005 635 1593 952 209 113 1714 869 1732 870 6 1 6 -2 0 -7z m17059 -339 c89 -61 323 -221 521 -355 1237 -837 1892 -1364 2705 -2178 878 -877 1596 -1749 2312 -2805 74 -110 158 -236 185 -280 41 -65 603 -1016 621 -1050 18 -35 -29 34 -206 300 -109 165 -257 379 -327 475 -71 96 -196 267 -278 380 -426 583 -967 1271 -1367 1740 -388 453 -686 774 -1117 1201 -603 597 -1020 953 -1803 1537 -958 715 -1057 793 -1265 992 -60 58 -139 132 -175 164 -75 67 -86 74 194 -121z m-9859 114 c107 -112 99 -306 -15 -365 -174 -90 -296 152 -172 341 30 45 65 66 111 67 28 0 42 -8 76 -43z m6275 -100 c156 -68 502 -245 707 -361 185 -106 286 -171 203 -130 -19 9 -114 60 -210 112 -96 52 -350 182 -564 288 -213 106 -391 196 -394 199 -6 6 72 -27 258 -108z m-7518 24 c23 -12 62 -25 86 -31 49 -13 53 -24 13 -44 -16 -9 -50 -40 -76 -71 -95 -110 -336 -258 -425 -259 -89 -2 -142 65 -120 153 29 120 168 233 327 266 81 17 136 13 195 -14z m7637 -302 c17 -6 31 -17 31 -25 0 -15 -27 -111 -89 -314 -23 -74 -44 -143 -47 -152 -5 -16 3 -18 73 -19 159 -1 187 -34 103 -123 -60 -63 -129 -102 -264 -146 -121 -40 -178 -38 -233 7 -81 65 -99 175 -54 323 90 293 317 506 480 449z m-5579 -64 c50 -26 63 -71 36 -124 -30 -57 -110 -68 -157 -22 -46 47 -37 104 24 141 39 24 59 25 97 5z m301 -35 c55 -15 91 -60 97 -119 4 -47 2 -53 -30 -85 -48 -48 -95 -55 -155 -25 -126 65 -98 226 42 238 6 1 26 -4 46 -9z m-5711 -84 c-69 -23 -179 -66 -245 -95 -186 -82 -699 -278 -853 -326 -20 -6 -18 1 22 59 29 42 48 84 56 121 9 45 17 58 41 70 54 29 514 135 646 150 145 17 316 41 383 54 85 17 75 10 -50 -33z m9311 -69 c71 -47 88 -140 44 -235 -14 -30 -25 -61 -25 -70 -1 -15 -2 -14 -11 2 -6 10 -35 29 -64 41 -99 44 -147 140 -110 219 31 66 104 85 166 43z m-2976 -102 c14 -13 25 -35 25 -49 0 -27 -41 -66 -70 -66 -34 0 -70 39 -70 75 0 62 70 86 115 40z m-7381 -52 c-17 -78 -112 -206 -175 -238 -30 -16 -291 -110 -418 -151 -40 -13 -104 -35 -142 -50 -69 -27 -107 -27 -92 0 13 24 142 132 213 180 106 71 295 167 450 227 80 32 151 58 158 58 8 1 10 -7 6 -26z m-15074 -380 c-91 -86 -302 -292 -470 -458 -254 -252 -445 -426 -700 -639 -111 -94 440 441 795 771 187 173 529 482 535 482 3 1 -69 -70 -160 -156z m13905 69 c-6 -5 -131 -80 -280 -167 -297 -173 -581 -355 -829 -528 -89 -62 -249 -170 -356 -240 -107 -69 -278 -185 -380 -256 -102 -72 -286 -195 -410 -275 -398 -256 -920 -625 -1187 -838 -247 -198 -370 -305 -549 -480 -83 -82 -154 -148 -157 -148 -23 0 14 52 185 261 250 306 365 434 600 665 313 308 418 398 798 681 260 194 355 256 615 405 403 231 593 328 975 496 212 94 518 229 680 301 162 71 297 130 300 131 2 0 0 -4 -5 -8z m13975 -18 c0 -27 -156 -196 -242 -262 -40 -31 -106 -84 -147 -119 -41 -35 -80 -63 -87 -63 -16 0 -44 51 -44 81 0 75 68 171 182 254 53 40 185 99 238 108 40 7 100 7 100 1z m-17860 -308 c0 -2 -60 -38 -132 -80 -73 -42 -171 -101 -218 -131 -47 -30 -152 -96 -235 -147 -82 -51 -235 -149 -340 -218 -234 -155 -265 -174 -265 -163 0 11 271 207 505 365 118 80 247 155 425 246 265 137 260 134 260 128z m17987 -105 c10 -16 37 -52 61 -81 48 -59 54 -95 20 -128 -54 -50 -120 -48 -169 4 -32 35 -33 101 -1 141 12 15 30 43 39 61 20 39 26 40 50 3z m-16282 -102 c-363 -182 -903 -493 -1183 -681 -58 -39 -179 -126 -271 -195 -179 -135 -141 -95 80 83 289 232 560 405 954 608 127 65 515 245 530 245 6 0 -44 -27 -110 -60z m5262 -153 c87 -8 214 -18 283 -22 l125 -8 -135 -11 c-74 -7 -155 -15 -180 -19 -25 -4 -99 -16 -165 -26 -153 -24 -625 -76 -820 -90 -431 -31 -562 -43 -683 -60 -127 -18 -162 -18 -162 0 0 17 32 30 190 78 295 90 427 118 775 161 118 14 600 12 772 -3z m7217 -306 c266 -27 449 -60 666 -120 304 -83 440 -132 810 -290 125 -53 777 -396 805 -423 6 -5 -9 0 -32 12 -177 89 -696 273 -1143 406 -85 26 -236 73 -335 105 -99 32 -223 71 -275 85 -52 15 -167 49 -255 75 -88 26 -241 67 -340 90 -99 22 -184 45 -189 50 -16 16 6 30 50 30 24 0 131 -9 238 -20z m5023 -308 c17 -12 39 -22 49 -22 16 0 16 -1 1 -18 -10 -10 -17 -27 -17 -38 0 -28 -46 -92 -80 -109 -60 -31 -140 -13 -166 36 -46 91 24 184 132 176 31 -2 63 -12 81 -25z m398 -274 c57 -26 74 -120 30 -163 -43 -44 -106 -29 -131 32 -19 43 -5 93 33 123 30 23 34 24 68 8z m-22339 -141 c2 -7 -3 -30 -12 -52 -11 -26 -14 -52 -9 -81 5 -38 3 -45 -29 -79 -32 -34 -39 -37 -73 -32 -48 8 -73 38 -73 88 0 42 19 65 110 133 48 37 77 44 86 23z m1039 -243 c-143 -140 -298 -289 -344 -332 -46 -42 -280 -284 -519 -537 -303 -321 -517 -558 -708 -785 -150 -179 -321 -381 -379 -450 -59 -69 -256 -327 -439 -575 -459 -621 -809 -1161 -1154 -1780 -234 -420 -656 -1230 -726 -1393 -19 -42 -93 -212 -166 -377 -162 -364 -372 -917 -469 -1235 -40 -129 -119 -363 -176 -520 -57 -157 -125 -358 -152 -447 -44 -150 -63 -193 -63 -144 0 38 102 549 152 761 227 968 705 2132 1308 3189 694 1217 1457 2257 2409 3282 294 317 960 969 1366 1336 99 89 307 263 315 263 3 -1 -112 -115 -255 -256z m4760 127 c-6 -4 -53 -37 -105 -71 -302 -201 -476 -331 -1090 -819 -154 -122 -652 -547 -810 -690 -175 -159 -534 -510 -703 -689 -218 -230 -260 -283 -132 -167 326 296 624 505 897 632 233 107 292 134 287 129 -2 -2 -35 -26 -74 -52 -38 -26 -110 -80 -160 -120 -308 -251 -405 -331 -521 -431 -71 -61 -181 -155 -244 -208 -63 -54 -206 -180 -317 -281 -111 -101 -206 -184 -210 -184 -5 0 -41 33 -82 74 l-73 73 98 139 c456 650 1029 1263 1582 1692 510 396 835 594 1481 898 181 86 192 90 176 75z m19937 -1256 c376 -383 639 -670 902 -985 1349 -1612 2360 -3266 3044 -4980 407 -1019 696 -2042 876 -3100 117 -688 164 -1172 186 -1925 10 -366 14 -1082 4 -1073 -3 3 -9 77 -15 164 -50 841 -114 1354 -264 2129 -109 559 -195 931 -375 1605 -444 1665 -1123 3258 -2038 4786 -315 526 -793 1244 -1171 1759 -324 441 -933 1228 -1393 1797 -124 154 -142 183 -115 177 8 -2 170 -161 359 -354z m-26388 103 c-261 -269 -688 -762 -894 -1032 -41 -54 -114 -149 -162 -210 -322 -409 -577 -750 -989 -1323 -232 -322 -599 -879 -810 -1230 -198 -328 -389 -687 -509 -955 -79 -176 -52 -96 44 133 307 729 644 1351 1119 2064 114 171 257 375 262 375 2 0 -34 -62 -80 -137 -142 -235 -220 -374 -274 -483 -63 -129 -63 -129 107 155 421 703 524 839 855 1130 81 71 105 97 75 79 -45 -26 -116 -79 -198 -148 -84 -71 -91 -75 -63 -37 80 108 370 458 473 570 126 138 1099 1121 1109 1121 3 0 -26 -33 -65 -72z m24841 -199 c305 -251 504 -421 670 -572 l120 -110 7 44 c18 105 102 179 203 179 187 0 274 -228 135 -354 -35 -31 -91 -56 -129 -56 -7 0 72 -88 177 -195 325 -332 660 -709 919 -1032 l114 -141 54 5 c43 5 60 2 87 -15 59 -37 75 -108 39 -168 l-19 -31 115 -159 c456 -628 785 -1167 1088 -1779 180 -364 314 -668 398 -900 80 -221 259 -756 255 -760 -2 -2 -39 85 -82 193 -107 271 -178 426 -397 867 -272 550 -649 1220 -939 1670 -177 275 -495 733 -604 872 -23 28 -61 80 -86 115 -109 153 -461 583 -684 838 -430 490 -1066 1130 -1511 1520 -181 159 -225 199 -225 207 0 3 8 -1 18 -9 9 -8 134 -111 277 -229z m-22958 -371 c-534 -553 -1099 -1211 -1524 -1773 -136 -180 -390 -439 -525 -535 -43 -30 -78 -59 -78 -63 0 -5 20 8 45 29 25 20 48 34 51 32 3 -3 -41 -59 -97 -124 -373 -436 -658 -918 -849 -1438 -72 -197 -92 -240 -196 -419 -663 -1137 -1193 -2364 -1529 -3542 -99 -347 -219 -835 -285 -1165 -255 -1269 -324 -2627 -193 -3790 3 -30 3 -53 0 -50 -9 9 -65 426 -91 680 -36 350 -44 479 -58 894 -39 1242 143 2572 538 3934 303 1047 764 2144 1316 3132 335 601 948 1519 1302 1950 541 661 1068 1221 1846 1961 398 379 545 518 548 519 2 0 -97 -105 -221 -232z m19990 -109 c53 -25 139 -119 192 -208 21 -36 71 -108 110 -159 39 -50 69 -92 67 -92 -2 0 -55 31 -117 69 -63 37 -139 81 -169 96 -153 78 -255 194 -236 271 12 46 83 57 153 23z m-17177 -253 c-342 -329 -1132 -1035 -1180 -1054 -8 -3 -21 -14 -29 -25 -13 -18 -14 -18 -37 4 -13 12 -24 26 -24 31 0 5 19 27 43 49 70 67 558 474 797 666 124 99 272 219 329 267 58 47 109 86 115 86 6 0 -1 -11 -14 -24z m25386 -141 c82 -24 127 -85 126 -173 -1 -72 -40 -154 -95 -193 -46 -33 -111 -54 -136 -43 -9 4 -55 10 -102 14 -74 5 -92 10 -124 34 -67 51 -92 145 -60 223 22 52 41 71 109 105 95 48 194 60 282 33z m-25376 -190 c14 -8 39 -21 55 -29 l30 -15 -31 -1 c-24 0 -41 -11 -73 -45 -23 -25 -46 -45 -51 -45 -14 0 -50 61 -50 83 0 25 45 67 72 67 13 0 34 -7 48 -15z m-2557 -232 c-5 -68 -26 -134 -52 -157 -9 -9 -31 -18 -48 -22 -25 -5 -34 -1 -52 23 -49 61 3 157 98 183 22 6 43 15 46 20 11 17 12 11 8 -47z m757 -21 c0 -4 -43 -43 -95 -86 -279 -230 -902 -927 -1151 -1288 -141 -205 -261 -422 -294 -535 -15 -48 -41 -58 -61 -21 -39 73 65 329 274 674 28 48 64 107 78 131 48 83 227 337 312 444 47 58 150 171 229 251 118 121 165 160 268 228 132 86 266 156 365 189 67 23 75 24 75 13z m25848 -175 c222 -287 287 -382 520 -758 341 -553 805 -1428 1082 -2044 318 -706 581 -1432 761 -2104 57 -216 162 -668 157 -683 -2 -5 -23 62 -47 149 -196 705 -591 1749 -976 2578 -318 683 -584 1193 -1018 1950 -343 599 -536 934 -560 973 -37 57 -60 105 -48 97 6 -3 64 -75 129 -158z m-24125 12 c13 -20 -91 -172 -235 -346 -63 -76 -143 -180 -177 -230 -34 -51 -73 -100 -86 -109 -59 -38 -120 23 -111 111 6 65 35 131 103 233 53 80 160 196 231 250 34 26 240 113 256 108 5 -1 14 -9 19 -17z m-1657 -419 c-222 -223 -252 -257 -335 -383 -50 -76 -110 -170 -132 -208 -23 -38 -43 -69 -45 -69 -6 0 1 12 83 160 l64 115 -45 -44 c-25 -25 -49 -42 -52 -38 -4 3 45 75 108 159 135 181 151 204 253 373 43 72 108 175 143 230 l65 100 68 -75 69 -75 -244 -245z m26409 125 c1065 -1810 1702 -3158 2174 -4599 56 -170 100 -313 98 -319 -1 -5 -42 114 -91 265 -101 314 -265 757 -394 1068 -80 191 -233 512 -590 1240 -60 124 -167 344 -237 490 -240 501 -667 1313 -982 1870 -126 222 -119 208 -106 195 6 -5 64 -100 128 -210z m928 19 c34 -14 63 -27 65 -29 8 -7 -127 -139 -164 -161 -103 -61 -209 -3 -182 100 13 50 62 89 133 107 54 13 85 9 148 -17z m-3425 -27 c14 -13 22 -32 22 -53 0 -24 -5 -33 -22 -38 -71 -19 -121 4 -137 62 -5 17 -9 32 -8 32 1 0 20 6 41 14 45 16 72 11 104 -17z m-22190 -3 c13 -9 30 -32 39 -52 30 -73 -21 -152 -98 -152 -22 0 -39 -4 -39 -9 0 -22 493 -638 869 -1086 1161 -1383 2338 -2635 4125 -4385 165 -161 311 -307 325 -324 14 -17 -78 68 -204 190 -494 475 -1427 1332 -2165 1989 -1078 959 -1302 1175 -1874 1804 -127 140 -255 281 -285 313 -29 32 -52 61 -50 63 2 2 49 -40 105 -93 436 -420 697 -668 706 -671 5 -2 -55 73 -134 165 -612 720 -1017 1254 -1288 1699 -127 208 -270 462 -270 478 0 23 13 21 35 -3 18 -20 19 -20 31 17 26 75 104 101 172 57z m-1298 -59 c21 -22 22 -27 9 -38 -48 -44 -158 -133 -329 -267 -107 -84 -262 -209 -345 -278 -164 -135 -156 -127 210 219 259 245 416 388 426 389 3 0 16 -11 29 -25z m-1852 -99 c-50 -95 -123 -187 -180 -227 l-31 -22 -18 22 c-40 49 -15 143 53 208 30 29 188 112 214 113 7 0 -11 -42 -38 -94z m2908 -210 c97 -15 124 -25 162 -60 85 -76 67 -223 -34 -282 -66 -39 -120 -41 -200 -9 -38 15 -77 34 -86 42 -16 14 -18 14 -24 -1 -11 -28 4 -86 30 -121 l25 -32 -57 23 c-70 28 -140 86 -159 133 -17 40 -10 112 13 135 8 8 14 19 14 23 0 5 14 22 31 39 17 16 37 42 45 57 20 37 71 67 114 67 19 0 76 -7 126 -14z m-745 -172 c46 -42 145 -129 219 -193 1279 -1100 2431 -2113 3105 -2730 94 -86 197 -178 230 -206 121 -101 701 -620 1090 -975 1604 -1467 1717 -1569 1820 -1653 44 -36 121 -107 172 -159 l92 -93 -20 -85 c-22 -95 -48 -180 -55 -180 -3 0 -129 112 -281 250 -191 173 -304 268 -367 307 -195 123 -908 642 -1176 857 -625 501 -1137 949 -2380 2082 -428 389 -1466 1314 -1773 1578 -31 27 -55 52 -52 54 2 2 55 -38 117 -90 62 -52 262 -215 443 -363 370 -301 894 -738 1490 -1241 499 -421 1033 -865 1320 -1099 121 -99 315 -256 430 -350 228 -186 764 -611 799 -634 11 -8 -72 80 -185 195 -209 213 -401 415 -747 786 -112 120 -231 237 -285 280 -165 131 -953 806 -1346 1153 -1303 1151 -1925 1712 -2214 1995 -216 211 -547 562 -547 580 0 20 18 8 101 -66z m-3684 -281 c-16 -25 -224 -328 -342 -498 -173 -248 -392 -585 -560 -860 -70 -115 -132 -214 -137 -220 -23 -25 37 109 144 325 171 342 341 609 574 900 122 153 357 411 321 353z m30621 -76 c12 -11 33 -39 46 -62 l23 -41 -52 -12 c-75 -18 -93 -15 -126 17 -79 80 26 175 109 98z m-2606 -340 c11 -23 60 -109 108 -192 286 -489 762 -1411 1072 -2075 383 -820 650 -1580 774 -2198 18 -91 20 -94 56 -113 47 -24 83 -72 98 -130 17 -66 2 -112 -62 -201 -10 -13 -7 -55 10 -205 20 -166 25 -191 46 -213 75 -80 57 -169 -44 -220 -57 -29 -175 -59 -260 -66 -125 -10 -210 30 -255 120 -61 122 6 257 142 287 47 11 67 9 161 -10 59 -12 131 -33 161 -47 30 -13 56 -23 58 -20 4 4 -40 231 -58 299 l-10 37 -42 -29 c-159 -109 -337 -22 -337 165 1 78 25 128 90 187 48 43 94 64 172 79 14 3 12 17 -18 123 -52 181 -242 745 -323 958 -213 563 -433 1050 -964 2132 -140 286 -297 615 -349 730 -83 184 -268 633 -268 650 0 16 22 -10 42 -48z m-25452 -218 c0 -12 -105 -130 -260 -293 -131 -138 -399 -450 -495 -576 -204 -269 -390 -602 -412 -737 -13 -78 -28 -46 -27 57 2 79 7 110 34 185 114 317 396 731 711 1042 164 162 210 200 329 277 83 53 120 67 120 45z m38941 -429 c177 -281 264 -421 447 -725 79 -132 146 -243 149 -247 2 -5 2 -8 -1 -8 -2 0 -33 37 -69 83 -36 45 -86 107 -111 137 -26 30 -88 127 -138 215 -50 88 -141 246 -203 350 -61 105 -123 211 -138 236 -33 59 -101 207 -88 194 5 -5 73 -111 152 -235z m-41568 -242 c-4 -7 -55 -86 -113 -175 -204 -314 -315 -490 -406 -638 -50 -82 -127 -206 -171 -275 -140 -218 -546 -906 -616 -1045 -48 -94 -62 -113 -77 -98 -9 8 -3 42 25 143 85 307 165 485 347 775 233 371 445 666 677 944 204 245 372 429 334 369z m2504 -260 c14 -13 23 -33 23 -50 0 -33 -39 -78 -68 -78 -10 0 -27 -7 -38 -15 -10 -8 -22 -15 -25 -15 -3 0 -7 31 -7 69 -1 64 1 72 25 90 33 27 61 26 90 -1z m-15168 -139 c-29 -63 -104 -197 -167 -299 -64 -102 -164 -266 -224 -365 -198 -326 -139 -213 157 305 215 375 278 481 283 476 1 -2 -21 -55 -49 -117z m13905 -111 c-5 -7 -69 -96 -143 -198 -272 -374 -389 -558 -657 -1027 -252 -440 -333 -592 -541 -1013 -268 -542 -399 -837 -615 -1375 -215 -535 -431 -1175 -568 -1675 -80 -297 -91 -330 -107 -330 -23 0 -21 13 77 475 111 524 221 931 360 1340 279 816 616 1540 1067 2294 286 477 471 728 1072 1453 54 65 71 82 55 56z m29979 -1108 c148 -370 238 -628 415 -1176 136 -423 200 -641 311 -1065 167 -641 200 -801 260 -1284 37 -292 53 -569 75 -1275 l4 -145 -18 195 c-68 732 -250 1843 -436 2660 -162 711 -404 1506 -673 2209 -28 74 -51 137 -51 140 1 15 35 -61 113 -259z m-30597 -427 c-341 -728 -691 -1705 -871 -2434 -49 -197 -95 -416 -96 -457 0 -15 -3 -21 -6 -14 -3 7 0 66 7 130 52 518 342 1445 705 2259 80 179 337 704 342 699 2 -1 -35 -84 -81 -183z m26061 -405 c316 -416 451 -626 617 -962 112 -228 197 -423 264 -606 243 -667 342 -1102 431 -1905 31 -283 50 -516 30 -385 -63 425 -136 810 -210 1100 -100 392 -364 1126 -589 1635 -156 353 -387 784 -593 1105 -48 74 -87 140 -87 147 0 36 39 0 137 -129z m-28186 -800 c-24 -118 -92 -645 -136 -1048 -129 -1203 -221 -2588 -275 -4140 -6 -162 -14 -412 -20 -555 -29 -802 -33 -971 -28 -1315 5 -361 5 -369 -8 -215 -44 548 -49 699 -48 1400 0 669 9 1039 39 1675 71 1474 254 3362 381 3927 44 198 129 441 95 271z m12384 -1023 c-116 -31 -126 -41 -175 -160 -109 -268 -174 -530 -192 -775 l-3 -35 -43 60 c-36 50 -42 65 -37 90 4 17 20 93 35 170 l29 140 -25 26 c-17 18 -24 36 -24 66 0 23 5 45 10 48 6 3 10 -2 10 -11 0 -35 14 -3 21 49 12 89 29 141 42 128 19 -19 25 -12 32 45 5 44 14 64 39 92 30 32 40 36 102 43 38 4 87 14 109 22 22 8 58 15 80 15 l40 1 -50 -14z m227 -93 c43 -20 78 -40 78 -43 0 -3 -10 -10 -22 -16 -13 -6 -46 -29 -74 -51 l-51 -40 -66 -199 c-37 -110 -90 -283 -117 -384 -47 -170 -121 -513 -134 -619 -14 -113 127 365 219 747 36 148 73 290 82 317 25 77 115 160 207 190 43 15 58 15 118 4 l68 -12 1 -61 c0 -33 4 -82 9 -110 7 -47 7 -44 9 35 2 103 8 130 30 130 21 0 57 -61 66 -112 8 -42 -20 -147 -41 -155 -7 -2 -28 0 -47 5 l-34 10 -43 -157 c-52 -189 -133 -439 -229 -703 -88 -246 -117 -344 -124 -433 l-7 -70 36 63 c108 191 309 840 350 1135 17 121 20 128 39 121 11 -3 39 -9 62 -11 39 -5 43 -3 59 29 11 19 20 66 24 113 l5 80 24 -60 c75 -194 79 -453 11 -810 -15 -82 -28 -144 -29 -137 -1 6 -5 12 -11 12 -15 0 -12 -67 5 -130 20 -74 19 -100 -2 -100 -10 0 -35 -5 -55 -11 -42 -11 -51 -37 -18 -46 19 -5 16 -9 -21 -41 -48 -42 -78 -101 -79 -155 l0 -39 59 79 c53 72 129 148 139 139 2 -3 1 -29 -3 -60 -5 -40 -12 -56 -22 -56 -44 0 -110 -75 -101 -116 2 -11 12 -9 43 13 48 32 123 39 170 15 123 -63 270 -188 354 -301 101 -137 157 -263 200 -454 14 -65 30 -119 36 -120 18 -4 26 76 16 149 -21 144 -86 309 -174 439 -90 133 -223 243 -364 301 l-68 28 -1 105 c-1 91 -6 120 -33 201 l-32 96 25 88 c14 48 33 143 42 210 9 66 18 127 20 134 8 28 88 -34 151 -116 52 -68 69 -102 113 -224 29 -78 59 -156 68 -173 25 -50 136 -235 196 -328 32 -48 69 -116 83 -150 14 -34 33 -75 43 -92 10 -16 34 -82 53 -145 46 -149 55 -261 32 -386 -37 -198 -55 -323 -55 -390 0 -39 -11 -130 -24 -201 -24 -125 -53 -354 -58 -458 -2 -40 -8 -20 -25 95 l-22 145 7 -225 c11 -367 6 -581 -27 -1034 -45 -612 -94 -1009 -146 -1175 -13 -42 -30 -101 -39 -131 -21 -75 -101 -454 -120 -565 -32 -195 -74 -626 -86 -905 -6 -124 -13 -232 -15 -240 -2 -8 -9 -62 -14 -120 -9 -95 -19 -131 -106 -373 -52 -147 -98 -287 -101 -311 -8 -54 17 -111 57 -131 41 -22 101 -19 133 6 25 20 26 20 26 1 0 -38 50 -212 91 -314 82 -208 248 -525 456 -873 269 -449 554 -892 749 -1161 l123 -171 -15 -48 c-27 -91 -14 -207 37 -312 32 -68 180 -213 249 -245 65 -31 142 -48 210 -48 46 0 54 -4 106 -51 30 -27 61 -48 67 -46 8 3 11 23 9 54 l-2 50 37 6 c29 5 47 1 81 -18 52 -29 53 -29 46 -11 -4 11 5 12 48 5 64 -10 156 3 247 36 36 13 92 33 125 45 36 13 76 20 105 18 l46 -3 7 -69 c52 -526 486 -1094 1054 -1379 188 -94 384 -153 607 -182 512 -66 873 77 1130 446 90 130 124 219 157 419 24 144 66 266 99 287 11 7 25 31 32 53 l12 40 62 0 63 0 40 -52 c23 -29 101 -112 174 -184 103 -102 164 -152 273 -224 77 -51 176 -121 220 -155 44 -34 103 -77 130 -95 28 -18 103 -74 169 -123 65 -49 168 -123 230 -164 61 -42 145 -103 187 -136 72 -56 81 -69 164 -214 l88 -154 103 -417 c57 -229 133 -550 169 -712 36 -162 86 -381 111 -486 l45 -190 -3 -735 -3 -734 28 -135 c16 -74 61 -286 102 -470 165 -752 242 -1228 295 -1828 10 -122 27 -250 38 -292 13 -47 22 -125 26 -210 7 -162 36 -442 76 -733 39 -289 38 -280 55 -562 36 -600 52 -1261 71 -2864 l6 -524 -21 -16 c-23 -18 -24 -8 12 -176 35 -161 46 -415 27 -665 -18 -253 -60 -395 -195 -667 l-106 -212 -9 -108 c-22 -245 -91 -398 -209 -458 -25 -12 -61 -42 -80 -65 l-33 -42 7 -154 c5 -106 4 -154 -3 -154 -6 0 -14 17 -18 38 -29 165 -39 197 -63 200 -13 2 -27 0 -31 -5 -4 -4 -4 -55 1 -113 4 -57 6 -106 4 -108 -2 -2 -23 -8 -47 -13 -24 -5 -50 -12 -59 -15 -12 -3 -26 17 -55 78 -35 74 -39 92 -39 158 l0 75 83 154 c73 135 86 166 102 250 10 53 28 134 39 181 18 73 20 114 19 270 -2 159 2 213 26 380 37 247 40 471 11 693 -19 146 -19 148 -32 110 -8 -21 -29 -115 -48 -210 -30 -150 -111 -440 -134 -482 -14 -24 -31 134 -31 287 0 341 37 861 60 847 4 -3 14 -43 21 -90 7 -47 15 -85 19 -85 16 0 20 81 6 109 -8 15 -20 49 -27 75 -16 64 6 121 68 176 l45 39 -17 128 c-65 502 -290 1834 -376 2228 -5 22 -16 124 -24 228 -10 124 -22 205 -34 240 -24 66 -25 71 -55 263 -14 88 -39 229 -55 312 -26 133 -37 166 -89 274 -72 149 -93 210 -132 398 -68 319 -192 1166 -226 1529 -14 161 -42 401 -69 608 -9 66 -27 134 -50 194 -38 100 -78 277 -95 429 -6 52 -22 158 -35 235 -29 172 -52 371 -60 530 -14 279 -35 465 -62 548 l-26 82 12 175 c7 96 14 191 17 210 3 28 -1 22 -19 -25 l-22 -60 -5 160 c-6 157 -6 161 -42 240 -20 44 -41 98 -47 120 -6 22 -28 95 -50 162 -22 67 -47 159 -56 205 -17 83 -55 221 -61 215 -1 -1 8 -68 22 -147 19 -109 35 -168 66 -240 26 -62 44 -121 50 -169 5 -41 15 -100 22 -132 11 -44 13 -120 8 -328 l-5 -270 -56 -54 c-57 -56 -132 -111 -190 -141 -32 -17 -35 -16 -157 25 l-124 43 -158 -12 c-86 -7 -260 -25 -387 -41 -126 -16 -295 -35 -375 -41 -80 -6 -181 -16 -225 -21 -72 -10 -80 -9 -93 8 -13 17 -14 17 -8 -3 5 -16 0 -23 -19 -32 -33 -15 -33 -54 0 -81 14 -11 85 -40 158 -64 73 -25 218 -75 323 -111 216 -73 336 -106 509 -136 66 -12 156 -33 200 -47 163 -52 342 -41 450 28 l45 29 0 -95 c0 -53 -11 -191 -25 -308 -30 -258 -46 -575 -38 -745 4 -96 1 -148 -11 -211 -23 -119 -21 -354 4 -496 11 -60 27 -162 35 -225 9 -63 24 -168 34 -233 l18 -118 -29 -37 c-62 -77 -84 -154 -58 -201 8 -16 -7 -30 -103 -98 -498 -354 -870 -536 -1298 -637 -262 -62 -540 -95 -864 -103 -923 -22 -1639 219 -2040 687 -100 116 -213 289 -289 442 -36 72 -66 137 -66 144 0 7 9 16 21 19 27 9 59 62 59 99 0 95 -177 872 -304 1335 -161 584 -226 907 -226 1124 0 98 -11 59 -20 -75 -17 -230 10 -424 144 -1028 86 -388 122 -580 151 -788 19 -142 19 -141 -3 -135 -35 9 -40 -15 -32 -177 19 -379 118 -701 311 -1012 144 -233 381 -464 640 -625 243 -151 572 -278 904 -347 425 -88 945 -103 1413 -40 63 9 116 13 118 11 3 -2 -40 -26 -93 -52 -1050 -512 -1998 -511 -2763 5 -277 187 -496 416 -688 720 -77 123 -192 346 -192 373 0 10 10 33 23 50 20 30 22 46 28 222 4 113 11 206 19 230 l13 40 7 -33 c12 -51 17 -48 24 15 4 31 14 66 24 77 9 11 11 16 4 12 -10 -6 -11 -1 -6 21 26 106 90 263 113 278 6 3 20 -27 32 -70 29 -100 36 -89 9 15 -19 73 -20 89 -9 139 16 74 16 259 1 396 -8 61 -33 196 -57 300 -81 354 -123 590 -130 735 -3 74 -17 250 -30 390 -14 140 -34 356 -45 480 -11 124 -23 254 -27 289 l-6 64 34 -26 c42 -32 55 -37 254 -99 426 -132 543 -149 1080 -158 439 -8 456 -10 619 -60 37 -12 76 -24 85 -27 9 -2 -38 24 -104 59 -114 61 -322 189 -430 266 -107 76 -358 199 -545 265 -175 63 -671 217 -697 217 -7 0 -27 28 -46 63 -19 34 -110 199 -203 367 -264 480 -277 508 -330 710 -71 276 -119 407 -231 631 -116 232 -155 284 -261 339 -34 18 -75 47 -90 65 -15 17 -37 43 -48 57 -40 48 -380 512 -514 703 -177 252 -464 684 -495 745 -15 29 -37 111 -55 200 -16 83 -43 185 -60 228 -29 75 -114 214 -171 280 -16 18 -54 81 -84 140 -30 59 -73 140 -96 181 -34 64 -39 81 -34 115 5 36 4 39 -8 24 -8 -10 -16 -18 -19 -18 -2 0 -66 125 -141 278 -126 255 -233 513 -408 985 -63 168 -112 494 -93 623 l8 59 7 -40 6 -40 2 50 c1 28 8 118 16 200 7 83 19 222 25 310 17 239 57 633 81 780 84 529 271 1183 554 1940 177 475 407 1026 505 1212 82 155 218 531 254 707 32 149 -39 351 -197 562 -93 125 -274 332 -432 494 -104 107 -128 139 -170 220 l-49 95 2 370 c3 355 2 373 -19 445 -12 41 -22 101 -22 133 2 217 176 811 255 870 37 27 131 47 193 41 28 -3 85 -22 127 -42z m-14782 -72 c0 -11 -11 -77 -25 -147 -159 -825 -265 -1939 -265 -2783 0 -703 62 -1570 166 -2340 293 -2170 933 -4464 1784 -6395 925 -2097 2094 -3850 3661 -5485 846 -882 1760 -1687 2804 -2470 434 -325 656 -483 1085 -769 705 -470 1181 -762 1729 -1058 108 -58 231 -125 273 -149 156 -88 830 -424 1063 -529 481 -217 744 -322 1129 -451 122 -40 217 -74 212 -74 -17 0 -801 212 -1013 275 -771 227 -1688 613 -2508 1056 -909 490 -1869 1129 -2790 1855 -180 141 -233 185 -573 472 -705 595 -1386 1252 -1963 1892 -237 264 -495 562 -467 540 4 -3 190 -187 415 -410 794 -789 1522 -1421 2352 -2045 840 -630 1844 -1292 2465 -1626 60 -33 111 -58 112 -56 4 4 -147 103 -436 288 -777 495 -1388 917 -2070 1429 -1159 871 -2136 1765 -3276 2996 -141 152 -189 212 -364 459 -937 1319 -1716 2845 -2362 4625 -709 1955 -1261 4298 -1457 6185 -100 962 -121 1788 -65 2650 50 779 134 1264 361 2068 7 23 23 22 23 -3z m1691 -456 c-71 -496 -112 -1081 -130 -1859 l-7 -310 -8 240 c-14 397 1 907 40 1290 25 257 112 817 121 788 2 -6 -5 -73 -16 -149z m32355 -184 l69 -34 -80 -22 c-168 -47 -314 -17 -275 56 18 34 42 41 131 37 74 -3 96 -8 155 -37z m-30902 -286 c-20 -43 -80 -182 -134 -309 -291 -680 -410 -999 -658 -1755 -182 -552 -246 -793 -383 -1425 -45 -209 -84 -390 -86 -402 -5 -21 -33 -34 -33 -15 0 15 79 462 116 652 174 910 421 1650 909 2715 109 240 297 626 302 622 2 -2 -13 -39 -33 -83z m33005 -130 c11 -14 24 -42 27 -63 10 -49 -10 -198 -39 -295 l-24 -80 -23 145 c-36 233 -37 259 -7 292 32 34 40 34 66 1z m465 -649 c13 -55 27 -109 31 -120 5 -11 -13 11 -39 48 -26 37 -54 86 -62 109 -14 41 -19 172 -7 203 7 20 39 -81 77 -240z m-2263 73 c32 -68 32 -159 1 -243 -13 -33 -25 -67 -28 -75 -3 -9 -18 16 -35 60 -37 95 -39 175 -6 255 12 30 27 55 33 55 6 0 21 -23 35 -52z m1543 -583 c84 -1034 91 -1194 91 -2030 -1 -709 -10 -963 -56 -1550 -185 -2383 -742 -4614 -1623 -6508 -718 -1543 -1643 -2922 -2915 -4347 -291 -325 -990 -1013 -1466 -1441 -357 -322 -1165 -938 -1750 -1334 -310 -211 -1137 -729 -1475 -925 -41 -24 -86 -50 -100 -58 -77 -47 21 22 195 138 719 479 1374 1000 2063 1644 217 202 1163 1161 1435 1455 104 114 278 305 386 426 108 121 259 290 336 375 429 475 804 930 1227 1491 1002 1326 1765 2672 2343 4134 515 1305 911 2830 1109 4277 87 634 127 1054 168 1753 17 284 16 1868 0 2295 -23 575 -25 675 -15 665 6 -5 27 -212 47 -460z m-1634 -442 c36 -57 39 -108 8 -172 -12 -25 -22 -47 -24 -49 -1 -2 -22 2 -45 8 -56 15 -86 43 -100 92 -14 55 15 119 68 147 21 11 44 20 51 21 7 0 26 -21 42 -47z m-19223 -200 c14 -33 30 -95 36 -144 10 -83 10 -89 -17 -163 -15 -42 -29 -76 -30 -76 0 0 -2 51 -2 113 -1 79 -8 135 -22 190 -21 75 -20 137 0 137 5 0 21 -26 35 -57z m-15823 -25 c29 -377 53 -1279 55 -2053 1 -448 6 -602 26 -875 l4 -65 -14 60 c-50 213 -120 703 -137 965 -18 268 -15 1115 5 1510 23 468 26 511 33 521 14 23 23 3 28 -63z m35176 -585 c34 -55 35 -61 35 -153 -1 -67 -6 -108 -19 -140 -10 -25 -25 -70 -34 -101 l-16 -56 -44 86 c-89 176 -92 277 -10 394 29 41 50 34 88 -30z m-46779 -604 c-48 -198 -140 -632 -175 -824 -42 -222 -54 -275 -126 -545 -38 -140 -86 -322 -106 -405 -21 -82 -39 -145 -41 -139 -4 13 85 446 162 789 71 316 146 623 239 987 42 164 76 301 76 304 0 4 2 5 5 2 3 -3 -13 -79 -34 -169z m49691 75 c-4 -32 -51 -415 -78 -639 -74 -612 -159 -948 -329 -1298 l-76 -158 -44 -307 c-111 -774 -248 -1364 -469 -2017 -113 -334 -128 -377 -131 -373 -2 2 10 50 26 108 196 687 324 1449 469 2780 28 256 55 501 61 545 11 91 91 680 120 885 10 74 20 144 21 155 2 11 5 -178 8 -419 l5 -440 33 177 c57 308 159 652 242 818 12 24 45 81 73 127 49 77 75 99 69 56z m-2892 -779 c19 -279 1 -397 -79 -535 -21 -36 -43 -76 -49 -90 -10 -24 -11 -24 -12 10 0 19 -9 55 -20 79 -79 174 -65 374 54 750 25 80 46 155 46 167 0 12 3 31 7 41 10 25 39 -211 53 -422z m14913 -50 c113 -454 283 -1202 275 -1210 -2 -3 -26 78 -53 178 -26 100 -88 322 -136 494 -66 235 -95 359 -119 505 -17 106 -38 228 -46 272 -14 80 -17 113 -10 105 3 -2 43 -157 89 -344z m-48499 -747 c3 -24 8 -117 11 -208 17 -481 121 -1468 211 -2005 44 -264 144 -785 184 -960 123 -539 165 -698 234 -900 45 -131 124 -336 175 -455 50 -117 37 -100 -89 110 -184 309 -354 688 -435 971 -257 891 -363 1832 -335 2959 11 460 15 530 30 530 5 0 11 -19 14 -42z m35681 -814 c-55 -327 -104 -550 -195 -884 -63 -234 -63 -233 -50 -225 13 8 13 8 -13 -60 -21 -54 -26 -60 -55 -63 -29 -3 -34 1 -48 34 -41 97 31 388 259 1044 35 102 84 256 108 342 24 87 45 154 47 149 1 -4 -22 -156 -53 -337z m-2417 -322 c2 -12 -11 -77 -28 -144 -49 -187 -134 -341 -321 -583 -26 -33 -65 -89 -88 -124 -45 -70 -49 -73 -25 -16 9 21 40 135 70 254 47 187 62 232 114 336 52 104 72 132 149 213 92 96 123 111 129 64z m-13864 -377 c-164 -48 -272 -110 -365 -208 -33 -34 -59 -65 -59 -69 0 -4 21 8 47 28 91 70 238 129 395 159 106 20 305 29 383 17 59 -9 58 -10 -47 -11 -132 -1 -221 -18 -365 -69 -118 -42 -223 -104 -283 -168 l-35 -37 55 37 c77 51 84 45 11 -10 -34 -25 -61 -47 -61 -49 0 -2 42 16 93 40 108 51 143 62 132 45 -8 -13 -149 -80 -180 -85 -51 -9 -69 -16 -100 -44 -19 -16 -63 -49 -97 -72 -86 -59 -262 -237 -330 -335 -31 -44 -68 -85 -81 -91 -13 -6 -50 -33 -82 -59 l-59 -47 33 59 c19 32 74 118 122 190 71 105 115 157 220 259 l131 127 -90 -64 c-49 -34 -104 -74 -123 -88 l-33 -24 31 44 c17 25 70 92 118 149 l88 104 -63 -44 c-133 -94 -278 -219 -358 -309 -229 -260 -387 -607 -410 -900 -7 -90 -8 -95 -34 -108 -41 -19 -65 -57 -79 -120 -7 -31 -23 -77 -36 -102 -12 -25 -34 -77 -47 -115 l-25 -70 6 60 c3 33 14 85 25 115 11 30 33 93 50 140 28 77 31 98 34 220 3 172 31 287 113 460 32 69 66 148 76 175 10 28 40 94 68 148 61 119 89 145 297 281 85 56 205 137 265 180 61 43 137 91 170 108 148 75 445 172 540 176 11 1 -17 -10 -61 -23z m681 -20 c91 -34 269 -120 282 -136 8 -11 63 -162 63 -176 0 -2 -7 -3 -15 -3 -8 0 -21 13 -29 29 -55 106 -236 242 -401 302 l-50 18 45 -6 c25 -3 72 -16 105 -28z m-21506 -158 c4 -174 94 -907 111 -907 7 0 30 108 49 230 8 48 9 50 10 17 2 -59 20 -173 43 -262 49 -198 88 -738 59 -842 -15 -56 -60 -93 -112 -93 -87 0 -106 31 -125 208 -75 706 -84 832 -85 1139 -1 230 27 626 42 602 3 -6 7 -47 8 -92z m21119 -222 c56 -23 49 -28 -13 -10 -70 22 -241 19 -340 -4 -82 -20 -223 -76 -285 -114 -75 -45 -189 -134 -275 -215 -83 -77 -170 -140 -180 -130 -2 2 48 56 112 118 63 63 112 109 108 101 -5 -8 23 10 61 41 77 62 140 101 229 140 73 33 219 75 300 87 89 14 232 7 283 -14z m-829 -339 c-2 -2 -31 -24 -64 -49 -33 -24 -100 -83 -150 -131 -91 -87 -98 -93 -170 -136 l-40 -24 24 33 c37 51 141 152 201 195 64 46 222 135 199 112z m1182 -242 c14 -17 52 -18 80 -3 16 8 30 3 82 -35 95 -67 97 -78 9 -40 -43 19 -101 36 -128 39 l-49 6 36 -14 c58 -22 169 -85 237 -136 66 -48 155 -156 269 -326 80 -120 114 -188 156 -320 63 -195 72 -261 72 -530 0 -261 -16 -440 -46 -518 -11 -26 -19 -64 -19 -85 0 -32 -68 -283 -69 -258 -2 23 -264 -420 -349 -590 -11 -22 -36 -52 -54 -66 -18 -14 -47 -40 -65 -58 -30 -30 -31 -31 -38 -11 -3 12 -10 21 -14 21 -13 0 -49 -44 -62 -75 -12 -29 -13 -28 -20 36 -4 36 -15 95 -25 130 -12 45 -17 94 -15 164 4 174 -46 283 -197 427 -74 71 -165 128 -204 128 -10 0 -50 11 -90 24 -79 26 -319 78 -327 71 -2 -3 3 -13 12 -22 14 -17 11 -18 -56 -21 -93 -3 -164 -24 -257 -74 -111 -59 -211 -139 -259 -208 -40 -57 -81 -150 -81 -185 0 -8 -9 -15 -19 -15 -11 0 -27 -3 -36 -6 -15 -6 -14 -1 4 34 25 49 26 75 5 96 -37 37 -99 4 -156 -82 -15 -22 -17 -20 -51 80 -20 57 -41 120 -46 142 -6 21 -17 46 -26 56 -41 45 -45 460 -6 700 20 126 25 144 62 210 10 19 19 53 19 75 0 22 7 51 15 65 30 53 44 91 65 177 12 48 46 140 75 203 29 63 83 183 119 265 72 163 69 158 232 296 156 132 167 139 245 160 100 26 251 49 324 49 33 0 114 -9 180 -20 82 -14 162 -20 254 -19 l133 2 -4 41 -5 41 38 -3 c21 -2 43 -10 50 -18z m13509 -957 c-72 -537 -175 -977 -357 -1532 -451 -1372 -1114 -2489 -2398 -4035 -997 -1200 -1994 -2240 -2885 -3006 -239 -205 -808 -677 -955 -793 -47 -37 48 53 310 290 404 367 659 614 1101 1065 721 737 1265 1329 1875 2044 1601 1874 2434 3189 2912 4596 124 364 179 573 336 1269 38 171 73 326 77 345 7 28 9 31 12 12 2 -12 -11 -127 -28 -255z m-1506 53 c86 -375 -172 -1142 -596 -1773 -90 -134 -243 -312 -441 -512 l-178 -180 111 145 c349 458 702 1114 853 1585 47 145 68 230 117 467 34 165 73 302 96 340 11 18 23 -5 38 -72z m-14006 -46 c24 -42 65 -165 77 -229 l7 -40 -24 35 c-13 19 -36 41 -51 50 -27 14 -29 14 -48 -9 -15 -18 -19 -38 -18 -95 1 -73 8 -65 24 27 3 23 11 37 18 35 7 -2 27 -34 46 -72 28 -55 33 -71 23 -84 -33 -46 -35 -65 -13 -139 12 -40 21 -78 21 -85 0 -7 -14 -33 -30 -57 -31 -46 -38 -79 -19 -98 12 -12 2 -133 -11 -133 -11 0 -65 86 -91 145 -28 62 -48 139 -50 185 -1 33 -2 32 -11 -13 -19 -88 42 -272 117 -356 l33 -36 -17 -127 -16 -127 -37 102 c-20 56 -58 192 -85 302 -45 186 -48 209 -47 320 1 66 7 161 13 210 14 110 55 285 76 325 15 28 16 29 52 16 27 -9 45 -25 61 -52z m-16650 -235 c24 -57 88 -203 142 -324 144 -324 211 -495 289 -741 38 -120 73 -228 76 -239 10 -30 -22 23 -136 221 -109 192 -123 218 -204 419 -52 129 -235 718 -235 757 0 43 27 7 68 -93z m19859 -344 c23 -67 35 -115 29 -115 -2 0 -17 7 -32 15 -33 17 -84 19 -131 6 l-33 -9 29 56 c15 31 38 83 51 115 l23 58 21 -33 c12 -18 32 -60 43 -93z m11487 62 c18 -25 19 -32 9 -80 -14 -62 -99 -217 -120 -217 -13 0 -14 23 -11 144 3 126 5 147 22 165 27 30 73 24 100 -12z m-11456 -257 c6 -85 -16 -198 -58 -294 -62 -139 -110 -210 -174 -251 -30 -19 -64 -51 -77 -72 -35 -56 -180 -198 -229 -223 -23 -12 -43 -20 -45 -18 -2 2 10 59 26 128 16 69 31 151 35 183 4 31 10 57 15 57 4 0 11 17 14 38 24 141 95 290 183 384 88 93 141 119 237 116 l70 -3 3 -45z m14083 -230 c3 -129 -8 -287 -20 -295 -12 -7 -33 199 -26 251 29 236 41 247 46 44z m-35894 121 c70 -56 189 -260 213 -368 15 -66 4 -218 -17 -239 -20 -20 -57 -18 -77 4 -9 11 -35 25 -58 31 -59 18 -165 126 -206 211 -82 169 -77 334 10 378 34 17 102 8 135 -17z m19988 -488 c41 -31 73 -59 71 -61 -4 -3 -251 32 -306 44 -21 5 -12 11 55 39 44 18 86 33 93 34 7 0 47 -25 87 -56z m-290 -97 c44 -8 159 -26 255 -41 181 -28 210 -36 210 -60 0 -8 9 -20 20 -28 11 -8 39 -43 61 -78 23 -35 60 -86 82 -112 22 -26 46 -65 53 -85 8 -23 13 -30 14 -17 0 11 7 31 15 45 14 24 14 23 15 -30 0 -30 3 -93 6 -140 l7 -85 -23 28 c-29 36 -57 32 -86 -11 -13 -18 -25 -28 -28 -23 -11 18 -67 23 -116 10 l-50 -13 -36 35 c-30 30 -42 34 -85 34 -45 0 -54 -4 -85 -37 -19 -21 -38 -57 -45 -82 -9 -38 -16 -47 -45 -56 -37 -12 -54 -7 -54 16 0 53 -78 138 -138 150 -21 4 -39 18 -56 44 -25 39 -95 80 -134 80 -15 0 -26 10 -35 33 -17 40 -38 58 -80 66 -30 6 -32 10 -37 58 -3 29 -13 60 -23 71 -17 19 -15 21 90 100 138 102 202 142 227 142 12 0 57 -6 101 -14z m13155 -306 c-28 -111 -98 -208 -229 -319 l-52 -43 14 38 c8 22 24 80 36 129 30 121 77 204 165 288 l71 68 3 -58 c2 -32 -2 -78 -8 -103z m-14160 -440 c18 -36 59 -96 91 -135 33 -38 76 -95 97 -125 101 -149 128 -182 172 -210 51 -33 69 -38 50 -15 -10 12 -10 15 3 15 9 0 25 -14 37 -30 21 -30 158 -128 229 -164 45 -24 166 -32 238 -17 55 12 61 11 109 -13 72 -36 177 -51 262 -36 37 6 97 15 133 19 74 9 138 46 186 106 23 28 35 35 64 35 44 0 97 33 162 103 l49 52 -48 -70 c-26 -38 -74 -98 -108 -133 l-61 -64 80 51 c44 28 108 79 142 115 59 60 169 136 198 136 8 0 11 7 8 18 -2 10 2 24 10 31 13 10 17 4 27 -38 16 -66 60 -133 112 -171 l43 -31 1 -72 c1 -56 -5 -87 -26 -142 -15 -38 -42 -135 -60 -214 -17 -80 -40 -166 -50 -191 -62 -157 -221 -343 -387 -451 -151 -98 -320 -142 -543 -142 -475 0 -900 192 -1291 582 -199 198 -336 393 -430 610 -41 96 -84 234 -95 306 l-6 45 78 0 c44 0 85 -4 92 -9 8 -5 18 -42 23 -87 35 -294 174 -560 419 -804 317 -316 780 -494 1240 -477 211 8 350 41 510 123 219 112 348 262 400 465 26 97 25 106 -4 38 -57 -139 -189 -294 -330 -387 -165 -107 -342 -161 -567 -169 -660 -26 -1267 346 -1555 953 -38 80 -81 216 -98 311 -6 35 -8 34 74 48 53 8 137 61 170 107 51 70 64 135 51 250 -18 156 -14 163 28 48 21 -58 52 -134 71 -170z m-16957 4 c129 -230 154 -280 287 -564 87 -188 214 -418 330 -600 104 -164 102 -160 97 -160 -3 0 -31 33 -62 73 -61 76 -82 99 -73 82 3 -5 42 -75 88 -154 667 -1166 1471 -2262 2429 -3311 247 -271 855 -881 1111 -1115 329 -301 693 -612 1042 -892 92 -74 170 -138 173 -144 4 -5 -45 22 -107 59 -404 245 -751 504 -1033 771 -132 125 -338 344 -385 410 -13 19 -26 29 -28 23 -17 -52 336 -432 613 -662 272 -224 601 -450 881 -605 87 -49 177 -98 200 -111 43 -24 145 -97 444 -315 615 -451 1583 -1083 2370 -1549 124 -73 329 -195 455 -270 576 -343 1257 -711 1880 -1016 105 -52 187 -94 184 -94 -10 0 -701 284 -977 402 -437 185 -1094 490 -1372 635 -451 235 -1160 643 -1560 896 -2007 1273 -3538 2663 -4857 4407 -811 1073 -1421 2093 -1921 3215 -44 99 -141 317 -216 484 -152 341 -154 345 -135 339 8 -3 72 -108 142 -234z m33634 -334 c-6 -98 -35 -156 -90 -185 l-38 -20 -25 28 c-53 62 -18 158 81 219 33 20 64 37 69 37 5 1 6 -34 3 -79z m-34917 -668 c48 -49 61 -123 35 -210 -35 -118 -144 -123 -196 -8 -67 147 60 319 161 218z m31424 -463 c-239 -695 -711 -1483 -1275 -2129 -257 -294 -676 -702 -974 -950 -162 -135 -648 -491 -900 -659 -63 -42 -50 -29 105 104 202 175 325 290 685 642 783 764 1281 1315 1641 1813 294 407 422 634 734 1305 53 113 45 52 -16 -126z m-27813 140 c56 -25 66 -45 50 -105 -12 -45 -43 -90 -86 -126 -47 -39 -70 -48 -125 -48 -46 0 -56 4 -86 34 -29 29 -34 41 -34 83 0 79 47 133 149 169 51 18 75 17 132 -7z m30823 -208 c-7 -89 -68 -206 -120 -230 -76 -34 -154 11 -154 89 0 107 98 182 241 186 l36 1 -3 -46z m-30604 -359 c14 -10 33 -35 44 -56 48 -97 -51 -202 -158 -166 -77 25 -109 138 -56 195 51 56 116 66 170 27z m30005 -263 c-385 -818 -973 -1690 -1837 -2721 -390 -466 -891 -1012 -1171 -1275 -163 -154 -568 -518 -636 -573 -178 -143 -664 -492 -981 -704 -221 -148 -231 -154 -160 -89 156 142 644 625 796 788 88 93 461 471 829 840 1097 1099 1502 1530 2022 2150 488 583 937 1226 1164 1669 35 68 65 123 67 121 2 -1 -40 -94 -93 -206z m-29115 -157 c345 -461 996 -1216 1475 -1711 202 -208 947 -933 1188 -1156 131 -121 289 -266 350 -323 128 -118 213 -182 423 -318 82 -53 151 -98 154 -101 3 -3 -49 23 -115 57 -66 35 -113 56 -105 48 8 -9 94 -80 190 -158 217 -176 237 -196 90 -88 -63 46 -209 153 -325 238 -115 85 -241 173 -280 196 -485 285 -615 369 -833 537 -242 186 -364 288 -531 446 -192 182 -323 324 -494 539 -277 346 -321 412 -274 412 6 0 99 -87 206 -192 259 -255 520 -499 451 -422 -30 34 -117 127 -192 208 -366 389 -821 936 -1105 1328 -72 99 -381 555 -417 616 -4 7 -2 12 6 11 7 0 69 -75 138 -167z m-423 -177 c50 -35 37 -132 -23 -185 -46 -40 -92 -41 -136 -1 -27 24 -33 36 -32 68 3 97 119 168 191 118z m171 -314 c167 -97 213 -164 158 -227 -28 -33 -78 -36 -120 -9 -37 25 -82 92 -96 145 -6 25 -15 60 -20 79 -9 32 -6 51 6 51 3 0 36 -18 72 -39z m-2610 -697 c32 -21 55 -79 48 -120 -20 -104 -148 -134 -214 -49 -28 35 -28 89 -2 133 36 59 109 75 168 36z m26602 -1682 c0 -4 -26 -37 -57 -73 -32 -35 -93 -105 -135 -154 -73 -86 -246 -249 -353 -332 -90 -71 -871 -654 -844 -631 14 13 106 91 205 173 98 83 286 256 419 385 300 293 378 364 574 517 139 109 191 140 191 115z m-42276 -512 c42 -186 90 -447 116 -625 29 -197 80 -592 79 -607 -3 -53 -211 1156 -233 1357 -8 73 -1 48 38 -125z m20116 48 c43 -67 476 -502 635 -638 168 -143 435 -343 595 -443 123 -77 382 -214 438 -232 l23 -7 -27 54 c-14 29 -42 75 -61 102 -41 58 -31 53 66 -33 200 -176 221 -202 221 -264 0 -38 -33 -81 -75 -97 -67 -25 -229 -6 -381 45 -559 188 -1245 885 -1437 1459 -20 58 -34 106 -33 106 1 0 18 -24 36 -52z m2412 -871 c403 -323 1154 -788 1823 -1127 629 -318 1427 -650 2265 -940 140 -49 356 -125 480 -170 124 -45 344 -124 490 -175 239 -84 867 -322 912 -346 14 -8 18 -22 18 -69 0 -33 -4 -60 -8 -60 -24 0 -769 168 -957 216 -518 133 -895 238 -1115 312 -606 205 -941 343 -1445 595 -759 379 -1574 922 -2133 1420 -130 116 -484 460 -452 440 8 -5 63 -48 122 -96z m17627 -484 c-58 -60 -117 -124 -132 -144 -36 -48 -227 -209 -340 -287 -157 -109 -492 -261 -517 -236 -7 7 23 32 92 77 57 36 171 116 253 178 221 165 423 307 525 369 50 30 118 76 153 102 34 26 64 47 66 48 2 0 -43 -48 -100 -107z m-21529 -215 c121 -83 74 -269 -73 -285 -37 -5 -54 -1 -90 20 -102 60 -104 206 -5 267 47 28 125 27 168 -2z m11145 -925 c199 -446 498 -799 890 -1053 443 -286 1002 -419 1555 -370 678 61 1393 348 2069 832 178 128 203 137 111 43 -248 -255 -695 -622 -922 -757 -136 -81 -458 -239 -633 -312 -185 -76 -486 -177 -660 -220 -310 -78 -562 -110 -810 -104 -148 4 -152 4 -286 50 -455 155 -965 450 -1467 850 -138 111 -165 150 -151 223 59 314 223 925 249 925 4 0 28 -48 55 -107z m5478 -67 l31 -68 -38 -74 c-285 -555 -902 -1103 -1671 -1486 -151 -75 -403 -183 -411 -175 -2 2 40 31 93 63 363 219 802 572 1169 938 279 280 473 516 623 761 24 39 66 94 95 123 l51 53 13 -33 c7 -18 28 -64 45 -102z m6890 -48 c28 -15 57 -69 57 -108 0 -40 -29 -93 -59 -109 -11 -6 -40 -14 -64 -17 -37 -5 -47 -2 -74 20 -120 101 1 287 140 214z m-6680 -256 l59 -72 33 -212 c61 -396 72 -532 56 -683 -28 -267 -111 -437 -300 -617 -254 -242 -667 -434 -1238 -577 -362 -90 -560 -106 -699 -57 -65 23 -145 65 -204 109 l-55 40 35 -38 c74 -79 224 -195 304 -234 45 -23 119 -50 166 -62 77 -20 103 -21 295 -16 200 4 216 6 345 40 204 54 359 110 525 192 407 199 696 450 825 719 115 240 133 487 65 921 -6 40 39 -87 72 -200 14 -49 51 -146 83 -215 95 -208 150 -362 150 -423 0 -30 5 -78 11 -108 10 -50 9 -59 -21 -134 -96 -243 -234 -431 -474 -647 -304 -274 -710 -528 -995 -623 -182 -60 -273 -76 -486 -82 -206 -6 -357 8 -510 47 -113 28 -268 107 -333 170 -63 60 -56 40 9 -27 135 -140 350 -216 689 -243 364 -29 742 65 1087 271 256 153 481 325 658 504 171 172 287 349 369 561 24 61 35 81 39 68 6 -20 91 -429 100 -477 2 -15 0 -69 -5 -120 -72 -724 -548 -1298 -1278 -1541 -255 -84 -495 -122 -725 -113 -117 4 -151 9 -210 30 -60 23 -66 23 -45 7 50 -39 207 -109 295 -131 77 -20 114 -23 260 -23 198 1 346 27 548 94 584 195 1037 668 1181 1232 l23 93 6 -45 c4 -25 14 -207 23 -405 48 -1014 -38 -2093 -211 -2674 -54 -182 -90 -273 -161 -412 -68 -133 -127 -211 -238 -317 -69 -65 -108 -92 -179 -127 -51 -24 -109 -47 -130 -51 -21 -3 -36 -9 -33 -11 8 -9 148 18 231 44 202 64 362 184 487 367 50 73 146 273 182 380 44 129 93 343 121 528 36 234 38 245 42 228 1 -8 25 -243 53 -522 33 -330 50 -553 50 -641 0 -79 6 -168 15 -214 10 -53 15 -142 15 -283 0 -194 -2 -212 -30 -327 -174 -714 -601 -1319 -1105 -1567 -197 -97 -360 -139 -540 -138 -125 1 -190 15 -303 67 -93 42 -70 22 39 -35 173 -90 193 -95 389 -94 155 0 186 3 270 26 462 125 875 499 1153 1046 l69 137 -5 -55 c-25 -228 -51 -1160 -43 -1518 l7 -302 -66 -407 c-36 -223 -68 -433 -72 -466 -4 -36 -13 -67 -23 -77 -41 -41 -297 -86 -437 -77 l-81 6 -679 340 -678 339 -100 104 c-121 126 -173 187 -275 322 -135 180 -193 306 -230 504 -11 59 -25 130 -31 159 -14 69 -46 103 -97 103 -54 0 -98 -48 -107 -117 -13 -97 -19 -92 -68 63 -160 504 -294 1238 -502 2739 -47 341 -133 951 -191 1355 -113 779 -117 836 -79 910 24 46 13 90 -34 131 -35 32 -38 40 -44 104 -4 39 -16 164 -27 280 -11 115 -20 232 -20 259 0 27 -3 46 -7 43 -9 -10 -42 -445 -43 -574 0 -67 -6 -135 -15 -170 -11 -42 -15 -104 -14 -223 l1 -165 -60 -165 c-166 -462 -341 -820 -531 -1087 l-33 -47 -38 104 c-44 126 -68 175 -126 257 -126 177 -320 236 -492 149 -90 -46 -222 -213 -288 -366 -55 -127 -67 -215 -61 -429 4 -102 9 -200 13 -218 6 -29 3 -32 -37 -51 -105 -46 -284 -171 -394 -274 -127 -119 -401 -496 -513 -708 -210 -394 -230 -743 -67 -1129 116 -273 371 -669 540 -837 106 -106 230 -155 348 -140 56 8 51 16 100 -162 40 -148 82 -232 124 -252 l32 -15 -122 -63 c-67 -34 -161 -91 -208 -126 l-87 -64 -6 51 c-4 29 -10 57 -14 63 -4 7 -105 -53 -277 -167 -148 -98 -272 -179 -275 -179 -5 0 -17 44 -68 260 -17 69 -33 137 -37 152 l-7 27 69 -6 c75 -6 213 9 291 32 l51 15 -16 48 c-9 26 -19 50 -22 54 -4 5 -51 -3 -105 -17 -70 -18 -125 -25 -191 -25 l-93 0 -6 38 c-3 20 -13 145 -21 277 -9 132 -22 299 -30 370 -8 72 -17 189 -20 260 -5 95 -19 196 -55 375 -63 322 -58 275 -75 605 -24 449 -73 911 -141 1326 l-25 156 21 84 c23 89 27 149 12 190 -8 21 -12 12 -28 -60 -14 -67 -20 -79 -25 -60 -4 13 -26 161 -49 329 -59 437 -86 636 -122 875 l-31 210 7 715 c4 393 9 774 11 845 22 605 38 917 55 1115 16 175 40 397 50 475 21 154 41 293 51 358 l11 67 51 -42 c29 -24 118 -107 199 -185 273 -262 553 -448 873 -581 66 -27 154 -60 195 -72 100 -29 158 -54 260 -112 131 -73 416 -143 668 -163 l82 -7 -32 -42 c-64 -81 -235 -243 -341 -322 -204 -153 -410 -254 -645 -317 -112 -29 -126 -31 -312 -31 -170 0 -205 3 -275 22 -171 47 -313 141 -395 262 -66 97 -93 177 -119 355 -8 54 -9 48 -10 -65 -1 -218 44 -338 183 -476 69 -69 96 -89 186 -132 165 -79 248 -96 470 -97 208 0 304 16 493 82 353 122 712 389 901 669 l68 101 81 7 c45 4 112 13 150 20 90 17 101 6 56 -61 -18 -26 -48 -64 -66 -84 -33 -36 -35 -37 -91 -32 -49 5 -60 2 -76 -15 -14 -17 -17 -29 -11 -59 7 -36 8 -37 18 -15 11 23 23 27 45 13 20 -12 -178 -187 -398 -351 -508 -379 -858 -529 -1151 -491 -51 7 -100 16 -110 22 -11 5 -19 7 -19 4 0 -14 112 -54 183 -66 129 -20 293 3 447 62 267 102 757 431 1044 700 l79 74 44 -50 c63 -71 149 -200 233 -349 l74 -128 -23 -101 c-53 -232 -158 -512 -266 -709 -251 -454 -696 -942 -1053 -1157 -179 -107 -318 -151 -502 -158 -117 -5 -148 -2 -220 16 -101 25 -153 50 -209 97 -72 62 -98 144 -71 221 9 26 9 27 -5 8 -18 -22 -35 -79 -35 -115 0 -14 11 -47 24 -75 90 -193 423 -283 740 -200 246 64 499 228 772 500 516 514 805 1032 844 1515 6 68 12 125 14 127 8 8 47 -87 40 -98 -4 -7 -3 -9 3 -6 12 8 137 -250 186 -383 62 -170 58 -161 51 -105 -9 85 -64 314 -104 435 -96 291 -262 585 -416 736 l-52 51 59 79 c32 44 59 82 59 86 0 4 25 -4 57 -18 31 -14 95 -34 142 -46 74 -17 105 -19 215 -14 398 19 855 203 1356 543 600 409 1065 933 1284 1446 25 59 46 113 46 118 0 22 25 1 83 -69z m-11055 -133 c41 -11 130 -50 205 -91 279 -150 468 -258 568 -325 57 -38 126 -82 152 -98 26 -15 46 -29 44 -31 -2 -2 -29 7 -59 20 -31 14 -114 45 -184 70 -164 57 -430 181 -604 281 -132 76 -330 206 -350 231 -7 7 22 2 72 -12 46 -14 116 -34 156 -45z m1435 -96 c159 -86 289 -148 552 -265 604 -268 1260 -476 1950 -618 189 -39 185 -38 185 -61 0 -15 -5 -18 -22 -15 -13 3 -53 7 -90 11 -205 17 -697 115 -958 190 -573 164 -1021 367 -1607 728 -68 42 -133 83 -145 91 -49 35 1 12 135 -61z m15657 -395 c0 -29 -63 -120 -98 -143 -21 -14 -59 -28 -85 -31 l-47 -7 0 32 c0 39 19 78 54 110 40 38 176 67 176 39z m-20859 -57 c16 -16 29 -37 29 -45 0 -42 739 -463 1210 -689 658 -316 1195 -521 2375 -907 558 -182 920 -309 1225 -429 99 -39 723 -342 717 -348 -2 -1 -50 17 -108 41 -191 78 -676 241 -1124 376 -477 145 -1299 413 -1635 535 -1124 407 -1926 810 -2544 1279 -113 86 -120 89 -165 87 -59 -2 -93 21 -93 64 0 32 32 65 64 65 11 0 33 -13 49 -29z m4952 -12 c57 -29 145 -134 230 -275 13 -22 -173 25 -229 57 -75 43 -124 102 -124 151 0 66 61 99 123 67z m1987 -514 c170 -16 428 -94 615 -186 44 -21 109 -49 145 -62 l65 -22 -189 2 c-377 3 -516 37 -733 179 -89 59 -98 67 -89 90 6 16 2 16 186 -1z m372 -640 c-109 -52 -179 -68 -241 -54 -28 6 -53 15 -57 20 -7 12 78 49 136 59 25 4 88 8 140 9 l94 1 -72 -35z m-5577 -256 c52 -16 88 -34 127 -65 52 -44 117 -120 118 -139 0 -18 -93 -63 -157 -75 -79 -16 -137 -3 -218 49 -60 38 -108 101 -138 180 -11 30 -10 34 12 52 33 27 158 26 256 -2z m822 -244 c76 -20 201 -59 278 -87 129 -47 475 -198 502 -220 6 -5 56 -30 110 -55 62 -28 85 -42 63 -38 -19 3 -78 13 -130 21 -336 54 -582 139 -836 290 -148 88 -160 97 -149 114 9 14 10 14 162 -25z m457 -689 c115 -44 452 -234 666 -376 47 -31 140 -89 208 -130 67 -40 122 -74 122 -76 0 -12 -455 173 -590 241 -129 64 -387 208 -440 245 -14 10 -65 40 -114 68 -51 30 -83 53 -75 56 52 18 126 8 223 -28z m37855 -437 c-80 -228 -247 -678 -259 -698 -10 -18 -3 69 10 129 4 19 53 141 108 270 54 129 121 290 147 357 27 68 50 121 52 119 2 -2 -24 -82 -58 -177z m-29039 -1014 c5 -77 17 -264 25 -415 44 -810 73 -1364 70 -1368 -1 -1 -28 21 -61 50 -32 28 -93 74 -134 100 -41 27 -76 51 -78 53 -2 2 11 47 28 102 42 131 95 351 120 496 29 170 24 185 -9 27 -44 -211 -98 -399 -170 -583 -10 -27 -12 -27 -39 -13 -33 17 -416 146 -435 146 -36 1 -38 17 -8 65 43 68 55 137 48 290 l-5 130 63 85 c236 318 448 763 531 1114 l19 80 12 -110 c7 -60 17 -172 23 -249z m-1133 -637 c32 -35 89 -155 113 -239 13 -43 24 -119 27 -181 6 -104 5 -108 -15 -108 -12 0 -33 16 -52 39 -62 79 -133 101 -198 61 -20 -12 -41 -37 -50 -60 -10 -22 -20 -40 -24 -40 -14 0 -8 213 8 280 8 36 29 90 46 120 39 69 100 149 114 150 6 0 20 -10 31 -22z m-2 -913 c-30 -29 -33 -77 -6 -104 14 -14 41 -20 117 -26 132 -9 244 -29 346 -61 114 -36 288 -126 316 -163 14 -19 28 -28 37 -25 10 4 47 -26 110 -90 52 -52 95 -100 95 -106 0 -5 -24 5 -52 24 -518 330 -1114 344 -1613 36 -196 -121 -415 -323 -509 -472 -10 -15 22 12 71 60 106 105 220 183 408 278 347 175 687 229 1019 163 261 -52 494 -156 753 -336 l92 -63 25 -80 c59 -187 70 -265 70 -540 l1 -255 -37 -78 -37 -78 -78 39 c-250 126 -652 186 -1009 151 -150 -14 -377 -61 -509 -104 -192 -64 -420 -181 -493 -254 -38 -38 -47 -78 -9 -44 77 71 376 171 637 212 332 53 647 48 970 -15 182 -35 410 -112 410 -138 0 -7 -25 -63 -55 -124 l-54 -112 -78 39 c-324 161 -712 201 -1102 115 -222 -50 -439 -144 -641 -279 -62 -41 -115 -75 -119 -75 -12 1 -118 145 -173 235 -119 194 -191 371 -225 555 -24 136 -24 459 1 590 21 107 73 266 116 350 218 431 746 793 1167 799 l62 1 -24 -25z m615 -2299 c135 -28 317 -80 335 -97 11 -11 -72 -100 -125 -133 -19 -13 -84 -48 -145 -80 -90 -46 -126 -59 -199 -71 -125 -20 -187 -60 -238 -153 -12 -24 -29 -34 -70 -47 -72 -21 -211 -45 -266 -45 l-45 0 7 -72 c4 -40 11 -99 17 -132 6 -32 8 -64 6 -71 -7 -18 -106 -71 -195 -105 -41 -17 -77 -29 -78 -27 -2 1 -4 93 -6 205 l-3 202 115 -6 c124 -7 141 0 39 17 -188 30 -454 166 -582 296 l-47 49 92 51 c169 92 351 163 523 204 168 39 267 48 505 45 197 -3 242 -7 360 -30z m679 -703 c18 -32 31 -72 31 -91 0 -41 -2 -41 -139 16 l-93 39 79 45 c43 25 81 46 85 47 3 0 20 -25 37 -56z m-349 -393 c459 -16 600 -27 624 -49 33 -31 107 -61 154 -61 31 0 47 -6 60 -21 58 -72 79 -91 125 -113 70 -33 130 -40 197 -22 40 10 60 11 75 3 18 -9 19 -9 6 6 -12 15 -11 17 4 17 10 0 212 -98 449 -219 237 -120 683 -346 991 -501 308 -155 764 -386 1013 -512 351 -178 457 -228 475 -222 46 15 81 3 277 -96 176 -89 203 -106 215 -134 7 -17 22 -39 32 -48 10 -8 223 -118 473 -243 250 -125 491 -247 535 -270 44 -23 517 -262 1050 -530 534 -268 1016 -512 1072 -541 126 -67 6400 -3202 8540 -4269 1266 -631 1580 -791 1572 -802 -6 -7 -40 -34 -76 -59 -35 -25 -63 -48 -61 -49 2 -2 93 0 203 5 314 15 387 17 425 11 34 -6 33 -7 -175 -162 -1082 -802 -2233 -1544 -3430 -2211 -262 -146 -322 -178 -333 -178 -6 0 -347 161 -759 359 -411 197 -1351 648 -2088 1001 -737 353 -1385 664 -1440 690 -55 26 -158 76 -230 110 -71 34 -170 81 -220 105 -49 24 -179 86 -289 139 -109 53 -200 96 -201 96 -1 0 -103 49 -226 108 -123 60 -282 136 -354 170 -71 35 -926 445 -1900 911 l-1770 849 -37 533 c-20 294 -48 716 -63 939 -26 402 -45 535 -45 312 0 -143 37 -1493 45 -1629 3 -57 2 -103 -2 -103 -4 0 -529 250 -1168 556 -638 307 -1713 822 -2388 1146 l-1229 589 -53 -12 c-29 -6 -90 -10 -136 -7 -95 5 -168 34 -240 94 -38 31 -46 34 -110 34 -38 0 -69 1 -69 3 0 1 -5 88 -10 192 -8 163 -13 200 -34 255 -13 36 -32 100 -41 144 -24 105 -16 289 15 396 16 52 22 99 22 155 -2 140 -52 1548 -58 1600 l-5 50 -57 23 c-31 12 -81 38 -110 57 -30 19 -58 35 -64 35 -6 0 -7 -41 -3 -112 3 -62 21 -547 40 -1078 20 -531 39 -1061 44 -1177 4 -117 4 -234 0 -260 -4 -27 -8 -126 -8 -220 l-1 -172 -32 -17 c-18 -10 -61 -23 -95 -30 -95 -21 -234 -94 -280 -149 -29 -36 -68 -62 -173 -117 -404 -213 -1020 -585 -1632 -986 -440 -288 -714 -475 -1748 -1190 -322 -223 -643 -445 -714 -494 -71 -49 -130 -88 -131 -86 -1 2 -6 20 -11 40 l-9 37 -87 -75 c-70 -60 -88 -81 -88 -102 0 -15 -4 -32 -8 -38 -4 -6 -277 -194 -607 -419 -330 -225 -728 -496 -885 -603 -157 -107 -290 -196 -296 -199 -8 -3 -14 24 -19 81 -4 47 -11 86 -16 86 -4 0 -10 -46 -11 -102 l-3 -101 -345 -234 c-485 -330 -1502 -1008 -1705 -1138 -498 -318 -1061 -656 -1510 -905 -381 -211 -502 -283 -785 -465 -256 -166 -346 -217 -536 -310 -83 -40 -198 -102 -255 -137 -147 -91 -304 -178 -321 -178 -8 0 -194 89 -414 198 -219 108 -613 298 -874 422 -873 412 -1983 978 -2399 1223 -93 55 -93 55 -70 70 21 14 32 14 89 2 217 -47 331 24 208 130 -23 19 -40 37 -37 39 2 2 560 372 1239 821 2236 1481 4116 2726 4695 3110 314 208 741 489 950 625 209 136 589 386 845 555 256 170 616 408 800 530 184 122 598 396 920 610 322 213 810 536 1085 719 275 182 698 462 940 623 242 160 640 424 885 586 245 163 783 520 1195 794 697 463 759 502 881 554 l132 56 6 -50 c8 -55 41 -97 78 -97 l22 0 -22 16 c-25 18 -29 63 -10 127 11 37 17 42 106 83 52 24 96 44 99 44 2 0 -4 -12 -15 -27 -59 -85 -78 -166 -47 -207 14 -19 15 -18 15 15 0 49 42 111 130 192 109 101 257 195 485 309 l204 102 54 -14 c67 -16 109 -8 154 26 33 25 44 27 191 34 222 10 237 10 532 0z m-747 -4732 c4 -68 10 -200 13 -293 l7 -170 -164 -99 c-188 -114 -859 -563 -1154 -771 -110 -78 -389 -275 -620 -437 -231 -162 -561 -394 -733 -516 -277 -197 -1094 -764 -1582 -1099 -96 -66 -512 -348 -925 -628 -1955 -1325 -2432 -1651 -3445 -2360 -685 -480 -2286 -1629 -2330 -1673 -8 -8 26 12 75 45 50 33 270 176 490 318 585 377 757 490 1865 1224 1023 678 1414 936 2375 1567 2108 1386 3075 2040 3990 2703 634 459 1633 1233 2060 1595 55 47 101 80 102 73 1 -7 9 -149 18 -317 9 -168 25 -431 35 -585 11 -154 31 -457 45 -674 14 -217 39 -530 55 -695 36 -362 49 -539 43 -586 -2 -19 -13 -89 -24 -155 l-20 -121 56 -1509 c30 -831 67 -1809 80 -2175 13 -366 40 -1101 60 -1635 20 -533 39 -1044 43 -1135 l7 -165 70 -5 c39 -3 80 -11 92 -18 51 -29 116 -1 143 62 21 47 52 283 71 541 21 282 1 812 -47 1295 -15 152 -62 531 -124 1000 -43 326 -70 581 -70 658 0 73 -11 75 -21 4 l-6 -47 -2 50 c-1 28 -10 282 -21 565 -20 531 -23 626 -16 619 6 -6 71 -497 112 -834 26 -218 32 -255 29 -170 -25 590 -26 674 -13 1525 7 481 12 1021 12 1200 -2 461 -31 1309 -55 1610 -18 226 -25 272 -59 405 -52 198 -76 411 -85 760 -6 184 6 242 57 301 108 122 291 88 363 -68 13 -28 24 -38 40 -38 36 0 86 -21 330 -140 127 -62 298 -145 380 -185 254 -123 490 -238 730 -355 127 -62 284 -138 350 -170 274 -132 702 -341 725 -354 21 -13 26 -24 32 -83 19 -192 174 -2302 293 -4003 61 -866 149 -1981 190 -2395 67 -685 109 -1079 112 -1068 2 6 -10 376 -27 824 -76 2045 -277 4723 -485 6468 -14 113 -23 206 -21 208 2 2 124 -56 272 -128 148 -72 323 -157 389 -189 66 -32 224 -108 350 -170 127 -62 284 -138 350 -170 66 -32 242 -117 390 -190 149 -73 312 -152 363 -176 51 -24 95 -50 97 -56 4 -12 31 -520 55 -1058 6 -129 19 -401 30 -605 25 -467 45 -935 65 -1465 9 -228 17 -433 19 -455 2 -22 2 370 -1 870 -4 968 -14 1498 -39 2214 -8 244 -14 444 -12 446 3 3 52 -20 517 -247 189 -92 345 -168 346 -168 1 0 155 -75 341 -166 186 -91 366 -179 399 -194 78 -36 678 -330 682 -334 1 -1 7 -200 13 -442 24 -1050 60 -2198 80 -2529 13 -206 59 -872 63 -900 2 -11 6 241 10 560 11 835 -14 1950 -64 2889 -11 208 -18 380 -17 381 2 1 86 -39 188 -89 102 -50 275 -135 385 -188 110 -53 317 -154 460 -224 143 -69 328 -159 410 -199 83 -40 240 -116 350 -170 110 -54 277 -134 370 -180 94 -45 339 -165 545 -265 377 -184 609 -297 905 -440 88 -43 259 -126 380 -185 121 -59 288 -140 370 -180 83 -40 251 -122 375 -182 124 -60 331 -161 460 -223 129 -63 309 -151 400 -196 l165 -81 -81 -41 c-137 -69 -544 -257 -859 -397 -4145 -1841 -8649 -2776 -13160 -2732 -694 7 -1120 23 -1730 62 -3213 209 -6394 907 -9400 2060 -401 155 -730 289 -730 299 0 5 189 135 420 290 231 155 742 497 1135 760 393 264 857 575 1030 691 173 116 603 404 955 640 352 236 736 493 853 572 117 79 218 144 224 146 8 1 11 -26 9 -93 l-3 -95 21 19 c18 17 21 30 21 112 l0 94 255 170 c252 169 255 170 255 140 0 -36 9 -38 39 -6 15 16 21 31 17 43 -9 30 -121 -49 1009 708 369 247 805 539 970 650 165 111 568 381 895 600 327 219 764 512 970 650 206 138 636 426 955 640 319 214 690 463 825 553 263 177 382 241 500 271 69 17 77 21 97 57 31 55 76 92 120 99 70 11 78 14 109 44 23 22 36 48 48 98 31 124 64 161 176 196 90 29 86 33 93 -105z m-23167 -209 c19 -7 69 -61 147 -157 64 -81 151 -187 193 -237 l76 -90 -107 110 c-244 252 -366 385 -353 385 8 0 28 -5 44 -11z m45634 -964 c-179 -179 -328 -325 -332 -325 -4 0 14 31 40 69 34 50 124 140 327 325 154 141 282 256 285 256 3 0 -141 -146 -320 -325z m-41195 -2983 c110 -75 275 -193 367 -264 207 -160 423 -306 534 -361 76 -37 107 -67 90 -85 -10 -9 -507 335 -941 651 -351 256 -364 271 -50 59z m3865 -336 c0 -5 -907 -606 -914 -606 -3 0 4 16 16 36 23 39 40 51 303 211 99 61 272 167 385 236 211 130 210 130 210 123z"/>
<path d="M39771 36581 c-65 -25 -116 -62 -136 -101 -19 -37 -19 -94 0 -110 8 -7 15 -8 15 -2 0 25 68 74 130 93 96 31 341 27 470 -7 39 -11 -74 72 -150 108 -58 28 -76 32 -170 35 -86 3 -115 0 -159 -16z"/>
<path d="M42846 30179 c-52 -41 -21 -119 47 -119 18 0 44 8 57 18 18 12 44 17 93 17 37 0 67 1 67 2 0 1 -22 9 -49 18 -27 9 -71 31 -97 50 -56 40 -81 43 -118 14z"/>
<path d="M46453 29248 c-53 -57 -16 -148 60 -148 76 0 115 93 62 145 -32 33 -93 34 -122 3z"/>
<path d="M48303 27365 c-76 -21 -129 -50 -185 -103 -60 -56 -98 -127 -98 -181 0 -72 5 -74 72 -25 135 99 268 138 395 115 38 -7 84 -21 102 -32 17 -10 34 -19 36 -19 3 0 5 21 5 48 -1 95 -58 168 -156 198 -58 17 -103 17 -171 -1z"/>
<path d="M48215 26916 c-91 -42 -134 -126 -87 -169 28 -25 60 -21 104 14 59 48 189 119 216 119 31 0 20 16 -28 40 -55 28 -140 27 -205 -4z"/>
<path d="M44143 25434 c-42 -21 -66 -59 -66 -104 0 -125 201 -180 258 -70 61 118 -68 235 -192 174z"/>
<path d="M48928 22439 c-144 -34 -334 -179 -326 -248 6 -48 39 -37 446 146 56 26 102 52 102 60 0 7 -15 22 -32 33 -36 22 -120 26 -190 9z"/>
<path d="M48818 21851 c-80 -17 -112 -66 -68 -106 16 -15 32 -17 91 -13 58 5 87 13 156 49 l86 43 -39 14 c-47 16 -175 24 -226 13z"/>
<path d="M44724 36035 c-44 -7 -101 -22 -125 -32 -63 -28 -167 -110 -185 -145 -29 -56 -17 -59 91 -21 115 39 152 42 255 17 l75 -17 -55 -17 c-128 -39 -227 -122 -257 -215 -6 -19 -16 -30 -29 -30 -13 0 -20 -8 -22 -28 -5 -39 23 -67 64 -67 18 0 36 -4 39 -10 10 -16 153 -57 263 -75 107 -18 172 -16 198 6 24 20 1 31 -77 35 -41 2 -92 6 -114 10 l-39 7 42 20 c43 20 72 59 72 97 0 11 6 20 13 20 29 0 118 -63 166 -117 42 -47 54 -55 61 -43 38 60 -55 193 -166 236 -34 13 -74 19 -134 19 -111 0 -167 -22 -243 -93 -42 -41 -60 -53 -69 -44 -8 8 -4 23 16 55 29 50 78 93 146 127 58 30 154 30 264 1 44 -11 81 -19 84 -17 2 2 -4 16 -13 30 -21 32 -21 32 49 1 31 -14 63 -25 70 -25 15 0 26 -68 26 -165 0 -33 4 -66 9 -74 13 -20 31 75 31 165 0 41 5 95 11 119 9 36 8 53 -6 95 -22 65 -51 99 -114 133 -95 52 -237 67 -397 42z"/>
<path d="M45914 35865 c-74 -16 -129 -43 -168 -81 -29 -30 -50 -70 -41 -83 2 -4 60 -11 127 -14 144 -8 276 -36 466 -101 74 -25 147 -46 162 -46 16 0 32 -4 35 -10 15 -25 24 -6 20 45 -8 96 -81 180 -210 240 -126 60 -266 77 -391 50z"/>
<path d="M46628 35690 c9 -194 9 -425 -2 -650 -10 -211 0 -229 33 -59 42 220 38 409 -14 714 l-24 140 7 -145z"/>
<path d="M45932 35588 c-84 -19 -206 -124 -227 -196 -5 -18 3 -14 40 22 116 113 271 136 457 66 111 -41 166 -93 183 -173 5 -24 8 -27 20 -17 21 17 19 46 -6 97 -40 82 -167 169 -290 198 -72 16 -114 17 -177 3z"/>
<path d="M45908 35441 c-68 -22 -112 -48 -156 -94 l-33 -34 58 29 c38 19 81 31 127 35 l69 6 -18 -26 c-19 -30 -22 -105 -5 -137 11 -20 10 -21 -10 -10 -12 6 -24 10 -26 7 -7 -7 95 -47 175 -68 80 -20 191 -26 191 -9 0 6 10 5 23 -3 13 -9 38 -12 65 -10 l42 5 -24 19 c-13 10 -29 39 -36 66 -19 71 -45 116 -85 151 -95 84 -234 112 -357 73z m340 -148 c37 -32 53 -92 32 -118 -13 -15 -93 -21 -136 -9 -19 5 -17 8 18 44 30 30 38 45 38 74 0 20 4 36 8 36 4 0 22 -12 40 -27z"/>
<path d="M45597 35094 c-3 -3 17 -49 44 -102 62 -119 67 -168 25 -250 -15 -30 -25 -57 -22 -60 13 -12 76 29 92 59 38 74 -4 229 -87 324 -31 35 -40 40 -52 29z"/>
<path d="M44922 34944 c-33 -23 -62 -87 -62 -138 0 -58 40 -96 103 -96 48 0 113 29 109 49 -2 10 4 12 23 7 23 -6 24 -5 13 13 -28 46 -125 57 -153 19 -13 -20 -17 -21 -25 -8 -5 8 -10 22 -9 30 0 25 26 90 43 109 9 10 16 21 16 24 0 13 -35 7 -58 -9z"/>
<path d="M46932 34869 c-95 -47 -182 -155 -232 -288 -12 -29 -19 -55 -17 -57 2 -2 29 34 60 80 98 144 185 209 329 245 70 18 70 18 47 35 -39 27 -116 21 -187 -15z"/>
<path d="M45000 34110 c-11 -7 -9 -11 14 -20 51 -19 349 -89 358 -84 16 10 8 44 -15 58 -60 40 -315 73 -357 46z"/>
<path d="M44846 21825 c-5 -115 -6 -266 -2 -335 42 -772 317 -1850 650 -2545 141 -293 264 -474 445 -655 131 -131 190 -175 319 -241 145 -73 212 -91 357 -96 72 -2 157 0 190 5 l60 10 -80 1 c-109 1 -179 21 -311 86 -367 180 -648 511 -905 1065 -283 613 -549 1526 -653 2249 -26 175 -40 324 -54 546 l-8 120 -8 -210z"/>
<path d="M45071 21645 c-1 -6 19 -71 43 -145 181 -559 448 -1007 696 -1169 32 -21 33 -21 10 -1 -116 100 -196 192 -296 345 -157 240 -302 546 -414 870 -21 61 -39 105 -39 100z"/>
<path d="M44762 21080 c-7 -1018 274 -2659 642 -3755 202 -602 401 -962 678 -1230 125 -122 210 -183 331 -240 144 -67 214 -85 326 -84 53 0 119 4 146 8 l50 7 -80 6 c-70 7 -94 14 -190 63 -100 50 -224 135 -349 240 -78 65 -242 261 -332 395 -228 343 -441 861 -644 1570 -306 1072 -528 2273 -569 3085 l-8 160 -1 -225z"/>
<path d="M43800 15105 c-216 -39 -382 -121 -490 -243 -85 -95 -109 -204 -75 -335 17 -67 66 -169 101 -212 23 -29 23 -28 -5 40 -56 133 -64 261 -22 343 49 96 222 181 446 218 193 32 588 15 779 -33 49 -12 61 -12 68 -1 20 31 -147 135 -294 183 -170 55 -347 69 -508 40z"/>
<path d="M59495 6648 c-2 -7 -14 -110 -27 -228 -29 -282 -28 -624 2 -835 11 -77 26 -203 33 -280 l13 -140 7 195 c5 107 12 229 16 270 10 81 4 763 -7 924 -5 65 -11 101 -19 104 -7 2 -15 -2 -18 -10z"/>
</g>
</svg>