<?xml version="1.0" standalone="no"?>
<!DOCTYPE svg PUBLIC "-//W3C//DTD SVG 20010904//EN"
 "http://www.w3.org/TR/2001/REC-SVG-20010904/DTD/svg10.dtd">
<svg version="1.0" xmlns="http://www.w3.org/2000/svg"
 width="1153.000000pt" height="733.000000pt" viewBox="0 0 1153.000000 733.000000"
 preserveAspectRatio="xMidYMid meet">

<g transform="translate(0.000000,733.000000) scale(0.100000,-0.100000)"
fill="#694222" stroke="none">
<path d="M8573 6393 c9 -9 -13 -44 -23 -38 -5 3 -26 -1 -46 -10 -20 -8 -41
-12 -46 -9 -19 12 -78 22 -72 13 3 -5 -2 -9 -10 -9 -9 0 -16 -6 -16 -12 0 -7
-25 -30 -55 -51 -31 -21 -53 -43 -50 -48 4 -5 -5 -9 -19 -9 -14 0 -26 -3 -26
-7 0 -5 -12 -22 -28 -40 -15 -18 -35 -54 -44 -80 -9 -27 -26 -58 -37 -70 -13
-14 -17 -24 -10 -28 6 -4 6 -11 1 -18 -5 -7 -9 -27 -8 -45 1 -24 -2 -31 -14
-27 -8 4 -11 3 -8 0 4 -4 3 -18 -3 -32 -6 -16 -6 -22 1 -18 7 4 6 -3 0 -20 -6
-15 -8 -30 -5 -35 3 -5 1 -11 -5 -15 -7 -4 -7 -12 -1 -23 6 -10 6 -23 0 -34
-13 -24 -17 -86 -8 -120 4 -16 4 -28 -1 -28 -11 0 -10 -69 1 -76 6 -3 7 -14 4
-25 -4 -11 -2 -19 4 -19 6 0 10 -3 9 -7 -4 -12 32 -115 48 -137 8 -11 14 -29
14 -39 0 -10 11 -35 25 -55 14 -20 25 -40 25 -45 0 -4 11 -19 25 -33 14 -14
25 -29 25 -34 0 -6 5 -10 11 -10 6 0 25 -11 42 -24 43 -32 72 -40 88 -23 8 7
22 16 32 20 9 3 23 18 29 33 9 19 18 25 35 21 17 -3 20 -1 14 7 -15 18 2 86
21 86 6 0 3 9 -8 21 -15 16 -16 24 -6 39 17 27 15 47 -4 54 -11 4 -14 13 -11
27 3 11 2 33 -3 49 -6 21 -5 30 7 34 8 3 11 10 8 16 -9 14 -18 61 -17 85 4 80
11 108 33 143 15 22 29 50 32 63 8 28 50 79 66 79 6 0 11 4 11 9 0 5 8 7 19 4
10 -2 25 3 34 11 8 9 23 13 31 10 9 -3 27 1 41 10 13 9 28 16 32 16 4 0 1 -5
-7 -10 -12 -8 -11 -10 8 -10 12 0 22 4 22 8 0 10 137 7 195 -3 22 -4 47 -14
56 -21 9 -8 36 -21 61 -29 72 -25 301 -259 290 -297 -2 -6 6 -17 18 -25 11 -8
20 -18 20 -23 0 -6 8 -19 18 -31 9 -11 27 -33 39 -47 22 -26 25 -32 27 -58 1
-7 12 -21 26 -32 20 -16 23 -27 22 -65 -2 -25 2 -48 8 -52 5 -3 10 -19 10 -36
0 -16 4 -29 9 -29 11 0 45 -146 37 -165 -3 -8 -2 -15 3 -15 9 0 26 -66 22 -89
-1 -8 2 -10 9 -6 9 6 9 2 1 -12 -8 -15 -7 -25 4 -39 8 -11 15 -27 15 -37 0
-10 7 -28 15 -41 16 -24 37 -159 28 -182 -3 -7 5 -43 16 -79 12 -36 21 -71 20
-78 -4 -24 13 -133 26 -168 8 -20 11 -39 8 -43 -3 -3 -1 -11 4 -18 6 -7 7 -22
3 -33 -4 -11 -3 -29 3 -40 10 -19 16 -40 19 -77 1 -10 6 -18 10 -18 5 0 4 -9
-2 -20 -6 -11 -9 -24 -6 -29 3 -5 1 -23 -5 -40 -8 -23 -8 -35 0 -45 6 -7 8
-16 4 -19 -3 -4 -7 -28 -8 -55 -1 -27 -5 -54 -9 -60 -4 -7 -2 -12 3 -12 10 0
11 -64 1 -85 -3 -5 -5 -38 -5 -72 0 -35 -4 -63 -8 -63 -5 0 -6 -7 -3 -16 3 -8
2 -13 -3 -10 -5 3 -11 -4 -14 -15 -4 -15 -2 -19 9 -15 8 3 14 -1 14 -9 0 -8
-5 -15 -11 -15 -5 0 -7 -5 -3 -11 10 -17 11 -119 2 -125 -5 -3 -6 -9 -3 -14 3
-5 1 -11 -4 -14 -5 -3 -6 -21 -1 -40 4 -19 4 -56 -1 -82 -5 -26 -7 -50 -4 -52
3 -3 1 -10 -4 -16 -13 -17 -21 -84 -10 -88 5 -2 5 -17 -1 -37 -6 -23 -6 -37 0
-41 7 -4 5 -17 -4 -36 -18 -36 -22 -72 -12 -101 4 -13 1 -33 -7 -50 -7 -15
-12 -49 -11 -76 1 -26 -3 -50 -7 -53 -5 -3 -7 -10 -3 -15 3 -6 -2 -19 -12 -30
-9 -10 -13 -19 -9 -19 4 0 0 -9 -10 -20 -14 -15 -15 -20 -4 -20 12 0 12 -2 0
-9 -8 -6 -21 -37 -28 -71 -12 -62 -33 -120 -43 -120 -3 0 -5 -30 -4 -66 0 -39
-4 -70 -11 -78 -7 -6 -17 -28 -24 -47 -13 -42 -44 -104 -61 -124 -9 -11 -9
-15 -1 -15 6 0 10 -10 10 -22 -1 -13 2 -32 6 -42 6 -14 5 -17 -3 -12 -7 4 -12
1 -12 -9 0 -9 -4 -14 -9 -11 -5 3 -12 -10 -15 -29 -4 -19 -18 -43 -31 -54 -14
-10 -25 -26 -25 -35 0 -9 -8 -16 -17 -16 -9 0 -14 -3 -10 -6 3 -4 0 -21 -7
-38 -8 -19 -10 -40 -5 -53 5 -13 4 -25 -1 -28 -6 -4 -10 -17 -10 -31 0 -14 -5
-34 -11 -46 -27 -50 30 -105 92 -88 19 6 43 21 54 36 11 14 33 38 48 54 33 33
69 99 61 111 -3 5 0 9 7 9 7 0 9 3 6 7 -4 3 0 14 9 24 9 10 14 26 10 35 -8 21
11 45 30 37 8 -3 14 1 14 11 0 9 -4 16 -10 16 -16 0 -11 32 7 45 9 7 17 21 18
32 0 11 9 32 18 47 10 14 15 26 11 26 -4 0 -1 7 6 15 6 8 8 20 4 26 -4 8 -3 9
4 5 12 -7 16 4 13 37 -1 9 7 30 18 46 12 16 21 36 21 45 0 9 5 16 11 16 6 0 9
6 6 14 -3 8 0 19 7 25 8 7 16 25 20 41 3 17 14 47 24 68 10 21 18 48 17 60 -1
13 4 22 13 22 11 0 12 3 3 14 -9 11 -7 21 8 47 11 18 18 37 15 41 -3 5 6 27
21 48 21 30 28 53 30 97 3 68 19 167 33 204 6 15 8 30 4 34 -3 3 0 10 8 15 9
6 13 23 12 50 -2 23 2 47 7 54 5 6 12 23 14 36 3 14 13 49 22 77 9 29 15 59
12 68 -4 8 -2 17 4 20 5 4 6 11 3 17 -7 11 -15 57 -15 88 -1 8 4 35 10 59 7
25 8 48 3 55 -12 14 -7 96 5 105 5 3 10 18 10 34 1 15 2 29 3 32 1 3 3 8 5 13
1 4 5 15 10 25 4 10 5 35 2 56 -2 21 0 46 6 57 6 10 12 42 13 69 2 28 7 73 13
100 7 28 11 56 11 63 -2 55 6 178 12 188 11 16 -13 158 -28 167 -19 11 -39
133 -23 143 5 2 6 17 3 32 -3 15 -6 34 -7 42 -2 8 -7 21 -11 29 -5 8 -10 39
-11 70 -1 31 -6 77 -10 103 -4 26 -6 51 -5 54 1 4 -4 11 -12 16 -10 8 -11 11
0 15 10 4 10 8 1 19 -6 8 -13 26 -15 40 -7 64 -27 125 -45 135 -20 10 -26 44
-9 54 16 10 12 43 -7 54 -13 7 -18 23 -18 58 -1 31 -11 69 -29 107 -30 64 -59
163 -51 176 3 4 -2 10 -10 14 -19 7 -16 56 4 56 9 0 6 7 -9 20 -13 12 -29 18
-36 16 -8 -3 -11 1 -8 9 3 7 12 16 20 19 8 3 14 14 14 24 0 14 -7 20 -25 20
-29 0 -55 18 -55 39 0 8 -7 21 -15 30 -8 8 -13 18 -10 23 3 5 -4 11 -15 15
-11 3 -20 13 -20 21 0 8 -7 17 -15 21 -9 3 -22 21 -30 39 -9 22 -21 34 -34 34
-34 0 -49 10 -44 31 3 10 10 16 15 12 6 -3 8 0 6 8 -3 8 -13 13 -22 13 -9 -1
-16 2 -16 7 0 4 -16 11 -35 15 -19 3 -33 9 -32 13 2 9 -83 91 -95 91 -4 0 -5
6 -2 14 3 9 -6 17 -25 24 -17 6 -31 16 -31 21 0 6 -7 11 -16 11 -8 0 -12 5 -9
10 11 18 -19 69 -47 81 -16 6 -28 17 -28 23 0 6 -5 4 -10 -4 -7 -12 -10 -12
-10 -1 0 7 -6 11 -13 8 -8 -3 -20 3 -27 13 -8 11 -17 17 -22 14 -4 -3 -5 3 -1
12 5 13 2 16 -8 12 -52 -21 -52 -21 -44 -8 6 10 4 12 -8 7 -11 -4 -17 -1 -17
7 0 7 -14 16 -32 20 -18 4 -43 20 -58 38 -21 25 -35 32 -66 33 -21 1 -55 10
-74 20 -19 10 -52 18 -72 18 -21 0 -38 5 -38 11 0 6 -4 6 -11 -1 -7 -7 -20 -8
-34 -3 -12 4 -38 6 -58 3 -19 -2 -52 0 -72 6 -21 5 -35 7 -32 4z"/>
<path d="M6861 6271 c-7 -5 -11 -13 -8 -18 4 -5 -7 -25 -23 -44 -16 -19 -29
-39 -30 -45 0 -6 -16 -25 -35 -43 -19 -17 -35 -36 -35 -41 0 -5 -13 -17 -29
-26 -17 -10 -32 -28 -36 -41 -7 -29 -63 -93 -81 -93 -8 0 -17 -7 -20 -15 -4
-8 -10 -12 -15 -9 -10 6 -69 -26 -69 -38 0 -4 -13 -8 -30 -8 -30 0 -43 -10
-92 -68 -15 -19 -32 -30 -38 -27 -5 3 -10 0 -10 -7 0 -8 -17 -20 -37 -27 -21
-8 -45 -19 -53 -26 -8 -7 -53 -25 -99 -40 -45 -16 -89 -35 -97 -42 -8 -9 -22
-12 -34 -8 -14 4 -20 2 -18 -6 3 -14 -38 -39 -64 -39 -9 0 -24 10 -32 21 -9
14 -21 19 -31 15 -9 -3 -25 -1 -35 4 -13 7 -20 6 -22 -1 -2 -6 -21 -14 -41
-18 -21 -3 -37 -10 -35 -16 4 -12 26 -13 57 -2 14 4 28 4 34 -2 7 -7 4 -12 -9
-16 -10 -4 -26 -10 -35 -15 -17 -9 -77 -5 -87 5 -3 3 0 5 6 5 7 0 12 7 12 16
0 10 -6 14 -15 10 -8 -3 -15 -1 -15 5 0 6 -5 7 -10 4 -8 -5 -7 -12 2 -22 12
-15 11 -15 -9 -3 -12 8 -19 18 -16 24 3 5 1 6 -5 2 -7 -4 -12 -16 -12 -26 0
-18 -5 -19 -57 -13 -31 3 -71 14 -88 24 -16 11 -38 19 -48 19 -14 0 -17 5 -12
23 5 17 4 19 -4 7 -8 -11 -13 -12 -22 -3 -6 6 -18 9 -25 6 -12 -5 -19 7 -15
29 0 4 -5 5 -13 2 -16 -6 -143 163 -138 183 2 7 -1 13 -5 13 -17 0 -49 82 -55
137 -1 7 -5 10 -10 7 -4 -3 -8 1 -8 9 0 10 -15 17 -47 20 -27 3 -63 9 -80 12
-18 4 -33 3 -33 -1 0 -5 -11 -21 -24 -35 -21 -23 -24 -33 -20 -89 3 -35 0 -68
-6 -75 -8 -9 -6 -14 5 -19 8 -3 15 -9 14 -13 -4 -24 4 -43 27 -68 14 -15 28
-38 30 -50 5 -30 30 -76 36 -69 3 3 15 -8 27 -23 11 -15 31 -38 43 -50 12 -13
19 -23 14 -23 -4 0 9 -16 28 -35 20 -19 43 -35 51 -35 8 0 15 -8 15 -19 0 -22
14 -34 58 -49 21 -7 32 -7 32 -1 0 6 17 2 38 -9 20 -11 50 -25 66 -31 20 -8
26 -15 18 -20 -8 -5 15 -18 60 -36 40 -16 75 -31 78 -35 18 -23 123 -54 178
-52 17 1 32 -2 32 -6 0 -4 17 -8 38 -9 20 -1 62 -4 92 -8 30 -4 57 -7 60 -7
26 -2 70 19 80 38 15 27 84 46 113 32 10 -5 17 -5 17 0 0 9 17 13 131 31 28 4
56 17 75 34 16 15 34 25 41 23 6 -3 17 2 23 9 7 8 16 13 20 10 4 -3 13 2 20
10 7 8 21 15 32 15 10 0 21 7 24 15 4 8 10 12 15 9 5 -3 9 0 9 5 0 6 9 11 19
11 10 0 21 7 25 15 3 8 11 15 19 15 7 0 19 16 26 35 7 19 17 33 22 30 5 -4 9
1 9 9 0 9 9 21 20 28 11 7 20 18 20 25 0 7 5 13 10 13 6 0 10 5 10 11 0 24 49
106 89 149 24 25 49 59 57 77 7 17 18 35 24 38 6 4 10 37 9 78 -1 47 4 87 15
117 9 25 19 63 22 85 3 21 7 43 10 47 3 4 -3 30 -12 58 -17 51 -38 63 -73 41z"/>
<path d="M9706 5801 c-3 -5 1 -11 9 -14 9 -4 12 -1 8 9 -6 16 -10 17 -17 5z"/>
<path d="M9740 5770 c0 -5 5 -10 11 -10 5 0 7 5 4 10 -3 6 -8 10 -11 10 -2 0
-4 -4 -4 -10z"/>
<path d="M5546 5589 c4 -8 -1 -9 -17 -4 l-24 6 25 -20 c13 -11 28 -17 33 -14
4 2 15 -1 23 -8 12 -10 15 -10 12 2 -4 18 -19 34 -41 42 -12 4 -16 3 -11 -4z"/>
<path d="M2344 5387 c-27 -4 -54 -14 -59 -21 -6 -7 -33 -24 -60 -36 -28 -13
-70 -32 -95 -43 -25 -12 -50 -21 -55 -22 -6 0 -28 -10 -48 -23 -21 -12 -43
-22 -49 -22 -6 0 -33 -22 -59 -50 -26 -27 -55 -50 -64 -50 -9 0 -24 -4 -33 -9
-19 -10 -155 -141 -147 -141 5 0 -25 -37 -52 -66 -7 -7 -13 -15 -13 -19 0 -3
6 -3 13 1 7 4 9 3 4 -2 -5 -5 -13 -9 -18 -9 -17 0 -79 -67 -79 -85 0 -11 -8
-24 -17 -29 -10 -6 -15 -11 -11 -11 3 0 0 -20 -7 -43 -7 -24 -10 -50 -5 -56 4
-7 3 -28 -3 -47 -7 -24 -7 -41 1 -59 7 -14 12 -34 12 -44 0 -16 39 -107 70
-163 6 -10 10 -24 10 -31 0 -14 68 -87 80 -87 4 0 29 -28 56 -63 26 -35 69
-78 96 -95 26 -18 48 -37 48 -42 0 -6 5 -10 11 -10 5 0 27 -13 47 -29 59 -47
114 -73 162 -78 24 -3 58 -14 75 -26 16 -12 34 -22 40 -22 14 -1 64 -21 97
-39 17 -9 29 -11 36 -4 6 6 17 6 30 -1 11 -6 38 -11 58 -11 21 0 45 -7 55 -16
15 -13 40 -20 109 -28 9 -1 21 -5 27 -9 6 -4 14 -3 18 2 8 13 35 2 35 -14 0
-9 17 -13 53 -14 28 0 88 -3 132 -5 118 -7 128 -7 135 4 4 6 39 9 81 8 73 -3
113 3 175 23 18 5 36 9 40 8 26 -5 64 2 64 12 0 6 -6 9 -13 6 -14 -5 -17 26
-4 39 12 13 107 13 107 1 0 -19 -14 -34 -35 -40 -11 -3 -4 -5 15 -4 31 2 35 5
34 30 -1 20 3 27 17 27 10 0 21 5 24 10 4 7 13 7 25 0 14 -8 29 -6 54 4 31 13
34 13 29 -1 -5 -12 0 -14 23 -9 16 3 44 2 62 -3 28 -8 33 -8 28 4 -3 9 0 15 8
15 8 0 27 7 42 15 37 19 50 19 58 0 3 -8 12 -15 20 -15 10 0 13 6 10 15 -4 10
0 15 10 15 9 0 19 7 22 15 4 8 14 15 24 15 10 0 26 7 35 16 9 10 35 19 58 21
23 2 51 5 62 6 12 1 19 9 19 20 -1 9 2 14 7 11 5 -3 9 2 9 10 0 11 9 16 30 16
17 0 30 5 30 13 0 8 4 7 10 -3 5 -8 10 -11 10 -6 0 6 6 2 13 -9 18 -24 40 -10
34 21 -3 20 1 26 22 31 14 3 29 11 33 17 5 8 13 8 26 -1 15 -9 25 -9 43 1 24
12 29 14 59 23 31 9 45 21 42 37 -2 9 1 16 5 17 30 3 49 10 58 21 5 8 24 20
42 27 51 21 83 81 44 81 -35 0 -32 17 8 53 22 20 37 38 33 41 -3 3 1 6 9 6 15
0 69 94 69 119 0 8 7 22 14 30 12 13 13 25 5 56 -6 22 -13 51 -16 65 -9 37
-48 95 -89 132 -19 18 -53 50 -73 70 -38 37 -100 70 -136 74 -29 2 -49 8 -55
15 -3 4 -36 19 -75 34 -38 15 -85 34 -104 42 -18 8 -68 17 -110 20 -42 2 -105
10 -141 18 -64 13 -146 15 -165 3 -5 -3 -44 -5 -85 -4 -41 1 -82 -1 -90 -5
-16 -7 -78 -19 -125 -23 -74 -7 -122 -20 -159 -45 -21 -14 -51 -33 -67 -41
-35 -19 -139 -126 -139 -144 0 -7 10 -26 23 -42 12 -16 21 -30 20 -31 -2 -2
-3 -19 -3 -38 0 -29 4 -35 21 -35 12 0 31 10 43 23 28 30 64 52 101 62 17 5
33 9 38 10 4 2 10 4 15 5 4 1 15 1 25 0 10 -1 24 3 30 8 23 19 101 41 124 36
13 -4 29 -1 36 4 7 6 22 11 32 11 11 1 27 1 35 2 8 0 38 0 65 -1 60 -3 114 7
136 26 19 17 152 14 184 -4 11 -6 45 -20 76 -32 30 -11 70 -34 88 -50 18 -17
40 -30 49 -30 26 0 64 -30 58 -46 -7 -17 6 -18 23 -1 7 6 12 8 11 2 -5 -25 1
-45 13 -45 21 0 61 -41 48 -50 -6 -3 -11 -15 -10 -26 1 -10 1 -27 1 -38 -2
-16 -4 -17 -19 -5 -11 10 -14 10 -9 2 4 -7 3 -13 -3 -13 -5 0 -11 -10 -13 -22
-2 -15 -11 -24 -25 -26 -12 -2 -23 -13 -27 -26 -3 -13 -21 -37 -39 -53 -18
-16 -40 -39 -49 -52 -12 -17 -28 -24 -57 -26 -38 -3 -86 -26 -76 -36 2 -3 -12
-3 -31 -1 -20 3 -42 -1 -52 -9 -35 -28 -57 -36 -80 -28 -12 5 -22 5 -22 1 0
-10 -54 -29 -109 -37 -25 -4 -51 -14 -59 -22 -9 -8 -26 -13 -39 -10 -13 2 -26
0 -29 -5 -4 -5 -17 -7 -30 -4 -15 4 -24 2 -24 -5 0 -7 -11 -9 -30 -5 -16 3
-30 2 -30 -3 0 -8 -54 -24 -86 -26 -6 0 -19 -8 -28 -18 -18 -17 -56 -24 -56
-9 0 14 -61 6 -70 -8 -7 -11 -16 -12 -46 -2 -21 6 -40 9 -43 7 -2 -3 1 -5 7
-5 7 0 12 -5 12 -11 0 -5 -8 -9 -17 -7 -10 1 -24 -1 -32 -6 -10 -7 -12 -3 -6
15 7 21 6 22 -9 10 -13 -11 -22 -12 -43 -2 -20 9 -28 9 -34 0 -4 -7 -14 -9
-25 -4 -18 7 -18 8 1 15 14 6 15 9 4 9 -8 1 -19 -3 -25 -9 -8 -8 -177 -20
-314 -22 -69 -1 -203 24 -224 42 -9 7 -19 10 -23 7 -3 -4 -13 -2 -22 2 -9 5
-43 12 -76 16 -33 3 -63 12 -67 18 -4 6 -23 10 -42 9 -28 -2 -40 3 -58 24 -50
59 -64 72 -101 89 -54 25 -82 88 -53 118 8 8 12 17 9 21 -3 3 -12 -2 -20 -12
-12 -15 -12 -15 -7 0 3 10 -3 25 -15 37 -23 23 -27 52 -11 80 7 14 5 23 -10
36 -17 15 -17 19 -5 32 8 7 28 15 44 16 23 2 27 5 20 18 -6 12 -2 22 11 34 25
22 26 46 3 42 -10 -1 -20 3 -23 8 -9 18 41 17 54 -1 12 -16 13 -15 19 7 3 13
3 26 -2 29 -4 3 -10 12 -14 22 -6 17 8 19 33 3 13 -8 13 -7 1 8 -11 14 -11 20
-1 32 7 9 15 13 18 10 3 -3 11 0 19 6 10 9 17 8 30 -2 15 -12 16 -12 11 8 -5
20 -3 22 25 16 25 -5 29 -3 24 10 -7 20 21 31 39 16 10 -8 14 -8 14 0 0 6 8
11 19 11 10 0 24 6 30 14 8 10 27 13 57 11 32 -3 44 0 44 10 0 8 5 17 12 21 7
4 8 3 4 -4 -5 -8 0 -12 12 -12 21 0 32 18 32 51 0 11 6 19 13 18 25 -3 38 1
32 11 -3 6 1 10 9 10 9 0 25 9 35 19 11 11 23 16 27 13 3 -4 5 0 2 8 -3 8 3
22 12 30 24 22 32 60 12 60 -13 0 -12 4 5 23 25 27 22 37 -33 95 -24 25 -44
50 -44 55 0 14 -41 50 -73 64 -15 7 -27 17 -27 23 0 11 -80 10 -156 -3z m286
-327 c0 -5 -5 -10 -11 -10 -5 0 -7 5 -4 10 3 6 8 10 11 10 2 0 4 -4 4 -10z
m215 -1320 c-3 -5 -13 -10 -21 -10 -8 0 -12 5 -9 10 3 6 13 10 21 10 8 0 12
-4 9 -10z"/>
<path d="M6998 4992 c-10 -2 -18 -8 -18 -13 0 -12 13 -12 26 1 7 7 11 6 11 -5
0 -8 -3 -13 -5 -10 -3 3 -11 0 -18 -6 -7 -5 -15 -6 -17 -1 -8 11 -195 6 -210
-6 -7 -6 -18 -7 -26 -3 -7 5 -33 4 -59 0 -54 -11 -165 -5 -204 10 -29 11 -58
5 -70 -13 -5 -8 -11 -7 -20 2 -9 9 -9 12 0 12 7 0 12 5 12 10 0 6 -7 10 -15
10 -8 0 -15 -6 -15 -12 0 -8 -3 -9 -8 -3 -12 18 -69 18 -79 0 -12 -20 -64 -30
-74 -14 -5 9 -11 10 -21 2 -33 -26 -92 -24 -81 3 3 8 0 14 -6 14 -7 0 -14 -7
-17 -15 -7 -17 -34 -21 -34 -5 0 6 -5 10 -11 10 -5 0 -7 -5 -3 -12 5 -8 2 -9
-12 -4 -10 5 -25 9 -31 9 -7 0 -13 4 -13 9 0 5 -5 6 -10 3 -8 -5 -7 -11 1 -21
9 -11 6 -16 -17 -24 -29 -11 -54 -7 -54 9 0 5 10 12 23 14 19 4 18 4 -5 6 -19
1 -28 -4 -28 -14 0 -8 -1 -15 -2 -15 -77 -15 -218 -35 -218 -32 0 3 8 11 18
18 16 12 15 13 -5 14 -13 0 -23 -4 -23 -10 0 -6 -9 -6 -26 1 -15 5 -29 7 -32
4 -3 -3 0 -5 7 -5 7 0 9 -4 6 -10 -10 -16 -25 -12 -25 6 0 12 -3 14 -13 6 -7
-6 -33 -9 -57 -7 -54 4 -100 -17 -100 -45 0 -12 -10 -25 -24 -32 -23 -10 -24
-15 -20 -72 2 -33 4 -80 4 -104 -1 -45 3 -49 55 -55 17 -1 41 -9 54 -16 13 -7
65 -16 115 -19 150 -9 622 -4 746 8 63 6 167 13 230 16 63 3 147 7 185 9 126
7 388 8 470 1 44 -3 114 -9 155 -11 131 -10 299 -42 312 -59 4 -6 10 -7 14 -4
3 4 19 1 35 -7 15 -8 36 -16 46 -18 34 -5 123 -51 123 -63 0 -6 10 -18 23 -27
35 -24 67 -54 67 -64 0 -5 13 -24 30 -43 16 -19 29 -40 30 -46 0 -6 16 -27 35
-47 21 -22 35 -46 35 -61 0 -15 8 -30 20 -36 11 -6 20 -19 20 -30 0 -10 6 -23
13 -27 18 -12 39 -52 31 -64 -3 -5 -1 -16 6 -23 6 -8 9 -35 6 -65 -3 -33 -1
-51 5 -51 6 0 9 -6 6 -14 -3 -8 1 -20 8 -26 14 -12 15 -63 2 -77 -12 -11 -8
-31 9 -47 8 -9 12 -16 8 -16 -3 0 -1 -7 6 -15 7 -8 10 -15 8 -15 -3 0 -2 -19
2 -42 6 -28 4 -45 -3 -50 -8 -5 -7 -11 2 -21 8 -10 9 -17 2 -22 -7 -4 -5 -15
7 -33 9 -14 11 -23 5 -19 -9 6 -11 3 -7 -7 3 -9 11 -16 16 -16 6 0 6 -6 -2
-15 -6 -8 -9 -23 -5 -34 3 -10 1 -22 -5 -26 -7 -4 -8 -27 -4 -66 4 -39 3 -59
-4 -59 -11 0 -12 -3 -15 -77 -2 -23 -6 -45 -10 -50 -5 -4 -5 1 -1 12 5 16 4
17 -5 9 -10 -9 -10 -16 0 -32 10 -16 10 -26 2 -44 -7 -13 -12 -36 -11 -51 0
-15 -8 -37 -17 -47 -10 -11 -15 -20 -10 -20 4 0 2 -6 -4 -14 -9 -11 -8 -17 4
-30 14 -14 14 -18 1 -44 -8 -16 -12 -32 -9 -36 4 -3 -5 -6 -18 -6 -17 0 -20
-3 -10 -9 8 -5 11 -16 7 -29 -4 -11 -8 -33 -10 -48 -3 -16 -9 -41 -14 -55 -6
-15 -8 -30 -5 -33 3 -3 1 -12 -6 -20 -8 -9 -8 -21 -1 -40 7 -20 6 -26 -4 -26
-18 0 -29 -27 -13 -33 7 -2 3 -12 -11 -27 -12 -13 -22 -30 -22 -37 0 -8 -7
-16 -15 -19 -8 -4 -15 -11 -15 -16 0 -6 7 -7 16 -4 8 3 12 2 9 -4 -3 -6 -13
-10 -21 -10 -8 0 -14 -5 -14 -11 0 -5 -5 -7 -11 -3 -8 5 -10 -1 -5 -19 5 -20
2 -27 -14 -32 -13 -4 -20 -15 -20 -32 0 -15 5 -23 13 -20 6 2 11 11 9 21 -2 9
4 16 13 16 9 0 15 9 15 25 0 19 5 25 21 25 11 0 17 5 14 10 -3 6 1 10 9 10 9
0 16 4 16 9 0 5 7 12 16 15 11 4 15 2 11 -8 -3 -8 -1 -16 4 -18 7 -2 5 -15 -5
-33 -8 -17 -18 -51 -21 -77 -4 -27 -9 -48 -13 -48 -4 0 -9 -9 -10 -20 -1 -11
-3 -29 -4 -40 -1 -11 -6 -20 -10 -20 -4 0 -8 -7 -8 -16 0 -8 -4 -13 -9 -10
-15 9 -19 -42 -4 -56 11 -12 10 -20 -3 -56 -9 -23 -21 -39 -27 -35 -6 3 -7 1
-3 -5 3 -6 1 -23 -5 -39 -7 -15 -11 -36 -10 -45 1 -9 -6 -26 -16 -38 -10 -11
-18 -29 -18 -38 -1 -19 -35 -94 -48 -103 -4 -3 -5 -14 -1 -24 5 -11 4 -16 -2
-12 -6 4 -9 -5 -6 -23 2 -16 -3 -38 -11 -51 -17 -23 -15 -28 31 -74 20 -20 27
-22 42 -13 10 7 17 15 14 20 -3 4 14 17 36 30 22 13 40 28 40 34 0 19 82 134
96 134 7 0 11 6 8 14 -3 7 13 33 35 57 22 25 35 47 29 50 -7 4 -6 9 1 13 6 4
11 14 11 22 0 17 28 49 50 56 8 2 15 13 16 24 3 67 5 74 20 74 8 0 13 4 9 10
-3 5 -1 18 5 30 5 11 15 29 20 40 6 11 10 33 10 49 0 17 5 33 11 36 6 4 8 14
5 22 -3 8 -2 12 3 8 15 -9 42 95 30 117 -10 19 4 58 20 58 5 0 7 9 4 20 -3 12
0 20 7 20 7 0 10 7 6 15 -3 8 0 15 5 15 6 0 9 9 6 20 -3 11 -1 23 4 26 6 3 5
11 -2 20 -6 8 -8 14 -3 14 5 0 9 24 10 52 1 87 14 159 31 176 14 14 14 17 0
27 -14 10 -14 15 -3 37 10 18 11 29 3 37 -7 7 -7 14 0 23 6 7 11 20 11 28 0 8
4 40 7 70 4 30 8 96 9 146 2 50 7 97 11 104 5 8 2 17 -7 24 -13 10 -14 16 -3
36 15 30 26 130 14 130 -9 0 -5 92 5 108 3 6 1 12 -5 14 -7 2 -7 12 0 30 7 18
7 29 0 33 -5 4 -8 14 -5 23 2 10 1 37 -3 62 -4 30 -2 56 7 79 11 29 11 35 -2
50 -9 10 -16 27 -16 39 0 12 -6 27 -13 34 -8 7 -12 21 -9 31 4 16 -2 37 -29
89 -5 10 -9 27 -9 38 0 11 -4 20 -9 20 -14 0 -80 123 -87 162 -4 18 -17 47
-29 63 -12 17 -24 35 -25 40 -2 6 -14 18 -27 28 -13 10 -23 25 -23 33 0 8 -4
14 -10 14 -5 0 -10 7 -10 15 0 8 -5 15 -11 15 -6 0 -9 7 -5 15 3 8 2 15 -2 15
-5 0 -16 18 -26 40 -10 22 -22 40 -28 40 -5 0 -8 7 -4 15 3 8 1 15 -4 15 -6 0
-10 6 -10 14 0 14 -71 66 -90 66 -6 0 -13 13 -16 30 -4 16 -15 32 -25 35 -10
4 -22 17 -25 30 -7 30 -64 67 -108 71 -17 1 -48 10 -68 18 -21 9 -46 16 -55
16 -10 0 -25 9 -33 20 -10 14 -26 20 -52 20 -21 0 -38 4 -38 9 0 11 -88 24
-175 25 -33 1 -63 5 -67 10 -4 6 -20 6 -42 -1 -20 -6 -36 -7 -36 -2 0 4 -10
13 -21 20 -15 8 -19 8 -15 0 9 -13 -18 -14 -61 -2 -24 7 -33 6 -37 -5 -3 -8
-10 -14 -17 -14 -6 0 -9 6 -6 14 3 8 -2 16 -14 19 -21 6 -27 -18 -6 -26 6 -3
-8 -4 -33 -3 -25 2 -51 -2 -59 -8 -12 -9 -13 -7 -8 6 5 14 0 19 -21 24 -15 3
-31 7 -37 8 -5 1 -18 1 -27 -2z m342 -32 c0 -5 -5 -10 -11 -10 -5 0 -7 5 -4
10 3 6 8 10 11 10 2 0 4 -4 4 -10z m837 -2502 c-3 -8 -6 -5 -6 6 -1 11 2 17 5
13 3 -3 4 -12 1 -19z"/>
<path d="M5530 4920 c0 -5 5 -10 11 -10 5 0 7 5 4 10 -3 6 -8 10 -11 10 -2 0
-4 -4 -4 -10z"/>
<path d="M6616 4492 c-6 -5 -76 -13 -156 -18 -118 -7 -178 -21 -185 -45 -11
-34 26 -159 47 -159 4 0 8 -9 8 -20 0 -10 6 -23 14 -27 16 -10 26 -69 30 -178
1 -44 6 -101 11 -127 5 -29 4 -53 -2 -60 -5 -7 -9 -60 -7 -118 3 -128 -2 -153
-26 -145 -24 8 -148 -14 -182 -31 -15 -8 -30 -14 -33 -14 -14 0 -118 -102
-157 -155 -21 -27 -48 -60 -62 -73 -13 -12 -27 -34 -31 -49 -3 -15 -15 -45
-26 -67 -10 -22 -19 -46 -19 -53 0 -7 -4 -13 -9 -13 -5 0 -7 -18 -4 -40 4 -29
1 -45 -10 -58 -25 -27 -30 -125 -13 -237 13 -80 21 -107 46 -141 16 -23 30
-48 30 -56 0 -8 20 -31 45 -51 35 -30 50 -36 70 -31 14 3 31 1 39 -5 22 -18
135 -19 146 -1 5 8 22 15 37 15 20 0 29 5 31 20 1 11 16 27 31 36 17 10 35 33
42 53 8 22 20 36 30 36 10 0 20 11 23 25 4 14 10 23 15 21 11 -7 33 19 24 27
-3 4 4 18 17 32 16 18 19 25 9 25 -11 1 -11 3 1 13 9 7 14 20 12 30 -2 9 0 17
5 17 10 0 35 55 32 72 -4 21 41 114 49 102 4 -6 23 -11 42 -11 61 1 133 -14
183 -39 26 -13 54 -21 62 -18 8 4 15 2 15 -4 0 -5 12 -13 27 -17 15 -3 39 -15
54 -26 20 -14 28 -16 32 -7 3 9 11 6 24 -9 16 -18 22 -20 33 -10 8 7 14 8 16
2 2 -6 30 -9 61 -8 32 1 66 -3 76 -8 10 -6 37 -12 60 -15 37 -3 66 -8 127 -20
8 -2 37 -6 63 -9 27 -3 52 -7 56 -10 12 -7 180 -7 334 -1 93 4 148 11 167 21
16 8 35 15 43 15 8 0 29 13 48 29 30 26 33 34 30 72 -3 48 -28 119 -42 119 -5
0 -9 7 -9 15 0 8 -10 17 -22 19 -13 3 -48 10 -78 16 -30 6 -67 16 -81 21 -21
8 -133 21 -174 20 -5 0 -64 -3 -129 -5 -101 -4 -121 -3 -131 11 -11 14 -59 27
-140 37 -16 3 -31 5 -32 6 -9 7 -148 29 -178 27 -45 -1 -117 14 -142 30 -13 9
-23 12 -23 9 0 -4 -19 4 -42 18 -24 14 -56 26 -73 28 -33 3 -56 18 -48 31 3 5
-3 8 -13 7 -35 -4 -59 1 -78 15 -16 12 -17 17 -6 30 7 8 17 12 22 8 19 -11 88
-11 88 1 0 6 4 5 9 -3 5 -7 11 -9 14 -4 8 13 -25 28 -95 43 -46 10 -58 17 -62
36 -8 30 11 114 30 135 9 10 11 19 6 23 -11 7 -5 44 11 64 7 9 4 18 -8 32 -15
17 -16 20 -3 20 9 0 18 9 21 20 3 11 0 20 -6 20 -8 0 -8 3 1 8 7 5 14 30 15
55 1 34 6 47 17 47 13 0 13 1 0 10 -12 8 -12 10 -1 10 11 0 11 3 0 16 -10 13
-10 17 2 25 8 5 18 9 23 9 4 0 2 10 -7 23 -11 18 -14 53 -12 170 2 139 1 148
-18 158 -19 11 -19 12 6 33 14 11 28 30 31 42 9 30 -34 67 -80 68 -19 1 -37 0
-38 -2z m-339 -1360 c18 -10 21 -20 19 -52 -2 -22 -7 -41 -12 -41 -19 -2 -44
-20 -44 -32 0 -7 4 -6 10 3 9 13 10 13 10 -1 0 -8 -20 -33 -45 -55 -25 -21
-45 -42 -45 -46 0 -5 -8 -16 -18 -26 -19 -19 -61 -14 -63 8 -2 13 -4 21 -12
43 -4 9 -10 25 -14 35 -3 9 -5 26 -4 36 3 23 39 92 46 88 3 -1 21 5 41 13 20
8 40 13 44 10 4 -3 10 2 13 9 3 8 1 17 -6 19 -7 2 4 3 23 3 19 -1 45 -7 57
-14z"/>
<path d="M4245 4020 c-3 -5 -1 -10 4 -10 6 0 11 5 11 10 0 6 -2 10 -4 10 -3 0
-8 -4 -11 -10z"/>
<path d="M3615 3820 c-3 -6 1 -7 9 -4 18 7 21 14 7 14 -6 0 -13 -4 -16 -10z"/>
<path d="M1729 3799 c-7 -4 -18 -5 -25 -2 -7 3 -19 0 -26 -6 -42 -34 -110 -81
-118 -81 -6 0 -10 -4 -10 -10 0 -5 -6 -10 -14 -10 -12 0 -29 -36 -31 -67 0 -6
-8 -20 -18 -30 -9 -11 -14 -23 -10 -27 4 -4 0 -4 -10 0 -12 4 -17 1 -17 -10 0
-9 5 -16 12 -16 9 0 9 -3 0 -12 -13 -13 -16 -32 -4 -24 4 2 8 -4 8 -14 0 -10
-3 -17 -7 -14 -10 6 -22 -53 -13 -67 3 -6 0 -16 -7 -21 -10 -7 -11 -11 -2 -14
7 -3 9 -14 4 -32 -8 -26 -7 -37 6 -72 5 -14 8 -32 16 -92 2 -16 6 -31 10 -34
4 -4 4 -18 1 -31 -5 -18 1 -30 22 -49 19 -17 25 -28 17 -31 -18 -6 -16 -68 1
-83 8 -6 13 -17 10 -25 -3 -7 -1 -16 5 -20 6 -3 11 -14 11 -24 0 -10 15 -30
34 -46 19 -16 33 -32 31 -36 -3 -3 4 -14 15 -24 11 -10 17 -21 15 -26 -3 -4 0
-11 7 -16 7 -4 13 -15 13 -23 0 -8 6 -14 13 -13 7 2 12 -8 12 -28 0 -16 4 -28
9 -24 5 3 12 -3 16 -14 3 -11 12 -22 20 -25 8 -3 15 -12 15 -21 0 -8 3 -15 8
-15 4 0 35 -26 69 -58 81 -74 96 -87 130 -109 15 -10 37 -26 48 -36 11 -11 36
-31 55 -45 19 -15 37 -29 40 -32 41 -43 176 -120 212 -120 10 0 21 -7 25 -15
7 -19 77 -56 153 -80 30 -10 60 -22 66 -26 6 -5 19 -7 27 -3 9 3 22 2 29 -2
13 -8 88 -16 166 -18 30 -1 42 -5 43 -16 0 -10 2 -11 6 -2 5 13 53 17 53 5 0
-9 50 -10 65 -2 6 3 30 7 55 8 25 2 49 5 54 8 4 3 12 0 16 -8 7 -10 16 -10 42
-2 19 5 44 6 55 2 17 -6 30 -1 60 25 32 29 35 36 24 50 -7 9 -23 16 -35 16
-12 0 -27 5 -33 11 -7 7 -40 13 -75 14 -61 2 -157 23 -195 43 -10 5 -38 13
-63 17 -42 7 -175 69 -186 86 -3 5 -12 9 -20 9 -8 0 -26 8 -41 17 -14 10 -32
19 -40 20 -54 12 -83 23 -83 34 0 5 -6 9 -14 9 -8 0 -21 6 -28 13 -7 6 -28 20
-45 30 -18 10 -45 30 -60 45 -15 15 -42 39 -59 53 -17 14 -37 35 -43 47 -6 12
-20 22 -30 22 -19 0 -61 39 -61 57 0 6 -11 18 -25 27 -45 29 -80 71 -77 89 2
12 -4 20 -17 24 -11 3 -23 14 -26 24 -4 10 -10 19 -15 19 -4 0 -11 12 -15 27
-3 15 -11 31 -17 34 -6 4 -11 20 -12 35 -2 16 -14 47 -28 69 -15 22 -29 56
-33 75 -4 19 -13 38 -19 42 -6 4 -11 11 -11 15 -1 16 -28 88 -38 101 -5 6 -7
12 -4 12 3 0 0 12 -8 26 -9 18 -10 34 -4 53 10 27 8 79 -4 97 -3 6 0 22 7 35
22 42 27 77 13 83 -8 3 -5 11 11 24 12 11 22 25 22 31 0 6 8 11 18 11 13 0 14
2 4 9 -10 6 -6 11 15 20 15 6 39 27 51 46 13 19 29 32 37 29 7 -3 16 0 20 6 6
9 -3 10 -33 5 -40 -6 -41 -6 -77 44 -20 28 -44 52 -53 53 -54 5 -72 4 -83 -3z"/>
<path d="M4338 3798 c5 -5 16 -8 23 -6 8 3 3 7 -10 11 -17 4 -21 3 -13 -5z"/>
<path d="M3466 3791 c-4 -5 3 -7 14 -4 23 6 26 13 6 13 -8 0 -17 -4 -20 -9z"/>
<path d="M4374 3786 c-3 -8 -12 -12 -20 -9 -8 3 -25 -3 -37 -14 -30 -27 -136
-63 -168 -56 -43 8 -45 -22 -4 -70 19 -22 33 -42 31 -45 -3 -2 6 -23 18 -47
29 -54 44 -113 48 -195 1 -8 8 -20 16 -26 17 -12 26 -71 26 -169 0 -126 -14
-183 -73 -292 -6 -10 -22 -43 -36 -72 -14 -30 -35 -61 -46 -69 -12 -8 -18 -20
-14 -30 3 -8 -3 -25 -13 -36 -11 -12 -34 -48 -52 -81 -17 -33 -38 -67 -46 -76
-8 -8 -14 -21 -14 -27 0 -7 -7 -12 -15 -12 -8 0 -24 -18 -35 -40 -11 -22 -27
-40 -35 -40 -8 0 -15 -5 -15 -11 0 -16 -72 -89 -87 -89 -7 0 -13 -4 -13 -10 0
-5 -5 -10 -10 -10 -6 0 -21 -10 -33 -23 -12 -13 -52 -47 -90 -76 -68 -53 -108
-101 -73 -88 10 4 27 1 39 -7 23 -14 59 -14 90 -1 15 6 16 10 5 16 -11 8 -11
10 0 18 8 4 12 12 10 17 -1 5 12 10 31 12 23 2 35 9 38 22 5 19 39 37 50 26 3
-3 11 1 17 10 6 8 26 17 44 19 18 2 39 11 48 20 8 8 20 15 26 15 6 0 9 3 5 6
-8 9 18 34 36 34 8 0 23 12 32 28 26 39 65 73 76 66 5 -3 29 11 52 31 59 51
65 55 76 55 6 0 8 6 6 13 -3 7 4 19 16 27 12 8 30 22 39 30 9 8 25 20 36 26
10 7 18 19 18 28 -1 8 8 18 19 22 31 10 43 21 109 99 20 23 24 35 16 43 -8 8
-6 18 6 37 9 14 14 30 11 35 -3 5 4 23 16 39 12 16 22 40 23 53 1 13 7 22 14
21 7 -2 11 0 11 5 -4 27 4 53 26 76 13 14 21 26 17 26 -4 0 0 5 8 11 11 8 9 9
-10 3 -23 -6 -24 -5 -11 10 9 10 11 20 5 24 -5 4 -10 15 -12 25 -3 16 0 17 19
7 12 -7 19 -8 15 -2 -3 6 -1 12 6 15 7 2 5 3 -4 2 -9 -2 -24 5 -32 14 -14 16
-17 32 -14 106 0 17 -1 45 -4 63 -4 25 -2 32 10 32 13 0 13 3 4 12 -7 7 -12
20 -12 30 0 10 -5 18 -10 18 -6 0 -8 11 -4 25 4 15 0 34 -8 48 -9 13 -12 30
-8 41 4 11 0 33 -9 50 -8 17 -14 43 -13 57 1 16 -4 29 -13 33 -9 3 -15 18 -15
35 0 26 -4 31 -35 37 -19 3 -35 10 -35 15 0 5 -6 9 -13 9 -8 0 -22 9 -32 20
-21 24 -34 25 -41 6z"/>
<path d="M6796 3423 c-8 -21 -8 -21 17 -20 12 0 38 -2 57 -7 30 -6 32 -5 15 5
-11 7 -22 16 -25 20 -11 16 -58 18 -64 2z"/>
<path d="M6919 3372 c6 -12 16 -24 22 -28 8 -4 8 -1 0 14 -6 12 -16 24 -22 28
-8 4 -8 1 0 -14z"/>
</g>
</svg>
