<?xml version="1.0" standalone="no"?>
<!DOCTYPE svg PUBLIC "-//W3C//DTD SVG 20010904//EN"
 "http://www.w3.org/TR/2001/REC-SVG-20010904/DTD/svg10.dtd">
<svg version="1.0" xmlns="http://www.w3.org/2000/svg"
 width="1153.000000pt" height="733.000000pt" viewBox="70 100 500.000000 500.000000"
 preserveAspectRatio="xMidYMid meet">

<g transform="translate(0.000000,733.000000) scale(0.100000,-0.100000)"
fill="#694222" stroke="none">
<path d="M2344 5387 c-27 -4 -54 -14 -59 -21 -6 -7 -33 -24 -60 -36 -28 -13
-70 -32 -95 -43 -25 -12 -50 -21 -55 -22 -6 0 -28 -10 -48 -23 -21 -12 -43
-22 -49 -22 -6 0 -33 -22 -59 -50 -26 -27 -55 -50 -64 -50 -9 0 -24 -4 -33 -9
-19 -10 -155 -141 -147 -141 5 0 -25 -37 -52 -66 -7 -7 -13 -15 -13 -19 0 -3
6 -3 13 1 7 4 9 3 4 -2 -5 -5 -13 -9 -18 -9 -17 0 -79 -67 -79 -85 0 -11 -8
-24 -17 -29 -10 -6 -15 -11 -11 -11 3 0 0 -20 -7 -43 -7 -24 -10 -50 -5 -56 4
-7 3 -28 -3 -47 -7 -24 -7 -41 1 -59 7 -14 12 -34 12 -44 0 -16 39 -107 70
-163 6 -10 10 -24 10 -31 0 -14 68 -87 80 -87 4 0 29 -28 56 -63 26 -35 69
-78 96 -95 26 -18 48 -37 48 -42 0 -6 5 -10 11 -10 5 0 27 -13 47 -29 59 -47
114 -73 162 -78 24 -3 58 -14 75 -26 16 -12 34 -22 40 -22 14 -1 64 -21 97
-39 17 -9 29 -11 36 -4 6 6 17 6 30 -1 11 -6 38 -11 58 -11 21 0 45 -7 55 -16
15 -13 40 -20 109 -28 9 -1 21 -5 27 -9 6 -4 14 -3 18 2 8 13 35 2 35 -14 0
-9 17 -13 53 -14 28 0 88 -3 132 -5 118 -7 128 -7 135 4 4 6 39 9 81 8 73 -3
113 3 175 23 18 5 36 9 40 8 26 -5 64 2 64 12 0 6 -6 9 -13 6 -14 -5 -17 26
-4 39 12 13 107 13 107 1 0 -19 -14 -34 -35 -40 -11 -3 -4 -5 15 -4 31 2 35 5
34 30 -1 20 3 27 17 27 10 0 21 5 24 10 4 7 13 7 25 0 14 -8 29 -6 54 4 31 13
34 13 29 -1 -5 -12 0 -14 23 -9 16 3 44 2 62 -3 28 -8 33 -8 28 4 -3 9 0 15 8
15 8 0 27 7 42 15 37 19 50 19 58 0 3 -8 12 -15 20 -15 10 0 13 6 10 15 -4 10
0 15 10 15 9 0 19 7 22 15 4 8 14 15 24 15 10 0 26 7 35 16 9 10 35 19 58 21
23 2 51 5 62 6 12 1 19 9 19 20 -1 9 2 14 7 11 5 -3 9 2 9 10 0 11 9 16 30 16
17 0 30 5 30 13 0 8 4 7 10 -3 5 -8 10 -11 10 -6 0 6 6 2 13 -9 18 -24 40 -10
34 21 -3 20 1 26 22 31 14 3 29 11 33 17 5 8 13 8 26 -1 15 -9 25 -9 43 1 24
12 29 14 59 23 31 9 45 21 42 37 -2 9 1 16 5 17 30 3 49 10 58 21 5 8 24 20
42 27 51 21 83 81 44 81 -35 0 -32 17 8 53 22 20 37 38 33 41 -3 3 1 6 9 6 15
0 69 94 69 119 0 8 7 22 14 30 12 13 13 25 5 56 -6 22 -13 51 -16 65 -9 37
-48 95 -89 132 -19 18 -53 50 -73 70 -38 37 -100 70 -136 74 -29 2 -49 8 -55
15 -3 4 -36 19 -75 34 -38 15 -85 34 -104 42 -18 8 -68 17 -110 20 -42 2 -105
10 -141 18 -64 13 -146 15 -165 3 -5 -3 -44 -5 -85 -4 -41 1 -82 -1 -90 -5
-16 -7 -78 -19 -125 -23 -74 -7 -122 -20 -159 -45 -21 -14 -51 -33 -67 -41
-35 -19 -139 -126 -139 -144 0 -7 10 -26 23 -42 12 -16 21 -30 20 -31 -2 -2
-3 -19 -3 -38 0 -29 4 -35 21 -35 12 0 31 10 43 23 28 30 64 52 101 62 17 5
33 9 38 10 4 2 10 4 15 5 4 1 15 1 25 0 10 -1 24 3 30 8 23 19 101 41 124 36
13 -4 29 -1 36 4 7 6 22 11 32 11 11 1 27 1 35 2 8 0 38 0 65 -1 60 -3 114 7
136 26 19 17 152 14 184 -4 11 -6 45 -20 76 -32 30 -11 70 -34 88 -50 18 -17
40 -30 49 -30 26 0 64 -30 58 -46 -7 -17 6 -18 23 -1 7 6 12 8 11 2 -5 -25 1
-45 13 -45 21 0 61 -41 48 -50 -6 -3 -11 -15 -10 -26 1 -10 1 -27 1 -38 -2
-16 -4 -17 -19 -5 -11 10 -14 10 -9 2 4 -7 3 -13 -3 -13 -5 0 -11 -10 -13 -22
-2 -15 -11 -24 -25 -26 -12 -2 -23 -13 -27 -26 -3 -13 -21 -37 -39 -53 -18
-16 -40 -39 -49 -52 -12 -17 -28 -24 -57 -26 -38 -3 -86 -26 -76 -36 2 -3 -12
-3 -31 -1 -20 3 -42 -1 -52 -9 -35 -28 -57 -36 -80 -28 -12 5 -22 5 -22 1 0
-10 -54 -29 -109 -37 -25 -4 -51 -14 -59 -22 -9 -8 -26 -13 -39 -10 -13 2 -26
0 -29 -5 -4 -5 -17 -7 -30 -4 -15 4 -24 2 -24 -5 0 -7 -11 -9 -30 -5 -16 3
-30 2 -30 -3 0 -8 -54 -24 -86 -26 -6 0 -19 -8 -28 -18 -18 -17 -56 -24 -56
-9 0 14 -61 6 -70 -8 -7 -11 -16 -12 -46 -2 -21 6 -40 9 -43 7 -2 -3 1 -5 7
-5 7 0 12 -5 12 -11 0 -5 -8 -9 -17 -7 -10 1 -24 -1 -32 -6 -10 -7 -12 -3 -6
15 7 21 6 22 -9 10 -13 -11 -22 -12 -43 -2 -20 9 -28 9 -34 0 -4 -7 -14 -9
-25 -4 -18 7 -18 8 1 15 14 6 15 9 4 9 -8 1 -19 -3 -25 -9 -8 -8 -177 -20
-314 -22 -69 -1 -203 24 -224 42 -9 7 -19 10 -23 7 -3 -4 -13 -2 -22 2 -9 5
-43 12 -76 16 -33 3 -63 12 -67 18 -4 6 -23 10 -42 9 -28 -2 -40 3 -58 24 -50
59 -64 72 -101 89 -54 25 -82 88 -53 118 8 8 12 17 9 21 -3 3 -12 -2 -20 -12
-12 -15 -12 -15 -7 0 3 10 -3 25 -15 37 -23 23 -27 52 -11 80 7 14 5 23 -10
36 -17 15 -17 19 -5 32 8 7 28 15 44 16 23 2 27 5 20 18 -6 12 -2 22 11 34 25
22 26 46 3 42 -10 -1 -20 3 -23 8 -9 18 41 17 54 -1 12 -16 13 -15 19 7 3 13
3 26 -2 29 -4 3 -10 12 -14 22 -6 17 8 19 33 3 13 -8 13 -7 1 8 -11 14 -11 20
-1 32 7 9 15 13 18 10 3 -3 11 0 19 6 10 9 17 8 30 -2 15 -12 16 -12 11 8 -5
20 -3 22 25 16 25 -5 29 -3 24 10 -7 20 21 31 39 16 10 -8 14 -8 14 0 0 6 8
11 19 11 10 0 24 6 30 14 8 10 27 13 57 11 32 -3 44 0 44 10 0 8 5 17 12 21 7
4 8 3 4 -4 -5 -8 0 -12 12 -12 21 0 32 18 32 51 0 11 6 19 13 18 25 -3 38 1
32 11 -3 6 1 10 9 10 9 0 25 9 35 19 11 11 23 16 27 13 3 -4 5 0 2 8 -3 8 3
22 12 30 24 22 32 60 12 60 -13 0 -12 4 5 23 25 27 22 37 -33 95 -24 25 -44
50 -44 55 0 14 -41 50 -73 64 -15 7 -27 17 -27 23 0 11 -80 10 -156 -3z m286
-327 c0 -5 -5 -10 -11 -10 -5 0 -7 5 -4 10 3 6 8 10 11 10 2 0 4 -4 4 -10z
m215 -1320 c-3 -5 -13 -10 -21 -10 -8 0 -12 5 -9 10 3 6 13 10 21 10 8 0 12
-4 9 -10z"/>


<path d="M1729 3799 c-7 -4 -18 -5 -25 -2 -7 3 -19 0 -26 -6 -42 -34 -110 -81
-118 -81 -6 0 -10 -4 -10 -10 0 -5 -6 -10 -14 -10 -12 0 -29 -36 -31 -67 0 -6
-8 -20 -18 -30 -9 -11 -14 -23 -10 -27 4 -4 0 -4 -10 0 -12 4 -17 1 -17 -10 0
-9 5 -16 12 -16 9 0 9 -3 0 -12 -13 -13 -16 -32 -4 -24 4 2 8 -4 8 -14 0 -10
-3 -17 -7 -14 -10 6 -22 -53 -13 -67 3 -6 0 -16 -7 -21 -10 -7 -11 -11 -2 -14
7 -3 9 -14 4 -32 -8 -26 -7 -37 6 -72 5 -14 8 -32 16 -92 2 -16 6 -31 10 -34
4 -4 4 -18 1 -31 -5 -18 1 -30 22 -49 19 -17 25 -28 17 -31 -18 -6 -16 -68 1
-83 8 -6 13 -17 10 -25 -3 -7 -1 -16 5 -20 6 -3 11 -14 11 -24 0 -10 15 -30
34 -46 19 -16 33 -32 31 -36 -3 -3 4 -14 15 -24 11 -10 17 -21 15 -26 -3 -4 0
-11 7 -16 7 -4 13 -15 13 -23 0 -8 6 -14 13 -13 7 2 12 -8 12 -28 0 -16 4 -28
9 -24 5 3 12 -3 16 -14 3 -11 12 -22 20 -25 8 -3 15 -12 15 -21 0 -8 3 -15 8
-15 4 0 35 -26 69 -58 81 -74 96 -87 130 -109 15 -10 37 -26 48 -36 11 -11 36
-31 55 -45 19 -15 37 -29 40 -32 41 -43 176 -120 212 -120 10 0 21 -7 25 -15
7 -19 77 -56 153 -80 30 -10 60 -22 66 -26 6 -5 19 -7 27 -3 9 3 22 2 29 -2
13 -8 88 -16 166 -18 30 -1 42 -5 43 -16 0 -10 2 -11 6 -2 5 13 53 17 53 5 0
-9 50 -10 65 -2 6 3 30 7 55 8 25 2 49 5 54 8 4 3 12 0 16 -8 7 -10 16 -10 42
-2 19 5 44 6 55 2 17 -6 30 -1 60 25 32 29 35 36 24 50 -7 9 -23 16 -35 16
-12 0 -27 5 -33 11 -7 7 -40 13 -75 14 -61 2 -157 23 -195 43 -10 5 -38 13
-63 17 -42 7 -175 69 -186 86 -3 5 -12 9 -20 9 -8 0 -26 8 -41 17 -14 10 -32
19 -40 20 -54 12 -83 23 -83 34 0 5 -6 9 -14 9 -8 0 -21 6 -28 13 -7 6 -28 20
-45 30 -18 10 -45 30 -60 45 -15 15 -42 39 -59 53 -17 14 -37 35 -43 47 -6 12
-20 22 -30 22 -19 0 -61 39 -61 57 0 6 -11 18 -25 27 -45 29 -80 71 -77 89 2
12 -4 20 -17 24 -11 3 -23 14 -26 24 -4 10 -10 19 -15 19 -4 0 -11 12 -15 27
-3 15 -11 31 -17 34 -6 4 -11 20 -12 35 -2 16 -14 47 -28 69 -15 22 -29 56
-33 75 -4 19 -13 38 -19 42 -6 4 -11 11 -11 15 -1 16 -28 88 -38 101 -5 6 -7
12 -4 12 3 0 0 12 -8 26 -9 18 -10 34 -4 53 10 27 8 79 -4 97 -3 6 0 22 7 35
22 42 27 77 13 83 -8 3 -5 11 11 24 12 11 22 25 22 31 0 6 8 11 18 11 13 0 14
2 4 9 -10 6 -6 11 15 20 15 6 39 27 51 46 13 19 29 32 37 29 7 -3 16 0 20 6 6
9 -3 10 -33 5 -40 -6 -41 -6 -77 44 -20 28 -44 52 -53 53 -54 5 -72 4 -83 -3z"/>
<path d="M4374 3786 c-3 -8 -12 -12 -20 -9 -8 3 -25 -3 -37 -14 -30 -27 -136
-63 -168 -56 -43 8 -45 -22 -4 -70 19 -22 33 -42 31 -45 -3 -2 6 -23 18 -47
29 -54 44 -113 48 -195 1 -8 8 -20 16 -26 17 -12 26 -71 26 -169 0 -126 -14
-183 -73 -292 -6 -10 -22 -43 -36 -72 -14 -30 -35 -61 -46 -69 -12 -8 -18 -20
-14 -30 3 -8 -3 -25 -13 -36 -11 -12 -34 -48 -52 -81 -17 -33 -38 -67 -46 -76
-8 -8 -14 -21 -14 -27 0 -7 -7 -12 -15 -12 -8 0 -24 -18 -35 -40 -11 -22 -27
-40 -35 -40 -8 0 -15 -5 -15 -11 0 -16 -72 -89 -87 -89 -7 0 -13 -4 -13 -10 0
-5 -5 -10 -10 -10 -6 0 -21 -10 -33 -23 -12 -13 -52 -47 -90 -76 -68 -53 -108
-101 -73 -88 10 4 27 1 39 -7 23 -14 59 -14 90 -1 15 6 16 10 5 16 -11 8 -11
10 0 18 8 4 12 12 10 17 -1 5 12 10 31 12 23 2 35 9 38 22 5 19 39 37 50 26 3
-3 11 1 17 10 6 8 26 17 44 19 18 2 39 11 48 20 8 8 20 15 26 15 6 0 9 3 5 6
-8 9 18 34 36 34 8 0 23 12 32 28 26 39 65 73 76 66 5 -3 29 11 52 31 59 51
65 55 76 55 6 0 8 6 6 13 -3 7 4 19 16 27 12 8 30 22 39 30 9 8 25 20 36 26
10 7 18 19 18 28 -1 8 8 18 19 22 31 10 43 21 109 99 20 23 24 35 16 43 -8 8
-6 18 6 37 9 14 14 30 11 35 -3 5 4 23 16 39 12 16 22 40 23 53 1 13 7 22 14
21 7 -2 11 0 11 5 -4 27 4 53 26 76 13 14 21 26 17 26 -4 0 0 5 8 11 11 8 9 9
-10 3 -23 -6 -24 -5 -11 10 9 10 11 20 5 24 -5 4 -10 15 -12 25 -3 16 0 17 19
7 12 -7 19 -8 15 -2 -3 6 -1 12 6 15 7 2 5 3 -4 2 -9 -2 -24 5 -32 14 -14 16
-17 32 -14 106 0 17 -1 45 -4 63 -4 25 -2 32 10 32 13 0 13 3 4 12 -7 7 -12
20 -12 30 0 10 -5 18 -10 18 -6 0 -8 11 -4 25 4 15 0 34 -8 48 -9 13 -12 30
-8 41 4 11 0 33 -9 50 -8 17 -14 43 -13 57 1 16 -4 29 -13 33 -9 3 -15 18 -15
35 0 26 -4 31 -35 37 -19 3 -35 10 -35 15 0 5 -6 9 -13 9 -8 0 -22 9 -32 20
-21 24 -34 25 -41 6z"/>
</g>
</svg>
